<svg enable-background="new 0 0 223.4 206.1" viewBox="0 0 223.4 206.1" xmlns="http://www.w3.org/2000/svg"><path d="m204.6 194.1c-3.4-.4-6.7-.5-9.8-1.7-.8-.3-1.8-.3-2.7-.5-2.1-.5-3.3-1.3-2.6-3.8 0-.1 0-.3-.1-.4-.2-.7-.3-1.4.4-2 .2-.2.4-.5.5-.8.4-1.7 1.7-2.1 3.2-2.4.5-.1 1.1-.2 1.7-.2s.9-.2 1-.9c0-.5.1-1 .2-1.5 0-.1 0-.1 0-.2.9-.9 1.7-2 2.6-2.8.6-.5 1.3-.8 2.1-1 .7-.2.7-.6.8-1.1.1-3.5.1-6.9.1-10.4 0-1.7-.1-3.4-.2-5.1 0-.3-.1-.7-.2-.9-.7-1.6-.4-3.2-.2-4.8 0-.2 0-.4 0-.7.1-2.4.1-4.7.3-7.1.1-1.6.5-3.1.8-4.7.1-.9.2-1.9.2-2.8.2-2.2.3-4.4.4-6.7.2-3.6.3-7.2.5-10.8.1-3.2.2-6.5.3-9.7.1-2.8.3-5.7.5-8.5.1-2 .4-4 .6-6 .1-.9.1-1.9.2-2.8.2-2.3.5-4.5.6-6.8.1-.8-.2-1.5-.1-2.3.1-2.1.5-4.2-.2-6.3-.1-.4-.2-.7-.8-.7-1.6.1-3.1.1-4.7.2-1.9 0-2.7-.9-2.7-2.6 0-2.6-.1-5.1-.1-7.7 0-1 .1-1.9.2-2.9.1-.9.9-1.5 2.2-1.6 1.4-.1 2.7-.4 4.1-.5.7-.1 1.5 0 2.2.2 2.2.7 4.3.1 6.4 0 1.3-.1 2.7.1 4 .2.6 0 1.2.1 1.7.3 1.3.4 1.7.9 1.7 2.2.1 2.9.1 5.9.1 8.8 0 1.9-1.4 3.4-3.4 3.4-1.5 0-2.9-.4-4.4-.6-.2 0-.6.2-.6.4-.1 1.5-.2 3-.3 4.4-.1 1.7-.4 3.4-.4 5.1-.1 2.6-.1 5.2-.1 7.9v.7c.1 4.2.2 8.3.3 12.5 0 1.6.2 3.2.1 4.9 0 3.1-.2 6.1-.2 9.2-.1 6.1-.1 12.1-.2 18.2-.1 3.1-.3 6.2-.4 9.3v3.1c0 4.6.1 9.2.1 13.7 0 2-.2 4-.2 5.9v4.1c0 .5.1.7.8.7 1.3-.1 2.7-.2 3.9.9.7.6 1.1 1 .8 2-.2.5 0 1.1.2 1.7 0 .2.4.4.7.4 1 .1 2 0 3 0 1.1 0 2 .8 2.1 1.9 0 .3.1.6.2.9.2.8.4 1.5-.1 2.4-.4.7-.2 1.6-.1 2.5.1 1-.6 1.5-1.2 2-.1.1-.3.1-.3.1-1.7-.6-3.1.4-4.6.7-3.6.7-7.1 1.8-10.9 1.4m3.3-16.2c.7.1.9-.2.9-.8-.1-1.9-.1-3.8-.2-5.7v-.1c-.2-2.5-.3-4.9-.2-7.4.2-3.1.6-6.1.9-9.2.3-2.8.2-5.5.3-8.3.1-2 .3-4.1.4-6.1 0-1.7-.1-3.3-.1-5 .1-7.4.3-14.9.3-22.3 0-4.4-.2-8.9-.3-13.3 0-1.9-.2-3.8-.1-5.7.1-2.5.3-5 .4-7.5.1-2.8.1-5.7.1-8.5 0-.6-.2-.7-.8-.5-.7.2-1.6.4-2.3.4s-1 .2-.9.9v6.2c-.1 1.5-.3 2.9-.4 4.4s-.1 3-.2 4.5c-.1 1.9-.3 3.8-.4 5.7-.2 2.7-.4 5.4-.4 8.2-.1 8.3 0 16.5-.6 24.8-.1 1.2-.1 2.4-.2 3.6-.3 2.7-.6 5.4-.8 8.1-.1.7.1 1.4.2 2.1 0 4.5.1 9 .1 13.6 0 .9.1 1.8.2 2.7 0 .5.2 1 .2 1.5-.3 1.8-.5 3.6-.4 5.4.1 2.1 0 4.3 0 6.4 0 1.5.1 1.5 1.6 1.6 1 .1 2 .4 2.9.6-1.4-.1-2.7-.3-4.1-.4-.1 0-.3.1-.5.2.1.1.2.4.4.4 1.3.2 2.7.4 4 .6.3 0 .7-.2 1.1-.2-.7-.6-.9-.7-1.1-.9m-8.6-108.3c.1.7.1 1.3.2 2 .1 1.2.1 2.3.2 3.5 0 .8.6 1 1.3 1 1.9-.1 3.7-.4 5.6-.5 2.1-.1 4.3-.1 6.4-.2.2 0 .5.1.7 0 1-.3 1.9-.2 2.8.1.4.1 1.1-.1 1.3-.3.4-.5.7-1.2.8-1.9.1-.5-.2-1.1-.3-1.6-.4.1-.8.3-1.1.2-.5-.1-1-.5-1.5-.7.3-.4.1-1.5 1.1-.7 0 0 .2-.2.2-.3.1-.1.2-.3.3-.3 1.1-.1.7-.8.5-1.4-.1-.4-.2-.9-.2-1.3-.2-1.3-.9-2.2-1.9-2.2-.6 0-1.2 0-1.8 0-.3 0-.5 0-.8 0-.1 0-.2 0-.3 0 .1.1.1.3.2.3.2.2.6.2.8.4.7.5.7 1.1 0 2.3-.8 1.3-3 1.7-4.1.8-.2-.2-.4-.5-.4-.8.1-.7.1-1.5.4-2.2.1-.3.8-.4 1.2-.6.1 0 .1-.1.2-.2s.2-.2.3-.3c-.1 0-.2-.1-.3-.1-1.4-.1-2.8-.2-4.2-.2-1.8 0-3.7.2-5.5.3-1.6.1-1.9.5-1.9 2 0 .5-.2.9-.2 1.4 0 .6-.1 1 0 1.5m20.9 115.6c-.2-.5-1-.9-.3-1.5.1-.1.2-.4.2-.4-.2-.2-.5-.4-.8-.4-.7 0-1.5 0-2.2.1-.6 0-1.5-.2-1 .9 0 .1 0 .2-.1.3-.7 1.2-1.9 1.8-3.1 2-2.6.3-5.3.8-7.9.6-.6-.1-1.1-.1-1.7-.2-1.3-.1-2.5-.7-3.8.3-.5.3-2 0-2.5-.6-.7-.7-.9-1.9-1.2-2.9-.1-.4-.2-.5-.6-.4-.6.1-1.3.2-1.9.4-.9.2-2 1.4-1.8 2.2s.4 1.5.8 2.2c1 1.6 2.8 2.1 4.5 2.1 2.3.1 4.6-.3 7-.5 1.1-.1 2.2-.2 3.3-.3 2.3-.3 4.7-.6 7-.9 1.5-.2 3.1-.5 4.6-.8 1.2-.3 1.8-.9 1.5-2.2m-18.8 5.4c-1.9-.1-3.8-.2-5.7-.2-.3 0-.7.1-1 .2.4.3.7.7 1.1.9.2.1.5 0 .8 0 1.8.2 3.6.4 5.4.6 1.9.3 3.8.3 5.7-.1 2.7-.7 5.4-1.2 8.2-1.8 1.1-.3 2.5-.3 3.1-1.5.1-.2.2-.3.3-.4-.2 0-.4-.1-.5 0-3.3 1-6.8.6-10.2 1.1-1.4.2-2.9.1-4.3.2-.2 0-.4.2-.6.3.2.1.4.2.6.2 1.4 0 2.8-.1 4.2-.1.4 0 .8.3 1.2.4-.4.1-.8.3-1.2.3-2.3-.1-4.6-.1-7.1-.1m-3-6.3c.1 0 .3-.1.4 0 .2.1.3.5.5.5 1.4.3 2.8.7 4.2.8 2.1.1 4.1.4 6.2-.1 1.1-.3 2.2-.6 3.3-.9.7-.2 1.1-.9.9-1.5 0-.2-1-.3-1.5-.3-1.4.1-2.9.4-4.3.5s-2.9 0-4.3 0c-1.3 0-2.6-.1-3.7-.6-.6-.3-1.2-.5-1.8-.8-.3-.2-.6-.3-.6.2v2.4c0-.2.4-.2.7-.2m2.5-106.9c.4-.1.8-.2 1.2-.2 1.7 0 3.5.2 5.2 0 2.3-.3 4.6-.8 6.9-.6.2 0 .5 0 .7-.1.5-.3.8-.1 1.1.3.2.2.5.5.7.5.7.1 2-.8 2.2-1.5.1-.2 0-.5 0-.7-.2.1-.5.2-.6.4-.4.9-1.2.7-2 .6-.5-.1-1.1-.3-1.6-.3-.8 0-1.6.1-2.5.1-1.8.1-3.6.1-5.5.2-.1 0-.3.1-.4.1-2.1.4-4.3.5-6.4.2-.3 0-.7-.4-.7-.7-.2-.7-.2-1.4-.2-2.1 0-2.1.1-4.3 0-6.4 0-1.2.1-2.2 1.2-3 .1-.1.1-.3.1-.3-.4-.3-1.7.1-1.9.5-.3.9-.5 1.8-.5 2.7 0 2.5 0 5 .1 7.5.1 2.7-.1 2.9 2.9 2.8m5.5 115.6c-.7.1-1.4.1-2.2.2-.2 0-.3.1-.5.1.2.1.3.2.5.2 1.8 0 3.6-.1 5.4-.1h.2c2.8-.7 5.5-1.3 8.3-2 .3-.1.5-.4.7-.6-.3-.1-.7-.4-1-.3-1.6.3-3.1.6-4.6 1-2.2.4-4.4 1-6.8 1.5m10.5-128.3c.4.6 1.2 1.1 1.3 1.8.3 1.8.4 3.7.6 5.5 0 .3 0 .5.1.8 0 .1.2.3.3.4.1-.1.2-.3.2-.4 0-1.2-.1-2.4-.2-3.7-.1-1.2-.1-2.4-.2-3.6-.1-.7-.2-1.4-1-1.6-.5-.1-1-.2-1.5-.2-1.5 0-2.9.1-4.4.2-.4 0-.8.2-1.2.4.4.1.8.3 1.3.3 1.5 0 3 0 4.7.1m-3.5 116.3c-.2-.1-.3-.2-.5-.3-.6-.1-1.3.3-1.8-.4-.1-.1-.6.2-1 .3.2.1.4.2.6.3.1 0 .1.1.2.1-.1 0-.2 0-.3.1-1 .2-1.9.5-2.9.7-.2 0-.3.1-.5.1.2.1.4.3.6.3 1.3-.1 2.6-.3 4-.5.5-.1 1.2.2 1.6-.7m-1.6-113.7c.2.2.3.4.6.5.2.1.5.2.7.3.1-.2.2-.5.3-.7 0-.2-.1-.4-.1-.6-.2-.6-1.4-1-1.9-.7-.1.1-.1.4-.1.5.1.2.3.3.5.7m-8.8-3h1 .4c0-.1 0-.4-.1-.4-.2-.1-.5-.3-.7-.3-.6 0-1.2.1-1.7.2-.4.1-.7.3-1 .5.3.1.6.2.9.3.2-.1.6-.2 1.2-.3m-5.4 128c.1.2.1.4.2.5 1.1.2 2.3.4 3.4.6.1 0 .2-.2.2-.2-.1-.1-.2-.3-.3-.3-1.1-.3-2.3-.5-3.5-.6m6.6-10.1c.2-.2.5-.3.7-.5-.3-.1-.5-.2-.8-.2-.1 0-.1 0-.2 0-.5.1-.9.3-1.4.4.4.1.8.2 1.3.3zm6.7-114.3c-.3 0-.6 0-.9 0 .2.2.3.4.5.6h.2l1.2.3c-.2-.3-.5-.6-1-.9m-19.3 122.2c-.3-.1-.6-.2-.9-.3.1.3.2.7.5.8.4.2.8.3 1.2.4-.2-.3-.4-.5-.8-.9m9-12.7c-.2 0-.5-.2-.6-.1-.3.1-.5.3-.7.5.1.1.2.3.2.3.4-.2.7-.4 1.1-.7m11.7 2.5c-.1.1-.3.2-.4.3.1.1.2.1.4.2s.5.2.7.2.5-.2.7-.3c-.2-.1-.3-.2-.5-.2-.3-.2-.6-.2-.9-.2m-20.9 9c.2.1.4.2.5.2 0-.2 0-.4-.1-.5-.1-.2-.3-.3-.5-.5s-.4-.3-.5-.5c0 .3 0 .5.1.8.1.2.3.3.5.5m9.7-8.1c0-.1-.1-.3-.1-.4-.3-.1-.7-.2-1.1-.4 0 .1-.1.3 0 .3.3.3.6.4 1.2.5m-2.2-2c-.3.1-.6.2-.8.2.1.1.2.3.4.3.4 0 .8-.1 1.2-.1-.2-.1-.4-.3-.8-.4m3 3.1c-.1-.8-.8-.4-1.2-.5 0 0-.1.1-.1.2.4.1.7.2 1.1.4 0 0 .1 0 .2-.1m16.2-111.7c-.2 0-.3-.1-.5-.1 0 .2-.1.4-.1.5.1.1.2.2.4.3.1-.2.2-.4.2-.7m-7.5-3.3c-.2 0-.3-.1-.5-.1 0 .2 0 .4-.1.6.3-.1.5-.2.6-.5m9.4 122.4c0-.2.1-.4.1-.6-.1.1-.4.1-.4.2s.1.3.3.4m-11.5-9.3c-.1.2-.3.3-.4.5h.6c-.1-.1-.1-.3-.2-.5z"/><path d="m212.3 25c-.1.5-.1.8-.2 1.2v.3c.7 1.4.3 1.7 0 3.2-.1.6-.3 1.3-.4 1.9-.2 3-.5 5.9-.7 8.9-.1 1.2-.2 2.3-.2 3.5v.4c.8 2.6.2 5.3.1 7.9-.1 1.8.1 3.7.1 5.5 0 1.4.1 2.8.2 4.3 0 .1-.1.3-.2.4-.1-.1-.3-.3-.4-.4-.1-.5-.2-1.1-.2-1.6-.1-1.1.2-2.4-.2-3.4-.9-2.2-.7-4.4-.4-6.5.5-3.8.2-7.6.4-11.4.1-2.1.3-4.1.4-6.2.2-2.5.6-4.9 1.2-7.3.7-3 1.5-5.9 3.1-8.6 1.3-2.3 3-4.4 4.5-6.5.1-.1.2-.2.2-.4.1-.2.1-.4.1-.6-.2.1-.4.1-.5.3-1.3 1.6-2.5 3.2-3.7 4.9-2 2.8-3 6.1-4.4 9.2-.3.5-.7 1.1-1.2 1.4-.7.4-1.8-.3-1.9-1.2-.1-.7-.3-1.2-1-1.5-.1 0-.1-.2-.2-.4.1 0 .2.1.4.1.8-.1.4-.5.3-.8-.9-2-1.9-4-2.8-6-.2-.5-.4-.9-.7-1.4 0-.1-.2-.1-.3-.2 0 .1-.1.2-.1.3.3.8.6 1.7.9 2.5.8 2.3 1.5 4.7 2.3 7 .2.7.5 1.3.7 2 0 .1.3.6-.3.3 0 0-.3.3-.2.4.3 2.2.5 4.3.8 6.5 0 .2.1.5.1.7v4.7c0 1.6-.2 3.1-.2 4.7 0 2.3.1 4.6.1 6.8 0 2.5-.2 4.9-.2 7.4 0 .6.1 1.2 0 1.7-.2 1.1-.4 2.1-.6 3.2 0 .2-.2.3-.3.4-.1-.2-.3-.4-.3-.5 0-.5.2-1 .2-1.5 0-1-.1-2-.1-3 0-.4.2-.8.2-1.3 0-2.1-.1-4.1-.1-6.2 0-.2 0-.3 0-.5 1-2.2.5-4.5.6-6.8.1-1.2 0-2.4 0-3.7s.2-2.5.2-3.7c0-1.3-.2-2.6-.4-4-.1-.4-.5-.8-.7-1.2-.3-.5-.4-1 .2-1.4.2-.2.4-.5.3-.8-.7-2.9-1.4-5.8-2-8.7-.6-2.8-1.9-5.1-4.3-6.9-.1 0-.1-.2-.1-.2-.4-1-1-1.6-2.2-1.1-.1.1-.5-.2-.6-.3-.1-.2-.2-.6-.1-.8.4-.5.4-.7-.3-.7-.5 0-1-.1-1.4-.3-.7-.4-.7-1.5 0-2.3 1.5-1.8 3.3-3.3 5.5-4.4 2.5-1.3 5.2-1.9 8-2.2 2.7-.3 5.3.2 7.9.7 1.8.4 3.3 1.5 4.8 2.6.7.5 1.6.9 1.6 2 0 .5.1 1.2-.2 1.6-1.1 1.5-2.3 2.9-3.5 4.3-2.9 3.4-5.6 6.9-6.5 11.3-.5.8-.8 1.5-1.1 2.4m5-20.9c-.1 0-.1 0-.2 0-1.8-1.1-3.8-1.3-5.8-1.6-1-.2-2.1.4-3.2.2-.5-.1-1.1.1-1.6.3-1.9.6-3.9 1.2-5.2 2.8-.3.4-.8.6-1.3.9-.7.4-.9 1.2-.3 1.6s1.3.9 2 1c2 .3 4 .5 6.1.6 2.7.1 5.3-.3 7.9-1.3 1.1-.5 2.3-.7 3.1-1.6.4-.5.6-1 .3-1.6-.2-.4-.2-1.3-1.1-.8-.1 0-.3-.2-.4-.3.1-.1.3-.3.4-.4-.6-.3-1.2-.6-1.8-.9 0 0-.2.1-.2.1 0 .1.1.2.1.3.3.1.8.4 1.2.7m-9.4 17.2c.4.9.6 2 1.2 2.8.7 1 1.1.8 1.5-.4 1.1-2.8 2.1-5.7 3.9-8.2 1-1.4 1.9-3 2.9-4.5.1-.1.1-.3.2-.4-.2 0-.4-.1-.5 0-1.9.3-3.9.7-5.8.9-2.1.2-4.3.3-6.5.3-.6 0-.9.3-.7.8.4 1.2.7 2.4 1.2 3.5.8 1.8 1.6 3.4 2.6 5.2m11.4-17.5c.5.2 1.1.3 1.6.5.1 0 .3-.1.5-.1-.1-.1-.2-.2-.4-.3-.4-.4-.8-.7-1.3-1s-.9-.8-1.4-.9c-1.5-.5-3.1-.8-4.8-.6-.2 0-.3 0-.5.1.1.1.2.3.4.4s.4.1.6.1c1.2.3 2.3.6 3.5 1 .7 0 1.2.4 1.8.8m-14.6 6.9h1.3c.3 0 .5-.2.8-.2-.3-.1-.5-.3-.8-.3-1.3-.2-2.6-.2-3.9-.4-.7-.1-1.3-.5-1.9-.7-.2-.1-.5 0-.7 0 .6.2.2 1.2 1.1 1.2 1.3.1 2.6.3 4.1.4m-3.5-6.6c.4-.2.8-.4 1.2-.6 1.2-.5 2.3-1 3.5-1.3.9-.3 1.9-.4 2.9-.6.2 0 .4-.3.6-.4-.2 0-.4-.2-.6-.1-.9.1-1.8.2-2.7.4-2 .4-3.8 1.1-5.2 2.6 0-.1.1 0 .3 0m18.1 4.4c.1-.5-.1-.5-.6-.4-2.1.7-4.2 1.3-6.3 1.9-.2.1-.5.1-.7.2.3.1.5.2.8.2 2.4.1 4.5-.8 6.8-1.9m-22.6-.5c.1-.6.3-1.1.4-1.7 0 0-.5-.2-.5-.2-.4.8-.8 1.5-1 2.3 0 .1.5.4.8.6 0-.2.1-.5.2-.7 0-.1 0-.1.1-.3m5.1 4.6c.3.2.6.5.7-.2 0-.1.1-.1.1-.2.1.1.2.2.2.2-.2.5-.3.9.4.9.1 0 .3-.7.2-1s-.5-.7-.8-.8c-.4-.1-.9.1-1.4.1.2.2.3.4.5.7 0 0 0 .1.1.3m-3.3-5.1c0 .3-.1.6 0 .9 0 .1.3.2.4.2-.1-.3-.2-.5-.2-.8 0 0-.1-.1-.2-.3m-.3-1.2v.6c0 .1.2.1.3.2.1-.2.2-.5.3-.7 0 0-.3-.1-.6-.1m22.2-.9c-.1-.2-.1-.5-.2-.7-.1 0-.2 0-.3.1.1.2.2.4.5.6m-13.5 23.8c-.2.1-.3.2-.5.3.1.1.2.3.4.4.1-.1.2-.4.1-.7m4.9-1.6c.1.2.1.4.2.6 0-.1.1-.1.1-.2 0-.2-.1-.5-.1-.7-.1 0-.2.1-.2.3z"/><path d="m217 17.7c.1-.1.2-.2.3-.3 0 .1.1.2.1.3s-.2.2-.3.3c-.3.2-.5.5-.8.7.2-.4.4-.7.7-1z"/><path d="m218.5 16.1c0 .1.1.3 0 .3-.1.1-.3.1-.5.1.2-.1.3-.2.5-.4z"/><path d="m203.8 70.1c-.2-.4-.3-.9-.6-1.1-.9-.7-1.2-1.4-.9-2.4.2-.7 1.3-1.4 2.1-1.4.6 0 1.3 0 1.9.2 1.2.5 1.5 2 .6 2.9-.6.6-1.2 1-2.1 1-.2 0-.4.2-.6.2.2.1.4.2.5.3.2.3.6.6.6.9 0 .2-.4.5-.7.7-.1 0-.5-.3-.6-.5-.2-.1-.2-.4-.2-.8m1.7-2c-.5-.2-1-.4-1.5-.5-.1 0-.4.3-.6.4.1.2.3.4.4.5.6.1 1.2.2 1.7.2.1-.2.1-.4 0-.6m1-.7c0-.5 0-.5-.7-.3-.2.1-.3.2-.5.3.3.1.5.2.8.3.2.1.3 0 .4-.3m-1.6-.8c.2-.1.3-.2.5-.2-.1-.2-.3-.4-.4-.5-.2 0-.5.1-.7.2.1.1.3.3.6.5m-1.5-.1c-.2-.7-.5-.1-.6 0-.1.3-.1.6-.2.9.2-.1.3-.2.5-.3s.2-.3.3-.6m1 4.5c.2-.1.4-.1.6-.2-.2-.2-.3-.3-.5-.5-.1.2-.2.4-.1.7m-.5-4.4c-.1.2-.2.5-.3.7.2-.1.5-.1.7-.2 0-.2-.2-.3-.4-.5z"/><path d="m214.9 70c.1.5.1 1 .2 1.5 0 0-.1.1-.2.1-.9 0-1.8.1-2.8 0-.3 0-.7-.3-.8-.5-.1-.3 0-.7.2-1 .1-.2.5-.2.8-.2.1 0 .3.1.3 0 .6-.8.6-.1.7.2 0 0 .3 0 .5-.1.4-.2.7-.5 1.1 0-.3.1-.4.3-.6.4-.1.1-.3.3-.4.4.1 0 .2.1.2.1.2-.1.5-.1.6-.2.2-.2.2-.4.2-.7m-3 .6c.1.2.1.5.2.7.2-.1.3-.1.5-.2-.4 0 .1-.9-.7-.5z"/><path d="m211.1 73.7c1.4-.2 2.8-.3 4.1-.5.1 0 .3.1.4.2-.1 0-.3.1-.4.1-2.5.2-5 .4-7.5.7-.5.1-1 .3-1.5.5-.9.2-1.8.4-2.7.6-.1 0-.3-.1-.4-.2.1-.1.2-.2.3-.2 1.9.1 3.5-1.2 5.4-1.1.8.1 1.5 0 2.3-.1z"/><path d="m208.9 71.6c-.1-.7-.2-1.3-.2-1.9 0 0 .3-.1.5-.1.1 0 .2.1.3.1.3.1.8 0 .9.2.3.5.4 1.1.6 1.6 0 .1-.2.3-.3.4-.1-.1-.2-.2-.3-.3-.2-.2-.3-.4-.5-.6s-.4-.5-.6-.7c-.1.4-.2.7-.3 1.1 0 .2 0 .2-.1.2z"/><path d="m210 73.1c-1.3-.5-2.5 0-3.7.1-.6 0-1.2 0-1.8-.1 0 0-.1-.1-.1-.1.1-.1.2-.2.3-.2.3 0 .6.2.9.2.8 0 1.6-.1 2.4-.2.7-.1 1.4-.1 2.1-.1.8-.1 1.5-.2 2.3-.3.2 0 .4.1.5.1-.2.1-.3.2-.5.3-.7 0-1.5.2-2.4.3z"/><path d="m201.6 69.7c.2.2.3.3.4.4.4.4.7.8.9-.1 0-.1.1-.2.1-.3 0 .1.1.2.1.3.1.5.1 1 .2 1.5 0 .1-.2.2-.3.2-.2-.1-.4-.2-.5-.3-.4-.4-.6-.4-.7.2 0 .1-.2.2-.3.3-.1-.1-.2-.3-.2-.4.1-.5.2-1.2.3-1.8z"/><path d="m208 71.4c-.2.4-.3.6-.7.2-.1-.1-.1-.1-.2-.1.1 0 .3-.1.3-.1 0-.3-.1-.5-.2-.8 0-.3 0-.6 0-.9 0-.1.3-.1.5-.2-.1.1-.2.3-.2.4 0 .3 0 .5.1.8.2.2.4.4.4.7z"/><path d="m216.6 74.5c-.1 0-.1 0-.1 0 .1-.2.1-.5.2-.7h.3c-.2.2-.3.4-.4.7z"/><path d="m49.7 93.4c-.3-.2-.5-.3-.8-.5-.4-.2-.7-.4-1.2-.4-1.1-.1-2.2.1-3.3 0-.2 0-.4 0-.5.1-.7.4-1.5.7-2.3.6-.1 0-.2 0-.2 0-.5.5-1 1-1.3 1.6-.1.2 0 .3.3.4.8 0 .9.1.9.9 0 .7 0 1.4-.2 2.1-.2.9 0 1.8 0 2.7v7.7c0 .5 0 1 .1 1.5.1.3-.2.7 0 1 .1.3.1.7 0 1-.1.4-.1.7.4.9.1 0 .3.3.3.4 0 .5.2.8.4 1.2.3.6.2.8-.4 1-.3.1-.6.2-.9.3 0 0-.1.1-.1.1s.1.1.1.1c.2 0 .5.1.7 0 .2 0 .4.1.5.3.1.1.1.3 0 .4-.3.4-.7.7-1.3.8-.1 0-.5.1-.2.4.2.2.2.5-.1.7s0 .5.1.6c.2.2.5.4.8.5.1.1.2.2.3.3.1.3.1.6.1.9s-.3.4-.6.5c-.1 0-.2.2-.4.2s-.2.1-.2.3c0 .4-.1.7-.1 1.1s-.2.6-.5.7c-.2.1-.4.4-.7 0-.9 0-1-.7-1.1-1.3s-.2-1.1-.4-1.7c-.2-.4-.5-.6-.8-.9-.3-.4-.5-.8-.8-1.2-.2-.2-.1-.4.1-.6.3-.4.8-.4 1.3-.5.1 0 .2 0 .2.1 0-.1-.1-.1-.1-.2 0-.2-.3-.3-.1-.5-.1-.1-.1-.2-.2-.2-.6-.4-1.3-.8-1.8-1.3-.1-.1-.3-.4-.2-.6 0-.3.3-.5.6-.5.4 0 .7.1 1.1.1.3 0 .7.1 1 0 .2 0 .3-.2.3-.4-.2-.5 0-1.1-.4-1.6s-.4-1.1-.5-1.6c-.2-.9-.3-1.8-.4-2.7 0-.1 0-.3 0-.4 0-1.3 0-2.6 0-3.9 0-1.2.2-2.4.7-3.5.2-.5.4-.9.5-1.4s.2-.9.3-1.4c0-.1.1-.3.1-.4-.1.1-.2.2-.3.3-.2.3-.3.6-.4 1 0 .3-.3.7-.4 1s-.3.6-.3 1c0 .7-.3 1.3-.5 2-.2.8-.6 1.5-.8 2.3-.2.6-.3 1.2-.4 1.8-.1.5-.1 1.1-.3 1.6-.3.6-.3 1.3-.4 1.9s-.3 1.3-.4 1.9c-.1.4-.2.9-.3 1.3-.1.8-.1 1.5-.3 2.3-.1.5-.1 1-.2 1.5s-.2 1-.3 1.5v.3c-.1.8-.1 1.6-.2 2.4-.1.7-.3 1.4-.5 2.1-.1.6-.2 1.2-.4 1.8-.2.5 0 1.1-.2 1.6 0 .1.1.2.1.3.1 1.1.3 2.2.5 3.3.1.6.3 1.2.3 1.9 0 .3.2.6.4.7.4.1.4.4.3.6s-.2.5-.6.5c-.4-.1-.4.1-.3.5.1 1.1.2 2.1.3 3.2v.3c.2.7.2.7-.4 1-.3.2-.3.3-.1.5.5.5.9 1.1 1.4 1.6.1.1.3.2.5.3.3.1.3.2.3.5 0 .2-.2.3-.4.4-.6.3-1.2.1-1.7-.1-.9-.2-1.8-.5-2.6-1-1-.6-1.8-1.3-2.6-2.1-.3-.3-.1-.8.3-1 .4-.1.2-.4.2-.5-.2-.5-.4-1-.6-1.5-.3-.6-.1-1 .6-1.1.2 0 .5-.1.7-.1.4 0 .5-.2.5-.5.1-.7.1-1.3.2-2 .1-.6 0-1.3.3-1.9.1-.1 0-.3 0-.5 0-.4 0-.7 0-1.1s0-.7 0-1.1c0-.3 0-.7 0-1 .2-1.1.1-2.1.1-3.2 0-.6 0-1.1.1-1.7.1-.4.1-.8 0-1.3 0-.6 0-1.1 0-1.7 0-.3 0-.6 0-.9 0-.2.2-.5.1-.7-.1-.4.2-.8-.1-1.1-.2-.2.3-.4 0-.5.1-.5.1-1.1.2-1.6 0-.1.1-.2.1-.4 0-1 .2-2.1.4-3.1 0-.2 0-.4 0-.5 0-.7.2-1.4.3-2.1 0-.1 0-.2.1-.4.1-.3.1-.5.2-.8 0-.1.1-.1.1-.2 0-1 .3-1.9.6-2.9.3-1.4.8-2.8 1.2-4.1.6-1.8 1.2-3.6 2-5.3.1-.3.2-.5.4-.7.5-.5.5-1.1.3-1.7-.1-.4-.1-.8-.1-1.1s-.2-.5-.4-.5c-.8-.2-1.2-.8-1.4-1.4-.3-.8-.6-1.7-.8-2.6-.1-.7-.5-1.1-1-1.5-.5-.5-1.1-.9-1.6-1.3-.6-.5-1.3-.8-2.2-.8-1 0-1.9.1-2.8.4-.4.1-.2.2-.2.5.1.8.4 1.6.4 2.5 0 .7.1 1.4.1 2.1 0 .4.2.9.2 1.3v.9c.1 1.2.1 2.5.1 3.7 0 .1 0 .2.1.2.1-.1.1-.2.2-.2v-.1c0-.8.1-1.5.1-2.3 0-.4 0-.7-.1-1.1-.1-.3-.1-.7.1-1 .1-.2 0-.5 0-.8.1-.2-.2-.5 0-.7-.3-.9-.1-1.9-.1-2.9 0-.5.2-1 .3-1.5.1-.4.3-.5.7-.5.5 0 .7.1.8.5.2.7.4 1.3.5 2v.4c-.3 1.2-.1 2.5-.2 3.7 0 .2 0 .4.1.5.4.6.3 1.2.1 1.8-.1.7-.1 1.4.1 2 .1.5.2.9.3 1.4 0 .1-.1.2-.1.3-.4.4-.5.9-.5 1.4 0 .6-.1 1.1-.1 1.7 0 .4.1.7.4 1 .4.3.7.7 1.1 1.1.5.5.4.7-.2 1-.2.1-.5.2-.8.2-.5 0-.9.1-1.4.2-.3.1-.6 0-.9-.1-.8-.3-1.6-.4-2.4-.7-.4-.2-.8-.3-1.1-.5-.3-.1-.5-.3-.7-.5-.2-.1-.3-.3-.2-.6.1-.4.4-.5.7-.5s.7-.1 1 .1h.3c.2 0 .2 0 .2-.3-.5-.5-.6-1.4-.5-2.4 0-.6.3-1.2.2-1.8 0-.8 0-1.7-.2-2.5 0-.1 0-.1 0-.2 0-.9-.1-1.8-.2-2.7 0-.3 0-.6 0-.9 0-.6-.1-1.2-.2-1.7 0-.1 0-.2 0-.3.1-.8-.3-1.4-.4-2.2 0-.3-.2-.3-.3-.2-.5.4-1.2.6-1.3 1.4-.1.6-.4 1.1-.6 1.6-.2.7-.4 1.4-.7 2-.1.3-.3.6-.4.8-.3.6-.5 1.2-.8 1.8-.1.4-.1.8-.5 1.2-.3.3-.3.8-.4 1.2-.1.5-.3 1-.4 1.6-.3 1.2-.5 2.5-.6 3.7-.1.9-.2 1.9-.4 2.8-.1.5-.1 1-.2 1.5-.1.9-.2 1.8-.4 2.7-.1.4-.3.9-.4 1.3v.3c0 .1 0 .1.1.2 0 0 0-.1.1-.1.4-.9.9-1.8 1.4-2.7.1-.3.4-.5.7-.6.2-.1.3 0 .4.1.1.2 0 .4-.2.5h-.2c-.1.1-.4.3-.4.5 0 .8-.3 1.5-.6 2.1-.2.4-.3.9-.4 1.4-.2.7-.4 1.3-.6 1.9-.2.7-.5 1.5-.8 2.2-.1.5-.2 1-.2 1.4 0 .7-.2 1.4-.4 2.1-.1.2-.1.3.2.4.1.1.3.3.3.5.2.7.6 1.2 1 1.7.1.1.2.1.4.2 0-.1-.1-.2-.1-.3s0-.3 0-.4c0-.5 0-1 0-1.5 0-.6.1-1.2.1-1.7 0-.1.1-.2.1-.2.1 0 .4 0 .4.1.2.5.5.9.6 1.5 0 .7.1 1.4.2 2.1 0 .2.1.3.2.5 0 .2.1.4 0 .5-.2.3-.2.4.1.4.2 0 .3.2.5.3.4.2.5.6.4.9s-.7.7-1 .5c-.3-.1-.5-.1-.8 0-.6.2-1.2-.1-1.7-.4-.2-.1-.3-.2-.5-.3-.4-.2-.7-.1-.8.4v.6c0 .1 0 .4-.1.4-.3 0-.4.3-.7.3-.9 0-1.3-.4-1.5-1.3 0-.1-.1-.2-.1-.3-.1-.2.1-.6-.2-.7-.2-.1-.5.1-.7.1-.8.1-1.6 0-2.2-.8-.2-.2-.3-.5-.1-.6.2-.2.2-.6.7-.3.3.2.5-.2.8-.5.2-.3-.1-.4-.1-.5-.1-.3-.4-.5-.6-.7-.3-.2-.3-.5-.2-.8.3-.8.7-1.5 1.5-1.9.4-.2.9-.4 1.3-.6.1-.1.3-.1.3-.2.1-.2.1-.5.1-.7s-.1-.4-.2-.4c-.7-.4-.8-1.2-1-1.8-.3-.8-.5-1.7-.4-2.5 0-.3-.1-.5 0-.8s0-.6 0-.9c.2-.6.1-1.2.3-1.7.1-.4.1-.8.2-1.2.1-.7 0-1.4.2-2.1.1-.4.1-.9 0-1.3.3-.9 0-1.9.3-2.9.1-.4.1-.8.2-1.3.1-1 .4-1.9.6-2.8.2-.7.4-1.4.1-2.2v-.1c.2-.6-.2-1.2.1-1.8 0-.1-.1-.3-.1-.4 0-.6 0-1.2.3-1.7.1-.2 0-.4 0-.7.2-1.2.4-2.5.3-3.7 0-.1 0-.2 0-.3.1-.2.2-.4.4-.4.3-.1.4.2.5.3.2.4.5.8.3 1.4.3.7.1 1.5 0 2.2 0 .1.1.2.2.3.1-.1.2-.1.2-.2.2-.8.7-1.4 1.1-2.1s.9-1.4 1.3-2.1c.6-1 1.4-1.9 2.1-2.8.6-.7 1.2-1.3 2.1-1.5.2-.1.4-.2.6-.3.4-.2.8-.5 1.3-.6.2 0 .3-.1.2-.3-.2-.4-.3-.8-.4-1.2 0 0-.1-.1-.1-.1s-.1.1-.1.1v.3c0 .3-.2.5-.4.5-.4.1-.6 0-.8-.4s-.2-.9-.4-1.4c0-.1-.1-.3-.1-.4 0 0-.1-.1-.1 0-.3.2-.5.2-1 .1-.2-.1-.3-.1-.4.2-.1.4-.3.7-.3 1.2 0 .1-.2.3-.3.3-.3.1-.8-.4-.9-.7 0-.4-.1-.7 0-1s0-.3-.2-.3c-.5.1-.9.2-1.3.2-.2 0-.3.2-.3.4s-.1.4-.2.6c-.1.1-.1.3-.2.5-.1.3-.3.4-.6.2-.2-.2-.5-.4-.3-.8 0-.1.1-.3 0-.3-.1-.1-.3-.1-.4-.1-.7.2-1.2.7-1.6 1.3-.8 1.4-1.5 2.9-2.2 4.4-.2.5-.4 1-.4 1.6 0 .8 0 1.6-.3 2.4v.1c-.1 2.3-.2 4.6-.2 6.9v1.4c.1 1.5 0 3.1.1 4.6v.9c0 .5.1 1 0 1.5 0 .1.1.3.1.5 0 .4 0 .8-.1 1.1 0 .3-.1.6.1.9.1.2.2.3.1.6-.1.2 0 .6.1.9.1.2.1.5.1.7 0 .5.1 1 .1 1.5 0 .2-.1.3-.3.5-.3.2-.4 0-.6-.1-.5-.3-.6-.9-.7-1.4-.2-.3-.2-.8-.2-1.2 0-.1-.1-.3-.1-.4v-.1s-.1.1-.1.1c-.2.8-.5 1.5-.4 2.3 0 .5-.1 1-.3 1.5-.1.1 0 .3 0 .4.2.5.4.8.8 1.2.1.2.3.5.2.6-.1.2-.4.5-.7.3-.2-.1-.4-.1-.6-.1-.2-.1-.3.1-.5.2-.2.2 0 .3 0 .4.1.3.3.5.4.8.1.1.1.3.1.4s-.2.1-.3.2c-.6.3-1.2.1-1.7-.3-.4-.4-.8-.7-1.4-.4-.1 0-.3 0-.4-.1-.4-.3-.9-.6-1.3-.9-.4-.4-.8-.8-1.1-1.3-.4-.4-.7-.9-1.1-1.3-.1-.1-.1-.2-.2-.3-.4-.8-.3-1.2.6-1.5.1 0 .2 0 .4.1h.4c0-.1-.1-.2-.1-.3-.1-.1-.2-.2-.2-.3-.1-.4 0-.7.4-.7s.8-.4 1.3-.1c.1.1.3 0 .4 0 .4 0 .7.1 1.1.3.6.4 1.2 0 1.2-.7.1-1.5.1-3 .2-4.5 0-.5-.1-1-.1-1.6 0-.5.2-1.1.1-1.6-.2-1.9 0-3.8-.1-5.8 0-.3.1-.6.1-.9s-.1-.5-.1-.8.1-.5.1-.8c0-.2-.2-.5 0-.8.1-.1 0-.3 0-.5 0-.5 0-1 .1-1.5 0-.6 0-1.1 0-1.7.1-.8.2-1.6.3-2.4.1-1 .2-2 .4-2.9.1-.5 0-1.1.3-1.6.2-.3.2-.7.6-.9.2-.1.2-.4.3-.6.3-.6.5-1.4.9-1.9.7-.9 1.5-1.7 2.8-1.9.7-.1 1.4-.4 2-.7 1.6-.6 3.2-.7 4.8-.6.6 0 1.2.1 1.8.3s1.2.5 1.7.8c.7.4 1.3.8 1.9 1.3s1.3 1.1 1.5 1.9c0 .1.1.3.1.4.1.6.2 1.2.3 1.8.1.4.1.4.5.3.7-.1 1.5-.3 2.2-.3.6 0 1.2 0 1.8.3.3.2.7.1 1.1.4.6.5 1.3.9 1.8 1.5.7.8 1.4 1.7 2 2.6.7 1.2 1.4 2.4 2.1 3.6.4.8.6 1.6.9 2.5.1.5.2 1 .4 1.6 0 .1.1.3.4.1.5-.3 1.1-.5 1.7-.7.8-.3 1.6-.7 2.6-.6h.7c.5 0 1.1-.1 1.6-.1 1 0 2.1.1 3.1.2.8.1 1.6.2 2.3.3.9.1 1.7.4 2.6.7.8.3 1.6.6 2.4 1.2 0 0 .1 0 .2.1.7.8 1.4 1.5 1.9 2.3.7 1 .8 2.2 1.2 3.3.1.3.2.7.1 1.1-.1.6.2 1.2.3 1.8 0 .2.1.4 0 .6 0 .3-.2.3-.5.3-.5 0-.7-.3-.9-.7-.2-.5-.5-1-.8-1.5 0-.1-.1-.1-.2-.2 0 .1-.1.2-.1.3.1.3.2.7.4 1 .4.5.6 1.1.6 1.7 0 .4.1.4.4.2.4-.2.8-.5 1.3-.6s.9-.4 1.3-.6c.6-.4 1.3-.8 2-1.2.6-.3 1.3-.5 2-.7.7-.1 1.4-.1 2-.4.3-.2.7-.2 1.1-.1.8.1 1.5-.2 2.2-.3.1 0 .2-.1.3-.1.4.3.8.1 1.3.2.4.1.9.2 1.3.3s.7.1 1.1.3c.6.3 1.1.6 1.7.9.9.4 1.7.9 2.6 1.2.3.1.5.3.8.5 1 .7 2.1 1.5 3 2.3.7.6 1.3 1.3 1.9 2.1.7 1 1.1 2.2 1.4 3.4.3 1 .5 2.1.8 3.1v.1c0 1 .1 2 .1 3.1 0 1 .1 2 .2 3.1.1.6 0 1.2.1 1.8.1.8 0 1.5.2 2.3v.5 3.1c0 1 0 1.9.1 2.9.1.8.1 1.5.1 2.3 0 .1.1.2.1.3l.2-.2c.3-.7.5-1.3.8-2 .3-.6.6-1.1 1.2-1.4s.8-.9 1.2-1.3v-.1c.9-.7 1.2-1.8 2.2-2.4 1.1-1.2 2.5-1.9 4-2.6 1.1-.5 2.3-.8 3.4-1.2.9-.3 1.9-.4 2.8-.6.7-.1 1.4-.4 2.1-.5 1-.2 2-.5 3-.5.4 0 .8-.1 1.1-.1 1.3-.1 2.6.3 3.8.7.8.3 1.6.5 2.3 1 .6.4 1.2.8 1.9 1.2.7.5 1.5.9 2.1 1.3 1.2.9 2.3 1.8 3.2 3l.6.6c.9 1.1 1.7 2.3 2.2 3.6.4.8.8 1.7 1 2.6s.6 1.7.7 2.6c.2 1 .6 2 .7 3.1s.1 2.3.2 3.4c.1 1.3.2 2.6.2 3.9 0 .3 0 .6.1.8.2.5-.1.9.1 1.4s0 1 0 1.5c0 .3-.1.5-.1.8v.3c.2.7.1 1.4.1 2.1v1.3c0 .6-.1 1.2.2 1.8.1.2 0 .5 0 .7v.8c.1.9.1 1.9.1 2.9 0 1.4 0 2.8.1 4.2.1.6 0 1.2.1 1.8s-.1 1.2.2 1.7c-.3.4.1.9 0 1.3s0 .8.1 1.1.1.6.1.9 0 .6.1.8c.1.3 0 .5 0 .8 0 .5.1 1 .2 1.4 0 .4 0 .7.2 1.1 0 0 .1.1.1.1v-.1c.1-.2.3-.1.4 0 .2.1.2.2 0 .4-.1.1-.1.2-.2.3-.3.3-.4.6-.4 1 0 .3-.1.7.1 1-.2.3 0 .6 0 .9v1.4c0 .4.1.8-.1 1.2-.1.2 0 .6.2.8.6.7 1.2 1.4 1.8 2.1.2.2.5.3.7.5.4.3.5.7.2 1.1-.2.3-.4.5-.6.7-.1.2-.4.3-.4.6 0 .1-.1.3-.4.4-.6.1-1 .6-1.3 1.1-.2.3-.4.6-.8.7-.1 0-.2.1-.3.1-.2.1-.5.2-.6.4s.1.4.2.7c.2.8-.2 1.2-.9 1.3-.9.1-1.5-.4-2.2-.9-.8-.6-1.5-1.2-2.2-1.9-.4-.4-.7-.8-.6-1.4 0-.2-.1-.3-.3-.4-.5-.3-1-.6-1.5-.9-.2-.1-.3-.2-.5-.3-.4-.4-.2-.9.3-1 .4-.1.9-.2 1.3.2h.2c0-.1 0-.1 0-.2-.5-.8-.9-1.6-1.4-2.5-.1-.2-.1-.5-.2-.8s.2-.5.4-.6c.1-.1.1-.2.2-.3.2-.2.1-.3-.1-.4-.1-.1-.2-.2-.4-.2-.5-.1-.5-.6-.5-1-.1-.4.2-.6.5-.8.1-.1.2-.2.4-.3.1-.1.3-.2.4-.1.6.2 1.2.2 1.7 0 .6-.2.6-.3.6-.9 0-.1.1-.3.1-.4s.1-.1 0-.2c-.1-.6-.2-1.1-.2-1.7 0-.4-.1-.7-.1-1.1 0-.7.2-1.4-.1-2.1v-.1c.3-.4 0-.7 0-1.1s0-.8 0-1.2c0-.5.1-.9-.1-1.4-.1-.3.1-.6 0-.9-.1-.8-.1-1.7-.1-2.5 0-.3-.1-.7-.1-1s.1-.6-.1-.9c-.1-.1.1-.2 0-.4-.1-.7-.1-1.3-.1-2 0-.6-.2-1.1-.2-1.7 0-.5-.2-1-.1-1.6.1-.7-.1-1.4-.2-2-.1-.4-.1-.8-.2-1.2-.2-.8-.3-1.6-.5-2.4-.1-.5-.3-1-.4-1.5s-.2-1.1-.3-1.6c-.3-1.1-.7-2.2-.8-3.3-.1-.9-.3-1.8-.4-2.7-.2-.9-.1-1.9-.5-2.8.1-.7-.3-1.2-.4-1.8s-.1-1.3-.4-1.9c-.4-.8-.5-1.7-1-2.4-.4-.6-.4-1.3-.7-2-.4-1.1-.8-2.3-1.7-3.1-.2-.2-.5-.4-.8-.6-1.1-.6-2.3-1.2-3.6-1.6-.8-.2-1.7-.2-2.6-.1-.8.1-1.7.2-2.5-.1h-.1c-.6 0-1.2.1-1.9.1-.2 0-.5.1-.7.1-.6 0-1.2.2-1.8.4-.3.1-.6.2-.9.3-.4.1-.8.3-1.1.6s-.8.5-1.1.9c-.6.6-1.5.9-1.8 1.8-.1.3-.3.5-.4.8-.3.6-.6 1.2-.9 1.8s-.5 1.3-.9 2c-.4.8-.8 1.7-1.1 2.6-.2.5-.3 1.1-.4 1.7-.1.4 0 .8 0 1.3-.1.7 0 1.4-.3 2.1v.3c.2.7.2 1.4 0 2.1v.5c0 .1.3.2 0 .4.3.4-.2.9.1 1.3.1.1 0 .2-.1.4v.4c0 .1.1.3 0 .4-.2.7-.1 1.4-.1 2.1-.1.7-.1 1.5-.2 2.2 0 .3.1.5.3.7.6.5.5 1.2.5 1.9 0 .2-.2.4-.5.4-.2 0-.4 0-.5 0v.1c.3 0 .2.3.2.4 0 .8-.1 1.5-.1 2.3s0 1.7.1 2.5c0 .3.2.6 0 .9.3.3 0 .5 0 .8v1.5 2.2c0 .5.1.9.1 1.4v1.2c0 .2 0 .4-.1.6 0 .1-.1.2 0 .3.2.5-.1.9 0 1.4 0 .4.1.7 0 1s-.1.6-.1.9c-.1.9 0 1.7.2 2.6v.2c0 1.2.1 2.3.1 3.5 0 .2.1.5.1.7 0 .3.1.6.1.9.2 1.8 0 3.7.1 5.5 0 .7 0 1.4.1 2.1.1.8.2 1.5 0 2.3.4.7-.1 1.5 0 2.2s0 1.5 0 2.2v.4c0 .2.1.3.4.4.4 0 .9.1 1.3.1.2 0 .4.1.6.3s.4.4.6.6c.3.3.3.6.3.9s-.1.5-.1.8c-.1.2-.2.4-.4.5s-.4.1-.3-.3c0-.1 0-.3 0-.4.2-.6-.3-1-.7-1.2-.3-.2-.7-.2-1-.2s-.2.2-.1.3c.2.3.4.7.6.9.9 1 1.6 2.1 2.3 3.2.2.3.3.7.5 1 .3.3.1.7-.3.8s-.9.3-1.4.4c-.3.1-.6.2-.6.5-.1.6-.6 1-.9 1.5-.2.4-.6.8-.7 1.4-.1.8-1.1 1.1-1.8.6-1.1-.9-2.2-1.8-3.4-2.6-.9-.6-1.7-1.4-2.4-2.2-.6-.6-1.1-1.4-1.7-2-.8-.9-1.4-2.1-2.4-2.9-.5-.4-.5-.6-.1-1.1.1-.1.1-.2.2-.3.3-.5.7-.9 1.2-1.2.4-.3.8-.6 1-1.1.2-.4.4-.7.8-.9.3-.1.3-.3.3-.6 0-1.1 0-2.3-.1-3.4-.1-.7 0-1.4-.1-2.1 0-.3 0-.6-.1-.9-.1-.2.1-.6.1-.9 0-.9-.1-1.7 0-2.6.2-1.5.1-3.1.2-4.6 0-.4 0-.8 0-1.1 0-.4 0-.8 0-1.3 0-.4 0-.8 0-1.2s.1-.9 0-1.3 0-.9 0-1.3c0-.6.1-1.2.1-1.7 0-.6 0-1.2 0-1.8s.1-1.2 0-1.8c-.1-.8-.1-1.5-.1-2.3-.1-1-.1-2-.3-3-.1-.6-.1-1.2-.1-1.7 0-.4-.2-.7-.1-1.1.2-.6.1-1.2.1-1.7 0-.7.1-1.3 0-2 0-.2-.1-.4-.3-.4-.1 0-.3-.1-.4-.1-.4-.2-.6-.5-.6-.9 0-.9-.1-1.8-.4-2.7-.1-.2.1-.4.1-.7 0-.2 0-.3-.2-.3-.7-.2-1.3-.7-1.6-1.4-.1-.2-.2-.3-.3-.5-.2-.3-.3-.6 0-1 .1-.2.1-.4.1-.6.1-.5.3-.6.8-.5.3 0 .6 0 .9.2s.3-.2.4-.3c.1-.4.1-.7.2-1.1.2-1.3.1-2.6.2-3.8 0-.3.1-.6.1-.9s0-.6.1-.8c.1-.3-.1-.4-.4-.4-.4 0-.4 0-.3-.4.3-.9.6-1.8.7-2.8 0-.2.1-.5.3-.6.2-.2.3-.5.3-.8 0-.6 0-1.1 0-1.7 0-.1 0-.1-.1-.2-.1.1-.2.1-.2.2-.1.3-.1.6-.2.9 0 .1-.1.1-.1.1s-.1-.1-.1-.1c0-.2-.1-.4 0-.5.2-.4.1-.7.1-1.1 0-2.5.1-5.1.1-7.6 0-1-.1-1.9-.2-2.9-.1-.4 0-.9-.1-1.3-.1-.5-.1-1.1-.1-1.6 0-.2.1-.5.1-.7.1-.4-.1-.8-.1-1.2 0-.6-.5-.8-.7-1.2-.1-.2-.5-.3-.8-.2-.6.2-.8.1-1-.5-.1-.4 0-.6.4-.6.3 0 .6.1.9.1.4 0 .5-.1.4-.4-.3-.8-.7-1.5-1.1-2.2-.5-.9-1.2-1.7-1.6-2.6-.2-.5-.5-1-.8-1.4-.4-.4-.8-.9-1.2-1.2-.5-.4-1.1-.7-1.7-.9-.8-.3-1.6-.7-2.4-1-.9-.3-1.7-.7-2.7-.9-.7-.1-1.6 0-2.3.1s-1.5.3-2.2.4c-.3.1-.6.2-1 .2-.5.1-1.1.2-1.6.3-.8.1-1.4.6-2.1 1-.1.1-.2.1-.3.2s-.2.2-.3.3c.1.1.2.2.4.2.4.1.4.5.5.8.1.2.1.5.3.6.6.6.6 1.4.6 2.1 0 .3 0 1.5.1 1.8v.5 2.8c0 .5.1 1-.3 1.5.1.5-.4 1.1 0 1.6.1.1.1.4 0 .5-.1.2-.1.2 0 .4v.2c-.2.7 0 1.5-.2 2.2-.1.7.1 1.3.1 1.9 0 .7-.1 1.3 0 2 .1.6.1 1.2.1 1.9v.8.9.9c0 .2-.1.4-.1.6s.1.3 0 .5c-.1.1.1.4.1.6.1.6.1 1.2.1 1.9 0 .3.1.6.4.8s.6.5.8.8c.3.3 0 1-.5 1.1-.4.1-.9.1-1.3.1-.3 0-.6-.1-.8-.4-.2-.2-.4-.4-.6-.6-.4-.5-.9-.6-1.5-.7-.4 0-.8-.2-1-.6-.1-.2-.2-.4 0-.6s.2-.3 0-.4c-.3-.3-.7-.6-1-.9-.3-.2-.3-.6-.1-.9.3-.5 1-.9 1.7-.5.2.2.3 0 .3-.1.1-.4.2-.7.3-1.1.1-.9.2-1.9.1-2.8 0-.9-.3-1.9-.4-2.8-.1-1-.3-1.9-.4-2.9-.1-.9-.1-1.9-.2-2.8-.1-1 0-1.9-.1-2.9-.1-.5 0-1-.1-1.4-.1-.5 0-1.1 0-1.6 0-.3-.1-.6-.2-.9 0-.1-.1-.2-.1-.3s-.1-.3-.1-.4c-.1.1-.2.2-.3.3-.3.6-.7 1.2-1 1.9-.5 1.2-.9 2.3-1.2 3.5 0 .3-.2.5-.3.7-.1.5-.1.9-.2 1.4s-.2 1.1-.3 1.6v.3c0 .8 0 1.6-.2 2.3-.2.8-.1 1.6-.1 2.5 0 .2-.1.3-.1.5v.6c0 .1.1.3.1.4-.1.5-.1.9-.3 1.4-.1.3.3.5 0 .8.3.5-.1.9 0 1.3.2 2.1.1 4.2.1 6.2 0 .6.1 1.3-.1 1.9-.1.7 0 1.4-.2 2.1 0 .1.1.3.1.4-.1.9-.2 1.7-.2 2.6 0 .3 0 .6.1.8.1.4.2.8 0 1.2-.1.2 0 .5 0 .7-.1 1-.2 2-.1 2.9.1 1.5 0 2.9.1 4.4.1.8 0 1.6.1 2.3s.1 1.5.1 2.2c0 .3 0 .7.1 1 .1.4.1.7 0 1s.1.7.2 1c.1.5.3 1.1.4 1.6v.1c-.4.6.1.9.4 1.2.2.2.5.2.3.6-.1.1 0 .2.3.1h.2l1.5 1.5c.4.4.4.8 0 1.2-.1.1-.1.3-.2.4-.3.3-.6.6-1 .8-.8.4-1.6 1-2.3 1.5-.6.4-1 .4-1.4-.3-.3-.5-.6-.7-1-1-.1-.1-.2-.2-.3-.3-.6-.7-1.4-1.2-2-1.8-.2-.1-.4-.4-.7-.1-.2.1-.6.1-.9-.1-.4-.3-.5-.3-.3-.8.1-.4.1-.5-.3-.8-.2-.1-.4-.3-.5-.4-.2-.2-.3-.4-.3-.7s.1-.4.4-.5c.1 0 .2-.2.3-.3.2-.4.4-.7.8-.9.1-.1.3-.2.4-.3.3-.3.6-.6.9-.8.4-.4 0-.7 0-1.1.1-.5.1-1-.1-1.5-.1-.3-.1-.7.1-1.1.1-.2-.1-.5-.1-.8 0-.5-.2-1 0-1.6-.3-.7-.1-1.5-.1-2.2 0-.3-.1-.5.1-.9.1-.2.1-.6.1-1 0-.7-.1-1.4-.2-2.1 0-.1 0-.3 0-.5 0-1 .1-2 0-3-.1-.8-.1-1.6-.2-2.5-.1-1.1-.1-2.2-.1-3.3 0-.4.1-.8.1-1.2s-.1-.9-.1-1.3c0-1.1 0-2.3.1-3.4.1-1 .4-2 .4-3.1.1-1.1.1-2.3.5-3.4.1-.4.1-.9.2-1.3.1-.6.2-1.2.3-1.8 0-.2.1-.3.1-.5 0-.3-.1-.7.1-1s-.1-.6 0-.9c.3-1 .1-2 .2-3 0-.6.3-1.2.4-1.7s.3-1.1.4-1.6c0-.4.3-.8.4-1.2.3-.8.7-1.5.9-2.4 0-.3.2-.7.4-.9.4-.5.4-1.2.7-1.7.2-.5.5-.9.8-1.3.6-.7 1.2-1.3 1.9-1.9.2-.2.5-.4.8-.6.2-.1.3-.2.2-.4-.2-.7-.3-1.4-.5-2.2 0-.1-.3-.3-.4-.3-.6-.1-.9-.5-1.3-1-.2-.3-.4-.6-.6-.9-.6-1.2-1.6-2.2-2.6-3.1-.4-.4-.9-.6-1.3-.9-.5-1.2-.6-1.2-.7-1.4m.6 33.6h-.1s.1.1.1.1h.1s-.1 0-.1-.1m38.9 22.5h-.1s.1.1.1.1h.1s0 0-.1-.1m37.9 11h.1s-.1-.1-.1-.1c0-.1 0-.1 0-.2h-.1c0 .1 0 .1.1.3m-21.5-37.5c.8 0 1.6-.1 2.5-.1.1 0 .2-.1.3-.1h.3c.2 0 .4.1.6.1.4 0 .8-.1 1.3-.1.6 0 1.2.1 1.8.3 1 .2 2 .5 2.9 1 .7.4 1.4.8 2.2 1.2.9.5 1.4 1.2 1.8 2 .5.9.6 1.9 1 2.8.1.3.3.7.4 1 .2.5.4 1.1.4 1.7v.3c.4.6.4 1.2.6 1.8.2.8.5 1.6.6 2.5 0 1.2.3 2.3.3 3.5 0 .1 0 .2.1.4.2.9.4 1.9.4 2.9v.5c.3.9.5 1.7.5 2.6 0 .5 0 1 .2 1.5.1.3.2.7.3 1 .1.8.3 1.6.4 2.4 0 .2.1.4.1.6.1.5.2 1 .2 1.5 0 1 .1 2 .2 3 .1.9.1 1.8.1 2.7 0 .3 0 .6.1.8.1.3 0 .5 0 .8.1.8.2 1.5.1 2.3 0 .5.1.9.1 1.4-.1.8.1 1.7.2 2.6 0 .3-.1.6-.1.9s.1.6.1.9v1.3c0 .4.2.6.5.6.4 0 .7.2 1 .5h.1c0-.1 0-.1 0-.2-.1-.1-.2-.3-.3-.3-.2-.1-.3-.3-.3-.5-.1-.8-.1-1.5-.1-2.3 0-.7.1-1.4-.2-2 0-.1 0-.2 0-.3 0-.6 0-1.2-.1-1.9-.1-1.1-.1-2.3-.3-3.4-.1-.4 0-.8 0-1.3 0-.4-.1-.7-.1-1.1s-.2-.8-.1-1.1c.2-.4 0-.8-.1-1.2 0-.8 0-1.7-.1-2.5-.1-1.8-.1-3.5-.1-5.3 0-.3 0-.6 0-.9s-.1-.6 0-.8c.1-.3 0-.5 0-.8 0-.2-.1-.4-.1-.7 0-.8-.1-1.7-.1-2.5 0-.6 0-1.3-.1-1.9-.2-.9-.2-1.7-.2-2.6 0-.2 0-.5-.1-.7-.3-.5-.3-1-.4-1.5 0-.3 0-.5-.1-.8-.1-.1-.1-.3-.1-.4-.2-.6-.2-1.3-.4-2-.2-1-.6-1.9-1-2.8-.6-1.2-1.2-2.3-1.9-3.4-.7-1-1.4-2.1-2.4-2.9s-2.1-1.6-3.2-2.2c-.7-.4-1.5-.8-2.2-1.3-.6-.4-1.2-.7-1.8-.9-.5-.1-1.1-.2-1.6-.5-.8-.4-1.6-.2-2.4-.2-.6 0-1.2.2-1.8.4-.8.2-1.7.3-2.5.6-1.5.4-3 1-4.4 1.8-1.1.6-2.2 1.1-3.1 2.1-.4.5-.8 1-1.3 1.4-.7.6-.9 1.5-1.4 2.2-.1.1 0 .3 0 .4s-.1.3-.1.4c-.2 1-.7 2-.9 3s-.4 2-.4 3c0 .2-.1.4-.1.6 0 .8-.4 1.6-.3 2.4v.5c-.3 1-.2 2-.4 2.9-.1.7 0 1.4-.2 2.1-.1.6 0 1.2-.1 1.8-.2.8-.1 1.6-.3 2.3-.1.4-.1.8-.1 1.1s-.2.7-.1 1c.1.5 0 1-.2 1.5-.1.3-.2.6-.1.9.2.5 0 .9 0 1.4-.1.9-.1 1.9-.2 2.8 0 .8 0 1.5-.2 2.3-.1.4-.1.8-.1 1.1-.2.8-.2 1.5-.3 2.3v1.2c-.2 1-.2 2 0 3.1 0 .2-.1.3-.1.5v.9c0 .2.1.5.1.7-.2.3-.1.6-.1.9v3.2c0 .4-.1.9-.1 1.3v.5c-.1.3-.1.6-.1.9 0 .2.1.4 0 .5-.3.5-.3 1.1-.3 1.7 0 1.1-.1 2.2.1 3.3.1.5 0 1 .1 1.5 0 .2-.1.4-.1.6 0 .1-.1.2 0 .3.2.3.1.6.1.9s.1.6.1.9c.1.8-.1 1.5.1 2.3.2.9.2 1.8.3 2.7.1 1.2.1 2.4.1 3.6v.6c0 .4.1.7.1 1.1 0 .2-.2.4-.1.5.2.4.1.9.1 1.3s-.1.9.4 1.2c.1.1.1.3.2.5 0 .2.1.2.3.1.5-.3.6-.3.9 0s.3 0 .3-.1c.1-.2.1-.4.1-.6-.2-.7-.1-1.3-.1-2 0-.3.1-.6.3-.9.1-.1.2-.2.2-.4 0-.8 0-1.6-.1-2.5-.1-.6-.2-1.1-.2-1.7 0-.7 0-1.4 0-2 0-.3-.1-.5-.1-.8s.2-.7.1-1c-.1-.4-.1-.9-.1-1.3 0-1.3 0-2.6 0-3.9 0-.2.1-.3 0-.5-.2-.4-.1-.8-.1-1.2s-.1-.8-.1-1.2c0-.8-.1-1.7-.1-2.5 0 0 0 0 0-.1-.1-.7-.2-1.5-.2-2.2 0-1.8 0-3.5 0-5.3s-.1-3.5.1-5.3c.1-.4.1-.9 0-1.4-.1-1.4 0-2.8-.1-4.2-.1-1.8-.1-3.6.1-5.4.1-.9.1-1.9.2-2.8 0-.3 0-.6 0-.9s.2-.6 0-.9c-.1-.3 0-.6 0-.9s.2-.7.1-.9c-.1-.5.1-1-.1-1.4-.1-.2.1-.6.1-.9.1-1 0-2 .1-3.1s.2-2.1.3-3.2.3-2.1.7-3.1c.1-.3.2-.6.3-.9.5-.8.9-1.6 1.2-2.5 0-.1.1-.2.1-.2.3-.3.4-.9.7-1.2.3-.4.4-.9.6-1.3.3-.5.7-.9.9-1.3.4-.6.9-.9 1.4-1.3s1.1-.9 1.7-1.2c.5-.3 1-.5 1.5-.8h.1c.5 0 .9-.3 1.3-.5.5-.2.9-.3 1.4-.4.3-.1.5.2.6.4 0 .1-.1.3-.2.4s-.2.1-.2.2v.2s.1.1.2 0c.3-.1 1 0 1.8 0m-52.8 38.6c-.1-.2-.2-.4-.3-.6-.1-.7-.2-1.4-.3-2.1 0-.2-.1-.5-.1-.7s.1-.5.1-.7c-.2-.6-.1-1.1-.1-1.7 0-.2 0-.3 0-.5-.1-.5-.3-1-.2-1.4.1-1-.2-1.9-.3-2.9-.1-.8-.3-1.7-.2-2.5.1-1.4-.1-2.9.2-4.3.1-.3.1-.7 0-.9-.2-.3.1-.6 0-.9 0-.1 0-.1 0-.2-.3-.9 0-1.8-.2-2.7-.1-.3.1-.8.1-1.1s.2-.6.1-.8c-.2-.3 0-.6 0-.8.1-.9.1-1.7.1-2.6 0-1.9 0-3.8-.1-5.7 0-.1 0-.1 0-.2-.2-.6-.2-1.3 0-1.9 0-.1 0-.3 0-.4 0-.3-.2-.7-.1-.9.1-.4.1-.8.1-1.2 0-.7 0-1.4 0-2.1 0-.5.1-1 .1-1.5 0-.1 0-.1 0-.2 0 0-.1.1-.1.1-.1.2-.2.4-.2.6.1.4 0 .8 0 1.1 0 .7-.1 1.4-.2 2.1 0 .3-.2.7-.2 1-.1.8-.2 1.5-.3 2.3 0 .1 0 .2.1.3 0 .1.1.2 0 .3-.3.8-.4 1.7-.4 2.5v.3c-.2.5-.3 1-.3 1.5s.1.9.1 1.4c0 1.1.2 2.2-.1 3.2v.4c.2.6.1 1.2.1 1.9v.5c.2.9.3 1.8.2 2.7v.6c0 .3.2.7.1 1-.2.8-.1 1.5-.1 2.3v.4c.1.4.3.9.2 1.4 0 .4-.2.8-.1 1.3.1.7-.3 1.5 0 2.2.1.2-.1.5-.1.7v2.2c-.1.7.3 1.4 0 2.1v.1c.2.5.1 1.1.1 1.7v.5c.1.5.2.9.2 1.4v1.3c0 .4.1.7.3 1 .4.6 1 1.1 1.5 1.7h.1c.1 0 .3.2.4-.1s.2-.5 0-.8c-.1-.1-.1-.2-.1-.3 0-.4-.1-.8-.1-1.4m-3.3-71.3c-.5-.1-1 0-1.5-.1-.5-.2-1.1.1-1.6-.2-.3.2-.6.1-.9.1-.4 0-.7-.2-1.1-.1-.5.1-.9.2-1.4.4-.7.3-1.4.5-2 1.1-.1.1-.2.3-.3.5.2 0 .3-.1.5-.1s.5.2.8 0c.2-.1.4-.1.6-.2.5-.2 1-.4 1.5-.5 1.2-.1 2.3-.1 3.5-.1.9 0 1.7.2 2.4.6.8.5 1.6 1 2.4 1.6.9.7 1.8 1.2 2.4 2.2.2.3.5.6.7.9.2.2.5.3.6.2.2-.2.3 0 .5 0 .1 0 .2.1.3.1 0-.1-.1-.3-.1-.4v-.1c-.5-1.2-1-2.4-1.8-3.4-.7-.8-1.4-1.7-2.5-2-.2 0-.4-.1-.5-.1-.9-.1-1.7-.3-2.5-.4m29.4 11.9c-.2-.2-.4-.3-.6-.5-.6-.7-1.3-1-2.1-1.4-.4-.2-.9-.4-1.3-.6-.7-.3-1.3-.9-2.2-1-.7-.1-1.4-.3-2.1-.2-.6.1-1.3.1-1.9.2-.7.1-1.3.4-2 .3 0 0 0 0-.1 0-.9.4-2 .6-2.9 1.2-.2.1-.3.2-.5.3-.1 0-.1.1-.1.2h.2c.5-.2 1-.2 1.5-.3.9-.3 1.9-.4 2.8-.5.5-.1 1 0 1.5-.1.7-.2 1.4 0 2.1.2.6.1 1.2.4 1.8.6.8.2 1.5.5 2.2.8.9.4 1.8.7 2.7 1.1.5.3 1.1.5 1.6 1 .1 0 .1.1.2.1 0-.1.1-.2 0-.3-.2-.5-.5-.7-.8-1.1m-64.6-28.2h.4c.4.2.7.2 1-.1.1-.1.3-.2.5-.2.3-.1.5-.1.8-.2.6-.3 1.2-.3 1.7-.2.4 0 .8-.2 1.1-.2.1 0 .1-.1.1-.1s-.1-.1-.1-.1c-.4-.2-.9-.3-1.3-.4-1-.2-1.9 0-2.8.3-1.1.4-2.1.7-3.3.9 0 0-.2 0-.2-.1 0-.2-.1-.3-.2-.2s-.2.2-.3.3c0 0 .1.1.1.1.1 0 .2 0 .2-.1 0 .1 0 .3-.1.4s-.2.2-.3.3c-.2.3-.5.5-.6.8-.3.6-.4 1.2-.7 1.8-.2.5-.4 1-.6 1.5-.1.2-.2.3-.2.5v.3c-.4.4-.3.9-.5 1.4-.2.4-.1 1-.2 1.4v.1c.2-.1.2-.1.2-.2.1-.5.1-1 .3-1.4.5-1 .7-2 1.2-3 .4-.7.7-1.3 1.1-2 .1-.2.2-.5.3-.6.8-.4 1.5-.8 2.4-1m10.3 5.9c-.8.1-1.2.8-1.7 1.4-.1.1 0 .3 0 .4.1 0 .2.1.4 0 1-.2 1.9-.3 2.9-.3.3 0 .5-.1.8-.1h.3c.3.2.6.1.9.1.4.1.8.1 1.2.2.5.1 1 .3 1.5.6h.2v-.1c-.4-.7-1-1.2-1.7-1.6-.6-.4-1.2-.8-1.8-1.1-.2-.1-.4-.4-.7-.1-.8.2-1.5.5-2.3.6m31.5 26c.3-.6.7-1.3 1.2-1.7l.6-.6s0-.1.1-.1h-.1c-.1 0-.2.1-.3.2-.3.3-.6.6-1 .9-.4.4-.9.8-1.3 1.2s-.4 1.1-.8 1.6c-.5 1.5-1 2.9-1.6 4.4-.2.5-.5 1-.5 1.7 0 .3-.2.7-.2 1.1-.2.8-.3 1.6-.4 2.4 0 .4.2.8.1 1.1-.1.4.1.7 0 1.1 0 .2 0 .5.1.7 0-.2 0-.5.1-.6.2-.3.1-.6.1-.9.1-.8.1-1.7.2-2.5 0-.1 0-.2.1-.2.2-.6.4-1.3.5-1.9.2-1 .5-2 .9-2.9.3-.7.6-1.4 1-2.1.2-1.2.8-1.9 1.2-2.9m4.5 2.1c0-.8-.3-1.6-.6-2.3-.1-.3-.2-.6-.3-.9-.1-.2-.2-.2-.4 0-.2.3-.4.5-.5.8-.2.3-.3.7 0 1 .1.1.1.3.2.5.2.5.3 1.1.5 1.6.2.4.5.8.4 1.3 0 .2.1.3.1.5.1.6.2 1.2.3 1.8 0 .1.1.2.2.2 0-.1.1-.2.1-.2 0-.5 0-1 0-1.5 0-.3.2-.7.1-.9-.2-.6 0-1.2-.1-1.9m24.7 20.2v2.2c-.1.7.2 1.4 0 2.1v.2c.2.5.1 1.1.1 1.6 0 .4-.1.8.3 1.1 0 0 0 .1.1.1 0 .1.1.3.1.4 0-.1.1-.3.1-.4 0-.5.2-.9-.2-1.4-.1-.1-.2-.4-.2-.7 0-.6.1-1.1.1-1.7 0-1.8-.1-3.7-.1-5.5 0-.1 0-.2 0-.3 0-.3 0-.6 0-.8 0-.1 0-.2-.1-.2s-.2 0-.3.1c-.1.2-.1.4-.1.6-.1.8.2 1.5 0 2.3.1 0 .2.1.2.3m-52.3-15.4c.1-.4.1-.9.2-1.3.2-.7.4-1.5.5-2.2.1-1 .5-2 .4-3.1 0-.1.3-.3 0-.4 0 0-.2.2-.2.3v.1c-.1.3-.1.7-.2 1-.4 1.1-.5 2.3-.8 3.5-.1.5-.1 1-.2 1.5-.2.8-.3 1.5-.3 2.3v.3c-.3.6-.1 1.3-.1 1.9 0 0 .1.1.1.1v-.1c0-.2 0-.5.1-.7.1-.6.2-1.1.2-1.7 0-.4.2-.9.3-1.5m52.1 81.1s.1 0 0 0c0-.2 0-.4 0-.5-.1.1-.3.1-.4.2-.4.4-.8.7-1.3.9-.2.1-.4.3-.5.4s.1.3.1.4c.1-.1.3-.2.3-.3 0 0 0-.2 0-.3l.3-.3c.1.1.1.2.2.2.3.3.6.7 1 1 .2.1.4.3.5.4 0-.3.1-.5 0-.8 0-.2-.2-.5-.3-.7s-.3-.3-.1-.5c.2.3.1.1.2-.1m5.6 7.9h.3c.2-.4.4-.6.8-.3 0 0 .1 0 .1-.1.4-.1.7-.2 1.1-.3.1 0 .1-.1.2-.2-.1-.1-.2-.2-.3-.2-.3 0-.7.1-1 .2-.2 0-.5.1-.6 0-.3-.4-.7-.4-1.1-.6-.3-.2-.5-.4-.8-.7-.1-.1-.1-.2-.2.1-.1.2-.1.3 0 .4.2.2.4.4.6.7.4.3.6.6.9 1m-82.6-102.1c-.1.3.1.6-.1.9 0 0 0 .2.1.2.1.1.3.1.3.1.1-.1.2-.2.2-.4 0-.9 0-1.8 0-2.7 0-.1-.1-.2-.1-.2 0 .1-.1.2-.1.2-.1.6-.2 1.2-.3 1.9m52.4 24.4c-.1.3-.3.6 0 1 .1.1 0 .3 0 .5s-.1.4-.1.5c-.1.7-.1 1.4-.4 2-.1.2 0 .4 0 .5h.2c.1-.4.4-.7.4-1.1.1-1.2 0-2.4 0-3.6 0 .2-.1.1-.1.2m30.5 79.6h.2c.5.3.5.3.9-.2.1-.1.1-.2.2-.3s.1-.2.1-.3c-.1 0-.3 0-.4.1s-.2.1-.3.2c-.2.2-.4.2-.6.1-.1-.1-.3-.1-.4-.2-.3-.2-.4-.4-.2-.7 0-.1.1-.1.2-.2 0 0 0-.1 0-.2 0 0-.1 0-.2 0-.2.1-.3.3-.5.5-.2.1-.1.2 0 .4.3.3.6.6 1 .8m32.2-24.8.2.2c.2.1.3.4.5.3 0 0 0-.3-.1-.4v-.1c.1-.6.1-.6-.4-.6 0 0 0 0-.1 0-.2 0-.5 0-.7.1.1.1.3.3.4.4.1 0 .1 0 .2.1m-38.4-38.2c-.2.3-.1.6 0 .9 0 0 0 .1.1.1 0-.1.1-.1.1-.2s0-.2.1-.4c.1-.7.2-1.4.3-2.1 0-.1-.1-.2-.1-.3-.1.1-.2.2-.2.3-.2.6-.2 1.1-.3 1.7m-72.5-23c-.3-.2-.1-.4 0-.6 0-.1 0-.2-.1-.2s-.2 0-.2.1c-.3.2-.3.5-.4.8v.3c.1.1.3.3.4.2.2-.1.5-.1.3-.6m-8.3-9.7s-.1.1-.1.1c.2.3.5.6.7.9.1.1.3.2.4.2s.3-.2.4-.3c-.1-.1-.2-.2-.3-.3-.3-.2-.7-.4-1.1-.6m125.8 74.8c-.1-.2-.2-.4-.4-.6 0-.1-.1-.1-.2-.1v.2.6c0 .3 0 .5.1.8.2-.2.4-.4.5-.5s0-.2 0-.4m-123.4-73.7c-.3-.1-.4.2-.6.3v.2c.2.2.8.2 1 0 .1-.2-.2-.3-.4-.5m33.3-13.5c0-.1 0-.2 0-.3-.1 0-.2.1-.2.1v.1c-.1.2-.5.3-.2.6.1-.1.3-.3.4-.5m18.5 11.6c0-.2-.1-.3-.2-.2s-.1.2-.2.3c0 .1-.1.2-.1.3.1 0 .2 0 .3-.1.2.1.2-.1.2-.3m-9.6 53c-.1.1-.1.2.1.3.1 0 .3.1.4.1 0-.2 0-.4 0-.6-.1 0-.3.1-.5.2m78.9 25.8c0-.4-.3-.3-.6-.3 0 0-.1.1-.1.1.1.3.3.3.5.3.1-.1.1-.1.2-.1m-95.4-68.6v.3c0 .1.1.2.2.3 0-.1.1-.2.1-.3s0-.3 0-.4c0 0-.2 0-.3.1m23.1 46.9c-.1-.1-.2-.2-.2-.3-.1.1-.1.3-.1.4 0 0 .1.1.2.1-.1 0 0-.1.1-.2m73-21.6c0-.1-.1-.2-.1-.2-.1 0-.2.1-.3.1.1.1.1.3.2.4 0-.1.1-.2.2-.3m1.8 36.4c0-.1-.1-.1-.1-.2 0 0-.1 0-.2.1v.4c0 .1.1.1.2.2 0-.1 0-.2.1-.5m-3.6 4.5v.5s.1.1.1.1.1-.1.1-.1c0-.2-.1-.4-.2-.5m-116.9-108.8c0-.1.1-.1.1-.2-.1-.2-.1 0-.2 0-.2 0-.4 0-.6 0 .2.1.4.1.7.2m74.7 73.4c0 .1 0 .1 0 0-.2.3.1.3.1.4h.1c0-.1-.1-.2-.1-.3 0 0 0-.1-.1-.1m44.1 7.7c0 .1.1.1.1.2.3-.2.1-.3-.1-.4 0 0-.1 0-.2 0 .1 0 .1 0 .2.2m-86.7-41.4c-.2 0-.3-.1-.4-.1v.1c.1.1.2.1.3.2 0 0 .1-.1.1-.2m51 83.1c-.1 0-.1 0 0 0-.1-.1-.1 0 0 0-.2.2 0 .3.1.3 0 0 .1 0 .1-.1-.1 0-.1-.1-.2-.2m-82.5-121.8c.1.1.1.1.2.2 0 0 .1-.1.1-.1-.1-.1-.1-.3-.2-.4 0 0 0 .1-.1.3m42.6 73.5h.2c-.1-.2-.1-.3-.2-.5 0 0-.1.1-.1.1 0 .1 0 .2.1.4m-17.4-66.3c-.1 0-.2-.1-.2 0-.1 0-.1 0-.2.1.1 0 .2.1.2.1.1 0 .2-.1.2-.2m91.1 65.4c-.1-.1-.1-.1-.2-.2 0 0-.1.1-.1.1.1.1.2.2.3.1m-120.2-55.7c-.1 0-.2-.1-.3-.1.1.1.1.2.2.4 0-.1.1-.2.1-.3m9.1-20.2c-.2-.2-.4-.1-.5.1v.1c.2 0 .3-.1.5-.2m113.5 89.7v-.1c0-.1 0-.1-.1-.2h-.2v.2c.1.1.2.1.3.1m-.4-7.3.2-.2s-.1-.1-.1-.1c-.1.1-.1.1-.1.3m-.6-13.1s.1.1.1.1c0-.1 0-.2 0-.4 0 .1-.1.2-.1.3m-118.5-62.6c-.1-.1-.1-.1-.2-.2 0 0-.1.1-.1.1.1.1.2.1.3.1m40.7 47.1h.3c-.1 0-.2-.1-.3 0m-41.3-43.6c0 .1.1.2.1.3 0-.1 0-.2-.1-.3m82 116.3v.2s.1-.1.1-.1c0-.1 0-.1-.1-.1m38.9-23.4v.2l.2-.2c0-.1-.1-.1-.2 0m-115.8-102.8c-.1.1-.1.1-.2.2 0 0 .1.1.1 0 .1 0 .1 0 .1-.2m78.8 71.3c-.1-.1-.1-.1 0 0-.1 0-.1.1-.1.2.1-.1.1-.1.1-.2m29.2-20.1c0-.1-.1-.1-.1-.2h-.1c0 .1.1.2.2.2m5.7 44.7c0-.1 0-.1 0-.2h-.1c0 .1 0 .2.1.2m-78-41.5c-.1 0-.1 0-.2-.1v.1c0 .1.1.1.2 0m79.8 41.4c-.1 0-.1 0-.2-.1v.1zm-123.2-74.8c0 .1 0 .1-.1.2h.1s0-.1 0-.2m86.4 48.8v.2h.1c0-.1-.1-.2-.1-.2m35.6 4.1s.1 0 .1-.1c0 .1-.1 0-.1.1m-111.1-48.1c0-.1 0-.1 0-.2h-.1c-.1.1 0 .2.1.2m110.6 49.7s0 .1.1.1c0-.1 0-.1-.1-.1m-67.7-46.2s0-.1-.1-.1c0 0 0 .1.1.1m-49.1-27.4c-.1 0-.1 0-.2-.1v.1c0 .1.1.1.2 0m115.3 77.7v.2h.1c0-.1 0-.2-.1-.2m.1-1.8c-.1 0-.1 0-.2-.1v.1zm-35.9-12.7s0 .1 0 0c0 .1 0 .1 0 0m38.2 21.3c.1 0 .1 0 0 0 .1 0 .1-.1 0 0m.3 4.5c-.1-.1-.1-.1 0 0-.1-.1-.1 0 0 0m-.1 2.3c.1.1.1.1 0 0 .1.1.1 0 0 0m-114.6-93.2s.1 0 0 0c.1 0 .1-.1 0 0m.6 15.2c-.1-.1-.1-.1 0 0-.1 0-.1 0 0 0m108.3 37.6c0-.1-.1-.1 0 0-.1-.1-.1 0 0 0m-.4-.6c-.1 0-.1 0 0 0m-111-51.1c-.1 0-.1.1 0 0m42.2 33.5c0 .1 0 .1 0 0zm-44.3-30.6c0-.1.1-.1 0 0 0-.1 0-.1 0 0m-.7 1.7c0 .1 0 .1 0 0 .1.1.1 0 0 0m6.9-6.2c0-.1 0-.1 0 0-.1-.1-.1 0 0 0m58.9 26c0 .1 0 .1 0 0zm-55.7-27.1s0 .1 0 0c.1 0 .1 0 0 0m-12.9 24.6s.1.1 0 0c.1 0 .1 0 0 0m19.4-7.2c0 .1 0 .1 0 0m27 36.9s.1.1 0 0c.1 0 .1 0 0 0z"/><path d="m100.8 126.9c.4-.3.7-.6 1-.9.2-.2.3-.1.4.1 0 .2.1.5 0 .6-.5.6-1 1.1-1.6 1.6-.4.3-.9.5-1.4.5-.2 0-.5-.2-.7-.4s-.1-.5.2-.6.5-.1.8-.1c.1 0 .3-.1.4-.1.2-.1.5-.4.9-.7z"/><path d="m34 132.3c-.1-.1-.2-.2-.2-.3.1 0 .2-.1.2-.1.3.1.1.2 0 .4z"/><path d="m8.9 106.9c-.1 0-.1-.1-.1-.2s0-.1.1-.2c0 .1.1.1.1.2 0 0 0 .1-.1.2z"/><path d="m60 200.8c-.1 0-.1 0 0 0 0-.1 0 0 0 0z"/></svg>