<svg enable-background="new 0 0 124.6 135.8" viewBox="0 0 124.6 135.8" xmlns="http://www.w3.org/2000/svg"><path d="m85.2 99c0-.2-.2-.4 0-.6 0 0 0-.2 0-.3-.1-.3-.1-.6 0-.9.1-.2.2-.2.3-.1.1.2.2.3.2.5.1.3.1.7.2 1 0 .2.2.3.3.4.3.3.5.7.6 1.2 0 .1 0 .2.1.2.2.2.3.6.4.9 0 .1.1.2.1.2.2.2.3.4.3.7.1.4.3.8.6 1.1.3.5.7.9.8 1.5 0 0 .1.1.1.1 0-.1.1-.1 0-.2-.1-.3-.2-.6-.3-.8-.3-.8-.5-1.5-.8-2.3-.3-1-.7-1.9-1.1-2.9-.3-.7-.6-1.4-.9-2.1-.1-.2-.2-.5-.5-.6-.1 0-.3-.2-.3-.3-.3-.8-.7-1.5-.8-2.4-.1-.6-.3-1.1-.5-1.7 0-.1-.1-.3-.1-.4-.2-.4-.3-.8-.5-1.3-.2-.9-.6-1.8-.9-2.7-.3-1-.5-2.1-.8-3.1-.3-.9-.6-1.9-.8-2.8-.1-.4-.2-.9-.3-1.4s-.3-1-.4-1.5-.3-1-.3-1.5c0-.2 0-.4-.1-.5-.2-.5-.2-1.1-.3-1.6-.1-.6-.2-1.1-.2-1.7 0-.7-.2-1.3-.4-1.9-.1-.3-.1-.6-.1-1-.1-.4-.1-.8-.2-1.2-.1-.3-.2-.7-.2-1 0-.7-.2-1.3-.3-1.9 0-.2-.2-.4 0-.7 0 0 0-.1 0-.2-.3-.4-.3-.9-.4-1.4s-.2-.9-.3-1.4c0-.3-.1-.6-.1-.8 0-.4 0-.9-.1-1.3-.1-.6 0-1.1-.2-1.7 0-.2 0-.6 0-1 0-.2-.1-.5-.1-.7s.1-.5-.1-.7c0 0 0-.1 0-.2 0-.5 0-1-.1-1.5-.1-.7-.1-1.4-.3-2.1-.1-.5-.1-1-.2-1.5 0-.5-.2-1-.2-1.5 0-.3 0-.5-.1-.8-.1-.6-.1-1.2-.2-1.8-.1-.7-.2-1.3-.2-2 0-.4 0-.8-.2-1.2 0 0 0-.1 0-.2-.1-1.1-.1-2.2-.1-3.3 0-.1 0-.3 0-.4-.1.3-.2.4-.2.6-.1.4-.3.7-.4 1.1-.1.2-.2.4-.3.7-.3.7-.6 1.3-.9 2-.3.8-.8 1.5-1.3 2.2-.3.3-.7.6-1.2.5-.1 0-.1-.1-.2-.1 0 0 .1-.1.1-.1.3-.2.4-.5.5-.9.2-.5.5-1 .8-1.5.2-.3.3-.6.4-1s.3-.7.4-1.1c.3-.7.6-1.5.8-2.2s.5-1.5.7-2.2c.1-.6.3-1.2.4-1.7.1-.2.1-.5.1-.7 0-.4 0-.7.2-1.1.1-.2.1-.5.1-.7 0-.6.1-1.1.1-1.7 0-.2.1-.4.1-.5-.1-.4 0-.8 0-1.2s0-.9 0-1.3.1-.9 0-1.3 0-.8-.1-1.2c-.1-.5 0-1-.1-1.5-.1-.7-.2-1.3-.3-2-.1-.4-.1-.8-.2-1.2-.1-.3-.2-.5-.3-.8-.2-.5-.3-1.1-.5-1.6-.1-.3-.3-.6-.4-.8-.1-.1-.2-.2-.4-.1-.3.3-.7.2-1.1 0-.2-.1-.4-.1-.5.1-.4.5-.8.9-1 1.5-.1.2-.2.4-.4.6 0 .1-.1.1-.1.2-.3.9-.8 1.7-1 2.6-.1.2-.2.5-.3.7-.2.3-.1.7-.2 1-.1.5-.2 1-.3 1.4 0 .3-.1.6-.1.8-.1.6-.1 1.1-.3 1.7-.2 1-.6 2-1 3.1-.1.3-.3.7-.4 1-.2.3-.2.6-.3.9-.1.6 0 1.2-.2 1.7v.3c0 .8.1 1.5-.1 2.3 0 .2.1.5.1.7v1.6c.1.8 0 1.7.1 2.5 0 .6.1 1.2.2 1.7 0 .3 0 .6.1.9.1.4 0 .8.2 1.2.1.3.1.6.1.9 0 .6.2 1.1.3 1.7.1.4.2.7.3 1.1 0 .2.1.3.2.5.2.4.2.8.4 1.1.1.1.1.2 0 .3 0 0-.1 0-.2-.1-.2-.3-.5-.6-.7-.9-.3-.4-.5-.9-.6-1.4-.1-.3-.3-.5-.4-.8s-.2-.6-.2-.9c-.1-.6-.2-1.2-.4-1.9-.1-.3-.1-.6-.1-.9-.1-.7-.1-1.4-.2-2.1-.1-.4 0-.8-.1-1.2 0-2.2.1-4.2.1-6.1v-.1c0-.1 0-.1-.1-.2 0 0-.1.1-.1.1-.1.3-.2.5-.4.8-.3.5-.6 1-.9 1.5-.3.4-.5.9-.8 1.3s-.5.8-.8 1.2c-.4.5-.7 1.1-1.1 1.6-.1.1-.2.3-.3.4-.7.7-1.3 1.4-2.2 1.9-.6.4-1.2.8-1.9 1.1-.3.1-.7.2-1 .3-.1 0-.2-.1-.3-.1 0-.1.1-.2.1-.2.3-.2.6-.4 1-.6.1-.1.3-.2.4-.3 0 0 0-.2 0-.3-.1-.2-.3-.4-.5-.6-.3-.4-.5-.9-.6-1.4-.3-1.3-.2-2.5-.2-3.8 0-.5 0-1 .1-1.5.1-.7 0-1.4.3-2 0-.6.3-1.2.4-1.8.2-1 .6-2 .8-3 .2-.7.6-1.3.9-1.9 0-.1.1-.1.1-.2v-.1h-.1c-.2.2-.4.4-.5.7-.2.5-.6.8-.9 1.2-.5.7-1.1 1.3-1.6 1.9-.4.4-.7.9-1 1.4-.2.2-.3.4-.5.6-.3.3-.6.6-.9 1-.2.2-.4.2-.7.2s-.5-.1-.6-.3c-.3-.4-.4-.8-.1-1.3.3-.6.5-1.2.7-1.8.1-.3.2-.6.3-1 0 0 0-.1 0-.2 0 0-.1.1-.1.1-.3.4-.6.7-.9 1.1-.2.2-.4.3-.6.5-.2.1-.3.3-.5.5-.6.6-1.2 1.3-1.9 1.7-.4.2-.7.4-1.1.6s-.9.1-1.3-.2-.4-.5-.2-1c.3-.6.5-1.2.9-1.8.2-.3.3-.7.5-1 .3-.6.7-1.2 1-1.9.2-.5.5-.9.8-1.4.4-.6.7-1.3 1-1.9.4-.8.9-1.5 1.3-2.3.2-.4.5-.7.8-1.1.5-.7 1-1.4 1.6-2 1-1 1.9-2 2.9-3 .5-.5.9-.9 1.4-1.3.9-.8 1.9-1.6 3-2.2.5-.3.9-.4 1.5-.4.3 0 .7-.1 1-.2 0 0 .1-.1.1-.1s-.1-.1-.1-.1c-.1 0-.1 0-.2 0-.4.1-.7 0-.9-.4-.2-.3-.3-.7-.1-1 .1-.1 0-.3-.1-.4 0-.1 0-.2-.1-.3 0-.1 0-.3.1-.3s.3-.1.4.1c.2.2.5.4.6.7.1.2.3.3.5.3s.4.1.5.2.1.2 0 .3c0 0-.1.1-.1.1-.3.2-.3.2-.3.3 0 .2 0 .4.2.5.1.1.1.1 0 .2-.4.5-.6 1.1-.6 1.8 0 .2-.1.2-.2.2-.3-.1-.4-.5-.2-.8 0 0 .1-.1 0-.1 0 0-.1-.1-.2-.1s-.3.1-.4.2c-.4.3-.9.5-1.4.8-.3.1-.5.3-.7.5-.5.4-1 .8-1.4 1.2-.4.3-.8.6-1.2.9 0 0-.1.1-.1.1-.5.4-1 .9-1.4 1.3-.4.3-.7.7-1.1 1-.6.6-1.1 1.2-1.6 1.8-.4.6-.8 1.1-1.3 1.6-.2.3-.4.6-.6.9-.3.4-.5.8-.8 1.2-.3.5-.7 1-.9 1.6-.2.5-.5.9-.8 1.3-.4.7-.7 1.4-1.1 2.1s-.7 1.5-1.1 2.2c-.1.3-.2.6-.4.9 0 .1-.1.1-.1.2-.1 0-.2 0-.2.1.1 0 .2.1.3 0 .2-.1.4-.2.5-.3.4-.3.9-.6 1.2-1 .7-.7 1.4-1.4 2-2.2.7-.8 1.4-1.7 2.1-2.6.7-.8 1.3-1.7 2-2.5.4-.4.7-.8.9-1.4.1-.3.4-.6.7-.9s.6-.6.9-.9c.1-.1.2-.3.4-.5.3-.3.5-.7.8-1 .3-.4.8-.5 1.2-.7.3-.2.7-.4.9-.6.7-.6 1.4-1.1 2-1.8.1-.2.3-.3.4-.5.1-.1.3-.3.5-.3s.4-.1.5-.3c.1-.3.3-.5.5-.7.2-.1.1-.3 0-.4.4-.1.4-.3.4-.5 0-.3.1-.4.4-.5h.3c.2-.2.4-.2.6 0 .2.1.3.1.3-.2 0-.1.1-.2.1-.2.1-.1.2-.1.2 0 .1.2.3.4.4.6 0 .1.1.2.1.2-.2.2-.2.4 0 .6v.2c-.3.1-.5.4-.9.3-.3-.1-.3-.1-.5.2s-.3.6-.3 1c0 .1-.1.3-.2.4v.1h.1c.2-.4.6-.6.9-.8s.7-.4 1-.5c.1-.1.3 0 .5 0h.1s0-.1-.1-.1c-.2-.2-.3-.4-.4-.7s0-.4.3-.5c.2-.1.4-.1.5-.2h.2c.2.2.3 0 .3-.1.1-.3.3-.4.5-.4.3 0 .4 0 .5.3 0 0 .1.1 0 .1 0 .3.1.6.1.9s-.1.4-.3.5c-.4 0-.6-.1-.6-.4 0-.1 0-.1 0-.2s-.1-.1-.1-.2c-.1 0-.1.1-.2.1 0 .1-.1.2-.1.4 0 .3-.2.4-.4.4h-.1.1c.5 0 .8.4 1.3.5.4.1.9 1 .7 1.5v.2s.1 0 .1-.1c.1-.1.2-.3.3-.5.3-.4.5-.9 1-1.1.1 0 .1-.1.2-.2-.1-.1-.2-.2-.4-.3-.1 0-.2 0-.3 0-.4 0-.7-.2-.8-.6-.1-.2-.1-.4-.1-.6-.1-.4 0-.5.4-.6.2-.1.4-.1.5.1.2.2.3.1.5 0 .3-.3.4-.2.7.1.1.1.2.3.4.1s.4-.2.5.2c.1.2.3.4.3.7 0 .2.2.3.4.4s.4.3.5.5c0 0 .1.1.1.1s.1-.1.1-.1c0-.1 0-.2-.1-.3s-.3-.2-.4-.3c-.1 0-.1-.1-.2-.2s-.2-.3-.3-.4c-.2-.2-.2-.4-.1-.6.2-.2.7-.4 1-.2.1 0 .1.1.2.1s.2 0 .2-.2c0-.1 0-.2.1-.2.1-.1.2-.2 0-.3 0-.3-.1-.7.2-1 .1-.1.3-.2.3-.4 0 0 0-.3.2-.2.1 0 .2.2.3.3 0 .3 0 .4.4.4 0 0 .1.1.2.2v.3c0 .1.1.2.2.3 0-.1 0-.2.1-.2.2-.3.3-.6.7-.7.1 0 .2-.1.3-.2s.1-.2.2-.2c.1-.1.1-.2.3-.1.1.1.2.1.1.3s-.1.4-.1.6c.1.2.1.4.1.6 0 .1.1.1.2.2.2 0 .3.2.2.3-.1.2 0 .2 0 .3v.1s.1 0 0-.1c-.1-.2.2-.4 0-.6-.2-.3 0-.6.4-.7.1 0 .2 0 .2-.1.2-.5.7-.4 1.1-.5.5-.1.9-.3 1.1-.6 0-.1 0-.2 0-.2-.1 0-.1 0-.2 0-.2.1-.4 0-.6-.2-.1-.2-.2-.3-.1-.6s.2-.5.4-.8c.3-.3.3-.7.7-1 .3-.2.6-.4 1.1-.4.2 0 .5-.1.7-.1.9-.1 1.8.2 2.7.4.6.2 1.3.5 1.9.7.5.3 1.1.6 1.6.9.7.4 1.3 1 2 1.4.1.1.1.1.2.2.2.2.4.4.6.6.3.3.5.6.8 1s.7.9 1 1.3c.4.6.7 1.1 1 1.7.3.8.7 1.5 1.1 2.2.2.4.3.8.5 1.3.3.7.5 1.4.8 2.1.1.2.1.5.2.7.1.3.2.6.3.9s.2.7.2 1c.1.7.2 1.4.4 2 0 .4 0 .8.1 1.2.1.7-.1 1.2-.5 1.8-.2.2-.3.5-.5.7-.1.1-.3.2-.4.2-.3 0-.5 0-.8 0-.1 0-.2 0-.1.2.4.7.6 1.5.8 2.2.1.2.1.5.1.7.1.3 0 .5 0 .8v.9c-.1.5-.2 1.1-.6 1.5-.2.1-.4.2-.6.3-.3.1-.4.1-.4.4-.1.6-1 1.1-1.6.9-.8-.3-1.7-.6-2.5-1.1-.2-.2-.5-.2-.7-.3-.3-.2-.7-.4-1-.6-.4-.4-.9-.7-1.2-1.2h-.1s-.1 0-.1.1v.4.8.2c0 .9-.1 1.8-.1 2.7 0 .5 0 .9-.1 1.3-.1.3-.3.6-.4.9 0 .1-.1.2 0 .3.1.2.1.4-.1.5-.2.2-.4.2-.6.2-.1 0-.2-.1-.2-.1-.2 0-.4 0-.5-.3 0 0-.1 0-.1-.1v.1c0 .3.3.4.4.4.2 0 .3.1.4.3.3.5.6 1 .9 1.5s.6 1 .6 1.6c0 .1 0 .2-.1.2-.2.1-.2-.1-.2-.2-.1-.2-.2-.3-.2-.5-.2-.5-.5-.9-.8-1.3-.6-.8-1.2-1.6-1.8-2.4s-1.1-1.5-1.6-2.3c-.3-.5-.6-.9-.9-1.4-.2-.3-.4-.7-.6-1-.5-.8-1-1.6-1.4-2.4s-.8-1.7-1.2-2.5c-.3-.6-.5-1.2-.7-1.8-.3-.8-.6-1.7-.9-2.5-.1-.4-.2-.8-.3-1.2 0-.4-.3-.8-.3-1.2 0-.3-.1-.6-.2-1 0 0 0-.1-.1-.1v.1c0 .2 0 .4.1.6v.2c0 .8.1 1.6.1 2.5 0 .4-.1.8-.1 1.2s.1.7.2 1c.2.5.4 1.1.6 1.7.1.2.1.5.1.8 0 .4-.1.8-.2 1.1 0 .1-.2.3-.2.3-.2 0-.2-.2-.2-.4 0-.4 0-.8.1-1.2s-.1-.8-.2-1.1c0-.1-.1-.1-.2-.1 0 .1-.1.1-.1.2v1.2c-.1.5.1 1 .2 1.6 0 .4.1.8.1 1.2 0 .3.1.6.2.8 0 .1.1.2.1.3.1.7.1 1.3.2 2 .1.6.2 1.2.3 1.8.1.3.1.6.1 1s.2.8.2 1.2c.1.6.3 1.2.3 1.8 0 .4.1.7.2 1.1.1.3.1.6.2.9 0 .4.1.8.2 1.2s.2.8.3 1.2c.1.6.2 1.2.3 1.9v.6c0 .4.1.8.1 1.1 0 .1.1.2.1.3 0 .6.1 1.3.3 1.9.2.7.2 1.4.4 2 .1.5 0 1 .3 1.4 0 .4.2.8.2 1.3 0 .1.1.3.1.4.1.5.1.9.2 1.4s.1 1 .2 1.5c.1.2.1.4.1.6 0 .5.2.9.3 1.3s.2.8.3 1.3c.2.8.4 1.6.6 2.4v.4c0 .1.2.2 0 .4v.1c.2.3.2.7.3 1s.1.6.2.9c.2.8.3 1.7.6 2.6-.1.4.1.8.2 1.2.1.5.2 1 .4 1.5.1.2.1.4.1.6.1.3.2.6.3.9 0 .1.1.2.1.3 0 .4.2.7.2 1 .1.4.2.7.2 1.1 0 .3 0 .6-.2.8-.1.1-.1.3 0 .5.2.8.4 1.5.6 2.3.2.5.4 1 .6 1.6.2.4.3.8.5 1.3.1.2 0 .4.1.5.3.6.3 1.3.6 1.9.2.4.3.8.4 1.2.1.3.1.6.2.9.1.2.1.5.2.8s.1.7 0 1c0 .1-.1.2-.2.2-.5.2-.8.1-.9-.4-.2-.8-.4-1.6-.7-2.4-.2-.7-.3-1.4-.6-2.1-.2-.6-.3-1.2-.5-1.7-.3-1-.5-1.9-.8-2.9-.1-.4-.1-.9-.3-1.3-.1-.2-.1-.4-.1-.6-.1-.7-.2-1.4-.4-2-.1-.5-.2-1-.3-1.5s-.2-.9-.3-1.4c-.1-.4-.2-.7-.3-1.1 0-.2-.1-.4-.1-.6 0-.1-.1-.1-.1-.2 0-.5-.2-1-.3-1.6-.1-.4-.2-.8-.3-1.3s-.2-1.1-.3-1.6c0-.2-.1-.5-.1-.7-.1-.6-.1-1.2-.3-1.7-.1-.6-.2-1.1-.3-1.7s-.3-1.3-.4-1.9-.2-1.2-.3-1.9-.2-1.4-.2-2.1c-.1-.7-.2-1.3-.3-2-.1-.6-.3-1.1-.4-1.7s-.3-1.2-.4-1.8-.2-1.2-.3-1.9c0-.4 0-.8-.1-1.2-.1-.5 0-1-.1-1.4-.1-.5-.1-1.1-.2-1.6-.1-.4-.1-.9-.2-1.3-.1-.5-.2-1-.3-1.5-.1-.4-.1-.8-.2-1.1-.1-.5-.1-1-.2-1.5-.1-.3-.1-.6-.1-.8-.1-.6-.2-1.3-.2-1.9s-.2-1.3-.3-1.9c-.1-.5-.1-1-.2-1.6 0-.2-.1-.4-.1-.7 0 0-.1-.1-.1-.1s-.1 0-.1.1c-.1.2-.1.4-.2.7 0 0 0 .1.1.1.2.1.3.3.3.5 0 1 .1 1.9.1 2.9 0 .2-.1.4 0 .7v.7c0 .6 0 1.3.3 1.9v.2c0 .6.1 1.3.3 1.9.1.3 0 .6.1.9s.1.6.2.9 0 .6.1 1c.1.6.1 1.1.2 1.7.1.3 0 .6.1.9.1.6 0 1.1.3 1.7v.1c0 .5 0 .9.1 1.4.1.6 0 1.2.2 1.7v.4c0 .5 0 1 .2 1.5.1.5.1 1 .2 1.5s.2 1 .3 1.5c0 .2 0 .5.1.7.1.7.4 1.3.4 1.9.1.8.4 1.5.5 2.2.1.3 0 .6.1.9.2.7.2 1.4.3 2.1.1.5.1 1 .2 1.5.1.4.2.8.3 1.2.1.5.3.9.2 1.4 0 .2.1.4.1.5.1 1 .4 2 .7 2.9.1.4.2.9.3 1.4 0 .3.1.5.2.8.1.5.2 1 .4 1.6 0 .2.1.4.2.5.2.4.3.9.5 1.3.1.3.2.6.2 1 .1.6.2 1.3.5 1.9.1.2.1.4.2.6.1.4.3.8.4 1.2 0 .4.2.7.4 1 .2.4.3.9.5 1.3s.4.9.5 1.3c.1.5.3 1 .4 1.5 0 .3.2.5.3.8.1.4.2.8.3 1.1.1.2.2.3.3.5.1.3.2.5.4.8 0 0 .1.1.1.1s.1-.1.1-.1c0-.1-.1-.3-.1-.4 0-.2.1-.3.3-.2.3.1.5.2.7.5.1.3.4.6.5 1 0 .1.1.4.4.4.1 0 .3.2.3.4.1.7.3 1.4.6 2.1.1.2.1.4.2.7.1.2.1.5.2.7.3.5.4 1.1.7 1.7 0 .1.1.1.1.2 0-.1.1-.1.1-.2.1-.3.1-.6.3-.9.2-.4.3-.9.5-1.3s.4-.8.5-1.3c.2-.4.4-.8.6-1.3.4-.8.9-1.6 1.5-2.3.2-.3.4-.5.6-.8.4-.4.8-.7 1.3-.9.3-.1.5-.2.8-.2.7-.1 1.3-.1 2-.1.7.1 1.3.3 1.8.7.6.5 1.3.9 1.9 1.4.4.3.9.6 1.3.9.1.1.2.2.2.2.1.2.3.3.4.5.6.5 1.2 1.1 1.8 1.6.5.5.9 1 1.2 1.5.1.1.3.2.4.3.6.2 1.1.5 1.7.7.7.2 1.3.5 2 .6.3 0 .5.2.8.2.4.1.9.2 1.3.3s.8.1 1.2.2c.6.1 1.3.1 1.9.3.1.1.3.1.4.2.1 0 .1.1.1.2 0 .2-.3.5-.6.5-.1 0-.3-.1-.4-.1-.4-.1-.7-.1-1.1-.2-.8-.1-1.7-.3-2.5-.4-.9-.2-1.7-.4-2.5-.6-.5-.1-1-.3-1.5-.5h-.1v.1c.3.4.4.9.6 1.3s.2.8.1 1.2c0 .4-.2.7-.2 1.1-.1.4-.2.7-.1 1.1 0 .2 0 .5-.1.7-.1.4-.1.7-.1 1.1 0 .9-.1 1.9-.1 2.8 0 .3-.2.4-.4.5s-.4 0-.5-.1c-.2-.1-.3-.3-.4-.5-.2-.5-.6-.9-.9-1.4-.2-.3-.5-.6-.7-1s-.5-.8-.7-1.2c-.2-.3-.4-.6-.7-.9-.1-.2-.3-.4-.4-.5-.7-.8-1.5-1.3-2.3-1.8-.6-.4-1.3-.7-2-1.1-.4-.2-.8-.4-1.3-.5-.5-.2-1 0-1.4.1-.5.1-.8.5-1.3.8s-.9.9-1.5 1.1c0 0-.1.1-.1.1-.7.7-1.5 1.3-2.3 1.9-.1.1-.2.2-.1.3.3.5.3 1.1.5 1.6.1.5.2 1.1.3 1.6 0 .1.1.1.1.2.1 0 .1-.1.2-.1.3-.6.8-1.1 1.2-1.5.3-.2.5-.5.8-.7s.6-.2.9-.1c.1 0 .2.1.1.3-.1.1-.1.3-.1.4 0 .3-.1.4-.3.6-.7.5-1.2 1.1-1.5 1.9 0 .1-.1.2-.2.2-.3.4-.3.8-.4 1.3v.1c-.3.5-.3 1-.5 1.6-.1.2-.1.4-.1.6 0 .6-.1 1.1-.1 1.7 0 .3 0 .5-.1.8 0 .1.1.3.1.4 0 .3.1.6-.1 1-.1.2.1.4 0 .6-.1.5 0 1 0 1.5 0 .7.2.7.6.9.1 0 .2.1.3.2.3.6.6 1.1.9 1.7.2.5.4 1 .7 1.5.1.3.2.3.4.1s.5-.3.5-.6c.1-.5.3-1 .3-1.5 0-.9.1-1.7.1-2.6 0-.3.1-.6 0-1 0-.2 0-.4 0-.7 0-.2 0-.4 0-.6s0-.4.1-.5c0-.2-.1-.3 0-.5 0-.1 0-.2 0-.3-.1-.2 0-.4 0-.7 0-1.1.1-2.3.1-3.4 0-.5.1-1.1.2-1.6.1-.3.1-.6.3-.9s.4-.5.6-.8c.1-.1.3-.1.4-.2h.4c.3-.1.4.1.5.3 0 .2-.1.3 0 .5s0 .3 0 .5c0 .4-.1.4-.4.3-.1 0-.2 0-.2.1-.1.6-.4 1.3-.3 1.9 0 .1-.1.2-.1.4 0 .1 0 .2.1.1.2-.2.3 0 .3.2 0 .3 0 .6-.1.9-.2.5-.2 1.1-.3 1.7-.1.4 0 .8-.1 1.2-.2 1.3 0 2.6-.1 4 0 .2.1.4.1.6v.4c0 .1.1.3 0 .4-.2.5-.2 1.1-.4 1.7-.1.3-.3.5-.6.7s-.4.4-.4.7v2.2c0 .4-.1.7-.3 1s-.4.6-.9.6c-.3 0-.6-.2-.7-.5-.2-.5-.3-.9-.4-1.4-.2-.8-.5-1.6-.8-2.4-.2-.4-.3-.9-.5-1.3s-.4-.8-.7-1.2c-.1-.1-.2-.1-.4-.2-.2 0-.4 0-.5 0-.2 0-.3-.1-.3-.3 0-.1-.1-.2-.1-.4 0-.7-.2-1.4-.1-2.1 0-.3 0-.6 0-.9 0-.8 0-1.6.1-2.5.1-.6 0-1.2.2-1.7 0-.1-.1-.1-.2-.1-.2 0-.3 0-.5-.2s-.1-.3 0-.4c.2-.2.2-.5.4-.7.1-.1 0-.1 0-.2h-.1c-.3.3-.7.4-1.1.6-.2.1-.4.1-.6.1-.3 0-.7.1-1 .1-.1 0-.2 0-.2.2 0 .4.1.7-.1 1.1.2.3-.1.6 0 1v1.1 1.1c0 .2-.1.4-.1.5s-.1.1-.1.2c0 .4 0 .8-.1 1.1-.1.4-.2.7-.3 1.1-.1.3-.2.7-.2 1 0 .4-.2.8-.2 1.2-.1.7-.3 1.3-.5 1.9 0 .2-.1.3-.2.5-.1.4-.2.8-.4 1.2v.2c-.2.5-.5 1.1-.7 1.6-.1.3-.2.7-.4 1.1-.1.2-.1.3-.2.5-.2.4-.5.8-.7 1.3-.2.3-.3.7-.4 1.1-.1.2-.1.3-.2.5 0 .3-.1.5-.1.8s-.1.5-.4.7c-.1.1-.2.2-.3.2s-.2.1-.2.1c-.6-.1-1-.4-1.4-.8-.2-.3-.4-.6-.6-1-.2-.5-.6-1.1-.7-1.6-.1-.4-.2-.8-.2-1.2-.1-.4-.2-.9-.2-1.3 0-.5.1-.9.2-1.4.1-.7.4-1.3.4-1.9 0-.4.2-.7.3-1.1 0-.2.1-.3.1-.5 0-.5.2-.9.2-1.3s.2-.9.3-1.3.2-.8.3-1.2.1-.8.3-1.2.2-.8.3-1.2c.2-.6.3-1.3.7-1.9.1-.1.1-.2.1-.3 0 0 0-.1-.1-.1-.2-.1-.4-.2-.6-.4-.1-.1-.3-.3-.4-.5s-.2-.4-.3-.6c-.2-.3-.2-.6.1-.9s.7-.5 1.2-.7c.3-.1.7-.2 1-.5.2-.2.8-.2 1.1-.1.1 0 .2.1.2.2.1.1.3.1.4 0 .3-.4.8-.5 1.2-.7 0 0 .1 0 .1-.1 0 0-.1-.1-.1-.1-.1 0-.2-.1-.2-.1-.1-.1-.3-.1-.4-.2-.2-.3-.5-.4-.5-.8 0-.1-.1-.2-.2-.3-.1-.2-.1-.4-.1-.5s.3-.2.5-.1.4.2.6.4c.3.3.6.4 1 .4.3 0 .6.2.8.4s.1.4.1.6c0 0-.1.1-.1.1v.1h.1c.3-.3.5-.6.5-1 0-.2 0-.4 0-.6s-.1-.4-.3-.4c-.4-.2-.6-.4-.9-.7-.4-.3-.7-.7-.9-1.2-.1-.2-.3-.5-.4-.7s-.1-.3.1-.4c.1-.1.3 0 .4.1.1.2.3.4.4.6 0 .1.1.1.2.1.3 0 .4.2.6.4.3.5.8.8 1.2 1.1.1.1.4.2.1.4 0 0-.1.1 0 .1.2.4-.1.8 0 1.2v.2s.1 0 .1-.1c.2-.1.4-.2.6-.4.1 0 .2-.1.2-.2s0-.3 0-.4c-.2-.5-.5-.9-.8-1.3s-.6-.8-.9-1.2-.5-.8-.8-1.2c-.5-.8-1-1.6-1.4-2.4-.1-.2-.3-.5-.4-.8 0-.1-.1-.1-.2-.1v.2c0 .3 0 .6-.1.8-.2.3-.3.6-.5 1-.1.2-.3.5-.4.8-.2.3-.3.5-.5.8-.4.5-.8 1-1.1 1.5-.2.2-.3.5-.5.7-.4.4-.7.9-1.2 1.3-.5.5-1 .9-1.5 1.3-.2.2-.4.5-.6.8 0 .1-.1.1-.1.2-.6.7-1.3 1.4-1.9 2-.3.3-.7.6-1.1.7-.3.1-.5.3-.7.4s-.4.2-.6.2c-.4.1-.8.3-1.1.6-.1.1-.2.3-.4.2-.1-.1-.1-.3-.2-.4 0-.2-.1-.1-.1 0-.3.1-.5.3-.8.5-.2.2-.5.4-.7.7-.1.1-.3.3-.4.2-.3-.1-.6-.2-.8-.3-.1-.1 0-.3 0-.5 0-.1 0-.1 0-.2-.1 0-.2 0-.2.1-.1 0-.1.1-.1.2 0 .6-.1 1.2-.1 1.8 0 .3-.1.5-.1.8 0 .2-.1.4.1.5.1.1.2.3 0 .4-.4.3-.2.6-.1 1v.2c-.1.1-.1.3-.3.3s-.5 0-.7-.2c-.1-.1-.3-.2-.5 0-.3.3-.6.5-.9.7-.1.1-.3.2-.4.3-.2.1-.3.3-.5.5-.3.4-.6.7-.9 1.1-.4.5-.7 1.1-1 1.6-.3.4-.6.9-.8 1.3s-.5.7-.7 1.1c-.4.8-.9 1.6-1.5 2.3-.3.3-.4.8-.6 1.2-.1.3-.2.6-.4.9-.3.6-.5 1.2-.7 1.9-.1.4-.3.8-.5 1.2-.2.3-.5.4-.7.4-.1 0-.2 0-.1-.2s.1-.4.1-.6c-.1-.4-.1-.9 0-1.3s.2-.8.3-1.3c.2-.6.4-1.2.6-1.7.3-.7.6-1.4 1-2 .4-.7.8-1.3 1.3-1.9.2-.2.3-.5.5-.8.5-.7.9-1.4 1.5-2 .5-.5.9-.9 1.4-1.4.3-.3.7-.6 1.1-.8.2-.1.2-.2 0-.3s-.4-.2-.6-.2c-.4 0-.7-.1-1.1.1h-.1c-.8 0-1.5.1-2.3.1-.3 0-.6.1-.8.3s-.5.5-.7.7c-.1.1-.2.1-.3.2-.2.1-.3.2-.4.4 0 .1-.1.2-.1.2-.5.5-.9 1.1-1.2 1.7-.2.3-.4.5-.5.8-.1.2-.2.4-.3.7-.4.9-.9 1.8-1.2 2.7-.2.5-.2 1.1-.4 1.6-.2.9-.1 1.8-.2 2.6 0 .5 0 1-.3 1.5 0 0 0 .1-.1.1s-.1-.1-.2-.1c0 0 0-.1 0-.2 0-.4-.1-.8-.2-1.2-.1-.2-.1-.5-.1-.7-.1-.7-.2-1.4-.1-2.1.1-1.4.6-2.7 1.3-3.9.2-.3.4-.7.5-1.1.2-.4.3-.7.6-1 .1-.1.1-.1.1-.2s0-.1 0-.2c-.1 0-.1 0-.2 0-.4.2-.8.3-1.2.5-.7.3-1.4.7-2.1.9-.2 0-.3.2-.4.2-.6.4-1.3.8-1.9 1.1-.1.1-.4.1-.5 0-.3-.1-.6-.1-.8-.5 0-.1-.2-.1-.3-.1-.3-.1-.4-.4-.5-.6-.3-.6-.2-1.3-.2-1.9 0-.3.3-.6.5-.8.3-.3.7-.5 1.1-.8.5-.4 1.1-.7 1.7-.9.5-.1.9-.3 1.4-.4.4-.1.9-.2 1.3-.2.7-.1 1.4-.2 2-.3h1.2c.4 0 .7 0 1.1-.2.2-.1.4 0 .6 0 .4 0 .8-.1 1.1-.3.5-.4 1.2-.6 1.8-.7.4-.1.7-.2 1.1-.2h1.8c.2 0 .3-.1.3-.3 0-2.1.1-4.1.1-6.2 0-.2 0-.4 0-.6s-.1-.4-.1-.6c0-.5.1-1 .1-1.5-.1-.9 0-1.7-.1-2.6 0-.5 0-.9-.1-1.4 0-.3-.1-.7-.2-1 0-.3 0-.6-.1-.9-.1-.7-.2-1.4-.3-2.1-.1-.6-.2-1.2-.3-1.8 0-.3-.1-.6-.2-.9s-.1-.6-.2-.8c-.1-.4-.2-.9-.3-1.3s-.1-.9-.2-1.4-.2-1.1-.4-1.6c-.4-.9-.6-1.9-.9-2.9-.1-.5-.3-1-.5-1.5-.1-.5-.2-1-.3-1.4-.1-.5-.2-1-.3-1.5-.1-.3-.1-.6-.1-.9s0-.5.2-.6.2-.3.1-.5c-.3-.7-.6-1.3-1.1-1.8 0 0-.1-.1-.2-.1 0 .1-.1.1 0 .2.2.4.1.9.3 1.3v.3c0 .6.1 1.2.2 1.7.1.6.2 1.2.4 1.7 0 .2.1.5.1.7 0 .5.1 1.1.3 1.6v.1c0 .8 0 1.6.1 2.4.1.4 0 .8-.1 1.2 0 .3.1.6-.1.8v.1c.2.5-.1 1-.1 1.5 0 .4-.6.9-1 .8-.3 0-.5-.1-.7-.3-.1-.1-.3-.2-.5-.3-.1-.1-.3-.2-.4-.3-.5-.5-.8-1-1.2-1.6-.4-.7-.7-1.4-1-2.2-.1-.4-.2-.8-.3-1.2-.1-.6-.2-1.1-.3-1.7 0-.5-.2-.9-.2-1.4 0-.1 0-.1 0-.2 0-.6-.1-1.2-.3-1.8v-.1c0-.5-.1-1.1-.1-1.6 0-.3 0-.7 0-1s.1-.5-.1-.8c.2-.6 0-1.3.2-2 .2-.8.3-1.6.5-2.4.1-.3.1-.6.2-.9 0-.1 0-.1 0-.2 0 0-.1.1-.1.1-.2.5-.6.9-.8 1.4-.2.4-.4.9-.5 1.3s-.2.8-.4 1.2c-.1.3-.1.6-.2.9 0 .5-.2 1-.2 1.5 0 .3-.1.6-.1.9 0 .7-.1 1.4-.3 2.1-.1.2-.1.5-.1.7-.1.6-.2 1.2-.4 1.7s-.4 1.1-.8 1.5c-.3.3-.7.3-1 .1-.2-.1-.3-.3-.4-.5-.2-.3-.4-.6-.6-1-.3-.6-.5-1.3-.5-2-.1-1.6 0-3.2-.1-4.8 0-.6 0-1.2.2-1.8 0-.1 0-.2-.1-.3-.1.1-.1.2-.2.2-.2.3-.3.7-.6 1-.2.3-.4.7-.5 1.1-.2.4-.3.5-.7.6s-1-.3-1-.9c0-.4 0-.9-.2-1.3 0-.1 0-.2 0-.2 0-.1.1-.2.1-.2-.2-.2 0-.4 0-.7 0-.2 0-.5.1-.7 0-.3.1-.5.2-.8.2-.7.4-1.3.6-2 .1-.5.4-.8.7-1.2.5-.7 1.1-1.3 1.7-1.9.5-.5 1.1-.9 1.8-1h.1c.2-.2.4-.2.7-.1.1 0 .2 0 .2-.1.1-.1.1-.3.1-.3-.4-.4-.2-.9-.2-1.4 0-.1 0-.2 0-.3-.1-.3.1-.6.3-.9 0-.1.1-.1.1-.2 0-.3.1-.6.1-1 0-.3.1-.5.3-.8.3-.4.5-.8.8-1.3v-.1c.2-.4 1.3-.8 1.7-.6.1 0 .2 0 .3.1.2.2.5.2.8 0h.1c.6.1.7-.5.9-.8s.3-.4.6-.4.5 0 .6.3c0 .1.2.2.3.2.4 0 .5.2.6.6.1.3-.1.5-.4.5-.2 0-.4 0-.6-.2 0-.1-.1-.1-.2-.1s-.3 0-.2.2c0 .3 0 .6-.3.8-.2.1-.3.3-.5.1-.1-.1-.4-.1-.5.2s-.3.3-.5.3c-.6 0-.7 0-.9-.6-.1-.2-.3-.2-.5-.3s-.4 0-.5.2-.2.4-.3.6-.1.4-.3.4c-.1 0-.1.2-.1.3 0 .5-.1 1-.1 1.5 0 .2-.2.2-.3.2-.2 0-.3.2-.3.3v1.2.2c.1.2.1.4.1.7 0 .6-.1 1.2.1 1.7.1.2.1.4.1.6 0 .1.1.1.1.2h.1v-.1c-.2-.2 0-.3.1-.4s.1-.2.1-.3c.1-.4.2-.5.6-.5.5 0 .8-.3 1.2-.6s.7-.3 1 0c.1.2.3.3.4.5.1.1.1.1.2.1 0-.1.1-.2.1-.2 0-.1 0-.1 0-.2 0-.3.1-.4.4-.5.4-.1.4-.1.7.1.2.1.3.1.5 0s.3-.4.6-.2c.4.3.6.5.4.8-.2.4.1.7.1 1h.1s.1-.1.1-.1c.3-.2.5-.5.2-.9-.1-.2-.1-.5-.2-.7-.2-.3 0-.4.2-.5.2-.2.5-.2.7-.1.1.1.2.2.3.1.2-.1.1-.3.1-.4s0-.2 0-.3c0-.2.1-.3.2-.3.2-.1.4-.2.6-.2.3 0 .5.1.6.4 0 .1 0 .2.1.1.1 0 .2-.1.2-.2s.1-.3-.1-.4-.2-.3-.3-.5c-.4-.5-.4-.6-.1-.7.5-.2.7-.1 1 .3.2.2.2.4 0 .6 0 0-.1.1-.1.1h.2c.1 0 .2-.1.2-.1.1 0 .2-.1.2-.1h1c.3.1.6.2.9.3s.6.3.9.5c.1.1.4.2.5.3.8.4 1.5 1 2.2 1.5.4.3.8.6 1 1.1.1.3.3.6.2.9 0 .4-.3.7-.7.7s-.7 0-1.1-.1c-.2-.1-.4-.2-.5-.4-.1-.1-.1-.2.1-.2.1 0 .3-.1.4-.1.4 0 .5-.1.6-.5.1-.2-.1-.4-.2-.5-.2-.2-.4-.4-.7-.5-.5-.3-.9-.6-1.4-.9-.7-.4-1.4-.8-2.1-1.1-.1-.1-.3-.1-.5 0-.3.1-.6.2-1 .3 0 0-.1 0-.1.1 0 0 .1.1.1.1h.3c.8 0 1.4.4 2 .8.5.4.8.8 1.2 1.3.4.7.9 1.4 1.3 2.1.5.9.8 1.7 1.2 2.6.2.5.5 1.1.7 1.6.3.6.5 1.3.7 2 .3 1 .2 2.1.2 3.1 0 .2 0 .4-.1.6s-.2.4-.5.4c-.2 0-.5.1-.7.2-.5 0-.9 0-1.2-.4-.4-.5-.8-1-1.1-1.5-.1-.1-.2-.3-.3-.4-.5-.4-.9-.8-1.4-1.2-.3-.2-.5-.5-.6-.8 0 0-.1-.1-.1-.1v.2c.1.4.3.8.4 1.1.3.7.5 1.4.8 2.1.1.3.2.6.3 1 .1.3.1.5.2.8.2.5.4.9.5 1.4.1.4.2.8.2 1.3v.7c-.1.6-.2 1.2-.5 1.7 0 .1-.1.1-.1.2-.2.1-.3.2-.2.4 0 .2-.1.5.1.7-.2.7.2 1.4.1 2.1.2.5 0 1.1.2 1.6-.2.3 0 .6 0 .9 0 .9 0 1.8.1 2.7.1.7.2 1.4.2 2 0 .5.1 1.1.2 1.6.1.4 0 .8.1 1.2.1.6.1 1.3.2 1.9.1.3 0 .7.1 1 .1.4 0 .9.2 1.3v.3c0 .4 0 .7.1 1.1.1.2 0 .5 0 .8 0 .2.2.4 0 .7 0 0 .1.1.1.1s.1-.1.1-.1c.1-.4.4-.6.8-.8.1-.1.2.1.3.2s.1.1.2 0c0 0 .1-.1.1-.1.3-.2.6-.1.7.2.1.4.2.7.3 1.1.1.3.1.7.2 1 0 .1.1.1.2.1.5-.3 1.1-.7 1.7-.9.3-.1.6-.2 1-.2.7 0 .7 0 1.3-.4.5-.5 1-1 1.4-1.6.3-.4.6-.7.9-1.1.5-.5 1-.9 1.4-1.4.7-.7 1.4-1.4 2-2.2.3-.4.6-.7.8-1.1.4-.6.7-1.3.9-2 .2-.6.2-.6.1-.9 0-.1-.1-.1-.2-.1-.7.4-1.5.8-2.1 1.3-.7.6-1.4 1.2-2.1 1.8-.6.5-1.1 1-1.7 1.5-.3.3-.7.6-1 .9s-.5.6-.7.8c-.1.1-.2.1-.2.2-.1.1-.3.3-.4.4-.3.3-.5.6-.8 1s-.7.7-1 1.2c-.1.2-.2.4-.5.4s-.6-.3-.5-.6.3-.7.6-1c.2-.3.5-.6.7-1 0 0 0-.1.1-.1.3-.4.7-.8 1.1-1.1.4-.4.8-.8 1.2-1.2.5-.5 1-1 1.5-1.4.1-.1.3-.2.4-.3.1 0 .1-.1.2-.1.2-.2.4-.4.6-.6.9-.9 1.8-1.6 2.9-2.2.5-.3.9-.5 1.4-.8.2-.1.3-.2.5-.3.3-.1.5-.1.8.1 0 0 .1.1.1.1 0-.1 0-.1 0-.2-.1-.3-.2-.6-.3-1-.8-.8-.9-1.3-1.1-1.9m-8.4-48.6c0 .1 0 .1 0 0m10.5-4.6v.2h.1s0-.1-.1-.2m-2.9 34.5c.1 0 .1 0 0 0-.1-.2-.1-.2-.2-.4h-.1s.1 0 .1.1c.1.1.2.2.2.3m-19.8-47c.1 0 .1 0 0 0 .3-.7.7-1.3.8-2 0-.4.2-.9.2-1.3.1-.6.2-1.1.4-1.6.1-.4.2-.8.4-1.3.2-.7.5-1.5.7-2.2.2-.6.4-1.2.5-1.8.1-.3.1-.7.2-1 .2-.5.3-1 .3-1.6 0-.3.1-.6.2-.9 0-.1.1-.3.1-.4 0-.3-.1-.6-.2-.8-.1-.3-.2-.5-.5-.7-.1 0-.2-.2-.2-.2 0-.3-.2-.2-.3-.2-.2 0-.4.1-.6.2-.3.2-.7.5-1 .8-.4.5-.8 1-1.2 1.4-.8.9-1.3 1.9-2 2.8-.4.5-.6 1.1-1 1.6-.5.7-.9 1.5-1.3 2.3-.3.5-.6 1-.8 1.6-.3.8-.7 1.6-1 2.4-.1.2-.1.3-.2.5s-.2.5-.3.7c-.4 1.2-.8 2.4-1 3.6-.1.4-.2.7-.2 1.1 0 .8-.1 1.6-.2 2.4-.1.9-.1 1.8-.1 2.7 0 .3.1.5.1.8 0 .2 0 .5.2.7.1.1.1.3.1.4 0 .2.1.4.2.6s.2.2.3.1c.2-.2.5-.3.7-.5.4-.4.9-.9 1.3-1.4.5-.5.9-1 1.2-1.6.4-.6.8-1.1 1.1-1.7.1-.2.2-.4.4-.6.4-.5.6-1.1 1-1.7.2-.4.4-.8.6-1.2.2-.5.5-1 .7-1.5.2 0 .3-.2.4-.5m30.8 2.8c0-.6-.1-1.2-.3-1.8-.1-.6-.4-1.3-.6-1.9-.1-.4-.3-.8-.4-1.2-.1-.3-.3-.6-.6-.8-.2-.1-.2-.2 0-.4 0 0 .1-.2.1-.2-.2-.6-.5-1.1-.7-1.7-.3-.6-.6-1.2-.8-1.8-.3-.6-.5-1.2-.8-1.8s-.6-1.1-.9-1.7c-.4-.7-.7-1.4-1.1-2.1s-.8-1.3-1.2-2c-.4-.6-.8-1.1-1.2-1.7-.6-.8-1.1-1.5-1.8-2.2-.4-.4-.8-.5-1.3-.6-.2 0-.2.1-.2.2 0 .2.1.3.1.5v.2c-.1 0-.1 0-.2-.1s-.2-.3-.3-.4c-.2-.4-.4-.9-.5-1.3-.1-.2-.2-.3-.4-.2-.1 0-.2 0-.3 0-.2 0-.4-.2-.6-.1-.2 0-.2.3-.3.5-.2.3-.3.5-.6.4-.2 0-.3.1-.3.3v.5c-.1.4-.1.7-.2 1.1 0 .2.1.3.3.3.7 0 1.3.3 1.7.9.2.3.3.8.5 1.1.1.2.3.5.4.8.1.1.1.2.1.4.1.4.3.8.5 1.2.2.5.4 1.1.7 1.6.2.6.5 1.3.7 1.9.3.7.6 1.5.8 2.2.2.6.4 1.1.6 1.6.2.6.5 1.2.5 1.8v.2c.2.6.3 1.2.5 1.9.1.2 0 .5.3.5 0 0 .1.2.1.2v.9c0 .3.1.6.3.8l1.5 1.5c.1.1.1.1.2.2.4.5.8.8 1.3 1.1.6.3 1.3.5 1.8 1 .2.2.4.2.6.4.2.1.3.1.4-.1.2-.4.5-.8.6-1.4 0-.2.1-.3.2-.4.1-.2.3-.1.4-.1.2 0 .2.2.2.3v.8.2s.1.1.1.1 0 0 0-.1c0-.3.1-.9.1-1.5m-10.5-7.8c0-.1-.1-.1-.1-.2-.3-.7-.5-1.4-.8-2.2-.2-.7-.5-1.3-.7-2-.2-.5-.3-.9-.5-1.4-.2-.6-.5-1.1-.7-1.7-.1-.2-.1-.2-.3-.1-.6.3-1.2.2-1.8.3-.3 0-.6 0-.8 0-.6 0-1-.2-1.4-.7 0 0-.1-.1-.1-.1s-.1.1-.1.1c0 .7 0 1.4.1 2.2 0 .2 0 .4.1.7 0 .2.1.4.1.7s0 .6.1.9c.2.9.4 1.9.6 2.8 0 .2.1.3.2.5.1.7.4 1.4.6 2.1.2.5.4 1 .5 1.5.3.8.7 1.6 1 2.4.2.5.5 1 .7 1.5.3.6.5 1.1.9 1.6.1.1.2.3.2.4 0 .3.2.5.3.8.2.6.6 1 .9 1.6s.8 1.2 1.1 1.9c.2.3.5.6.6 1 0 .1.1.1.1 0s.1-.1.1-.1c0-.2 0-.3 0-.5 0-.1.2-.2.3-.4 0 0 0-.1.1-.1 0-.3.1-.6.1-.9 0-.6.1-1.2.2-1.7s.1-1.1.1-1.6c0-.9.1-1.8-.1-2.7-.1-.3-.1-.6-.1-.9-.1-.4-.2-.8-.2-1.2-.1-.5-.2-1-.3-1.4-.2-.5-.3-1.1-.4-1.6-.4-.6-.5-1-.6-1.5m11.5-1.1c0-.1-.1-.3-.1-.4 0-.4-.1-.8-.2-1.2 0-.1-.1-.2-.1-.3-.2-.6-.3-1.2-.5-1.7-.3-.9-.7-1.8-1-2.7-.1-.3-.2-.6-.3-.8-.4-.8-.8-1.6-1.1-2.4-.2-.3-.3-.7-.5-.9-.4-.6-.8-1.3-1.4-1.8-.3-.3-.6-.7-.9-1-.7-.7-1.5-1.4-2.3-1.9s-1.7-.8-2.5-1.2c-.4-.2-.9-.3-1.3-.4s-.9-.1-1.3-.1h-.1s0 .1.1.1c0 0 .1 0 .2.1.5.2.8.5.9.9 0 .2-.1.5-.2.5-.1.1-.5-.1-.5-.2 0-.3-.3-.3-.5-.5 0 0-.1 0-.2 0v.1c.2.6.5 1.2.7 1.8.1.2.2.2.4.2.4-.1.7-.2 1.2-.1.6.2 1.1.5 1.6.9.4.3.6.7 1 1 .1.1.2.2.3.4.3.4.5.8.8 1.2.2.3.5.6.8 1 .2.3.4.7.6 1.1.5.7.8 1.4 1.2 2.2.3.7.6 1.3 1 2 .3.5.5 1.1.8 1.7.2.4.3.8.5 1.1.3.4.4.9.7 1.4.1.3.2.6.3.9.2.5.4.9.6 1.4.1.5.4.9.5 1.4 0 0 .1.1.1.1.1 0 .3-.1.4-.1.5-.5.8-1.1.7-1.8-.3-.9-.4-1.4-.4-2m6.1 69.9c-.1 0-.2-.1-.2-.1-.2-.2-.4-.4-.6-.6-.6-.4-1.1-.8-1.7-1.2s-1.3-.5-1.9-.2c-.2.1-.5.2-.7.4-.1 0-.2.1-.2.2-.3.4-.5.7-.9 1-.2.2-.3.4-.4.6-.3.5-.6.9-.8 1.4-.2.4-.5.8-.6 1.3s-.5.9-.6 1.4c0 0-.1.1-.1.1-.1.1-.2.3-.2.4-.1.4-.2.8-.4 1.2-.3.8-.6 1.5-.8 2.3-.1.4 0 .8.2 1.2 0 0 .1 0 .1.1v-.1c0-.3.1-.5.3-.7.1-.1.2-.3.3-.4.3-.4.7-.8 1-1.1.2-.2.5-.4.8-.6.4-.3.7-.6 1.2-.7.2 0 .3-.2.4-.2.3-.1.6-.3.9-.3.4 0 .8-.1 1.2-.2.5-.1.9 0 1.4.1.4 0 .7.2 1 .4.8.4 1.6.7 2.3 1.2 0 0 .1.1.1 0s.1-.1.1-.2c-.2-.4-.1-.8-.1-1.2 0-.5.1-.9.3-1.3.1-.2.1-.4-.1-.5-.1-.1-.2-.2-.3-.3-.3-.4-.7-.7-1-1.1-.4-.4-.4-.6.1-1 .1-.1.3-.3.4-.4v-.2c-.2-.4-.3-.5-.5-.7m-18.6 23.1c-.1.1-.1.2-.2.3-.1.5-.3.9-.4 1.4s-.1 1-.3 1.5c-.1.2-.2.5-.2.7-.1.6-.2 1.1-.3 1.6-.1.6-.2 1.2-.4 1.8-.1.2 0 .5-.1.7-.2.5-.2 1.1-.2 1.6 0 .3 0 .7.1 1.1.1.5.2.9.3 1.4.1.4.3.8.5 1.3 0 0 .1.1.1.1s.1-.1.1-.1c.3-.5.5-1 .7-1.5s.5-1 .8-1.4c.1-.1.2-.3.2-.4.1-.3.2-.6.3-.8.4-.6.5-1.2.8-1.8.3-.7.5-1.5.7-2.3.1-.2.2-.5.2-.7.1-.4.1-.8.2-1.2.1-.6.2-1.2.3-1.8 0-.1 0-.2.1-.2 0-.3.1-.7.1-1 0-.1-.1-.3-.1-.4.1-.3.1-.5.1-.8s0-.6 0-.9c.1-.6.1-1.2.2-1.9 0-.5.1-.9 0-1.4 0-.2 0-.4 0-.6-.1-.1-.3-.1-.5-.2-.1 0-.2-.1-.2-.2-.1-.1-.2 0-.2 0-.3.2-.4.7-.3 1 .1.2.1.1.2.1.1-.1.3-.2.4-.3.1 0 .2-.2.2 0 0 .1.2.2.1.3-.1.2-.1.4-.2.6-.3.6-.8.8-1.5.6-.3-.1-.4 0-.5.3s-.3.6-.4 1c-.2.4-.3.8-.5 1.2 0 .3-.1.7-.2 1.3m-12.5-41.2c-.2-.1-.2-.4-.3-.5-.5-.9-1-1.9-1.6-2.8-.5-.7-.9-1.3-1.5-1.8-.4-.3-.8-.6-1.2-.7-.2-.1-.5 0-.7.1s-.1.3-.1.5c-.1.4-.5.6-.9.5-.2-.1-.3-.1-.3.1v.3c0 .3-.1.5-.4.5-.1 0-.2 0-.3 0-.2 0-.2 0-.2.2.1.2.1.4.2.5s.2.2.3.2c.3 0 .5.2.7.5.4.5.7 1.1 1.2 1.6.3.3.6.7.8 1.1.4.6.8 1.2 1.1 1.9.1.1.1.2.2.4.3.4.5.8.8 1.2s.5.9.9 1.2c.3.2.5.5.8.8.4.5.8 1 1.2 1.4.1.2.3.2.5.2.2-.1.2-.2.2-.5 0-.4 0-.8.1-1.1.2-.5.1-1.1 0-1.6-.1-.7-.4-1.4-.7-2-.3-.9-.6-1.5-.8-2.2m-9.8 8.5c0-.1-.1-.3-.1-.4 0-.6-.1-1.3-.2-1.9s-.1-1.1-.2-1.7-.2-1.3-.5-1.8c0-.1-.1-.2-.1-.3-.2-.7-.5-1.4-.7-2.1 0-.1 0-.2 0-.2 0-.1 0-.1 0-.1s-.1 0-.1.1c0 0-.1.1-.1.1-.4.2-.3.6-.5.9.2.2 0 .4-.1.5-.2.4-.3.9-.3 1.4 0 .2-.1.4 0 .5-.2.3 0 .7-.1 1.1 0 .4-.1.7-.1 1.1 0 .1.1.3.1.4 0 1 .1 2 .3 3 .1.7.1 1.5.2 2.2 0 .4.1.8.2 1.2 0 .2 0 .4.1.6.3.7.4 1.4.8 2 .1.2.3.4.3.6.3.8.7 1.5 1.5 2 .1.1.2 0 .2 0 .1-.3.3-.6.1-.9-.2-.4-.2-.8-.2-1.2 0-1.2 0-2.3-.1-3.5 0-.3-.1-.6-.1-.8 0-.3-.1-.7-.2-1 0-.1 0-.2 0-.3 0-.6 0-1-.1-1.5m3.8-6.9c-.2-.4-.5-.8-.7-1.3-.3-.6-.7-1.2-1-1.8-.2-.4-.5-.8-.8-1.2s-.4-.4-.7-.1-.6.5-.9.6-.6.5-.5.8c.1.2.1.5.3.7.4.5.5 1.1.8 1.6.2.4.4.9.6 1.3.3.4.6.8.9 1.2s.5.7.7 1.2c.1.4.3.8.5 1.1.2.4.4.7.5 1.1.2.5.4 1 .6 1.5 0 .1.1.2.2.3.4 1 .8 1.9 1.5 2.6.4.5.7.9 1 1.5 0 .1.1.2.2.2h.1c0-.5.1-.9.1-1.4 0-.2-.1-.4-.1-.5 0-.3 0-.5-.1-.8-.3-.8-.5-1.7-.8-2.5-.1-.3-.3-.7-.4-1-.3-.8-.5-1.6-.8-2.4-.3-.9-.8-1.8-1.2-2.7m-12.7 3.7c0 .7-.1 1.4.1 2.1.1.4 0 .8 0 1.2 0 .7.2 1.3.5 2 0 0 .1.1.1.1s0-.1.1-.1c.3-.6.4-1.3.6-1.9.3-1 .5-2 .8-3.1.2-.8.2-1.6.4-2.4.1-.5.2-1 .4-1.4.1-.4.3-.7.3-1 .1-.7.3-1.3.7-1.9.1-.1.2-.3 0-.5-.3-.3-.2-.7-.5-1 0 0 0-.2 0-.3s0-.3-.2-.3c-.3-.1-.7-.2-1-.3-.1 0-.2 0-.2 0-.1.3-.4.4-.5.6-.2.4-.3.7-.5 1.1-.1.2-.3.5-.4.7-.3.7-.6 1.5-.6 2.3v.6c-.2.7-.2 1.4-.2 2.1.1.3.1.8.1 1.4m8.2-63.7c-.1.1-.2.3-.3.4-.8.8-1.5 1.6-2.3 2.4-.4.5-.8.9-1.3 1.4-.6.6-1 1.3-1.3 2-.3.6-.6 1.2-1 1.7-.2.3-.4.6-.6 1-.2.3-.3.6-.4.9-.1.2-.2.4-.2.6 0 .5-.2.9-.3 1.3s-.3.7-.4 1.1v.1h.1s.1-.1.1-.1c.4-.6.9-1.3 1.3-1.9.6-.8 1.2-1.6 1.8-2.3.2-.2.4-.4.6-.6.6-.8 1.1-1.6 1.8-2.2.1-.1.1-.1.2-.2.2-.3.5-.6.8-.8.2-.2.4-.3.5-.5.5-.8 1-1.7 1.5-2.5.5-.7 1-1.4 1.5-2.2.2-.4.5-.7.7-1.1 0-.1.1-.2 0-.3 0-.1-.5-.1-.6-.1-.2.1-.3.3-.5.4-.2.2-.4.4-.6.6-.4.3-.7.6-1.1.9m-9 103.6c-.3.2-.4.5-.4.8 0 .2.1.3.1.5.1.3.1.3.4.3.1 0 .3-.1.4 0 .2.1.4 0 .6-.1.6-.3 1.1-.6 1.7-.8.4-.2.9-.3 1.3-.5.3-.1.7-.2 1-.3.7-.2 1.4-.5 2.1-.8.2-.1.3-.3.5-.3.2-.1.3-.2.5-.3.3-.3.6-.6.9-1 0 0 .1-.1.1-.1-.1 0-.1 0-.2 0-.3 0-.7.1-1 .1-.2 0-.3 0-.5.1-.4 0-.8.1-1.2.1-.5 0-.9.1-1.4.1-.2 0-.5 0-.7.1-.5.1-1 .3-1.4.4-.3.1-.5.2-.7.3-.4.3-.7.6-1.1.9-.4.1-.7.3-1 .5m28.9-103.7c.2 0 .4-.1.6-.1.4 0 .4 0 .2-.4-.4-.8-.7-1.6-1.2-2.4-.1-.2-.2-.4-.4-.6-.1-.1-.2-.1-.3 0-.3.3-.8.4-.7 1 0 .1-.1.3-.2.5-.1-.1-.1-.3-.2-.4-.2-.3-.2-.7 0-1 .2-.4.5-.7.9-.9 0 0 .1 0 .1-.1 0 0-.1-.1-.1-.1-.1.1-.2.1-.3.2-.2.3-.3.3-.7.2-.1 0-.1-.1-.2-.1s-.2 0-.2.1v.2c0 .1.1.1.1.2.1.2 0 .3-.3.4-.2 0-.4 0-.5-.2-.1-.1-.3-.2-.5-.1-.1.1-.3 0-.5 0-.3-.1-.5-.3-.7-.5v-.1c.1-.1.1-.1 0-.2 0 0-.1.1-.1.2-.1.2-.1.3 0 .4.2.1.2.3.1.5-.1.1-.1.3.1.4.1.1.1.2.2.4s0 .5-.3.5c-.4 0-.7-.2-.9-.5-.1-.2-.2-.3-.3-.5h-.1v.2c.3.4.5.7.7 1.2.3.8.7 1.6.8 2.4 0 .2.1.4.2.7v.1s.1-.1 0-.1c0-.3-.1-.6-.1-.9 0-.6 0-1.3 0-1.9 0-.2 0-.6.4-.7h.8c.4 0 .5.3.5.6.1.3.1.7.3 1 .2.4.5.8 1 .7.6-.2 1.1-.2 1.8-.3m25.2 85.3c.5.5 1 1.1 1.3 1.7.2.3.3.5.5.8.1.3.4.5.6.8h.1v-.1c0-.6-.1-1.2.1-1.9-.1-.2.1-.4 0-.5-.1-.2-.1-.5 0-.7-.2-.4 0-.8-.1-1.1 0-.6-.2-1.1-.4-1.6-.3-.5-.6-1-1-1.5-.1-.1-.2-.1-.3-.1-.2 0-.4.1-.6.2-.1 0-.2.1-.2.2 0 .2.1.5.1.7.1.3.2.6.2.9s0 .5.1.8.1.7-.2.9c0 .2-.1.3-.2.5m-53.6-28.7c.5-.3.5-.9.8-1.3.2-.4.2-.9.6-1.2v-.1s-.1-.1-.1-.1c-.3.1-.6.1-.8.4-.4.5-.8.9-1.3 1.4s-.8 1.1-1 1.8c-.1.2-.1.5-.2.7 0 .1 0 .1-.1.2-.1.3-.1.6-.2.9v.1h.1s.1-.1.1-.1c.3-.7.8-1.3 1.3-1.9.2-.3.5-.5.8-.8m5.5-1.3c.2.1.3.1.5.2s.3.1.4.1c.5-.2.7.1 1.1.3.1 0 .1.1.1.2s.1.1.1.2c0-.1.1-.1.1-.2s0-.2 0-.4c-.1-.3 0-.4.3-.5.1 0 .2-.1.3-.2s.2-.2.3-.2c.2-.1.2-.3.1-.4-.2-.1-.3-.3-.5-.3-.3 0-.6 0-.8-.4 0 0-.1 0-.1-.1v.2c0 .3-.2.5-.5.5-.1 0-.1 0-.2 0-.4.3-.8.2-1.2.2h-.1c-.1.1-.3.2-.4.4.2.2.3.3.5.4zm32.4 36.4c-.7.2-1.1.9-1.1 1.5 0 .1 0 .2.2.2.5 0 1.1 0 1.5-.3.3-.2.5-.5.7-.7 0 0 0-.1 0-.2-.1-.2-.2-.5-.3-.7s-.1-.2-.3-.1c-.1 0-.4.1-.7.3m-1.1-11.2c.1.2.1.3.2.5.2.7.5 1.5.7 2.2.2.5.3.9.5 1.4v.1s.1-.1.1-.1c0-.4.2-.8.1-1.2-.1-.3-.2-.6-.3-.8-.4-.9-.5-1.8-1.1-2.6-.1-.2-.2-.3-.3-.5-.2-.5-.5-.9-.7-1.4 0-.1-.1-.1-.1-.1 0 .1-.1.1 0 .2.1.2.2.4.3.6.1.6.4 1.1.6 1.7m-19.3 15.2c0-.1-.1-.2-.1-.3 0-.3.1-.6.1-.8-.1-.6-.1-1.2-.2-1.9s.1-1.3-.1-2c-.1-.6-.1-1.1-.2-1.7 0 0-.1-.1-.1-.1 0 .1-.1.1-.1.2 0 .3.1.6.1.9 0 1.1 0 2.2.1 3.3.1.7 0 1.4.1 2.1 0 .2.1.5.1.7-.1.2-.1.4 0 .5v.1c0-.1.1-.1.1-.2.1-.1.1-.4.2-.8m22-8.2c-.1-.2-.1-.5-.2-.7 0-.1 0-.4-.2-.4-.1 0-.2.3-.3.4v.2c0 .1.1.3.1.4.1.3.3.7.4 1 0 .1.1.1.1.2 0-.1 0-.1 0-.2.3-.3.2-.5.1-.9m-23.6-14.4c0-.1 0-.1 0-.2.1-.4.1-.4-.2-.7-.1 0-.1-.1-.2-.2 0 0-.1-.1-.1-.1v.2c.1.4.3.9.3 1.3 0 .3.1.7.1 1v.1s.1.1.1.1v-.1c0-.1 0-.1 0-.2 0-.3-.1-.7 0-1.2m-2.4-3.3c0 .1.1.2.1.3.1.5.2 1.1.3 1.6 0 .2.1.5.2.7 0 .1.1.1.1.1 0-.1.1-.1.1-.2-.3-.4-.2-.8-.2-1.2-.1-.4-.1-.9-.2-1.3 0-.1 0-.2-.1-.2-.1-.1-.1-.3-.3-.3-.1.2 0 .3 0 .5m-1.1-2.2c-.1-.2-.1-.4-.2-.7 0 0-.1 0-.1-.1v.1c.1.4.1.7.2 1.1.1.3.2.5.5.5h.2s0-.1-.1-.1c-.1-.2-.3-.5-.5-.8m2.4 32.1c-.3 0-.7-.1-1-.1-.2 0-.4 0-.7.1 0 0-.1 0-.1.1 0 0 .1.1.1.1.2 0 .4-.1.6-.1.5 0 .9 0 1.3.2.1 0 .2 0 .2-.1-.1-.1-.1-.2-.2-.2 0 0-.1 0-.2 0m16.1-5.7c.1.1.2.2.2.3.1-.1.2-.2.2-.3 0-.2.1-.2.2-.4 0 0 0-.2-.1-.2-.2 0-.6.4-.5.6m9.2-3.1v1.1s0 .1.1.1c0 0 .1.1.2.1 0-.1 0-.1 0-.2-.1-.3-.2-.7-.3-1.1m-15.2-96.7c-.3-.1-.5-.2-.7-.4h-.1v.1c.1.1.2.1.3.2.2.3.3.3.5.1m4.5-3c-.1.1-.1.2 0 .3s.3.1.4 0-.1-.2-.1-.4-.1-.2-.2-.1c-.1 0-.1.1-.1.2m21.9 86.6c.1-.2-.2-.3-.3-.3 0 0-.1.1-.1.1s0 .1.1.2zm-24.5-32.6v-.1c-.2.1-.2.2-.2.3s.1.1.2.1c0 0 0-.1 0-.3m8.4 47.6v-.1c0-.1 0-.1-.1-.2 0 0-.1 0-.1.1v.2zm-21.8-67s0 .1.1.1l.2-.2v-.1h-.1c-.1 0-.1 0-.2.2m32.8 76.7s.2-.1 0-.1c-.1 0-.3 0-.4 0 .1 0 .2.1.4.1m-33.2-85.1c0-.1-.1-.2-.1-.3h-.1c.1.1-.1.3.2.3m26.9 75.4h.2.2c-.1 0-.1-.1-.2-.1s-.1 0-.2.1m-27-78v.1s.1 0 0-.1c.1 0 .1 0 .1-.1s0-.2 0-.3c0 .1-.1.1-.1.2zm.6 10.2c-.2 0-.1.1-.1.2 0 0 .1.1.1.1 0-.1 0-.2 0-.3m.2 2.5v.1c0-.1.1-.1.1-.2 0 0 0 0-.1.1m12.2 16.2s.1 0 .1-.1v-.1c-.1-.1-.1 0-.1.2m3.1-52.3s-.1 0-.1.1c0 0 .1.1.1.1.1 0 .1-.1.2-.1-.1-.1-.2-.1-.2-.1m-14.9 36.9h.1s.1-.1.1-.1c-.1 0-.1 0-.2 0 .1 0 .1 0 0 .1m13.1 8s.1-.1.1-.1 0 0-.1-.1zm7.8 36.2v.1s.1.1.1.1v-.1c0-.1 0-.2-.1-.1m-9.3-28.7c0 .1.1.1.1.2 0-.1 0-.1-.1-.2m10.9-28.1h.2c-.1-.1-.1-.1-.2 0m-11.4 23.2c0-.1 0-.1-.1-.1 0 .1 0 .1.1.1m-21.3 7.3s.1-.1.1-.1 0 0 0-.1c0 0-.1.1-.1.2m29.4 28.9c0-.1 0-.1 0-.2 0 0 0 0 0-.1v.1zm-19.5-47.1v.1s.1 0 0-.1c0 0 .2-.1 0 0m-.1-1s.1 0 0 0c.1-.1 0-.1 0 0m11.9 12.7h-.1v.1c0-.1 0 0 .1-.1m-7.6 58.9v-.1s-.1 0 0 .1c-.1 0-.1 0 0 0m-5.2-81.8v.1c.1 0 .1 0 0-.1.1.1.1 0 0 0m11.8 16.2c-.1 0-.1 0 0 0m6.7-13.1h-.1v.1c0-.1.1-.1.1-.1m-21.8 32.6h-.1s0 .1.1 0zm23.7-29.9c0-.1 0-.1 0 0m-22.4 52.6v-.1s-.1 0 0 .1c-.1-.1-.1 0 0 0m15.3-46.6c0-.1 0-.1 0 0m9.1-2.9c-.1 0-.1.1 0 0-.1.1 0 .1 0 0m-23.4 26.7c-.1 0-.1 0 0 0-.1 0-.1.1 0 0m7.2-26.6c-.1 0-.1 0 0 0-.1 0-.1.1 0 0m-15.1-.9c.1 0 .1 0 0 0m16.1-1.4c.1 0 .1 0 0 0m-6.7-1.1c0-.1 0-.1 0 0m7.4-.7c.1 0 .1 0 0 0m-7.8-2.7c.1-.1.1-.1 0 0 .1-.1 0-.1 0 0m-5.3 26.2c0 .1 0 .1 0 0m5.4-26.4s.1-.1 0 0c0-.1 0-.1 0 0m13.5 26.1c.1 0 .1 0 0 0m-12.9-18.6s0 .1 0 0c0 .1.1.1 0 0m-.5-10.6s-.1-.1 0 0c-.1 0-.1 0 0 0m15.5 28.7c0 .1 0 .1 0 0m-3.1-6.2c-.1 0-.1 0 0 0m-.5-3.3s.1 0 0 0c.1 0 .1 0 0 0z"/><path d="m11.2 65c-.2.6-.4 1.2-.5 1.7-.1.2-.1.4-.1.6 0 .5-.2.9-.2 1.4 0 .3 0 .7-.1 1v.1c0 .6-.1 1.2-.1 1.8.1.6 0 1.2.1 1.8s0 1.1.2 1.7c.1.3.2.7.2 1.1s.3.8.3 1.2c.1.4.1.7.2 1.1.1.6.1 1.2.4 1.8.2.4.4.8.8 1.2.4.3.4.4.8 0 .2-.2.4-.6.6-.9.2-.4.4-.9.6-1.3.3-.7.7-1.4.9-2.1.2-.8.6-1.6.8-2.5.1-.6.4-1.1.6-1.7.2-.5.3-1 .5-1.4.1-.2.2-.5.2-.8.1-.6.3-1.1.4-1.7.1-.3.1-.6.1-.8 0-.5.1-1 .2-1.5 0-.2-.1-.4-.1-.6.1-.8 0-1.6.2-2.3.1-.3 0-.6.1-.8.1-.5.1-1 .1-1.5 0-.4.1-.8.1-1.2 0-1-.1-1.9-.3-2.8-.1-.3-.2-.6-.2-.9s.1-.4.4-.4c.2 0 .4.1.6-.1.1-.1.3-.1.4 0 .2.1.3 0 .4-.1.3-.3.3-.2 0-.5-.4-.4-.6-.8-.8-1.2-.1-.2.1-.5.4-.5.4 0 .9.1 1.1.4.1.2.1.5.2.7v.4c0 .1 0 .2.1.3s.2.2.2.3c0 .3 0 .7-.1 1-.1.5-.3 1.1-.5 1.6v.2s.1-.1.1-.1c.2-.4.4-.9.7-1.3.2-.4.5-.9.8-1.3 0 0 .1-.1.1-.1.2-.1.2-.3.2-.4s0-.3.1-.4c.1-.2.4-.3.5-.2.3.3.6.2.9.3.4.2.9.3 1.2.6.4.4.9.7 1.3 1 .6.5 1.3 1 1.5 1.9 0 .1 0 .1.1.1.4.6.5 1.3.7 2 .2.6.4 1.2.6 1.8.1.3.1.6.2.8.1.6.4 1.3.5 1.9s.4 1.2.9 1.6c.3.3.5.7.7 1 .3.5.4 1.1.7 1.6v.1c.1.1.2.2.3.4.1-.1.2-.2.2-.3.2-.3.3-.6.5-.9v-.1c.6-.6.6-1.3.7-2 0-.2.1-.4.1-.6.1-.6-.2-1.2-.4-1.7-.1-.4-.2-.7-.2-1.1-.1-.5-.2-1-.3-1.5 0-.1-.1-.1-.1-.2.1-.5-.1-1-.2-1.5s-.3-.9-.6-1.3c-.6-.8-1.3-1.5-2-2.2-.3-.3-.5-.7-.8-1-.2-.2-.4-.3-.6-.5-.5-.6-1-1.2-1.6-1.7-.3-.3-.6-.4-1-.3-.1 0-.3.1-.4 0-.3-.1-.5-.1-.7 0-.3.1-.6.2-.8.2s-.4.1-.5.2c-.2.2-.3.2-.4-.1 0-.1-.1-.1-.2-.2-.4-.2-.5-.5-.1-.8.1-.1.3-.2.3-.5 0-.1.2-.3.2-.3.1 0 .2.1.3.2.1-.1.1 0 .1.1 0 .3.2.5.5.3.6-.3 1.2-.3 1.8-.3h.5.1s-.1-.1-.1-.1-.1 0-.2 0c-.5 0-.9-.1-1.4.1-.5.1-.6 0-.9-.4 0 0-.1-.1-.1-.1-.2-.1-.4-.2-.6-.3s-.3-.2-.3-.4c0-.1-.1-.3-.1-.3-.3-.1-.3-.3-.5-.6-.2-.4-.3-.8-.4-1.2 0-.2 0-.5 0-.8s0-.5 0-.8.1-.5.1-.8c0-.2.2-.2.3-.2.3.1.4.3.5.5 0 .1.1.2.1.3 0 .4.1.6.3.9.1.1.1.2.1.3v1.7c0 .1.1.1.1.2 0-.1.1-.1.1-.2s.1-.2 0-.3c0-.1-.1-.3.1-.4.3-.2.2-.6.1-.9-.2-.4-.2-.8-.5-1.1.1-.2-.3-.4 0-.7.1-.1 0-.4 0-.6s0-.3.2-.5.4-.4.4-.7c0-.1 0-.2 0-.2s.1-.1.2-.1c.1.2.3.2.4.3.2.1.2.2.2.4 0 0 .1.1.1.1v-.1c0-.2.1-.5-.3-.6-.1 0-.1-.3-.2-.4-.1 0-.3.1-.4.1-.2 0-.3 0-.4.3 0 .2-.1.4-.2.6-.1.4-.5.7-.9.7-.2 0-.4-.2-.5-.4 0 0 0-.1 0-.2.2-.3.3-.5.2-.8 0-.1 0-.2 0-.3 0-.5-.3-.8-.8-.6-.3.1-.6 0-.9-.1.3.2.3-.2.4-.3.3-.4.6-.7.9-1.1.1-.1.1-.2-.1-.2h-.1c-.1 0-.3-.1-.4-.1v.5c-.1.6-.3.7-.9.6-.2 0-.5 0-.5-.3-.1-.4-.2-.3.3-.7 0 0 .1-.1.1-.1 0-.1-.1-.1-.2 0-.2.1-.4 0-.6 0s-.4 0-.6.1c-.1.1-.3.1-.4 0-.2-.1-.3 0-.5.1-.3.3-1.1.1-1.2-.3-.1-.2 0-.4.2-.5s.4-.3.6-.4.4-.1.6 0 .3 0 .4-.1l.2-.2c.2-.2.4-.4.7-.2.1 0 .3-.1.4-.1.2-.1.3-.2.5-.2.1 0 .1 0 .1.2s-.1.4-.1.6c0 0 0 .1.1.1.1.1.3.2.4.4.1.1.1.1.3 0 .1-.1.2-.1.1-.2-.4-.3-.3-.8-.3-1.2 0-.1.1-.1.2-.2.1 0 .1.1.2.1.1.2.2.3.3.5 0 .1.2.2.2.3.1.1.1.1.2 0 .2-.1.4-.1.6.1.1 0 .1.2.1.2 0 .1-.1.1-.2.2-.2 0-.4.1-.6.1 0 0-.1 0-.1.1 0 0 .1.1.1.1.2-.1.3.1.4.2s.2.2.3.3c.3.2.4.2.7 0 .2-.2.4-.4.6-.6s.5-.2.6-.1.2.1 0 .3c-.1 0 0 .2-.1.2-.1.2 0 .3.2.4.5.2.6.6.7 1 .1.3.1.6.1 1s.2.5.5.3c.3-.1.5-.3.8-.5s.3-.2.5.1c.1.2.1.3-.1.5s-.4.5-.7.6c-.4.2-.3.5-.4.8 0 .1.1.1.2.1.5-.3 1.1-.3 1.7-.2.4.1.8.2 1.1.3.3.2.7.4 1 .6.4.2.8.5 1.2.8.3.3.8.4 1.1.6.2.1.4.2.5.5 0 .2.3.3.5.4.5.4 1.1.7 1.6 1.1.2.2.5.2.7.5.2.2.4.3.6.5.1.1.3.3.4.5.4.5.8 1 1.1 1.5.1.2.2.3.3.5.2.3.3.7.5 1 .2.2.3.5.3.8 0 .4 0 .9-.1 1.3s-.4.7-.6 1.1c-.1.1-.2.2-.3.2-.6.1-1.1.3-1.7.2-.3 0-.6-.2-.8-.4-.5-.3-.9-.7-1.5-.9-.7-.3-1.2-.9-1.6-1.4s-.8-.9-1.4-1c-.4-.1-.8-.3-1.1-.4-.2-.1-.4-.2-.6-.2-.1 0-.1 0-.2 0 0 .1 0 .2.1.2.2.3.4.5.6.7.2.3.5.5.7.7.3.3.5.7.8 1 .3.4.6.7 1 1.1.1.1.2.3.3.5.2.3.5.7.7 1s.4.7.4 1.1c0 .2 0 .3.1.5.3.6.2 1.3.3 1.9 0 .1 0 .3.1.4.2.4.2.9.3 1.3s.2.8.3 1.1c.2.5.3.9.1 1.4-.1.3-.1.6-.1.8 0 .4-.1.9-.3 1.3 0 0-.1.1-.1.1.1.5-.3.8-.4 1.3 0 .1 0 .1-.1.2-.4.4-.5.9-.5 1.4 0 .2-.1.4-.2.5-.1.2-.2.3-.2.5-.1.4-.2.4-.6.4-.3 0-.3.1-.2.3s.1.3 0 .5c-.1.3.1.6.2.9.1.1.1.3.2.4.1.2.2.4 0 .5 0 0-.1.2-.1.2v.4c0 .3.1.5.3.7.3.4.5.8.8 1.2.4.5.7 1 1.1 1.5.5.6 1 1.2 1.5 1.7h.1c.6.4 1 .9 1.4 1.5.4.5.7 1 1.1 1.5s.8 1 1.2 1.5c.2.2.4.5.6.7.5.5.8 1 1.3 1.5.4.5.7 1 1.1 1.4.2.3.5.5.5.9 0 0 .1.1.1.1.5.4.8 1 1.2 1.6.3.5.6.9.9 1.4s.7.9.9 1.4c.1.3.3.5.5.8.5.8 1 1.6 1.5 2.3.2.3.4.7.6 1.1.3.7.7 1.2 1.1 1.8.2.2.3.4.4.7.5.8.8 1.8 1.4 2.6.4.5.4 1.1.6 1.7.2.5.3 1 .5 1.5.3.6.5 1.3.8 2 0 .1.1.2.2.3.2.3.2.7.1 1-.1.2 0 .3 0 .4.2.5.4 1 .6 1.4.1.1.1.3.3.2h.3v-.1c-.3-.7-.5-1.5-.8-2.2-.1-.3-.1-.6-.2-.9-.1-.4-.3-.8-.6-1.1-.1-.2-.3-.4-.4-.6s0-.3.1-.3c.2-.1.1-.1.1-.3-.3-.6-.5-1.3-.8-1.9 0-.1-.1-.2-.2-.3-.4-.8-.7-1.6-1.1-2.4-.5-1-.8-2.1-1.5-3-.3-.4-.5-.9-.7-1.3-.8-1.2-1.4-2.5-2.2-3.7-.7-1-1.3-2-2.1-3-.5-.6-.9-1.3-1.4-2-.3-.5-.7-.9-1-1.3-.6-.7-1.2-1.5-1.8-2.2-.8-.9-1.5-2-2.2-3-.5-.7-1.1-1.4-1.8-2-.4-.3-.8-.6-1.2-1-.6-.6-1-1.2-1.4-1.9-.2-.4-.5-.7-.7-1s-.5-.6-.7-.9c0-.1 0-.1-.1-.2-.3-.2-.2-.5-.2-.7 0-.1.1-.2.2-.2s.3 0 .3.2c0 .5.4.7.7 1 .6.7 1.1 1.4 1.7 2.1.4.5.7 1 1.2 1.4.6.4 1 .9 1.6 1.4.2.2.5.4.7.6s.4.5.6.7c.6.7 1 1.4 1.6 2.2.4.5.8.9 1.2 1.4.6.7 1.2 1.3 1.7 2 .5.6.9 1.2 1.3 1.8.2.3.4.5.6.7.3.3.5.6.7 1s.6.8.8 1.2c.5.8 1 1.5 1.5 2.3.3.6.6 1.2.9 1.7.3.6.7 1.2 1.1 1.8.2.4.5.8.7 1.2.3.6.6 1.2.8 1.8.1.4.3.7.5 1.1.2.5.5 1.1.7 1.7.1.3.3.5.4.8.2.3.3.6.4 1 .1.1.1.3.2.4s.2.2.1.3c0 .4.2.7.3 1 .1.6.4 1.2.6 1.7s.3.9.4 1.4c.1.4.3.7.3 1.1 0 0 .1.1.1 0 0 0 .1-.1.1-.1 0-.6.1-1.2-.1-1.7 0-.1 0-.2 0-.3 0-.5 0-1.1 0-1.6 0-.8.2-1.5.5-2.2.2-.5.3-1 .5-1.5.2-.6.5-1.1.8-1.6.2-.3.3-.6.4-.9.2-.8.5-1.5 1.3-1.9.5-.2 1-.2 1.5-.2.3 0 .5.1.8.1.2 0 .3.1.3.2.1.1.1.3-.1.4-.1.1-.2.2-.3.3 0 0-.1.1-.1.1-.1.4-.3.8-.4 1.2-.1.3 0 .7-.2 1.1v.1c-.1 1-.5 1.9-.8 2.8-.2.5-.4 1.1-.6 1.6-.1.4-.3.7-.4 1.1-.3.3-.3.7-.4 1.1-.1.3-.3.6-.4.9-.3.8-.6 1.6-.9 2.4-.1.4-.2.7-.4 1.1s-.1.8.1 1.2c.3.6.6 1.1.6 1.8 0 .2-.1.3-.3.3-.4.1-.7-.1-.8-.5-.1-.2-.2-.4-.3-.6 0 0 0-.1-.1-.1 0 .1-.1.1-.1.2 0 .2-.1.3 0 .5.2.4.2.9.4 1.3s.3.8.5 1.2c0 .1.1.1.1.1 0 .2-.1.6-.2.6-.2.1-.7-.1-.8-.3s-.2-.4-.3-.6c-.1-.3-.2-.4-.5-.5-.3 0-.7-.5-.7-.8s.1-.6.2-.9.1-.6 0-.9c-.1-.2-.1-.4-.2-.6 0-.1-.1-.2-.2-.3s-.2-.3-.3-.4c0-.1-.2-.1-.2-.1-.1.2-.4.4-.4.7.1.6-.1 1.1-.3 1.6-.1.3-.2.6-.4.9 0 .1-.1.1-.2.2 0-.1-.1-.2-.1-.3 0-.3.1-.6.2-.9 0 0 .1-.1.1-.1 0-.2 0-.4 0-.6-.1.2-.2.3-.2.5-.1.6-.5 1-.8 1.5-.3.7-.7 1.3-1.2 1.8-.4.5-.7 1-1.2 1.5-.4.3-.8.7-1.2.9s-.7.4-1 .6c-.1.1-.3.1-.4.1-.5.2-.9.3-1.4.5-.4.1-.9.2-1.4.2-.8.1-1.7 0-2.6.1-.4 0-.9.1-1.3.3s-.8.5-1.1.9c-.5.4-.9.9-1.3 1.4-.5.6-1 1.3-1.5 1.9-.4.5-.9 1-1.3 1.6-.1.2-.2.3-.3.5-.2.3-.4.3-.7.2s-.5-.4-.7-.7c-.3-.5-.5-1.1-.7-1.7 0-.1 0-.1-.1-.2-.2-.3-.2-.7-.3-1-.1-.5.1-1.1 0-1.6 0-.5.1-.9.2-1.3 0-.5.2-1 .4-1.4.3-.7.6-1.3.9-2 .2-.3.4-.6.6-.9s.5-.5.8-.8c.1-.1.3-.2.4-.2h.1c.4-.5 1.1-.7 1.6-1s1.1-.6 1.6-1c.3-.2.6-.4.9-.5.2-.1.4-.2.6-.4.9-.5 1.7-1.1 2.6-1.6.3-.2.7-.4 1.1-.6.5-.2.9-.5 1.3-.7.2-.1.4-.2.6-.2.3 0 .6-.1.8-.2.5-.1 1-.1 1.6 0s1.1.2 1.7.4c.3.1.6.3.9.4.5.2 1.1.4 1.6.7.2.1.2 0 .3-.1.2-.3.5-.6.8-.9.1-.1.1-.3 0-.4-.2-.5-.5-.9-.7-1.4s-.5-1-.5-1.5c0-.2 0-.4.2-.6.1-.1.1-.2 0-.3-.2-.4-.4-.8-.6-1.1-.2-.5-.4-1-.6-1.5-.2-.4-.3-.9-.5-1.3-.3-.8-.9-1.5-1.2-2.3-.3-.7-.7-1.4-1.2-2.1-.7-1-1.3-2.1-1.9-3.2-.4-.6-.7-1.1-1.1-1.7s-.8-1.3-1.2-1.9c-.3-.5-.7-1-1.1-1.5-.2-.3-.3-.6-.5-.9-.3-.5-.6-.9-1-1.4-.6-.8-1.2-1.6-1.7-2.4-.2-.2-.4-.5-.6-.7-.4-.4-.8-.9-1.2-1.3s-.7-.9-1-1.3-.6-.7-.8-1.1c-.9-1.1-2-2.1-2.9-3.1-.3-.3-.6-.8-.9-1.1-.3-.4-.6-.8-.8-1.2 0-.1-.1-.1-.2-.2s-.2-.2-.3 0c-.2.2-.3.4-.5.6-.2.3-.4.5-.6.8-.4.4-.9.5-1.4.4s-.9-.2-1.3-.5c-.2-.2-.4-.3-.6-.5-.3-.3-.5-.6-.8-.9-.1-.1-.3-.2-.4-.3-.5-.5-1-1.1-1.4-1.7s-.8-1.1-1.2-1.7c-.2-.4-.4-.8-.6-1.2-.3-.6-.5-1.3-.8-1.9-.2-.4-.3-.8-.4-1.2s-.2-.8-.4-1.1c-.2-.6-.4-1.3-.5-1.9-.1-.5-.2-1-.3-1.4 0-.1 0-.2 0-.3 0-.3 0-.6-.1-.9 0-.1 0-.2 0-.3-.1-.7-.1-1.3-.3-2 0-.1 0-.2 0-.4 0-.4-.1-.9-.1-1.3-.1-.3-.1-.7 0-1.1v-.1s-.1.1-.1.1v.1c.1.3-.1.5-.4.5-.1 0-.1.2-.1.3 0 .6-.2 1.2-.3 1.8-.1.7-.3 1.4-.3 2.1 0 .2-.1.5-.1.7 0 .3 0 .5-.1.8 0 .2.1.4.1.5 0 .5 0 1-.1 1.5 0 .2-.1.4-.1.6-.1.8-.2 1.6-.4 2.4-.1.2-.1.5-.1.7-.1.4-.2.8-.3 1.2-.2.6-.4 1.2-.7 1.8-.1.3-.3.6-.3.9-.1.4-.3.8-.4 1.3 0 .3-.2.5-.3.8 0 .1-.1.2-.1.2 0 .4-.2.7-.3 1-.2.4-.4.8-.6 1.2-.2.7-.7 1.3-1.1 2-.3.5-.8.7-1.4.8-.3.1-.6-.1-.9-.3-.6-.5-1.1-1.1-1.4-1.8-.2-.5-.3-1-.4-1.5s-.2-.9-.2-1.4c-.1-.7-.3-1.3-.4-2 0-.5-.2-1-.3-1.5v-.1c0-1-.1-2-.1-3 0-.4 0-.8.1-1.2.1-.5.2-1.1.2-1.6 0-.8.3-1.6.5-2.4.1-.6.4-1.2.6-1.8.5-1.1 1-2.1 1.5-3.2.2-.4.3-.8.6-1.1v-.1h-.1c-.3.3-.6.6-.9.9-.2.2-.4.4-.7.6 0 0-.1.1-.1.1-.5.6-1.1 1.1-1.5 1.8-.2.3-.4.7-.6 1.1-.2.5-.4 1-.6 1.4-.2.5-.5 1.1-.7 1.6-.3.6-.7 1.2-1 1.9.3.5 0 .9-.2 1.3 0 .1-.1.1-.1.2-.2.3-.3.5-.5.8-.3.4-.6.8-1.1 1-.4.2-.9.1-1.2-.2-.4-.4-.7-.8-.9-1.4-.1-.3-.2-.5-.2-.8 0-.7 0-1.3 0-2 0-.1 0-.1 0-.2 0-.5 0-.9.1-1.4.1-.4.2-.8.2-1.3v-.1c0-.7.3-1.3.4-1.9.1-.5.3-.9.4-1.4.2-.7.6-1.4 1-2.1.4-.8 1-1.4 1.5-2.1 1-1.4 2.3-2.6 3.5-3.8.4-.4.7-.7 1.2-1 .4-.3.8-.4 1.2-.6.1-.1.3-.1.4-.1.4-.2.8-.3 1.2-.1.3.1.6 0 .8.1 0 0 .1 0 .1-.1 0-.2-.1-.5-.2-.7 0 0-.1-.1-.1-.1-.4 0-.6-.1-.9-.4-.2-.2-.5-.3-.8-.1-.2.1-.3.2-.5.3-.7.6-1.4 1.3-2.1 1.9-.1.1-.3.2-.5.4-.7.6-1.4 1.2-2.1 1.9-.6.7-1.3 1.3-1.9 2s-1.4 1.2-2.2 1.7c-.3.2-.7.3-1.1.4-.3.1-.6.1-.9 0-.4-.1-.7-.3-.8-.7.1-.3.1-.8.1-1.2 0-.5.1-1 .4-1.4.2-.3.2-.7.3-1.1.3-.5.3-1.2.7-1.8.2-.5.5-.9.8-1.3s.7-.7 1-1c.2-.2.4-.3.6-.5.4-.4.9-.7 1.3-1 .3-.2.6-.5.9-.7.4-.3.9-.6 1.3-.8.6-.3 1.1-.7 1.7-1 .4-.2.7-.4 1.1-.4.5 0 1.1 0 1.6.2.1 0 .2-.1.2-.1 0-.1 0-.2 0-.3-.2-.7-.1-1.4-.1-2.1 0-.2.1-.5.2-.7s.3-.3.5-.2c.1 0 .2 0 .2-.2.1-.2.1-.6.3-.7.1-.1.3-.3.4-.2.2.1.3.4.2.5-.2.2 0 .4 0 .6.1.3 0 .5-.3.5-.2 0-.4.1-.5-.1 0-.1-.1-.1-.2-.1v.2l.3 1.2v.1s.1-.1.1-.1c0-.1 0-.1 0-.2 0-.3.2-.4.5-.4.1 0 .3-.1.4-.2s.2-.3.4-.1h.3c.2-.1.3-.3.5-.3s.3-.2.5-.3.3-.2.5-.3.5-.2.8-.3c.1 0 .3.1.4.1-.1.1.2.2 0 .3-.1.1-.2.2-.3.2-.2.2-.5.4-.6.6-.2.3-.4.4-.7.2-.4-.2-.4-.2-.8.1-.2.2-.5.5-.7.7s-.2.4 0 .6c.1.1.3.2.2.3-.1.2-.2.3-.5.3-.1 0-.2-.1-.3-.1-.3-.1-.4-.1-.6.2-.1.2-.2.4-.3.6v.2c.2.4.4.8.8 1.1.1.1.2.2.4 0 .1-.1.2-.1.3-.1.3-.1.3-.1.5.2 0 0 0 .1.1.1.3.3.3.6.4 1 0 .1.1.2.1.4v.4c-.2.3 0 .6.1.8 0 .1.2.2.2.3 0 .2.1.2.2.3 0 0 .1 0 .1.1.3.2.4.3.3.7 0 .1-.1.3-.1.4s0 .1.1.1c.4-.2.7-.1 1 .3h.1s.1-.1 0-.1c0-.5.2-.8.6-1 .1 0 .2-.1.2-.2.1-.2.3-.1.4-.1s.1.2.2.3c.1.3 0 .6-.1.9-.1.2 0 .4 0 .5v1.1c0 .2 0 .4.1.7 0 .1.1.2 0 .4-.1.1-.3.1-.4.1-.3 0-.3 0-.4.2s-.2.4-.3.5c-.4.4-.9.8-1.4 1.2-.4.3-.8.4-1.1.8-.1.2-.4.3-.6.5-.3.3-.7.6-1 1-.2.2-.3.6-.4.9-.3.5-.6 1.1-.8 1.6-.3.5-.5 1-.7 1.5-.1.1-.1.2-.2.3.1.3-.1.5-.2.8m11.2-2.3c0 .7.2 1.4.2 2.1 0 .2.1.4.1.6.1.5.2.9.3 1.4 0 .3 0 .5.1.7.2.6.4 1.1.6 1.7.2.7.5 1.3.7 1.9s.4 1.1.7 1.7.7 1.2 1.1 1.9c.2.3.4.6.6.8.1.1.2.2.3.3.2.4.5.8 1 1.1.2.1.3.3.5.5.2.3.5.5.7.8.2.2.4.3.6.5.1.1.3.1.4-.1.3-.4.6-.9.9-1.3.5-.6.5-1.3.3-2-.2-.9-.5-1.7-.8-2.6-.2-.7-.4-1.3-.5-2 0-.2-.1-.4-.1-.6-.1-.4-.2-.8-.3-1.3-.2-.8-.4-1.6-.6-2.4-.1-.5-.3-1-.4-1.5-.2-.6-.3-1.3-.5-1.9-.2-.5-.4-1-.6-1.5-.3-.7-.4-1.5-.8-2.2-.4-.9-1-1.4-1.7-1.8-.4-.2-.7-.4-1-.7-.2-.2-.3-.2-.6-.1-.2.3-.4.4-.6.3 0 0-.1 0-.2 0-.2.2-.4.4-.5.6-.2.4-.4.8-.7 1.2-.2.2 0 .4.1.6.4.5.4 1 .5 1.5 0 .2.1.3.1.5 0 .4 0 .8.1 1.3m12.7 60c-.2.4-.5.8-.5 1.3 0 .2-.1.5-.2.7-.2.4-.2.8-.2 1.2v1.4c0 .1 0 .2.1.4.1.4.2.8.4 1.2 0 .1 0 .1.1.2.1 0 .1-.1.2-.1.6-1 1.3-1.8 2-2.7.6-.7 1.3-1.4 2-2 .4-.4.9-.6 1.4-.8.5-.1 1.1-.2 1.7-.3.9-.1 1.7-.1 2.6-.1.2 0 .4 0 .7-.1.2 0 .4-.1.6-.2.7-.2 1.4-.4 2-.8s1.1-.8 1.6-1.2c.5-.5.9-1.2 1.4-1.8.7-1.1 1.3-2.3 1.9-3.4.1-.1.1-.2-.1-.3-.7-.2-1.3-.5-2-.8-.3-.1-.6-.3-.9-.4-.4-.1-.8-.3-1.3-.2-.2-.2-.5-.1-.7 0-.3.2-.5.3-.9.4-.5.1-1 .4-1.5.6-.6.3-1.1.6-1.6 1-.6.4-1.2.7-1.8 1-.4.3-.9.5-1.3.8-.2.1-.3.1-.4 0h-.1v.1c.1.1 0 .2-.1.3-.2.1-.3.2-.5.3-.7.4-1.4.9-2.1 1.3-.5.2-.8.6-1.2.9-.1.1-.2.2-.3.3-.4.4-.6 1-.9 1.5 0 0 0 .1-.1.3m-19.7-66.7c.4-.2.8-.4 1.1-.7.2-.2.2-.2 0-.4 0 0 0-.1-.1-.1-.2-.3-.3-.6-.3-1-.1-.2-.2-.4 0-.6 0 0 0 0 0-.1 0 0 0 0-.1 0-.1.1-.2.3-.3.3-.2 0-.3 0-.5 0s-.3 0-.4.2c0 .1 0 .3-.1.5-.1.1-.1.3-.3.3s-.3 0-.4-.2c.1-.2 0-.4 0-.6s-.1-.4-.3-.4c-.1-.1-.3-.1-.5-.2-.1 0-.3 0-.4 0-.3.2-.7.4-1.1.6-.7.4-1.3.9-1.9 1.5-1.3 1.3-2.6 2.6-3.8 4 0 0-.1.1-.1.1-.4.7-.9 1.2-1.2 1.9-.3.6-.5 1.2-.8 1.8v.1c-.1.5-.2 1-.3 1.4 0 .3-.2.6-.2.9 0 .7-.2 1.5-.3 2.2-.1.6-.1 1.2-.1 1.8s.2 1 .5 1.5c.1.2.3.2.4 0s.3-.4.4-.6c.3-.4.5-.8.8-1.3.3-.6.7-1.1 1-1.7.3-.5.5-1.1.8-1.6.3-.7.6-1.3.9-2 .3-.6.6-1.3 1.1-1.8s1-1 1.4-1.5c.2-.2.3-.4.5-.6 0 0 .1-.1.1-.1.1-.1.2-.1.3-.2.4-.4.9-.9 1.3-1.3.2-.2.3-.4.5-.5.2-.2.5-.4.7-.7.1-.1.2-.2.3-.2.5-.1.9-.3 1.4-.7m20.6-3.7c-.2-.2-.4-.3-.5-.5-.2-.2-.3-.4-.5-.6-.4-.4-.8-.7-1.2-1-.3-.3-.7-.5-1.1-.7-.5-.3-.9-.6-1.3-1-.1-.1-.2-.2-.3-.3-.4-.3-.8-.5-1.2-.8-.5-.3-1-.5-1.4-.8s-.8-.3-1.3.1c-.2.2-.5.4-.7.6-.2.1-.2.2 0 .3.1.1.2.1.3.1s.1.1.2.2c0 0-.1.1-.2.1-.2 0-.3 0-.5-.1-.4-.1-.5 0-.6.3v.2c-.1.3-.2.5-.5.6-.1 0-.2 0-.2.1v.3c0 .1.1.1.2.2.2.1.1.3.1.4s-.1.1-.2.2-.1.2-.1.2c.2.3 0 .5-.2.7-.1 0-.1.1-.1.2h.3c.4-.1.8-.2 1.2-.2.3 0 .6 0 1 .1.6.1 1.3.3 1.8.6.8.5 1.7.8 2.6 1.1.6.2 1.2.5 1.6.9.4.3.7.7 1 1.1.1.1.1.2.2.3.3.1.6.5 1 .6.2 0 .5.2.6.3.2.3.6.4.9.6.2.1.6 0 .7-.3.2-.4.2-.9.2-1.4 0-.1-.1-.3-.2-.4-.2-.3-.4-.6-.5-.8-.5-.5-.7-1-1.1-1.5m-26.9-4c-.5.2-.9.5-1.4.7-.5.3-1 .7-1.5 1-.3.2-.6.5-.9.7-.1.1-.2.1-.3.2-.2.1-.3.2-.5.4s-.4.3-.6.5c-.3.3-.5.6-.7.9-.4.5-.7 1-.9 1.6-.2.5-.3 1-.5 1.6-.1.3 0 .7-.3.9 0 .4-.2.8-.2 1.3 0 .3 0 .4.3.2.5-.2 1-.4 1.3-.8.8-.8 1.5-1.5 2.1-2.2.2-.2.4-.4.6-.7.3-.3.6-.7.9-1 .6-.5 1.1-1 1.7-1.5.5-.4.9-.8 1.4-1.3.1-.1.1-.1.2-.1 0 0 .1-.1.1-.1s-.1-.1-.1-.1c-.2-.1-.3-.1-.5-.2s-.3-.5-.1-.6c.3-.1.5-.4.8-.6.1 0 .2-.1.2-.1.1 0 .1.1.1.2s.1.3 0 .4c-.1.2 0 .3 0 .4 0 .2.1.2.2.1.4-.4.8-.5 1.3-.5h.2s-.1-.1-.1-.1c-.3-.3-.7-.6-1-.9s-.5-.5-.8-.8c-.1-.1-.2-.1-.4 0-.1.1-.3.3-.6.5m48.9 60.4c0 .6.1 1.2-.1 1.8 0 .1 0 .1.1.2.1-.1.2-.1.2-.2.1-.3.2-.7.4-1 .2-.6.4-1.2.7-1.8.2-.5.4-1 .6-1.5.1-.2.1-.5.3-.7v-.1c.2-.7.5-1.4.6-2.1.1-.4.2-.9.2-1.3 0-.5.2-.9.3-1.3v-.1h-.1c-.1.1-.1.1-.2.2-.3.3-.4.8-.5 1.2-.1.2-.2.5-.3.7-.3.6-.5 1.1-.8 1.6-.1.3-.2.6-.3.9-.2.5-.3 1.1-.4 1.6-.5.6-.6 1.2-.7 1.9m-33.6-66.5c-.3.2-.7.2-1.1.1-.2 0-.4 0-.6 0 0 .2.1.4.1.5.1.3.2.3.4.1 0 0 .1-.1.1-.1.2-.2.5-.2.7 0 .1.1.1.3.3.1 0 0 .2-.1.2.1 0 0 .1.1.1.1 0-.1 0-.1 0-.2.1-.1 0-.4-.2-.7m31.7 71.2c-.2.1-.1.3-.1.5.1.3.2.6.3 1 0 .1 0 .1.1.2 0-.1.1-.1.1-.2s0-.2 0-.3c-.2-.5-.3-.8-.4-1.2m-41.7-55.2c.2-.1.4-.3.6-.4s.4-.2.5-.4c.1 0 .1-.1.1-.2-.1 0-.2 0-.2.1-.4.3-.8.6-1.1.8 0 0 .1.1.1.1m24.5 27.1c0-.1 0-.2-.1-.2v.1c0 .1 0 .1.1.1m-9.6-6.6v.1c.1 0 .1-.1 0-.1.1 0 .1 0 0 0m-5.9-22.5s0 .1 0 0c0 .1 0 .1 0 0"/><path d="m111.8 86c.8-.3 1.5-.7 2.2-.9.4-.1.9-.3 1.3-.3.5-.1 1-.1 1.5-.2.6-.1 1.3-.3 1.9-.4.4-.1.8-.1 1.2 0 .3 0 .6.1.8.3.4.3.8.6 1 1v.1c.1.6.5 1.2.7 1.8.1.5.3.9.5 1.4.2.3.4.7.4 1.1.1.4.3.7.4 1 .2.5.4 1.1.5 1.6.1.4.1.7.1 1 0 .2-.4.5-.7.5-.1 0-.5-.3-.5-.4 0-.2-.1-.3-.3-.3-.3-.1-.6-.2-.9-.2-.6-.1-1.3 0-1.9-.3h-.1c-.6 0-1.2 0-1.8-.1s-1.2 0-1.8-.1c-.7-.1-1.5 0-2.2-.1-.7 0-1.4 0-2.1-.1-.2 0-.5-.1-.7-.2s-.2 0-.2.1c0 .2.1.4.2.6.1.3.1.6.2.9 0 .1-.1.2-.2.3h-.2c-.1 0-.1-.1-.1-.2-.1-.6-.6-1-.9-1.5s-.8-.8-1.3-1.2-1.1-.6-1.7-.8-1.3-.2-1.9-.4c-.4-.1-.9-.2-1.2-.5-.4-.4-.4-.6-.1-1 .4-.6.9-.9 1.5-1.1.2-.1.4-.1.6-.1.3 0 .5-.1.7-.2s.4-.1.6-.1c.8 0 1.6.1 2.4.1.3 0 .5-.1.7-.3.6-.3 1-.5 1.4-.8m10.3 3.6c-.1-.1-.1-.3-.2-.4-.5-.8-.8-1.7-1.2-2.5-.1-.3-.2-.6-.4-.8-.3-.4-.6-.7-1.1-.7-.4 0-.8.2-1.3.3-.4.1-.7.2-1.1.3-.4 0-.9.1-1.3.2-.6.1-1.1.2-1.6.5-.2.1-.5.2-.7.3s-.3.2-.5.3c-.1.1-.2.2 0 .3.2.2.4.4.4.7v.2c-.1 0-.1 0-.2-.1-.2-.1-.3-.3-.5-.3-.4 0-.7.1-1.1.1 0 0 0 0-.1 0-.3.3-.7.5-1 .8-.1.1-.1.1 0 .3.1.3.3.6.5.8.3.3.6.5.8.8.6.7 1.4.9 2.2 1s1.7 0 2.5.1c.6.1 1.3 0 1.9.1s1.2.1 1.8.1c.4 0 .9.1 1.3.1h.1c.5.1 1 .2 1.5.2.2 0 .2-.1.1-.2-.1-.2-.2-.5-.3-.7 0-.7-.3-1.2-.5-1.8m-14.7-1.2c.1-.3.1-.3-.2-.3-.2 0-.5.1-.7.1 0 0-.1.1-.1.1s0 .1.1.1c.2.1.4.1.6.2.1-.1.2-.1.3-.2m.9.4h.1c.1 0 .1-.1.1-.1 0-.1-.1-.2-.2-.2-.1.1-.1.2 0 .3m15.7 3.7h.1s0 0 0-.1c0 .1 0 .1-.1.1z"/><path d="m71.4 3.6h.3c.2.1.2.1.1.3-.2.3-.4.6-.4.9 0 .2 0 .3.1.5.1.1.1.3 0 .3s-.3 0-.3 0c-.2-.2-.2-.1-.3.1v.1c0 .4-.2.5-.5.4-.2-.1-.3 0-.5.1-.3.3-.6.5-1 .4-.2 0-.3.2-.3.3 0 .3-.1.5-.3.8-.1.1-.1.3 0 .5.2.3 0 .5-.4.5-.5 0-.7-.3-.5-.8 0-.1.1-.3.2-.4 0-.1.1-.2.1-.4 0 0-.1-.1-.1-.1s-.1 0-.1.1c-.1.3-.2.5-.3.8s-.3.3-.5.4c-.1 0-.3-.1-.4-.2 0 0-.1-.1-.1-.2.1-.4.1-.8.3-1.2 0-.1.2-.3.3-.4.3-.2.4-.4.4-.7 0-.1 0-.3-.1-.3-.2 0-.1.1-.1.2 0 0 0 0 .1.1.1.2 0 .4-.2.5-.1.1-.3.1-.5-.1-.1-.1-.2-.2-.2-.3-.2-.4-.2-.8-.1-1.3 0-.2.2-.4.3-.5.2-.1.2-.3.3-.4.2-.2.3-.4.4-.6s.1-.4.1-.6c.1-.1.2-.4.4-.4.3 0 .3.3.3.5 0 .3.2.5 0 .8-.1.1 0 .4 0 .4.1.3 0 .5.1.8 0 .2 0 .5.1.7 0 .1.2.2.4.2 0 0 .1.1.1.1 0-.1 0-.1 0-.2 0-.5.5-1 .9-1.1s.7-.3 1.1-.2c.1 0 .2-.1.3-.1.2-.1.3-.2.5-.3m-2.9 2.2s-.1.1-.1.1v.1c.1-.1.1-.2.1-.2z"/><path d="m75.7 120c.6-.5 1.1-.9 1.3-1.6 0-.1.1-.3.2-.4s.2-.2.3-.2c.2 0 .2.1.2.2 0 .2-.1.4-.1.5-.1.9-.5 1.7-1 2.4-.3.3-.5.7-.7 1.1-.2.2-.3.5-.5.7v.3c.1 0 .2 0 .2-.1.2-.4.6-.4 1-.4.2 0 .3.3.2.4-.2.3-.2.7-.2 1.1 0 .3 0 .5-.1.8-.1.4 0 .8.1 1.1v.1h.1c.1-.1.1-.2.2-.3s.3-.1.3-.1c.1 0 .2.2.1.3-.1.5-.2 1-.7 1.3-.3.2-.6.2-.8 0-.4-.3-.7-.6-.7-1.2 0-.5-.2-1-.2-1.5 0-.4 0-.4-.3-.5-.5-.2-.6-.6-.7-1-.2-.5 0-.9.2-1.2.5-.7 1-1.3 1.6-1.8z"/><path d="m64.5 4.3c.1-.4.2-.7.3-1 0-.1.1-.2.2-.2.1.1.2.2.2.3v.4c0 .3.1.4.3.4s.3.1.3.3c0 .4 0 .9-.1 1.3 0 .1-.1.2-.2.2-.1.1-.2.2-.2.4s.2.2.3.2c.3.1.4.2.4.4 0 .3-.1.5-.2.7-.1.1-.2.3-.1.4.1.4.1.8-.1 1.3-.1.2-.1.5-.1.7s-.1.4-.4.4c-.1 0-.2 0-.3.1-.2.3-.5.2-.8.2s-.5-.1-.7-.4c-.1-.1-.2-.2-.3-.1-.2.1-.3 0-.5-.1-.4-.2-.6-.5-.7-.9-.1-.1-.1-.2 0-.3.2 0 .4-.2.4-.5 0-.1.1-.3.3-.3.2.1.3.3.3.5 0 .1-.1.2-.1.2 0 .1-.1.3.2.2h.2c.3.1.6.2 1 .3h.2c.1 0 .1-.2.1-.2-.2-.2-.1-.4-.1-.6 0-.8 0-1.7 0-2.5 0-.5 0-1 .2-1.5 0-.1 0-.2 0-.3z"/><path d="m69.5 47.8c-.1.6-.5.8-1 .7-.2-.1-.2-.2-.2-.4.1-.4.1-.8.3-1.2.3-.6.5-1.2.7-1.8.3-.8.7-1.7 1.1-2.5.2-.5.6-.7 1.1-.7.4 0 .5.2.3.6-.3.6-.6 1.1-.9 1.7-.4.9-.8 1.9-1.2 2.8.1.3 0 .5-.2.8z"/><path d="m20.9 53.6c-.1.1-.3.2-.3.2-.2 0-.5-.1-.6-.3-.3-.3-.6-.7-.8-1.2 0-.1-.1-.3-.1-.4s0-.2 0-.3c.4-.3.1-.8.5-1.1.1-.1.1-.3.1-.4 0-.2.1-.2.2-.2.3 0 .4.1.4.4 0 .2.1.5.2.7 0 0 .1.1.1.1s0-.1.1-.1c.2-.4.2-.9.4-1.3 0-.1.1-.2.1-.3.1-.1.3-.3.4-.3.3.1.6.1.8.4.1.2.3.3 0 .6-.1.1 0 .4 0 .6 0 .5-.2.6-.6.5-.3-.1-.3-.1-.3.3v.2c-.1.1-.1.3-.3.3-.1 0-.2 0-.3 0-.2 0-.3.2-.2.3.1.3.2.6.3 1-.1 0-.1.1-.1.3z"/><path d="m62 66.8c-.2-.1-.2-.4-.3-.6 0-.2.2-.4.4-.4h.1c.7-.1 1 .4 1.3.9.1.2.3.3.5.4.2 0 .4.1.5.3.2.4.4.7.7.9.1.1.2.7.1.8-.1.2-.6.3-.8.2s-.4-.3-.4-.5c-.1-.2-.3-.4 0-.6 0 0-.1-.1-.1-.1-.2-.1-.3-.1-.5-.1-.1 0-.2 0-.2-.1-.1-.4-.5-.4-.8-.5-.2-.3-.3-.4-.5-.6z"/><path d="m68.4 11.1v.8c0 .2-.1.3-.2.3-.4 0-.6-.1-.8-.4-.1-.1-.1-.2-.3-.2-.1 0-.3-.1-.4-.2s-.2-.4-.1-.5c.1-.5.3-1 .5-1.4 0-.1.1-.2.2-.2.1-.1.2-.2.4 0 .1.1.2.2.4.3.2.2.3.5.4.8-.1.1-.1.4-.1.7z"/><path d="m64.7 13.4c-.2-.1-.3-.2-.4-.4 0-.1-.1-.2 0-.3.3-.4.6-.8.9-1.2.1-.1.1-.2.1-.3.1-.3.4-.5.7-.5.2 0 .3.1.3.3-.1.3-.2.6-.3.9s0 .4.3.5c.2.1.3.2.1.3-.3.3-.3.7-.6.9-.2.2-.3.3-.5.2-.2 0-.4-.2-.6-.4z"/><path d="m106.9 97.7c-.3.1-.5.1-.7-.1-.1-.1-.2-.6 0-.7.4-.3.8-.5 1.2-.7.5-.3.9-.1 1.4.1 0 0 .1.1.1.2 0 .2.1.5.1.7 0 .3-.3.6-.6.6-.2 0-.3-.1-.3-.3-.1-.1-.2-.2-.3-.1-.4.2-.6.3-.9.3m.7-.5c0-.1 0-.1 0-.2h-.1c0 .1 0 .1.1.2z"/><path d="m13.9 42.2c-.1-.6.2-1.2.7-1.4.1-.1.3 0 .5 0 .1 0 .1.1.2.2 0-.1 0-.2.1-.3.1-.2.2-.3.3-.4.2-.2.4-.1.6-.1.1 0 .2.1.1.3-.1.3-.1.7-.1 1 0 .4-.3.6-.7.5-.2-.1-.4-.2-.5-.5 0 0 0-.1-.1-.1v.1c0 .2-.1.4-.1.5 0 .3-.2.5-.4.5-.1.1-.4-.1-.6-.3z"/><path d="m70.3 6.7c.2.1.3.2.2.4.1.4.3.7.4 1.1.1.1.1.2 0 .3-.2.2-.3.4-.2.7s0 .6 0 .9c0 .1-.1.2-.1.2-.4.2-.8-.2-.8-.6 0-.3 0-.5.1-.7.2-.4 0-.8-.1-1.1s0-.6.1-.9c0-.2.2-.3.4-.3z"/><path d="m15.9 51.4c-.2-.5-.3-.9-.3-1.4 0-.3.3-.5.3-.8h.4c.4.2.5.5.4 1v.3c.1.2.2 0 .3 0s.2.1.3.1c.1.3-.1.6-.3.8s-.4.2-.6.1c-.2.2-.3 0-.5-.1z"/><path d="m72.9 12.8c.1-.4.3-.8.6-1.1.1-.1.2-.2.3-.3s.1-.2.2-.1c.2.1.3.1.3.3v.5c-.1.5-.3.9-.5 1.3v.3c.2.2-.1.4 0 .6 0 0-.1.1-.1.1-.4.1-.7-.2-.8-.6 0-.4 0-.7 0-1z"/><path d="m77.9 10.1c.2-.1.3-.1.4-.2.1 0 .2 0 .3.1s.2.2.3.3c.4.3.5.5.3 1-.1.2-.1.4-.1.6 0 .3-.2.3-.5.3-.4-.1-.6-.5-.7-.8s-.2-.5-.2-.9c-.1-.2 0-.3.2-.4z"/><path d="m69.4 3.1c-.1.2-.1.4-.3.4-.3 0-.5 0-.6-.2 0 0-.1-.1-.1-.1 0-.5 0-1 .2-1.5.2-.4.4-.6.8-.5.2 0 .4.2.3.4-.2.5-.3 1-.3 1.5.1-.1.1-.1 0 0z"/><path d="m72 9.1c.2 0 .3 0 .4-.2.1-.1.2-.2.3-.2.3 0 .4.1.3.3-.1.4-.3.8-.5 1.2-.1.1-.1.3-.1.4s0 .3-.1.3c-.2 0-.4.1-.5-.1-.2-.2-.2-.5-.3-.8 0-.1 0-.2 0-.3-.1-.3.1-.5.5-.6z"/><path d="m72.1 1.7c.1-.3.2-.6.3-.9.1-.2.2-.5.3-.7.2-.1.5-.1.7-.1.3.1.2.3.2.5-.2.4-.1.9-.3 1.3-.1.1-.1.3-.1.3-.2.1-.4.1-.5.1-.5 0-.5-.1-.6-.5z"/><path d="m75.4 3.4c-.1-.3.1-.6.2-.8.1-.3.4-.6.7-.8.2-.2.5-.2.6 0 .1.1.1.3.1.4-.2.3-.1.7-.3 1-.2.4-.3.5-.7.5-.2-.1-.5-.1-.6-.3z"/><path d="m81.3 9.2c-.2.3-.4.5-.7.4-.1 0-.1 0-.2 0-.3 0-.5-.2-.4-.6s.3-.8.5-1.2c.1-.1.2-.3.5-.3.2 0 .3.2.3.5z"/><path d="m59.4 68.1c.2-.2.4-.1.6 0s.1.3 0 .4c-.1.3-.1.6-.1.9-.1.3-.5.6-.8.5-.1-.1-.4 0-.4-.2-.1-.2-.2-.4 0-.6.2-.4.4-.8.7-1z"/><path d="m73.1 9.4c0-.1 0-.1 0-.2s.1-.3.1-.4c.2-.1.5-.1.7-.2.2 0 .3.1.3.3 0 .4.1.8.1 1.2 0 .2-.1.2-.2.3-.3.1-.5 0-.7-.3-.1-.1-.2-.4-.3-.7z"/><path d="m16 45.9c-.2.3-.5.4-.8.3-.2-.1-.3-.2-.4-.4-.1-.5-.1-.7.4-.9.2 0 .3-.1.5-.2.1-.1.2 0 .3.1.3.2.3.7 0 1.1z"/><path d="m19.9 46.2c-.1 0-.2.1-.2.1-.2-.1-.4-.2-.6-.3-.3-.3-.4-.7-.4-1.1v-.1c.2-.1.4-.2.6-.3.2 0 .3.1.4.3.1.4.2.8.2 1.2.2.1.1.1 0 .2z"/><path d="m56.9 70.8c.1.2.2.4.2.5 0 .2-.4.5-.7.4-.2-.1-.3-.2-.5-.4-.1-.1-.2-.3 0-.5.1-.1 0-.3 0-.5 0-.1.1-.2.1-.4s.1-.3.3-.3.3.2.4.4c0 .3.1.5.2.8z"/><path d="m79.9 5.6c.1-.1.2-.3.4-.1.2.1.3.2.3.4-.1.3-.1.7-.3 1s-.3.4-.7.3c-.2 0-.3 0-.5-.1-.1-.2-.1-.3-.1-.5.3-.3.6-.6.9-1z"/><path d="m70 12.9c-.6-.3-.8-.7-.6-1.2 0-.1.2-.1.3-.1.1.1.1.2.1.3.1.2.2.4.3.5s.2.3.4.1c.1-.1.3.1.4 0 0 0 .2.1.2.2.1.4-.3.9-.7 1-.2 0-.3 0-.3-.2-.1-.1 0-.3 0-.4 0 0 0 0 .1-.1 0-.1 0-.1 0-.2 0 0-.1 0-.2.1z"/><path d="m72.3 12.4c0 .3 0 .6-.1.7-.2.3-.2.6 0 .9.1.1.1.3 0 .3-.1.1-.3.1-.4 0s-.2-.2-.3-.3 0-.3 0-.4c0-.5.3-1 .4-1.5 0-.1.1-.2.1-.3s.1-.1.2-.2c.1.1.2.2.2.3 0 .2-.1.3-.1.5z"/><path d="m61.5 68c.1.1.1.1.1.1.1.4-.3 1.2-.6 1.3-.2 0-.5 0-.7-.2-.2-.1-.2-.5-.1-.6.3-.3.5-.5.8-.7.3-.1.4-.1.5.1z"/><path d="m17.9 50.6c0-.1 0-.2-.1-.3-.1-.2-.2-.4 0-.5.1-.1.3-.1.5-.1.4.1.7.3.7.8v.1c.2.2.1.5-.1.7-.2.1-.7-.1-.9-.3 0-.1 0-.2-.1-.4z"/><path d="m70.3 1.8c.2-.4.3-.7.5-1 .1-.2.3-.4.6-.3.2 0 .2.1.2.3-.1.5-.2.9-.3 1.3 0 .1-.1.2-.1.2-.2 0-.4.1-.7 0-.2-.1-.2-.3-.2-.5z"/><path d="m57.2 70.2c-.1-.2-.2-.4-.2-.5.1-.3.2-.5.3-.8.1-.2.4-.4.7-.3.1 0 .2.1.2.2.1.4-.1.8-.2 1.2 0 .1-.1.2-.3.2-.1 0-.3 0-.5 0z"/><path d="m68.4 13.1c-.1.3-.1.6.1.9.1.1 0 .2 0 .3s-.1.2-.1.2c-.2.1-.9-.1-1-.3-.1-.1-.1-.2-.1-.4 0-.1.1-.2.1-.2.3-.1.4-.3.6-.6.1-.1.2-.1.3-.2 0 0 .1.1.1.3z"/><path d="m73.9 1.7c.1-.3.3-.5.4-.8 0-.1.2-.1.3-.1s.3.1.3.3 0 .5-.1.7v.2c0 .5-.1.5-.6.5-.2 0-.4-.1-.5-.2 0-.2 0-.4.2-.6z"/><path d="m62.4 67.9c.4 0 .8 0 1.1.4.1.1.1.5 0 .6 0 0 0 0-.1 0-.5 0-.9 0-1.3-.3-.1-.2 0-.5.3-.7z"/><path d="m20.3 45.9c.2-.2.3-.3.5-.4.1-.1.2-.1.3-.1s.1.2.1.2c.1.3.1.5.2.8 0 .1 0 .3-.1.3 0 .2-.3.3-.3.2-.3-.3-.7-.5-.7-1z"/><path d="m21.7 53.3c.1 0 .2.1.2.1.5 0 .7.2.6.6-.1.3-.4.5-.8.3-.1 0-.2-.1-.3-.1-.3-.1-.4-.2-.3-.6 0-.2.2-.3.4-.3 0-.1.1-.1.2 0z"/><path d="m14.1 46.7c.1-.2.3-.3.4-.4s.2-.2.2-.2c.1.1.3.1.4.3s.2.4.1.6v.2c0 .3-.2.5-.5.3-.3-.1-.5-.3-.6-.8z"/><path d="m78.8 6.4c-.1 0-.2 0-.3 0-.3 0-.5-.2-.5-.4v-.1c.2-.2.3-.4.6-.6.1-.1.4 0 .5 0 0 0 .1.1.1.2.2.3.1.6-.4.9z"/><path d="m77.2 4c.3-.3.5-.4.9-.4.2 0 .3.1.3.3 0 .1-.1.3-.1.4s-.1.1-.1.2c-.1.1-.1.3-.3.3-.3 0-.5-.1-.7-.3 0 0 0-.2 0-.3-.2 0-.2-.1 0-.2z"/><path d="m17.8 47.1c-.1 0-.3 0-.4-.1-.3-.1-.4-.5-.1-.7.2-.1.4-.2.6-.3.1 0 .2 0 .3.1.1.2.3.4.2.6.1.2-.3.4-.6.4m.4-.8c-.1 0-.1 0 0 0 0 .2.1.2.1.3 0 0 .1 0 0 0 0-.1 0-.2-.1-.3z"/><path d="m64.4 69.7c.4.2.5.6.1.8-.1.1-.3.1-.5 0-.4-.1-.7-.4-.6-.7 0-.2.1-.2.2-.2.3 0 .5-.1.8.1z"/><path d="m72.4 123.5c0-.3 0-.5 0-.7 0-.1.1-.2.2-.2.1-.1.1.1.2.2s.1.3.1.5c.1.2.2.2.4.2.1 0 .2-.1.2-.1.1.1.1.3.1.4s-.1.2-.2.2c-.2.1-.8-.1-1-.5z"/><path d="m68.6 11.8c0-.1.1-.1.1-.1.1-.2.3-.2.4-.1s.2.2.1.4c-.1.1 0 .3 0 .5v.2c0 .1 0 .3-.1.3-.2 0-.3 0-.5-.1-.3-.1-.2-.4-.2-.7.1-.1.2-.2.2-.4z"/><path d="m72.2 7.1c-.1 0-.2.1-.3.1-.2 0-.3-.3-.2-.5s.2-.4.3-.5.2-.1.4 0c.1.1.2.2.2.3-.2.2-.2.4-.4.6z"/><path d="m108.4 93.9c-.1-.2 0-.3.1-.2.1 0 .1.1.2.1 0 0 0 .1-.1.2 0-.1-.1-.1-.2-.1z"/><path d="m19.5 53.6c-.2 0-.1-.2-.1-.2h.1z"/><path d="m17.5 75.2s0-.1-.1-.1h.1z"/><path d="m19.1 55s0-.1-.1-.1h.1z"/><path d="m59.7 80v.1s-.1.1-.1.1v-.1c-.1 0 0 0 .1-.1z"/><path d="m56.5 77.6c.1 0 .1 0 0 0z"/><path d="m11 54.7c-.1-.1 0-.1 0-.2h.1c0 .1 0 .1-.1.2z"/><path d="m25.3 50.8v.1h-.1s0-.1.1-.1z"/><path d="m25.4 49.4s0-.1-.1-.1h.1z"/><path d="m23.1 42.6c0 .1-.1.1 0 0-.1.1-.1 0 0 0z"/></svg>