<?xml version="1.0" encoding="utf-8"?>
<!-- Generator: Adobe Illustrator 26.2.1, SVG Export Plug-In . SVG Version: 6.00 Build 0)  -->
<svg version="1.1" id="Layer_1" xmlns="http://www.w3.org/2000/svg" xmlns:xlink="http://www.w3.org/1999/xlink" x="0px" y="0px"
	 viewBox="0 0 223.4 206.1" style="enable-background:new 0 0 223.4 206.1;" xml:space="preserve">
<g>
	<g>
		<path d="M204.6,194.1c-3.4-0.4-6.7-0.5-9.8-1.7c-0.8-0.3-1.8-0.3-2.7-0.5c-2.1-0.5-3.3-1.3-2.6-3.8c0-0.1,0-0.3-0.1-0.4
			c-0.2-0.7-0.3-1.4,0.4-2c0.2-0.2,0.4-0.5,0.5-0.8c0.4-1.7,1.7-2.1,3.2-2.4c0.5-0.1,1.1-0.2,1.7-0.2c0.6,0,0.9-0.2,1-0.9
			c0-0.5,0.1-1,0.2-1.5c0-0.1,0-0.1,0-0.2c0.9-0.9,1.7-2,2.6-2.8c0.6-0.5,1.3-0.8,2.1-1c0.7-0.2,0.7-0.6,0.8-1.1
			c0.1-3.5,0.1-6.9,0.1-10.4c0-1.7-0.1-3.4-0.2-5.1c0-0.3-0.1-0.7-0.2-0.9c-0.7-1.6-0.4-3.2-0.2-4.8c0-0.2,0-0.4,0-0.7
			c0.1-2.4,0.1-4.7,0.3-7.1c0.1-1.6,0.5-3.1,0.8-4.7c0.1-0.9,0.2-1.9,0.2-2.8c0.2-2.2,0.3-4.4,0.4-6.7c0.2-3.6,0.3-7.2,0.5-10.8
			c0.1-3.2,0.2-6.5,0.3-9.7c0.1-2.8,0.3-5.7,0.5-8.5c0.1-2,0.4-4,0.6-6c0.1-0.9,0.1-1.9,0.2-2.8c0.2-2.3,0.5-4.5,0.6-6.8
			c0.1-0.8-0.2-1.5-0.1-2.3c0.1-2.1,0.5-4.2-0.2-6.3c-0.1-0.4-0.2-0.7-0.8-0.7c-1.6,0.1-3.1,0.1-4.7,0.2c-1.9,0-2.7-0.9-2.7-2.6
			c0-2.6-0.1-5.1-0.1-7.7c0-1,0.1-1.9,0.2-2.9c0.1-0.9,0.9-1.5,2.2-1.6c1.4-0.1,2.7-0.4,4.1-0.5c0.7-0.1,1.5,0,2.2,0.2
			c2.2,0.7,4.3,0.1,6.4,0c1.3-0.1,2.7,0.1,4,0.2c0.6,0,1.2,0.1,1.7,0.3c1.3,0.4,1.7,0.9,1.7,2.2c0.1,2.9,0.1,5.9,0.1,8.8
			c0,1.9-1.4,3.4-3.4,3.4c-1.5,0-2.9-0.4-4.4-0.6c-0.2,0-0.6,0.2-0.6,0.4c-0.1,1.5-0.2,3-0.3,4.4c-0.1,1.7-0.4,3.4-0.4,5.1
			c-0.1,2.6-0.1,5.2-0.1,7.9c0,0.2,0,0.5,0,0.7c0.1,4.2,0.2,8.3,0.3,12.5c0,1.6,0.2,3.2,0.1,4.9c0,3.1-0.2,6.1-0.2,9.2
			c-0.1,6.1-0.1,12.1-0.2,18.2c-0.1,3.1-0.3,6.2-0.4,9.3c0,1,0,2.1,0,3.1c0,4.6,0.1,9.2,0.1,13.7c0,2-0.2,4-0.2,5.9
			c0,1.4,0,2.8,0,4.1c0,0.5,0.1,0.7,0.8,0.7c1.3-0.1,2.7-0.2,3.9,0.9c0.7,0.6,1.1,1,0.8,2c-0.2,0.5,0,1.1,0.2,1.7
			c0,0.2,0.4,0.4,0.7,0.4c1,0.1,2,0,3,0c1.1,0,2,0.8,2.1,1.9c0,0.3,0.1,0.6,0.2,0.9c0.2,0.8,0.4,1.5-0.1,2.4
			c-0.4,0.7-0.2,1.6-0.1,2.5c0.1,1-0.6,1.5-1.2,2c-0.1,0.1-0.3,0.1-0.3,0.1c-1.7-0.6-3.1,0.4-4.6,0.7
			C211.9,193.4,208.4,194.5,204.6,194.1 M207.9,177.9c0.7,0.1,0.9-0.2,0.9-0.8c-0.1-1.9-0.1-3.8-0.2-5.7c0,0,0-0.1,0-0.1
			c-0.2-2.5-0.3-4.9-0.2-7.4c0.2-3.1,0.6-6.1,0.9-9.2c0.3-2.8,0.2-5.5,0.3-8.3c0.1-2,0.3-4.1,0.4-6.1c0-1.7-0.1-3.3-0.1-5
			c0.1-7.4,0.3-14.9,0.3-22.3c0-4.4-0.2-8.9-0.3-13.3c0-1.9-0.2-3.8-0.1-5.7c0.1-2.5,0.3-5,0.4-7.5c0.1-2.8,0.1-5.7,0.1-8.5
			c0-0.6-0.2-0.7-0.8-0.5c-0.7,0.2-1.6,0.4-2.3,0.4c-0.7,0-1,0.2-0.9,0.9c0,2.1,0,4.2,0,6.2c-0.1,1.5-0.3,2.9-0.4,4.4
			c-0.1,1.5-0.1,3-0.2,4.5c-0.1,1.9-0.3,3.8-0.4,5.7c-0.2,2.7-0.4,5.4-0.4,8.2c-0.1,8.3,0,16.5-0.6,24.8c-0.1,1.2-0.1,2.4-0.2,3.6
			c-0.3,2.7-0.6,5.4-0.8,8.1c-0.1,0.7,0.1,1.4,0.2,2.1c0,4.5,0.1,9,0.1,13.6c0,0.9,0.1,1.8,0.2,2.7c0,0.5,0.2,1,0.2,1.5
			c-0.3,1.8-0.5,3.6-0.4,5.4c0.1,2.1,0,4.3,0,6.4c0,1.5,0.1,1.5,1.6,1.6c1,0.1,2,0.4,2.9,0.6c-1.4-0.1-2.7-0.3-4.1-0.4
			c-0.1,0-0.3,0.1-0.5,0.2c0.1,0.1,0.2,0.4,0.4,0.4c1.3,0.2,2.7,0.4,4,0.6c0.3,0,0.7-0.2,1.1-0.2
			C208.3,178.2,208.1,178.1,207.9,177.9 M199.3,69.6c0.1,0.7,0.1,1.3,0.2,2c0.1,1.2,0.1,2.3,0.2,3.5c0,0.8,0.6,1,1.3,1
			c1.9-0.1,3.7-0.4,5.6-0.5c2.1-0.1,4.3-0.1,6.4-0.2c0.2,0,0.5,0.1,0.7,0c1-0.3,1.9-0.2,2.8,0.1c0.4,0.1,1.1-0.1,1.3-0.3
			c0.4-0.5,0.7-1.2,0.8-1.9c0.1-0.5-0.2-1.1-0.3-1.6c-0.4,0.1-0.8,0.3-1.1,0.2c-0.5-0.1-1-0.5-1.5-0.7c0.3-0.4,0.1-1.5,1.1-0.7
			c0,0,0.2-0.2,0.2-0.3c0.1-0.1,0.2-0.3,0.3-0.3c1.1-0.1,0.7-0.8,0.5-1.4c-0.1-0.4-0.2-0.9-0.2-1.3c-0.2-1.3-0.9-2.2-1.9-2.2
			c-0.6,0-1.2,0-1.8,0c-0.3,0-0.5,0-0.8,0c-0.1,0-0.2,0-0.3,0c0.1,0.1,0.1,0.3,0.2,0.3c0.2,0.2,0.6,0.2,0.8,0.4
			c0.7,0.5,0.7,1.1,0,2.3c-0.8,1.3-3,1.7-4.1,0.8c-0.2-0.2-0.4-0.5-0.4-0.8c0.1-0.7,0.1-1.5,0.4-2.2c0.1-0.3,0.8-0.4,1.2-0.6
			c0.1,0,0.1-0.1,0.2-0.2c0.1-0.1,0.2-0.2,0.3-0.3c-0.1,0-0.2-0.1-0.3-0.1c-1.4-0.1-2.8-0.2-4.2-0.2c-1.8,0-3.7,0.2-5.5,0.3
			c-1.6,0.1-1.9,0.5-1.9,2c0,0.5-0.2,0.9-0.2,1.4C199.3,68.7,199.2,69.1,199.3,69.6 M220.2,185.2c-0.2-0.5-1-0.9-0.3-1.5
			c0.1-0.1,0.2-0.4,0.2-0.4c-0.2-0.2-0.5-0.4-0.8-0.4c-0.7,0-1.5,0-2.2,0.1c-0.6,0-1.5-0.2-1,0.9c0,0.1,0,0.2-0.1,0.3
			c-0.7,1.2-1.9,1.8-3.1,2c-2.6,0.3-5.3,0.8-7.9,0.6c-0.6-0.1-1.1-0.1-1.7-0.2c-1.3-0.1-2.5-0.7-3.8,0.3c-0.5,0.3-2,0-2.5-0.6
			c-0.7-0.7-0.9-1.9-1.2-2.9c-0.1-0.4-0.2-0.5-0.6-0.4c-0.6,0.1-1.3,0.2-1.9,0.4c-0.9,0.2-2,1.4-1.8,2.2c0.2,0.8,0.4,1.5,0.8,2.2
			c1,1.6,2.8,2.1,4.5,2.1c2.3,0.1,4.6-0.3,7-0.5c1.1-0.1,2.2-0.2,3.3-0.3c2.3-0.3,4.7-0.6,7-0.9c1.5-0.2,3.1-0.5,4.6-0.8
			C219.9,187.1,220.5,186.5,220.2,185.2 M201.4,190.6c-1.9-0.1-3.8-0.2-5.7-0.2c-0.3,0-0.7,0.1-1,0.2c0.4,0.3,0.7,0.7,1.1,0.9
			c0.2,0.1,0.5,0,0.8,0c1.8,0.2,3.6,0.4,5.4,0.6c1.9,0.3,3.8,0.3,5.7-0.1c2.7-0.7,5.4-1.2,8.2-1.8c1.1-0.3,2.5-0.3,3.1-1.5
			c0.1-0.2,0.2-0.3,0.3-0.4c-0.2,0-0.4-0.1-0.5,0c-3.3,1-6.8,0.6-10.2,1.1c-1.4,0.2-2.9,0.1-4.3,0.2c-0.2,0-0.4,0.2-0.6,0.3
			c0.2,0.1,0.4,0.2,0.6,0.2c1.4,0,2.8-0.1,4.2-0.1c0.4,0,0.8,0.3,1.2,0.4c-0.4,0.1-0.8,0.3-1.2,0.3
			C206.2,190.6,203.9,190.6,201.4,190.6 M198.4,184.3c0.1,0,0.3-0.1,0.4,0c0.2,0.1,0.3,0.5,0.5,0.5c1.4,0.3,2.8,0.7,4.2,0.8
			c2.1,0.1,4.1,0.4,6.2-0.1c1.1-0.3,2.2-0.6,3.3-0.9c0.7-0.2,1.1-0.9,0.9-1.5c0-0.2-1-0.3-1.5-0.3c-1.4,0.1-2.9,0.4-4.3,0.5
			c-1.4,0.1-2.9,0-4.3,0c-1.3,0-2.6-0.1-3.7-0.6c-0.6-0.3-1.2-0.5-1.8-0.8c-0.3-0.2-0.6-0.3-0.6,0.2c0,0.8,0,1.6,0,2.4
			C197.7,184.3,198.1,184.3,198.4,184.3 M200.9,77.4c0.4-0.1,0.8-0.2,1.2-0.2c1.7,0,3.5,0.2,5.2,0c2.3-0.3,4.6-0.8,6.9-0.6
			c0.2,0,0.5,0,0.7-0.1c0.5-0.3,0.8-0.1,1.1,0.3c0.2,0.2,0.5,0.5,0.7,0.5c0.7,0.1,2-0.8,2.2-1.5c0.1-0.2,0-0.5,0-0.7
			c-0.2,0.1-0.5,0.2-0.6,0.4c-0.4,0.9-1.2,0.7-2,0.6c-0.5-0.1-1.1-0.3-1.6-0.3c-0.8,0-1.6,0.1-2.5,0.1c-1.8,0.1-3.6,0.1-5.5,0.2
			c-0.1,0-0.3,0.1-0.4,0.1c-2.1,0.4-4.3,0.5-6.4,0.2c-0.3,0-0.7-0.4-0.7-0.7c-0.2-0.7-0.2-1.4-0.2-2.1c0-2.1,0.1-4.3,0-6.4
			c0-1.2,0.1-2.2,1.2-3c0.1-0.1,0.1-0.3,0.1-0.3c-0.4-0.3-1.7,0.1-1.9,0.5c-0.3,0.9-0.5,1.8-0.5,2.7c0,2.5,0,5,0.1,7.5
			C198.1,77.3,197.9,77.5,200.9,77.4 M206.4,193c-0.7,0.1-1.4,0.1-2.2,0.2c-0.2,0-0.3,0.1-0.5,0.1c0.2,0.1,0.3,0.2,0.5,0.2
			c1.8,0,3.6-0.1,5.4-0.1c0.1,0,0.1,0,0.2,0c2.8-0.7,5.5-1.3,8.3-2c0.3-0.1,0.5-0.4,0.7-0.6c-0.3-0.1-0.7-0.4-1-0.3
			c-1.6,0.3-3.1,0.6-4.6,1C211,191.9,208.8,192.5,206.4,193 M216.9,64.7c0.4,0.6,1.2,1.1,1.3,1.8c0.3,1.8,0.4,3.7,0.6,5.5
			c0,0.3,0,0.5,0.1,0.8c0,0.1,0.2,0.3,0.3,0.4c0.1-0.1,0.2-0.3,0.2-0.4c0-1.2-0.1-2.4-0.2-3.7c-0.1-1.2-0.1-2.4-0.2-3.6
			c-0.1-0.7-0.2-1.4-1-1.6c-0.5-0.1-1-0.2-1.5-0.2c-1.5,0-2.9,0.1-4.4,0.2c-0.4,0-0.8,0.2-1.2,0.4c0.4,0.1,0.8,0.3,1.3,0.3
			C213.7,64.6,215.2,64.6,216.9,64.7 M213.4,181c-0.2-0.1-0.3-0.2-0.5-0.3c-0.6-0.1-1.3,0.3-1.8-0.4c-0.1-0.1-0.6,0.2-1,0.3
			c0.2,0.1,0.4,0.2,0.6,0.3c0.1,0,0.1,0.1,0.2,0.1c-0.1,0-0.2,0-0.3,0.1c-1,0.2-1.9,0.5-2.9,0.7c-0.2,0-0.3,0.1-0.5,0.1
			c0.2,0.1,0.4,0.3,0.6,0.3c1.3-0.1,2.6-0.3,4-0.5C212.3,181.6,213,181.9,213.4,181 M211.8,67.3c0.2,0.2,0.3,0.4,0.6,0.5
			c0.2,0.1,0.5,0.2,0.7,0.3c0.1-0.2,0.2-0.5,0.3-0.7c0-0.2-0.1-0.4-0.1-0.6c-0.2-0.6-1.4-1-1.9-0.7c-0.1,0.1-0.1,0.4-0.1,0.5
			C211.4,66.8,211.6,66.9,211.8,67.3 M203,64.3c0.3,0,0.6,0,1,0c0.1,0,0.3,0,0.4,0c0-0.1,0-0.4-0.1-0.4c-0.2-0.1-0.5-0.3-0.7-0.3
			c-0.6,0-1.2,0.1-1.7,0.2c-0.4,0.1-0.7,0.3-1,0.5c0.3,0.1,0.6,0.2,0.9,0.3C202,64.5,202.4,64.4,203,64.3 M197.6,192.3
			c0.1,0.2,0.1,0.4,0.2,0.5c1.1,0.2,2.3,0.4,3.4,0.6c0.1,0,0.2-0.2,0.2-0.2c-0.1-0.1-0.2-0.3-0.3-0.3
			C200,192.6,198.8,192.4,197.6,192.3 M204.2,182.2c0.2-0.2,0.5-0.3,0.7-0.5c-0.3-0.1-0.5-0.2-0.8-0.2c-0.1,0-0.1,0-0.2,0
			c-0.5,0.1-0.9,0.3-1.4,0.4c0.4,0.1,0.8,0.2,1.3,0.3C203.8,182.2,203.9,182.2,204.2,182.2 M210.9,67.9c-0.3,0-0.6,0-0.9,0
			c0.2,0.2,0.3,0.4,0.5,0.6c0,0,0.1,0,0.2,0c0.4,0.1,0.8,0.2,1.2,0.3C211.7,68.5,211.4,68.2,210.9,67.9 M191.6,190.1
			c-0.3-0.1-0.6-0.2-0.9-0.3c0.1,0.3,0.2,0.7,0.5,0.8c0.4,0.2,0.8,0.3,1.2,0.4C192.2,190.7,192,190.5,191.6,190.1 M200.6,177.4
			c-0.2,0-0.5-0.2-0.6-0.1c-0.3,0.1-0.5,0.3-0.7,0.5c0.1,0.1,0.2,0.3,0.2,0.3C199.9,177.9,200.2,177.7,200.6,177.4 M212.3,179.9
			c-0.1,0.1-0.3,0.2-0.4,0.3c0.1,0.1,0.2,0.1,0.4,0.2c0.2,0.1,0.5,0.2,0.7,0.2c0.2,0,0.5-0.2,0.7-0.3c-0.2-0.1-0.3-0.2-0.5-0.2
			C212.9,179.9,212.6,179.9,212.3,179.9 M191.4,188.9c0.2,0.1,0.4,0.2,0.5,0.2c0-0.2,0-0.4-0.1-0.5c-0.1-0.2-0.3-0.3-0.5-0.5
			c-0.2-0.2-0.4-0.3-0.5-0.5c0,0.3,0,0.5,0.1,0.8C191,188.6,191.2,188.7,191.4,188.9 M201.1,180.8c0-0.1-0.1-0.3-0.1-0.4
			c-0.3-0.1-0.7-0.2-1.1-0.4c0,0.1-0.1,0.3,0,0.3C200.2,180.6,200.5,180.7,201.1,180.8 M198.9,178.8c-0.3,0.1-0.6,0.2-0.8,0.2
			c0.1,0.1,0.2,0.3,0.4,0.3c0.4,0,0.8-0.1,1.2-0.1C199.5,179.1,199.3,178.9,198.9,178.8 M201.9,181.9c-0.1-0.8-0.8-0.4-1.2-0.5
			c0,0-0.1,0.1-0.1,0.2c0.4,0.1,0.7,0.2,1.1,0.4C201.7,182,201.8,182,201.9,181.9 M218.1,70.2c-0.2,0-0.3-0.1-0.5-0.1
			c0,0.2-0.1,0.4-0.1,0.5c0.1,0.1,0.2,0.2,0.4,0.3C218,70.7,218.1,70.5,218.1,70.2 M210.6,66.9c-0.2,0-0.3-0.1-0.5-0.1
			c0,0.2,0,0.4-0.1,0.6C210.3,67.3,210.5,67.2,210.6,66.9 M220,189.3c0-0.2,0.1-0.4,0.1-0.6c-0.1,0.1-0.4,0.1-0.4,0.2
			C219.7,189,219.8,189.2,220,189.3 M208.5,180c-0.1,0.2-0.3,0.3-0.4,0.5c0.2,0,0.4,0,0.6,0C208.6,180.4,208.6,180.2,208.5,180z"/>
		<path d="M212.3,25c-0.1,0.5-0.1,0.8-0.2,1.2c0,0.1,0,0.2,0,0.3c0.7,1.4,0.3,1.7,0,3.2c-0.1,0.6-0.3,1.3-0.4,1.9
			c-0.2,3-0.5,5.9-0.7,8.9c-0.1,1.2-0.2,2.3-0.2,3.5c0,0.1,0,0.3,0,0.4c0.8,2.6,0.2,5.3,0.1,7.9c-0.1,1.8,0.1,3.7,0.1,5.5
			c0,1.4,0.1,2.8,0.2,4.3c0,0.1-0.1,0.3-0.2,0.4c-0.1-0.1-0.3-0.3-0.4-0.4c-0.1-0.5-0.2-1.1-0.2-1.6c-0.1-1.1,0.2-2.4-0.2-3.4
			c-0.9-2.2-0.7-4.4-0.4-6.5c0.5-3.8,0.2-7.6,0.4-11.4c0.1-2.1,0.3-4.1,0.4-6.2c0.2-2.5,0.6-4.9,1.2-7.3c0.7-3,1.5-5.9,3.1-8.6
			c1.3-2.3,3-4.4,4.5-6.5c0.1-0.1,0.2-0.2,0.2-0.4c0.1-0.2,0.1-0.4,0.1-0.6c-0.2,0.1-0.4,0.1-0.5,0.3c-1.3,1.6-2.5,3.2-3.7,4.9
			c-2,2.8-3,6.1-4.4,9.2c-0.3,0.5-0.7,1.1-1.2,1.4c-0.7,0.4-1.8-0.3-1.9-1.2c-0.1-0.7-0.3-1.2-1-1.5c-0.1,0-0.1-0.2-0.2-0.4
			c0.1,0,0.2,0.1,0.4,0.1c0.8-0.1,0.4-0.5,0.3-0.8c-0.9-2-1.9-4-2.8-6c-0.2-0.5-0.4-0.9-0.7-1.4c0-0.1-0.2-0.1-0.3-0.2
			c0,0.1-0.1,0.2-0.1,0.3c0.3,0.8,0.6,1.7,0.9,2.5c0.8,2.3,1.5,4.7,2.3,7c0.2,0.7,0.5,1.3,0.7,2c0,0.1,0.3,0.6-0.3,0.3
			c0,0-0.3,0.3-0.2,0.4c0.3,2.2,0.5,4.3,0.8,6.5c0,0.2,0.1,0.5,0.1,0.7c0,1.6,0,3.1,0,4.7c0,1.6-0.2,3.1-0.2,4.7
			c0,2.3,0.1,4.6,0.1,6.8c0,2.5-0.2,4.9-0.2,7.4c0,0.6,0.1,1.2,0,1.7c-0.2,1.1-0.4,2.1-0.6,3.2c0,0.2-0.2,0.3-0.3,0.4
			c-0.1-0.2-0.3-0.4-0.3-0.5c0-0.5,0.2-1,0.2-1.5c0-1-0.1-2-0.1-3c0-0.4,0.2-0.8,0.2-1.3c0-2.1-0.1-4.1-0.1-6.2c0-0.2,0-0.3,0-0.5
			c1-2.2,0.5-4.5,0.6-6.8c0.1-1.2,0-2.4,0-3.7c0-1.3,0.2-2.5,0.2-3.7c0-1.3-0.2-2.6-0.4-4c-0.1-0.4-0.5-0.8-0.7-1.2
			c-0.3-0.5-0.4-1,0.2-1.4c0.2-0.2,0.4-0.5,0.3-0.8c-0.7-2.9-1.4-5.8-2-8.7c-0.6-2.8-1.9-5.1-4.3-6.9c-0.1,0-0.1-0.2-0.1-0.2
			c-0.4-1-1-1.6-2.2-1.1c-0.1,0.1-0.5-0.2-0.6-0.3c-0.1-0.2-0.2-0.6-0.1-0.8c0.4-0.5,0.4-0.7-0.3-0.7c-0.5,0-1-0.1-1.4-0.3
			c-0.7-0.4-0.7-1.5,0-2.3c1.5-1.8,3.3-3.3,5.5-4.4c2.5-1.3,5.2-1.9,8-2.2c2.7-0.3,5.3,0.2,7.9,0.7c1.8,0.4,3.3,1.5,4.8,2.6
			c0.7,0.5,1.6,0.9,1.6,2c0,0.5,0.1,1.2-0.2,1.6c-1.1,1.5-2.3,2.9-3.5,4.3c-2.9,3.4-5.6,6.9-6.5,11.3
			C212.9,23.4,212.6,24.1,212.3,25 M217.3,4.1c-0.1,0-0.1,0-0.2,0c-1.8-1.1-3.8-1.3-5.8-1.6c-1-0.2-2.1,0.4-3.2,0.2
			c-0.5-0.1-1.1,0.1-1.6,0.3c-1.9,0.6-3.9,1.2-5.2,2.8c-0.3,0.4-0.8,0.6-1.3,0.9c-0.7,0.4-0.9,1.2-0.3,1.6c0.6,0.4,1.3,0.9,2,1
			c2,0.3,4,0.5,6.1,0.6c2.7,0.1,5.3-0.3,7.9-1.3c1.1-0.5,2.3-0.7,3.1-1.6c0.4-0.5,0.6-1,0.3-1.6c-0.2-0.4-0.2-1.3-1.1-0.8
			c-0.1,0-0.3-0.2-0.4-0.3c0.1-0.1,0.3-0.3,0.4-0.4c-0.6-0.3-1.2-0.6-1.8-0.9c0,0-0.2,0.1-0.2,0.1c0,0.1,0.1,0.2,0.1,0.3
			C216.4,3.5,216.9,3.8,217.3,4.1 M207.9,21.3c0.4,0.9,0.6,2,1.2,2.8c0.7,1,1.1,0.8,1.5-0.4c1.1-2.8,2.1-5.7,3.9-8.2
			c1-1.4,1.9-3,2.9-4.5c0.1-0.1,0.1-0.3,0.2-0.4c-0.2,0-0.4-0.1-0.5,0c-1.9,0.3-3.9,0.7-5.8,0.9c-2.1,0.2-4.3,0.3-6.5,0.3
			c-0.6,0-0.9,0.3-0.7,0.8c0.4,1.2,0.7,2.4,1.2,3.5C206.1,17.9,206.9,19.5,207.9,21.3 M219.3,3.8c0.5,0.2,1.1,0.3,1.6,0.5
			c0.1,0,0.3-0.1,0.5-0.1c-0.1-0.1-0.2-0.2-0.4-0.3c-0.4-0.4-0.8-0.7-1.3-1c-0.5-0.3-0.9-0.8-1.4-0.9c-1.5-0.5-3.1-0.8-4.8-0.6
			c-0.2,0-0.3,0-0.5,0.1c0.1,0.1,0.2,0.3,0.4,0.4c0.2,0.1,0.4,0.1,0.6,0.1c1.2,0.3,2.3,0.6,3.5,1C218.2,3,218.7,3.4,219.3,3.8
			 M204.7,10.7c0.4,0,0.8,0,1.3,0c0.3,0,0.5-0.2,0.8-0.2c-0.3-0.1-0.5-0.3-0.8-0.3c-1.3-0.2-2.6-0.2-3.9-0.4
			c-0.7-0.1-1.3-0.5-1.9-0.7c-0.2-0.1-0.5,0-0.7,0c0.6,0.2,0.2,1.2,1.1,1.2C201.9,10.4,203.2,10.6,204.7,10.7 M201.2,4.1
			c0.4-0.2,0.8-0.4,1.2-0.6c1.2-0.5,2.3-1,3.5-1.3c0.9-0.3,1.9-0.4,2.9-0.6c0.2,0,0.4-0.3,0.6-0.4c-0.2,0-0.4-0.2-0.6-0.1
			c-0.9,0.1-1.8,0.2-2.7,0.4c-2,0.4-3.8,1.1-5.2,2.6C200.9,4,201,4.1,201.2,4.1 M219.3,8.5c0.1-0.5-0.1-0.5-0.6-0.4
			c-2.1,0.7-4.2,1.3-6.3,1.9c-0.2,0.1-0.5,0.1-0.7,0.2c0.3,0.1,0.5,0.2,0.8,0.2C214.9,10.5,217,9.6,219.3,8.5 M196.7,8
			c0.1-0.6,0.3-1.1,0.4-1.7c0,0-0.5-0.2-0.5-0.2c-0.4,0.8-0.8,1.5-1,2.3c0,0.1,0.5,0.4,0.8,0.6c0-0.2,0.1-0.5,0.2-0.7
			C196.6,8.2,196.6,8.2,196.7,8 M201.8,12.6c0.3,0.2,0.6,0.5,0.7-0.2c0-0.1,0.1-0.1,0.1-0.2c0.1,0.1,0.2,0.2,0.2,0.2
			c-0.2,0.5-0.3,0.9,0.4,0.9c0.1,0,0.3-0.7,0.2-1c-0.1-0.3-0.5-0.7-0.8-0.8c-0.4-0.1-0.9,0.1-1.4,0.1c0.2,0.2,0.3,0.4,0.5,0.7
			C201.7,12.3,201.7,12.4,201.8,12.6 M198.5,7.5c0,0.3-0.1,0.6,0,0.9c0,0.1,0.3,0.2,0.4,0.2c-0.1-0.3-0.2-0.5-0.2-0.8
			C198.7,7.8,198.6,7.7,198.5,7.5 M198.2,6.3c0,0.2,0,0.4,0,0.6c0,0.1,0.2,0.1,0.3,0.2c0.1-0.2,0.2-0.5,0.3-0.7
			C198.8,6.4,198.5,6.3,198.2,6.3 M220.4,5.4c-0.1-0.2-0.1-0.5-0.2-0.7c-0.1,0-0.2,0-0.3,0.1C220,5,220.1,5.2,220.4,5.4 M206.9,29.2
			c-0.2,0.1-0.3,0.2-0.5,0.3c0.1,0.1,0.2,0.3,0.4,0.4C206.9,29.8,207,29.5,206.9,29.2 M211.8,27.6c0.1,0.2,0.1,0.4,0.2,0.6
			c0-0.1,0.1-0.1,0.1-0.2c0-0.2-0.1-0.5-0.1-0.7C211.9,27.3,211.8,27.4,211.8,27.6z"/>
		<g>
			<path d="M217,17.7c0.1-0.1,0.2-0.2,0.3-0.3c0,0.1,0.1,0.2,0.1,0.3c0,0.1-0.2,0.2-0.3,0.3c-0.3,0.2-0.5,0.5-0.8,0.7
				C216.5,18.3,216.7,18,217,17.7z"/>
		</g>
		<g>
			<path d="M218.5,16.1c0,0.1,0.1,0.3,0,0.3c-0.1,0.1-0.3,0.1-0.5,0.1C218.2,16.4,218.3,16.3,218.5,16.1z"/>
		</g>
		<path d="M203.8,70.1c-0.2-0.4-0.3-0.9-0.6-1.1c-0.9-0.7-1.2-1.4-0.9-2.4c0.2-0.7,1.3-1.4,2.1-1.4c0.6,0,1.3,0,1.9,0.2
			c1.2,0.5,1.5,2,0.6,2.9c-0.6,0.6-1.2,1-2.1,1c-0.2,0-0.4,0.2-0.6,0.2c0.2,0.1,0.4,0.2,0.5,0.3c0.2,0.3,0.6,0.6,0.6,0.9
			c0,0.2-0.4,0.5-0.7,0.7c-0.1,0-0.5-0.3-0.6-0.5C203.8,70.8,203.8,70.5,203.8,70.1 M205.5,68.1c-0.5-0.2-1-0.4-1.5-0.5
			c-0.1,0-0.4,0.3-0.6,0.4c0.1,0.2,0.3,0.4,0.4,0.5c0.6,0.1,1.2,0.2,1.7,0.2C205.6,68.5,205.6,68.3,205.5,68.1 M206.5,67.4
			c0-0.5,0-0.5-0.7-0.3c-0.2,0.1-0.3,0.2-0.5,0.3c0.3,0.1,0.5,0.2,0.8,0.3C206.3,67.8,206.4,67.7,206.5,67.4 M204.9,66.6
			c0.2-0.1,0.3-0.2,0.5-0.2c-0.1-0.2-0.3-0.4-0.4-0.5c-0.2,0-0.5,0.1-0.7,0.2C204.4,66.2,204.6,66.4,204.9,66.6 M203.4,66.5
			c-0.2-0.7-0.5-0.1-0.6,0c-0.1,0.3-0.1,0.6-0.2,0.9c0.2-0.1,0.3-0.2,0.5-0.3C203.3,67,203.3,66.8,203.4,66.5 M204.4,71
			c0.2-0.1,0.4-0.1,0.6-0.2c-0.2-0.2-0.3-0.3-0.5-0.5C204.4,70.5,204.3,70.7,204.4,71 M203.9,66.6c-0.1,0.2-0.2,0.5-0.3,0.7
			c0.2-0.1,0.5-0.1,0.7-0.2C204.3,66.9,204.1,66.8,203.9,66.6z"/>
		<path d="M214.9,70c0.1,0.5,0.1,1,0.2,1.5c0,0-0.1,0.1-0.2,0.1c-0.9,0-1.8,0.1-2.8,0c-0.3,0-0.7-0.3-0.8-0.5c-0.1-0.3,0-0.7,0.2-1
			c0.1-0.2,0.5-0.2,0.8-0.2c0.1,0,0.3,0.1,0.3,0c0.6-0.8,0.6-0.1,0.7,0.2c0,0,0.3,0,0.5-0.1C214.2,69.8,214.5,69.5,214.9,70
			c-0.3,0.1-0.4,0.3-0.6,0.4c-0.1,0.1-0.3,0.3-0.4,0.4c0.1,0,0.2,0.1,0.2,0.1c0.2-0.1,0.5-0.1,0.6-0.2
			C214.9,70.5,214.9,70.3,214.9,70 M211.9,70.6c0.1,0.2,0.1,0.5,0.2,0.7c0.2-0.1,0.3-0.1,0.5-0.2C212.2,71.1,212.7,70.2,211.9,70.6z
			"/>
		<g>
			<path d="M211.1,73.7c1.4-0.2,2.8-0.3,4.1-0.5c0.1,0,0.3,0.1,0.4,0.2c-0.1,0-0.3,0.1-0.4,0.1c-2.5,0.2-5,0.4-7.5,0.7
				c-0.5,0.1-1,0.3-1.5,0.5c-0.9,0.2-1.8,0.4-2.7,0.6c-0.1,0-0.3-0.1-0.4-0.2c0.1-0.1,0.2-0.2,0.3-0.2c1.9,0.1,3.5-1.2,5.4-1.1
				C209.6,73.9,210.3,73.8,211.1,73.7z"/>
		</g>
		<g>
			<path d="M208.9,71.6c-0.1-0.7-0.2-1.3-0.2-1.9c0,0,0.3-0.1,0.5-0.1c0.1,0,0.2,0.1,0.3,0.1c0.3,0.1,0.8,0,0.9,0.2
				c0.3,0.5,0.4,1.1,0.6,1.6c0,0.1-0.2,0.3-0.3,0.4c-0.1-0.1-0.2-0.2-0.3-0.3c-0.2-0.2-0.3-0.4-0.5-0.6c-0.2-0.2-0.4-0.5-0.6-0.7
				c-0.1,0.4-0.2,0.7-0.3,1.1C209,71.6,209,71.6,208.9,71.6z"/>
		</g>
		<g>
			<path d="M210,73.1c-1.3-0.5-2.5,0-3.7,0.1c-0.6,0-1.2,0-1.8-0.1c0,0-0.1-0.1-0.1-0.1c0.1-0.1,0.2-0.2,0.3-0.2
				c0.3,0,0.6,0.2,0.9,0.2c0.8,0,1.6-0.1,2.4-0.2c0.7-0.1,1.4-0.1,2.1-0.1c0.8-0.1,1.5-0.2,2.3-0.3c0.2,0,0.4,0.1,0.5,0.1
				c-0.2,0.1-0.3,0.2-0.5,0.3C211.7,72.8,210.9,73,210,73.1z"/>
		</g>
		<g>
			<path d="M201.6,69.7c0.2,0.2,0.3,0.3,0.4,0.4c0.4,0.4,0.7,0.8,0.9-0.1c0-0.1,0.1-0.2,0.1-0.3c0,0.1,0.1,0.2,0.1,0.3
				c0.1,0.5,0.1,1,0.2,1.5c0,0.1-0.2,0.2-0.3,0.2c-0.2-0.1-0.4-0.2-0.5-0.3c-0.4-0.4-0.6-0.4-0.7,0.2c0,0.1-0.2,0.2-0.3,0.3
				c-0.1-0.1-0.2-0.3-0.2-0.4C201.4,71,201.5,70.3,201.6,69.7z"/>
		</g>
		<g>
			<path d="M208,71.4c-0.2,0.4-0.3,0.6-0.7,0.2c-0.1-0.1-0.1-0.1-0.2-0.1c0.1,0,0.3-0.1,0.3-0.1c0-0.3-0.1-0.5-0.2-0.8
				c0-0.3,0-0.6,0-0.9c0-0.1,0.3-0.1,0.5-0.2c-0.1,0.1-0.2,0.3-0.2,0.4c0,0.3,0,0.5,0.1,0.8C207.8,70.9,208,71.1,208,71.4z"/>
		</g>
		<g>
			<path d="M216.6,74.5c-0.1,0-0.1,0-0.1,0c0.1-0.2,0.1-0.5,0.2-0.7c0,0,0.2,0,0.3,0C216.8,74,216.7,74.2,216.6,74.5z"/>
		</g>
	</g>
	<g>
		<path d="M49.7,93.4c-0.3-0.2-0.5-0.3-0.8-0.5c-0.4-0.2-0.7-0.4-1.2-0.4c-1.1-0.1-2.2,0.1-3.3,0c-0.2,0-0.4,0-0.5,0.1
			c-0.7,0.4-1.5,0.7-2.3,0.6c-0.1,0-0.2,0-0.2,0c-0.5,0.5-1,1-1.3,1.6c-0.1,0.2,0,0.3,0.3,0.4c0.8,0,0.9,0.1,0.9,0.9
			c0,0.7,0,1.4-0.2,2.1c-0.2,0.9,0,1.8,0,2.7c0,2.6,0,5.2,0,7.7c0,0.5,0,1,0.1,1.5c0.1,0.3-0.2,0.7,0,1c0.1,0.3,0.1,0.7,0,1
			c-0.1,0.4-0.1,0.7,0.4,0.9c0.1,0,0.3,0.3,0.3,0.4c0,0.5,0.2,0.8,0.4,1.2c0.3,0.6,0.2,0.8-0.4,1c-0.3,0.1-0.6,0.2-0.9,0.3
			c0,0-0.1,0.1-0.1,0.1c0,0,0.1,0.1,0.1,0.1c0.2,0,0.5,0.1,0.7,0c0.2,0,0.4,0.1,0.5,0.3c0.1,0.1,0.1,0.3,0,0.4
			c-0.3,0.4-0.7,0.7-1.3,0.8c-0.1,0-0.5,0.1-0.2,0.4c0.2,0.2,0.2,0.5-0.1,0.7c-0.3,0.2,0,0.5,0.1,0.6c0.2,0.2,0.5,0.4,0.8,0.5
			c0.1,0.1,0.2,0.2,0.3,0.3c0.1,0.3,0.1,0.6,0.1,0.9c0,0.3-0.3,0.4-0.6,0.5c-0.1,0-0.2,0.2-0.4,0.2c-0.2,0-0.2,0.1-0.2,0.3
			c0,0.4-0.1,0.7-0.1,1.1c0,0.4-0.2,0.6-0.5,0.7c-0.2,0.1-0.4,0.4-0.7,0c-0.9,0-1-0.7-1.1-1.3c-0.1-0.6-0.2-1.1-0.4-1.7
			c-0.2-0.4-0.5-0.6-0.8-0.9c-0.3-0.4-0.5-0.8-0.8-1.2c-0.2-0.2-0.1-0.4,0.1-0.6c0.3-0.4,0.8-0.4,1.3-0.5c0.1,0,0.2,0,0.2,0.1
			c0-0.1-0.1-0.1-0.1-0.2c0-0.2-0.3-0.3-0.1-0.5c-0.1-0.1-0.1-0.2-0.2-0.2c-0.6-0.4-1.3-0.8-1.8-1.3c-0.1-0.1-0.3-0.4-0.2-0.6
			c0-0.3,0.3-0.5,0.6-0.5c0.4,0,0.7,0.1,1.1,0.1c0.3,0,0.7,0.1,1,0c0.2,0,0.3-0.2,0.3-0.4c-0.2-0.5,0-1.1-0.4-1.6
			c-0.4-0.5-0.4-1.1-0.5-1.6c-0.2-0.9-0.3-1.8-0.4-2.7c0-0.1,0-0.3,0-0.4c0-1.3,0-2.6,0-3.9c0-1.2,0.2-2.4,0.7-3.5
			c0.2-0.5,0.4-0.9,0.5-1.4c0.1-0.5,0.2-0.9,0.3-1.4c0-0.1,0.1-0.3,0.1-0.4c-0.1,0.1-0.2,0.2-0.3,0.3c-0.2,0.3-0.3,0.6-0.4,1
			c0,0.3-0.3,0.7-0.4,1c-0.1,0.3-0.3,0.6-0.3,1c0,0.7-0.3,1.3-0.5,2c-0.2,0.8-0.6,1.5-0.8,2.3c-0.2,0.6-0.3,1.2-0.4,1.8
			c-0.1,0.5-0.1,1.1-0.3,1.6c-0.3,0.6-0.3,1.3-0.4,1.9c-0.1,0.6-0.3,1.3-0.4,1.9c-0.1,0.4-0.2,0.9-0.3,1.3c-0.1,0.8-0.1,1.5-0.3,2.3
			c-0.1,0.5-0.1,1-0.2,1.5c-0.1,0.5-0.2,1-0.3,1.5c0,0.1,0,0.2,0,0.3c-0.1,0.8-0.1,1.6-0.2,2.4c-0.1,0.7-0.3,1.4-0.5,2.1
			c-0.1,0.6-0.2,1.2-0.4,1.8c-0.2,0.5,0,1.1-0.2,1.6c0,0.1,0.1,0.2,0.1,0.3c0.1,1.1,0.3,2.2,0.5,3.3c0.1,0.6,0.3,1.2,0.3,1.9
			c0,0.3,0.2,0.6,0.4,0.7c0.4,0.1,0.4,0.4,0.3,0.6c-0.1,0.2-0.2,0.5-0.6,0.5c-0.4-0.1-0.4,0.1-0.3,0.5c0.1,1.1,0.2,2.1,0.3,3.2
			c0,0.1,0,0.2,0,0.3c0.2,0.7,0.2,0.7-0.4,1c-0.3,0.2-0.3,0.3-0.1,0.5c0.5,0.5,0.9,1.1,1.4,1.6c0.1,0.1,0.3,0.2,0.5,0.3
			c0.3,0.1,0.3,0.2,0.3,0.5c0,0.2-0.2,0.3-0.4,0.4c-0.6,0.3-1.2,0.1-1.7-0.1c-0.9-0.2-1.8-0.5-2.6-1c-1-0.6-1.8-1.3-2.6-2.1
			c-0.3-0.3-0.1-0.8,0.3-1c0.4-0.1,0.2-0.4,0.2-0.5c-0.2-0.5-0.4-1-0.6-1.5c-0.3-0.6-0.1-1,0.6-1.1c0.2,0,0.5-0.1,0.7-0.1
			c0.4,0,0.5-0.2,0.5-0.5c0.1-0.7,0.1-1.3,0.2-2c0.1-0.6,0-1.3,0.3-1.9c0.1-0.1,0-0.3,0-0.5c0-0.4,0-0.7,0-1.1c0-0.4,0-0.7,0-1.1
			c0-0.3,0-0.7,0-1c0.2-1.1,0.1-2.1,0.1-3.2c0-0.6,0-1.1,0.1-1.7c0.1-0.4,0.1-0.8,0-1.3c0-0.6,0-1.1,0-1.7c0-0.3,0-0.6,0-0.9
			c0-0.2,0.2-0.5,0.1-0.7c-0.1-0.4,0.2-0.8-0.1-1.1c-0.2-0.2,0.3-0.4,0-0.5c0.1-0.5,0.1-1.1,0.2-1.6c0-0.1,0.1-0.2,0.1-0.4
			c0-1,0.2-2.1,0.4-3.1c0-0.2,0-0.4,0-0.5c0-0.7,0.2-1.4,0.3-2.1c0-0.1,0-0.2,0.1-0.4c0.1-0.3,0.1-0.5,0.2-0.8
			c0-0.1,0.1-0.1,0.1-0.2c0-1,0.3-1.9,0.6-2.9c0.3-1.4,0.8-2.8,1.2-4.1c0.6-1.8,1.2-3.6,2-5.3c0.1-0.3,0.2-0.5,0.4-0.7
			c0.5-0.5,0.5-1.1,0.3-1.7c-0.1-0.4-0.1-0.8-0.1-1.1c0-0.3-0.2-0.5-0.4-0.5c-0.8-0.2-1.2-0.8-1.4-1.4c-0.3-0.8-0.6-1.7-0.8-2.6
			c-0.1-0.7-0.5-1.1-1-1.5c-0.5-0.5-1.1-0.9-1.6-1.3c-0.6-0.5-1.3-0.8-2.2-0.8c-1,0-1.9,0.1-2.8,0.4c-0.4,0.1-0.2,0.2-0.2,0.5
			c0.1,0.8,0.4,1.6,0.4,2.5c0,0.7,0.1,1.4,0.1,2.1c0,0.4,0.2,0.9,0.2,1.3c0,0.3,0,0.6,0,0.9c0.1,1.2,0.1,2.5,0.1,3.7
			c0,0.1,0,0.2,0.1,0.2c0.1-0.1,0.1-0.2,0.2-0.2c0,0,0-0.1,0-0.1c0-0.8,0.1-1.5,0.1-2.3c0-0.4,0-0.7-0.1-1.1c-0.1-0.3-0.1-0.7,0.1-1
			c0.1-0.2,0-0.5,0-0.8c0.1-0.2-0.2-0.5,0-0.7c-0.3-0.9-0.1-1.9-0.1-2.9c0-0.5,0.2-1,0.3-1.5c0.1-0.4,0.3-0.5,0.7-0.5
			c0.5,0,0.7,0.1,0.8,0.5c0.2,0.7,0.4,1.3,0.5,2c0,0.1,0,0.3,0,0.4c-0.3,1.2-0.1,2.5-0.2,3.7c0,0.2,0,0.4,0.1,0.5
			c0.4,0.6,0.3,1.2,0.1,1.8c-0.1,0.7-0.1,1.4,0.1,2c0.1,0.5,0.2,0.9,0.3,1.4c0,0.1-0.1,0.2-0.1,0.3c-0.4,0.4-0.5,0.9-0.5,1.4
			c0,0.6-0.1,1.1-0.1,1.7c0,0.4,0.1,0.7,0.4,1c0.4,0.3,0.7,0.7,1.1,1.1c0.5,0.5,0.4,0.7-0.2,1c-0.2,0.1-0.5,0.2-0.8,0.2
			c-0.5,0-0.9,0.1-1.4,0.2c-0.3,0.1-0.6,0-0.9-0.1c-0.8-0.3-1.6-0.4-2.4-0.7c-0.4-0.2-0.8-0.3-1.1-0.5c-0.3-0.1-0.5-0.3-0.7-0.5
			c-0.2-0.1-0.3-0.3-0.2-0.6c0.1-0.4,0.4-0.5,0.7-0.5c0.3,0,0.7-0.1,1,0.1c0.1,0,0.2,0,0.3,0c0.2,0,0.2,0,0.2-0.3
			C24,98.9,23.9,98,24,97c0-0.6,0.3-1.2,0.2-1.8c0-0.8,0-1.7-0.2-2.5c0-0.1,0-0.1,0-0.2c0-0.9-0.1-1.8-0.2-2.7c0-0.3,0-0.6,0-0.9
			c0-0.6-0.1-1.2-0.2-1.7c0-0.1,0-0.2,0-0.3c0.1-0.8-0.3-1.4-0.4-2.2c0-0.3-0.2-0.3-0.3-0.2c-0.5,0.4-1.2,0.6-1.3,1.4
			c-0.1,0.6-0.4,1.1-0.6,1.6c-0.2,0.7-0.4,1.4-0.7,2c-0.1,0.3-0.3,0.6-0.4,0.8c-0.3,0.6-0.5,1.2-0.8,1.8c-0.1,0.4-0.1,0.8-0.5,1.2
			c-0.3,0.3-0.3,0.8-0.4,1.2c-0.1,0.5-0.3,1-0.4,1.6c-0.3,1.2-0.5,2.5-0.6,3.7c-0.1,0.9-0.2,1.9-0.4,2.8c-0.1,0.5-0.1,1-0.2,1.5
			c-0.1,0.9-0.2,1.8-0.4,2.7c-0.1,0.4-0.3,0.9-0.4,1.3c0,0.1,0,0.2,0,0.3c0,0.1,0,0.1,0.1,0.2c0,0,0-0.1,0.1-0.1
			c0.4-0.9,0.9-1.8,1.4-2.7c0.1-0.3,0.4-0.5,0.7-0.6c0.2-0.1,0.3,0,0.4,0.1c0.1,0.2,0,0.4-0.2,0.5c0,0-0.2,0-0.2,0
			c-0.1,0.1-0.4,0.3-0.4,0.5c0,0.8-0.3,1.5-0.6,2.1c-0.2,0.4-0.3,0.9-0.4,1.4c-0.2,0.7-0.4,1.3-0.6,1.9c-0.2,0.7-0.5,1.5-0.8,2.2
			c-0.1,0.5-0.2,1-0.2,1.4c0,0.7-0.2,1.4-0.4,2.1c-0.1,0.2-0.1,0.3,0.2,0.4c0.1,0.1,0.3,0.3,0.3,0.5c0.2,0.7,0.6,1.2,1,1.7
			c0.1,0.1,0.2,0.1,0.4,0.2c0-0.1-0.1-0.2-0.1-0.3c0-0.1,0-0.3,0-0.4c0-0.5,0-1,0-1.5c0-0.6,0.1-1.2,0.1-1.7c0-0.1,0.1-0.2,0.1-0.2
			c0.1,0,0.4,0,0.4,0.1c0.2,0.5,0.5,0.9,0.6,1.5c0,0.7,0.1,1.4,0.2,2.1c0,0.2,0.1,0.3,0.2,0.5c0,0.2,0.1,0.4,0,0.5
			c-0.2,0.3-0.2,0.4,0.1,0.4c0.2,0,0.3,0.2,0.5,0.3c0.4,0.2,0.5,0.6,0.4,0.9c-0.1,0.3-0.7,0.7-1,0.5c-0.3-0.1-0.5-0.1-0.8,0
			c-0.6,0.2-1.2-0.1-1.7-0.4c-0.2-0.1-0.3-0.2-0.5-0.3c-0.4-0.2-0.7-0.1-0.8,0.4c0,0.2,0,0.4,0,0.6c0,0.1,0,0.4-0.1,0.4
			c-0.3,0-0.4,0.3-0.7,0.3c-0.9,0-1.3-0.4-1.5-1.3c0-0.1-0.1-0.2-0.1-0.3c-0.1-0.2,0.1-0.6-0.2-0.7c-0.2-0.1-0.5,0.1-0.7,0.1
			c-0.8,0.1-1.6,0-2.2-0.8c-0.2-0.2-0.3-0.5-0.1-0.6c0.2-0.2,0.2-0.6,0.7-0.3c0.3,0.2,0.5-0.2,0.8-0.5c0.2-0.3-0.1-0.4-0.1-0.5
			c-0.1-0.3-0.4-0.5-0.6-0.7c-0.3-0.2-0.3-0.5-0.2-0.8c0.3-0.8,0.7-1.5,1.5-1.9c0.4-0.2,0.9-0.4,1.3-0.6c0.1-0.1,0.3-0.1,0.3-0.2
			c0.1-0.2,0.1-0.5,0.1-0.7c0-0.2-0.1-0.4-0.2-0.4c-0.7-0.4-0.8-1.2-1-1.8c-0.3-0.8-0.5-1.7-0.4-2.5c0-0.3-0.1-0.5,0-0.8
			c0.1-0.3,0-0.6,0-0.9c0.2-0.6,0.1-1.2,0.3-1.7c0.1-0.4,0.1-0.8,0.2-1.2c0.1-0.7,0-1.4,0.2-2.1c0.1-0.4,0.1-0.9,0-1.3
			c0.3-0.9,0-1.9,0.3-2.9c0.1-0.4,0.1-0.8,0.2-1.3c0.1-1,0.4-1.9,0.6-2.8c0.2-0.7,0.4-1.4,0.1-2.2c0,0,0-0.1,0-0.1
			c0.2-0.6-0.2-1.2,0.1-1.8c0-0.1-0.1-0.3-0.1-0.4c0-0.6,0-1.2,0.3-1.7c0.1-0.2,0-0.4,0-0.7c0.2-1.2,0.4-2.5,0.3-3.7
			c0-0.1,0-0.2,0-0.3c0.1-0.2,0.2-0.4,0.4-0.4c0.3-0.1,0.4,0.2,0.5,0.3c0.2,0.4,0.5,0.8,0.3,1.4c0.3,0.7,0.1,1.5,0,2.2
			c0,0.1,0.1,0.2,0.2,0.3c0.1-0.1,0.2-0.1,0.2-0.2c0.2-0.8,0.7-1.4,1.1-2.1c0.4-0.7,0.9-1.4,1.3-2.1c0.6-1,1.4-1.9,2.1-2.8
			c0.6-0.7,1.2-1.3,2.1-1.5c0.2-0.1,0.4-0.2,0.6-0.3c0.4-0.2,0.8-0.5,1.3-0.6c0.2,0,0.3-0.1,0.2-0.3c-0.2-0.4-0.3-0.8-0.4-1.2
			c0,0-0.1-0.1-0.1-0.1c0,0-0.1,0.1-0.1,0.1c0,0.1,0,0.2,0,0.3c0,0.3-0.2,0.5-0.4,0.5c-0.4,0.1-0.6,0-0.8-0.4
			c-0.2-0.4-0.2-0.9-0.4-1.4c0-0.1-0.1-0.3-0.1-0.4c0,0-0.1-0.1-0.1,0c-0.3,0.2-0.5,0.2-1,0.1c-0.2-0.1-0.3-0.1-0.4,0.2
			c-0.1,0.4-0.3,0.7-0.3,1.2c0,0.1-0.2,0.3-0.3,0.3c-0.3,0.1-0.8-0.4-0.9-0.7c0-0.4-0.1-0.7,0-1c0.1-0.3,0-0.3-0.2-0.3
			c-0.5,0.1-0.9,0.2-1.3,0.2c-0.2,0-0.3,0.2-0.3,0.4c0,0.2-0.1,0.4-0.2,0.6c-0.1,0.1-0.1,0.3-0.2,0.5c-0.1,0.3-0.3,0.4-0.6,0.2
			c-0.2-0.2-0.5-0.4-0.3-0.8c0-0.1,0.1-0.3,0-0.3c-0.1-0.1-0.3-0.1-0.4-0.1c-0.7,0.2-1.2,0.7-1.6,1.3c-0.8,1.4-1.5,2.9-2.2,4.4
			c-0.2,0.5-0.4,1-0.4,1.6c0,0.8,0,1.6-0.3,2.4c0,0,0,0.1,0,0.1c-0.1,2.3-0.2,4.6-0.2,6.9c0,0.5,0,0.9,0,1.4c0.1,1.5,0,3.1,0.1,4.6
			c0,0.3,0,0.6,0,0.9c0,0.5,0.1,1,0,1.5c0,0.1,0.1,0.3,0.1,0.5c0,0.4,0,0.8-0.1,1.1c0,0.3-0.1,0.6,0.1,0.9c0.1,0.2,0.2,0.3,0.1,0.6
			c-0.1,0.2,0,0.6,0.1,0.9c0.1,0.2,0.1,0.5,0.1,0.7c0,0.5,0.1,1,0.1,1.5c0,0.2-0.1,0.3-0.3,0.5c-0.3,0.2-0.4,0-0.6-0.1
			c-0.5-0.3-0.6-0.9-0.7-1.4C9,105.3,9,104.8,9,104.4c0-0.1-0.1-0.3-0.1-0.4c0,0,0-0.1,0-0.1c0,0-0.1,0.1-0.1,0.1
			c-0.2,0.8-0.5,1.5-0.4,2.3c0,0.5-0.1,1-0.3,1.5c-0.1,0.1,0,0.3,0,0.4c0.2,0.5,0.4,0.8,0.8,1.2c0.1,0.2,0.3,0.5,0.2,0.6
			c-0.1,0.2-0.4,0.5-0.7,0.3c-0.2-0.1-0.4-0.1-0.6-0.1c-0.2-0.1-0.3,0.1-0.5,0.2c-0.2,0.2,0,0.3,0,0.4c0.1,0.3,0.3,0.5,0.4,0.8
			c0.1,0.1,0.1,0.3,0.1,0.4c0,0.1-0.2,0.1-0.3,0.2c-0.6,0.3-1.2,0.1-1.7-0.3c-0.4-0.4-0.8-0.7-1.4-0.4c-0.1,0-0.3,0-0.4-0.1
			c-0.4-0.3-0.9-0.6-1.3-0.9c-0.4-0.4-0.8-0.8-1.1-1.3c-0.4-0.4-0.7-0.9-1.1-1.3c-0.1-0.1-0.1-0.2-0.2-0.3c-0.4-0.8-0.3-1.2,0.6-1.5
			c0.1,0,0.2,0,0.4,0.1c0.1,0,0.2,0,0.4,0c0-0.1-0.1-0.2-0.1-0.3c-0.1-0.1-0.2-0.2-0.2-0.3c-0.1-0.4,0-0.7,0.4-0.7
			c0.4,0,0.8-0.4,1.3-0.1c0.1,0.1,0.3,0,0.4,0c0.4,0,0.7,0.1,1.1,0.3c0.6,0.4,1.2,0,1.2-0.7c0.1-1.5,0.1-3,0.2-4.5
			c0-0.5-0.1-1-0.1-1.6c0-0.5,0.2-1.1,0.1-1.6c-0.2-1.9,0-3.8-0.1-5.8c0-0.3,0.1-0.6,0.1-0.9c0-0.3-0.1-0.5-0.1-0.8
			c0-0.3,0.1-0.5,0.1-0.8c0-0.2-0.2-0.5,0-0.8c0.1-0.1,0-0.3,0-0.5c0-0.5,0-1,0.1-1.5c0-0.6,0-1.1,0-1.7c0.1-0.8,0.2-1.6,0.3-2.4
			c0.1-1,0.2-2,0.4-2.9c0.1-0.5,0-1.1,0.3-1.6c0.2-0.3,0.2-0.7,0.6-0.9c0.2-0.1,0.2-0.4,0.3-0.6c0.3-0.6,0.5-1.4,0.9-1.9
			c0.7-0.9,1.5-1.7,2.8-1.9c0.7-0.1,1.4-0.4,2-0.7c1.6-0.6,3.2-0.7,4.8-0.6c0.6,0,1.2,0.1,1.8,0.3c0.6,0.2,1.2,0.5,1.7,0.8
			c0.7,0.4,1.3,0.8,1.9,1.3c0.6,0.5,1.3,1.1,1.5,1.9c0,0.1,0.1,0.3,0.1,0.4c0.1,0.6,0.2,1.2,0.3,1.8c0.1,0.4,0.1,0.4,0.5,0.3
			c0.7-0.1,1.5-0.3,2.2-0.3c0.6,0,1.2,0,1.8,0.3c0.3,0.2,0.7,0.1,1.1,0.4c0.6,0.5,1.3,0.9,1.8,1.5c0.7,0.8,1.4,1.7,2,2.6
			c0.7,1.2,1.4,2.4,2.1,3.6c0.4,0.8,0.6,1.6,0.9,2.5c0.1,0.5,0.2,1,0.4,1.6c0,0.1,0.1,0.3,0.4,0.1c0.5-0.3,1.1-0.5,1.7-0.7
			c0.8-0.3,1.6-0.7,2.6-0.6c0.2,0,0.5,0,0.7,0c0.5,0,1.1-0.1,1.6-0.1c1,0,2.1,0.1,3.1,0.2c0.8,0.1,1.6,0.2,2.3,0.3
			c0.9,0.1,1.7,0.4,2.6,0.7c0.8,0.3,1.6,0.6,2.4,1.2c0,0,0.1,0,0.2,0.1c0.7,0.8,1.4,1.5,1.9,2.3c0.7,1,0.8,2.2,1.2,3.3
			c0.1,0.3,0.2,0.7,0.1,1.1c-0.1,0.6,0.2,1.2,0.3,1.8c0,0.2,0.1,0.4,0,0.6c0,0.3-0.2,0.3-0.5,0.3c-0.5,0-0.7-0.3-0.9-0.7
			c-0.2-0.5-0.5-1-0.8-1.5c0-0.1-0.1-0.1-0.2-0.2c0,0.1-0.1,0.2-0.1,0.3c0.1,0.3,0.2,0.7,0.4,1c0.4,0.5,0.6,1.1,0.6,1.7
			c0,0.4,0.1,0.4,0.4,0.2c0.4-0.2,0.8-0.5,1.3-0.6c0.5-0.1,0.9-0.4,1.3-0.6c0.6-0.4,1.3-0.8,2-1.2c0.6-0.3,1.3-0.5,2-0.7
			c0.7-0.1,1.4-0.1,2-0.4c0.3-0.2,0.7-0.2,1.1-0.1c0.8,0.1,1.5-0.2,2.2-0.3c0.1,0,0.2-0.1,0.3-0.1c0.4,0.3,0.8,0.1,1.3,0.2
			c0.4,0.1,0.9,0.2,1.3,0.3c0.4,0.1,0.7,0.1,1.1,0.3c0.6,0.3,1.1,0.6,1.7,0.9c0.9,0.4,1.7,0.9,2.6,1.2c0.3,0.1,0.5,0.3,0.8,0.5
			c1,0.7,2.1,1.5,3,2.3c0.7,0.6,1.3,1.3,1.9,2.1c0.7,1,1.1,2.2,1.4,3.4c0.3,1,0.5,2.1,0.8,3.1c0,0,0,0.1,0,0.1c0,1,0.1,2,0.1,3.1
			c0,1,0.1,2,0.2,3.1c0.1,0.6,0,1.2,0.1,1.8c0.1,0.8,0,1.5,0.2,2.3c0,0.1,0,0.3,0,0.5c0,1,0,2.1,0,3.1c0,1,0,1.9,0.1,2.9
			c0.1,0.8,0.1,1.5,0.1,2.3c0,0.1,0.1,0.2,0.1,0.3c0.1-0.1,0.1-0.1,0.2-0.2c0.3-0.7,0.5-1.3,0.8-2c0.3-0.6,0.6-1.1,1.2-1.4
			c0.6-0.3,0.8-0.9,1.2-1.3c0,0,0-0.1,0-0.1c0.9-0.7,1.2-1.8,2.2-2.4c1.1-1.2,2.5-1.9,4-2.6c1.1-0.5,2.3-0.8,3.4-1.2
			c0.9-0.3,1.9-0.4,2.8-0.6c0.7-0.1,1.4-0.4,2.1-0.5c1-0.2,2-0.5,3-0.5c0.4,0,0.8-0.1,1.1-0.1c1.3-0.1,2.6,0.3,3.8,0.7
			c0.8,0.3,1.6,0.5,2.3,1c0.6,0.4,1.2,0.8,1.9,1.2c0.7,0.5,1.5,0.9,2.1,1.3c1.2,0.9,2.3,1.8,3.2,3c0.2,0.2,0.4,0.4,0.6,0.6
			c0.9,1.1,1.7,2.3,2.2,3.6c0.4,0.8,0.8,1.7,1,2.6c0.2,0.9,0.6,1.7,0.7,2.6c0.2,1,0.6,2,0.7,3.1c0.1,1.1,0.1,2.3,0.2,3.4
			c0.1,1.3,0.2,2.6,0.2,3.9c0,0.3,0,0.6,0.1,0.8c0.2,0.5-0.1,0.9,0.1,1.4c0.2,0.5,0,1,0,1.5c0,0.3-0.1,0.5-0.1,0.8
			c0,0.1,0,0.2,0,0.3c0.2,0.7,0.1,1.4,0.1,2.1c0,0.4,0,0.9,0,1.3c0,0.6-0.1,1.2,0.2,1.8c0.1,0.2,0,0.5,0,0.7c0,0.3,0,0.5,0,0.8
			c0.1,0.9,0.1,1.9,0.1,2.9c0,1.4,0,2.8,0.1,4.2c0.1,0.6,0,1.2,0.1,1.8c0.1,0.6-0.1,1.2,0.2,1.7c-0.3,0.4,0.1,0.9,0,1.3
			c-0.1,0.4,0,0.8,0.1,1.1c0.1,0.3,0.1,0.6,0.1,0.9c0,0.3,0,0.6,0.1,0.8c0.1,0.3,0,0.5,0,0.8c0,0.5,0.1,1,0.2,1.4
			c0,0.4,0,0.7,0.2,1.1c0,0,0.1,0.1,0.1,0.1c0,0,0-0.1,0-0.1c0.1-0.2,0.3-0.1,0.4,0c0.2,0.1,0.2,0.2,0,0.4c-0.1,0.1-0.1,0.2-0.2,0.3
			c-0.3,0.3-0.4,0.6-0.4,1c0,0.3-0.1,0.7,0.1,1c-0.2,0.3,0,0.6,0,0.9c0,0.5,0,0.9,0,1.4c0,0.4,0.1,0.8-0.1,1.2
			c-0.1,0.2,0,0.6,0.2,0.8c0.6,0.7,1.2,1.4,1.8,2.1c0.2,0.2,0.5,0.3,0.7,0.5c0.4,0.3,0.5,0.7,0.2,1.1c-0.2,0.3-0.4,0.5-0.6,0.7
			c-0.1,0.2-0.4,0.3-0.4,0.6c0,0.1-0.1,0.3-0.4,0.4c-0.6,0.1-1,0.6-1.3,1.1c-0.2,0.3-0.4,0.6-0.8,0.7c-0.1,0-0.2,0.1-0.3,0.1
			c-0.2,0.1-0.5,0.2-0.6,0.4c-0.1,0.2,0.1,0.4,0.2,0.7c0.2,0.8-0.2,1.2-0.9,1.3c-0.9,0.1-1.5-0.4-2.2-0.9c-0.8-0.6-1.5-1.2-2.2-1.9
			c-0.4-0.4-0.7-0.8-0.6-1.4c0-0.2-0.1-0.3-0.3-0.4c-0.5-0.3-1-0.6-1.5-0.9c-0.2-0.1-0.3-0.2-0.5-0.3c-0.4-0.4-0.2-0.9,0.3-1
			c0.4-0.1,0.9-0.2,1.3,0.2c0,0,0.1,0,0.2,0c0-0.1,0-0.1,0-0.2c-0.5-0.8-0.9-1.6-1.4-2.5c-0.1-0.2-0.1-0.5-0.2-0.8
			c-0.1-0.3,0.2-0.5,0.4-0.6c0.1-0.1,0.1-0.2,0.2-0.3c0.2-0.2,0.1-0.3-0.1-0.4c-0.1-0.1-0.2-0.2-0.4-0.2c-0.5-0.1-0.5-0.6-0.5-1
			c-0.1-0.4,0.2-0.6,0.5-0.8c0.1-0.1,0.2-0.2,0.4-0.3c0.1-0.1,0.3-0.2,0.4-0.1c0.6,0.2,1.2,0.2,1.7,0c0.6-0.2,0.6-0.3,0.6-0.9
			c0-0.1,0.1-0.3,0.1-0.4c0-0.1,0.1-0.1,0-0.2c-0.1-0.6-0.2-1.1-0.2-1.7c0-0.4-0.1-0.7-0.1-1.1c0-0.7,0.2-1.4-0.1-2.1
			c0,0,0-0.1,0-0.1c0.3-0.4,0-0.7,0-1.1c0-0.4,0-0.8,0-1.2c0-0.5,0.1-0.9-0.1-1.4c-0.1-0.3,0.1-0.6,0-0.9c-0.1-0.8-0.1-1.7-0.1-2.5
			c0-0.3-0.1-0.7-0.1-1c0-0.3,0.1-0.6-0.1-0.9c-0.1-0.1,0.1-0.2,0-0.4c-0.1-0.7-0.1-1.3-0.1-2c0-0.6-0.2-1.1-0.2-1.7
			c0-0.5-0.2-1-0.1-1.6c0.1-0.7-0.1-1.4-0.2-2c-0.1-0.4-0.1-0.8-0.2-1.2c-0.2-0.8-0.3-1.6-0.5-2.4c-0.1-0.5-0.3-1-0.4-1.5
			c-0.1-0.5-0.2-1.1-0.3-1.6c-0.3-1.1-0.7-2.2-0.8-3.3c-0.1-0.9-0.3-1.8-0.4-2.7c-0.2-0.9-0.1-1.9-0.5-2.8c0.1-0.7-0.3-1.2-0.4-1.8
			c-0.1-0.6-0.1-1.3-0.4-1.9c-0.4-0.8-0.5-1.7-1-2.4c-0.4-0.6-0.4-1.3-0.7-2c-0.4-1.1-0.8-2.3-1.7-3.1c-0.2-0.2-0.5-0.4-0.8-0.6
			c-1.1-0.6-2.3-1.2-3.6-1.6c-0.8-0.2-1.7-0.2-2.6-0.1c-0.8,0.1-1.7,0.2-2.5-0.1c0,0-0.1,0-0.1,0c-0.6,0-1.2,0.1-1.9,0.1
			c-0.2,0-0.5,0.1-0.7,0.1c-0.6,0-1.2,0.2-1.8,0.4c-0.3,0.1-0.6,0.2-0.9,0.3c-0.4,0.1-0.8,0.3-1.1,0.6c-0.3,0.3-0.8,0.5-1.1,0.9
			c-0.6,0.6-1.5,0.9-1.8,1.8c-0.1,0.3-0.3,0.5-0.4,0.8c-0.3,0.6-0.6,1.2-0.9,1.8c-0.3,0.6-0.5,1.3-0.9,2c-0.4,0.8-0.8,1.7-1.1,2.6
			c-0.2,0.5-0.3,1.1-0.4,1.7c-0.1,0.4,0,0.8,0,1.3c-0.1,0.7,0,1.4-0.3,2.1c0,0.1,0,0.2,0,0.3c0.2,0.7,0.2,1.4,0,2.1
			c0,0.2,0,0.4,0,0.5c0,0.1,0.3,0.2,0,0.4c0.3,0.4-0.2,0.9,0.1,1.3c0.1,0.1,0,0.2-0.1,0.4c0,0.1,0,0.3,0,0.4c0,0.1,0.1,0.3,0,0.4
			c-0.2,0.7-0.1,1.4-0.1,2.1c-0.1,0.7-0.1,1.5-0.2,2.2c0,0.3,0.1,0.5,0.3,0.7c0.6,0.5,0.5,1.2,0.5,1.9c0,0.2-0.2,0.4-0.5,0.4
			c-0.2,0-0.4,0-0.5,0c0,0,0,0.1,0,0.1c0.3,0,0.2,0.3,0.2,0.4c0,0.8-0.1,1.5-0.1,2.3c0,0.8,0,1.7,0.1,2.5c0,0.3,0.2,0.6,0,0.9
			c0.3,0.3,0,0.5,0,0.8c0,0.5,0,1,0,1.5c0,0.7,0,1.5,0,2.2c0,0.5,0.1,0.9,0.1,1.4c0,0.4,0,0.8,0,1.2c0,0.2,0,0.4-0.1,0.6
			c0,0.1-0.1,0.2,0,0.3c0.2,0.5-0.1,0.9,0,1.4c0,0.4,0.1,0.7,0,1c-0.1,0.3-0.1,0.6-0.1,0.9c-0.1,0.9,0,1.7,0.2,2.6
			c0,0.1,0,0.1,0,0.2c0,1.2,0.1,2.3,0.1,3.5c0,0.2,0.1,0.5,0.1,0.7c0,0.3,0.1,0.6,0.1,0.9c0.2,1.8,0,3.7,0.1,5.5
			c0,0.7,0,1.4,0.1,2.1c0.1,0.8,0.2,1.5,0,2.3c0.4,0.7-0.1,1.5,0,2.2c0.1,0.7,0,1.5,0,2.2c0,0.1,0,0.3,0,0.4c0,0.2,0.1,0.3,0.4,0.4
			c0.4,0,0.9,0.1,1.3,0.1c0.2,0,0.4,0.1,0.6,0.3c0.2,0.2,0.4,0.4,0.6,0.6c0.3,0.3,0.3,0.6,0.3,0.9c0,0.3-0.1,0.5-0.1,0.8
			c-0.1,0.2-0.2,0.4-0.4,0.5c-0.2,0.1-0.4,0.1-0.3-0.3c0-0.1,0-0.3,0-0.4c0.2-0.6-0.3-1-0.7-1.2c-0.3-0.2-0.7-0.2-1-0.2
			c-0.3,0-0.2,0.2-0.1,0.3c0.2,0.3,0.4,0.7,0.6,0.9c0.9,1,1.6,2.1,2.3,3.2c0.2,0.3,0.3,0.7,0.5,1c0.3,0.3,0.1,0.7-0.3,0.8
			c-0.4,0.1-0.9,0.3-1.4,0.4c-0.3,0.1-0.6,0.2-0.6,0.5c-0.1,0.6-0.6,1-0.9,1.5c-0.2,0.4-0.6,0.8-0.7,1.4c-0.1,0.8-1.1,1.1-1.8,0.6
			c-1.1-0.9-2.2-1.8-3.4-2.6c-0.9-0.6-1.7-1.4-2.4-2.2c-0.6-0.6-1.1-1.4-1.7-2c-0.8-0.9-1.4-2.1-2.4-2.9c-0.5-0.4-0.5-0.6-0.1-1.1
			c0.1-0.1,0.1-0.2,0.2-0.3c0.3-0.5,0.7-0.9,1.2-1.2c0.4-0.3,0.8-0.6,1-1.1c0.2-0.4,0.4-0.7,0.8-0.9c0.3-0.1,0.3-0.3,0.3-0.6
			c0-1.1,0-2.3-0.1-3.4c-0.1-0.7,0-1.4-0.1-2.1c0-0.3,0-0.6-0.1-0.9c-0.1-0.2,0.1-0.6,0.1-0.9c0-0.9-0.1-1.7,0-2.6
			c0.2-1.5,0.1-3.1,0.2-4.6c0-0.4,0-0.8,0-1.1c0-0.4,0-0.8,0-1.3c0-0.4,0-0.8,0-1.2c0-0.4,0.1-0.9,0-1.3c-0.1-0.4,0-0.9,0-1.3
			c0-0.6,0.1-1.2,0.1-1.7c0-0.6,0-1.2,0-1.8c0-0.6,0.1-1.2,0-1.8c-0.1-0.8-0.1-1.5-0.1-2.3c-0.1-1-0.1-2-0.3-3
			c-0.1-0.6-0.1-1.2-0.1-1.7c0-0.4-0.2-0.7-0.1-1.1c0.2-0.6,0.1-1.2,0.1-1.7c0-0.7,0.1-1.3,0-2c0-0.2-0.1-0.4-0.3-0.4
			c-0.1,0-0.3-0.1-0.4-0.1c-0.4-0.2-0.6-0.5-0.6-0.9c0-0.9-0.1-1.8-0.4-2.7c-0.1-0.2,0.1-0.4,0.1-0.7c0-0.2,0-0.3-0.2-0.3
			c-0.7-0.2-1.3-0.7-1.6-1.4c-0.1-0.2-0.2-0.3-0.3-0.5c-0.2-0.3-0.3-0.6,0-1c0.1-0.2,0.1-0.4,0.1-0.6c0.1-0.5,0.3-0.6,0.8-0.5
			c0.3,0,0.6,0,0.9,0.2c0.3,0.2,0.3-0.2,0.4-0.3c0.1-0.4,0.1-0.7,0.2-1.1c0.2-1.3,0.1-2.6,0.2-3.8c0-0.3,0.1-0.6,0.1-0.9
			c0-0.3,0-0.6,0.1-0.8c0.1-0.3-0.1-0.4-0.4-0.4c-0.4,0-0.4,0-0.3-0.4c0.3-0.9,0.6-1.8,0.7-2.8c0-0.2,0.1-0.5,0.3-0.6
			c0.2-0.2,0.3-0.5,0.3-0.8c0-0.6,0-1.1,0-1.7c0-0.1,0-0.1-0.1-0.2c-0.1,0.1-0.2,0.1-0.2,0.2c-0.1,0.3-0.1,0.6-0.2,0.9
			c0,0.1-0.1,0.1-0.1,0.1c0,0-0.1-0.1-0.1-0.1c0-0.2-0.1-0.4,0-0.5c0.2-0.4,0.1-0.7,0.1-1.1c0-2.5,0.1-5.1,0.1-7.6
			c0-1-0.1-1.9-0.2-2.9c-0.1-0.4,0-0.9-0.1-1.3c-0.1-0.5-0.1-1.1-0.1-1.6c0-0.2,0.1-0.5,0.1-0.7c0.1-0.4-0.1-0.8-0.1-1.2
			c0-0.6-0.5-0.8-0.7-1.2c-0.1-0.2-0.5-0.3-0.8-0.2c-0.6,0.2-0.8,0.1-1-0.5c-0.1-0.4,0-0.6,0.4-0.6c0.3,0,0.6,0.1,0.9,0.1
			c0.4,0,0.5-0.1,0.4-0.4c-0.3-0.8-0.7-1.5-1.1-2.2c-0.5-0.9-1.2-1.7-1.6-2.6c-0.2-0.5-0.5-1-0.8-1.4c-0.4-0.4-0.8-0.9-1.2-1.2
			c-0.5-0.4-1.1-0.7-1.7-0.9c-0.8-0.3-1.6-0.7-2.4-1c-0.9-0.3-1.7-0.7-2.7-0.9c-0.7-0.1-1.6,0-2.3,0.1c-0.7,0.1-1.5,0.3-2.2,0.4
			c-0.3,0.1-0.6,0.2-1,0.2c-0.5,0.1-1.1,0.2-1.6,0.3c-0.8,0.1-1.4,0.6-2.1,1c-0.1,0.1-0.2,0.1-0.3,0.2c-0.1,0.1-0.2,0.2-0.3,0.3
			c0.1,0.1,0.2,0.2,0.4,0.2c0.4,0.1,0.4,0.5,0.5,0.8c0.1,0.2,0.1,0.5,0.3,0.6c0.6,0.6,0.6,1.4,0.6,2.1c0,0.3,0,1.5,0.1,1.8
			c0,0.1,0,0.3,0,0.5c0,0.9,0,1.9,0,2.8c0,0.5,0.1,1-0.3,1.5c0.1,0.5-0.4,1.1,0,1.6c0.1,0.1,0.1,0.4,0,0.5c-0.1,0.2-0.1,0.2,0,0.4
			c0,0,0,0.2,0,0.2c-0.2,0.7,0,1.5-0.2,2.2c-0.1,0.7,0.1,1.3,0.1,1.9c0,0.7-0.1,1.3,0,2c0.1,0.6,0.1,1.2,0.1,1.9c0,0.3,0,0.5,0,0.8
			c0,0.3,0,0.6,0,0.9c0,0.3,0,0.6,0,0.9c0,0.2-0.1,0.4-0.1,0.6c0,0.2,0.1,0.3,0,0.5c-0.1,0.1,0.1,0.4,0.1,0.6
			c0.1,0.6,0.1,1.2,0.1,1.9c0,0.3,0.1,0.6,0.4,0.8c0.3,0.2,0.6,0.5,0.8,0.8c0.3,0.3,0,1-0.5,1.1c-0.4,0.1-0.9,0.1-1.3,0.1
			c-0.3,0-0.6-0.1-0.8-0.4c-0.2-0.2-0.4-0.4-0.6-0.6c-0.4-0.5-0.9-0.6-1.5-0.7c-0.4,0-0.8-0.2-1-0.6c-0.1-0.2-0.2-0.4,0-0.6
			c0.2-0.2,0.2-0.3,0-0.4c-0.3-0.3-0.7-0.6-1-0.9c-0.3-0.2-0.3-0.6-0.1-0.9c0.3-0.5,1-0.9,1.7-0.5c0.2,0.2,0.3,0,0.3-0.1
			c0.1-0.4,0.2-0.7,0.3-1.1c0.1-0.9,0.2-1.9,0.1-2.8c0-0.9-0.3-1.9-0.4-2.8c-0.1-1-0.3-1.9-0.4-2.9c-0.1-0.9-0.1-1.9-0.2-2.8
			c-0.1-1,0-1.9-0.1-2.9c-0.1-0.5,0-1-0.1-1.4c-0.1-0.5,0-1.1,0-1.6c0-0.3-0.1-0.6-0.2-0.9c0-0.1-0.1-0.2-0.1-0.3
			c0-0.1-0.1-0.3-0.1-0.4c-0.1,0.1-0.2,0.2-0.3,0.3c-0.3,0.6-0.7,1.2-1,1.9c-0.5,1.2-0.9,2.3-1.2,3.5c0,0.3-0.2,0.5-0.3,0.7
			c-0.1,0.5-0.1,0.9-0.2,1.4c-0.1,0.5-0.2,1.1-0.3,1.6c0,0.1,0,0.2,0,0.3c0,0.8,0,1.6-0.2,2.3c-0.2,0.8-0.1,1.6-0.1,2.5
			c0,0.2-0.1,0.3-0.1,0.5c0,0.2,0,0.4,0,0.6c0,0.1,0.1,0.3,0.1,0.4c-0.1,0.5-0.1,0.9-0.3,1.4c-0.1,0.3,0.3,0.5,0,0.8
			c0.3,0.5-0.1,0.9,0,1.3c0.2,2.1,0.1,4.2,0.1,6.2c0,0.6,0.1,1.3-0.1,1.9c-0.1,0.7,0,1.4-0.2,2.1c0,0.1,0.1,0.3,0.1,0.4
			c-0.1,0.9-0.2,1.7-0.2,2.6c0,0.3,0,0.6,0.1,0.8c0.1,0.4,0.2,0.8,0,1.2c-0.1,0.2,0,0.5,0,0.7c-0.1,1-0.2,2-0.1,2.9
			c0.1,1.5,0,2.9,0.1,4.4c0.1,0.8,0,1.6,0.1,2.3c0.1,0.7,0.1,1.5,0.1,2.2c0,0.3,0,0.7,0.1,1c0.1,0.4,0.1,0.7,0,1
			c-0.1,0.3,0.1,0.7,0.2,1c0.1,0.5,0.3,1.1,0.4,1.6c0,0,0,0.1,0,0.1c-0.4,0.6,0.1,0.9,0.4,1.2c0.2,0.2,0.5,0.2,0.3,0.6
			c-0.1,0.1,0,0.2,0.3,0.1c0,0,0.1,0,0.2,0c0.5,0.5,1,1,1.5,1.5c0.4,0.4,0.4,0.8,0,1.2c-0.1,0.1-0.1,0.3-0.2,0.4
			c-0.3,0.3-0.6,0.6-1,0.8c-0.8,0.4-1.6,1-2.3,1.5c-0.6,0.4-1,0.4-1.4-0.3c-0.3-0.5-0.6-0.7-1-1c-0.1-0.1-0.2-0.2-0.3-0.3
			c-0.6-0.7-1.4-1.2-2-1.8c-0.2-0.1-0.4-0.4-0.7-0.1c-0.2,0.1-0.6,0.1-0.9-0.1c-0.4-0.3-0.5-0.3-0.3-0.8c0.1-0.4,0.1-0.5-0.3-0.8
			c-0.2-0.1-0.4-0.3-0.5-0.4c-0.2-0.2-0.3-0.4-0.3-0.7c0-0.3,0.1-0.4,0.4-0.5c0.1,0,0.2-0.2,0.3-0.3c0.2-0.4,0.4-0.7,0.8-0.9
			c0.1-0.1,0.3-0.2,0.4-0.3c0.3-0.3,0.6-0.6,0.9-0.8c0.4-0.4,0-0.7,0-1.1c0.1-0.5,0.1-1-0.1-1.5c-0.1-0.3-0.1-0.7,0.1-1.1
			c0.1-0.2-0.1-0.5-0.1-0.8c0-0.5-0.2-1,0-1.6c-0.3-0.7-0.1-1.5-0.1-2.2c0-0.3-0.1-0.5,0.1-0.9c0.1-0.2,0.1-0.6,0.1-1
			c0-0.7-0.1-1.4-0.2-2.1c0-0.1,0-0.3,0-0.5c0-1,0.1-2,0-3c-0.1-0.8-0.1-1.6-0.2-2.5c-0.1-1.1-0.1-2.2-0.1-3.3
			c0-0.4,0.1-0.8,0.1-1.2c0-0.4-0.1-0.9-0.1-1.3c0-1.1,0-2.3,0.1-3.4c0.1-1,0.4-2,0.4-3.1c0.1-1.1,0.1-2.3,0.5-3.4
			c0.1-0.4,0.1-0.9,0.2-1.3c0.1-0.6,0.2-1.2,0.3-1.8c0-0.2,0.1-0.3,0.1-0.5c0-0.3-0.1-0.7,0.1-1c0.2-0.3-0.1-0.6,0-0.9
			c0.3-1,0.1-2,0.2-3c0-0.6,0.3-1.2,0.4-1.7c0.1-0.5,0.3-1.1,0.4-1.6c0-0.4,0.3-0.8,0.4-1.2c0.3-0.8,0.7-1.5,0.9-2.4
			c0-0.3,0.2-0.7,0.4-0.9c0.4-0.5,0.4-1.2,0.7-1.7c0.2-0.5,0.5-0.9,0.8-1.3c0.6-0.7,1.2-1.3,1.9-1.9c0.2-0.2,0.5-0.4,0.8-0.6
			c0.2-0.1,0.3-0.2,0.2-0.4c-0.2-0.7-0.3-1.4-0.5-2.2c0-0.1-0.3-0.3-0.4-0.3c-0.6-0.1-0.9-0.5-1.3-1c-0.2-0.3-0.4-0.6-0.6-0.9
			c-0.6-1.2-1.6-2.2-2.6-3.1c-0.4-0.4-0.9-0.6-1.3-0.9C49.9,93.6,49.8,93.6,49.7,93.4 M50.3,127c0,0-0.1,0-0.1,0
			c0,0,0.1,0.1,0.1,0.1c0,0,0.1,0,0.1,0C50.4,127.1,50.3,127.1,50.3,127 M89.2,149.5c0,0-0.1,0-0.1,0c0,0,0.1,0.1,0.1,0.1
			c0,0,0.1,0,0.1,0C89.3,149.6,89.3,149.6,89.2,149.5 M127.1,160.5c0,0,0.1,0,0.1,0c0,0-0.1-0.1-0.1-0.1c0-0.1,0-0.1,0-0.2
			c0,0-0.1,0-0.1,0C127,160.3,127,160.3,127.1,160.5 M105.6,123c0.8,0,1.6-0.1,2.5-0.1c0.1,0,0.2-0.1,0.3-0.1c0.1,0,0.2,0,0.3,0
			c0.2,0,0.4,0.1,0.6,0.1c0.4,0,0.8-0.1,1.3-0.1c0.6,0,1.2,0.1,1.8,0.3c1,0.2,2,0.5,2.9,1c0.7,0.4,1.4,0.8,2.2,1.2
			c0.9,0.5,1.4,1.2,1.8,2c0.5,0.9,0.6,1.9,1,2.8c0.1,0.3,0.3,0.7,0.4,1c0.2,0.5,0.4,1.1,0.4,1.7c0,0.1,0,0.2,0,0.3
			c0.4,0.6,0.4,1.2,0.6,1.8c0.2,0.8,0.5,1.6,0.6,2.5c0,1.2,0.3,2.3,0.3,3.5c0,0.1,0,0.2,0.1,0.4c0.2,0.9,0.4,1.9,0.4,2.9
			c0,0.2,0,0.4,0,0.5c0.3,0.9,0.5,1.7,0.5,2.6c0,0.5,0,1,0.2,1.5c0.1,0.3,0.2,0.7,0.3,1c0.1,0.8,0.3,1.6,0.4,2.4
			c0,0.2,0.1,0.4,0.1,0.6c0.1,0.5,0.2,1,0.2,1.5c0,1,0.1,2,0.2,3c0.1,0.9,0.1,1.8,0.1,2.7c0,0.3,0,0.6,0.1,0.8c0.1,0.3,0,0.5,0,0.8
			c0.1,0.8,0.2,1.5,0.1,2.3c0,0.5,0.1,0.9,0.1,1.4c-0.1,0.8,0.1,1.7,0.2,2.6c0,0.3-0.1,0.6-0.1,0.9c0,0.3,0.1,0.6,0.1,0.9
			c0,0.4,0,0.9,0,1.3c0,0.4,0.2,0.6,0.5,0.6c0.4,0,0.7,0.2,1,0.5c0,0,0.1,0,0.1,0c0-0.1,0-0.1,0-0.2c-0.1-0.1-0.2-0.3-0.3-0.3
			c-0.2-0.1-0.3-0.3-0.3-0.5c-0.1-0.8-0.1-1.5-0.1-2.3c0-0.7,0.1-1.4-0.2-2c0-0.1,0-0.2,0-0.3c0-0.6,0-1.2-0.1-1.9
			c-0.1-1.1-0.1-2.3-0.3-3.4c-0.1-0.4,0-0.8,0-1.3c0-0.4-0.1-0.7-0.1-1.1c0-0.4-0.2-0.8-0.1-1.1c0.2-0.4,0-0.8-0.1-1.2
			c0-0.8,0-1.7-0.1-2.5c-0.1-1.8-0.1-3.5-0.1-5.3c0-0.3,0-0.6,0-0.9c0-0.3-0.1-0.6,0-0.8c0.1-0.3,0-0.5,0-0.8c0-0.2-0.1-0.4-0.1-0.7
			c0-0.8-0.1-1.7-0.1-2.5c0-0.6,0-1.3-0.1-1.9c-0.2-0.9-0.2-1.7-0.2-2.6c0-0.2,0-0.5-0.1-0.7c-0.3-0.5-0.3-1-0.4-1.5
			c0-0.3,0-0.5-0.1-0.8c-0.1-0.1-0.1-0.3-0.1-0.4c-0.2-0.6-0.2-1.3-0.4-2c-0.2-1-0.6-1.9-1-2.8c-0.6-1.2-1.2-2.3-1.9-3.4
			c-0.7-1-1.4-2.1-2.4-2.9c-1-0.8-2.1-1.6-3.2-2.2c-0.7-0.4-1.5-0.8-2.2-1.3c-0.6-0.4-1.2-0.7-1.8-0.9c-0.5-0.1-1.1-0.2-1.6-0.5
			c-0.8-0.4-1.6-0.2-2.4-0.2c-0.6,0-1.2,0.2-1.8,0.4c-0.8,0.2-1.7,0.3-2.5,0.6c-1.5,0.4-3,1-4.4,1.8c-1.1,0.6-2.2,1.1-3.1,2.1
			c-0.4,0.5-0.8,1-1.3,1.4c-0.7,0.6-0.9,1.5-1.4,2.2c-0.1,0.1,0,0.3,0,0.4c0,0.1-0.1,0.3-0.1,0.4c-0.2,1-0.7,2-0.9,3
			c-0.2,1-0.4,2-0.4,3c0,0.2-0.1,0.4-0.1,0.6c0,0.8-0.4,1.6-0.3,2.4c0,0.2,0,0.4,0,0.5c-0.3,1-0.2,2-0.4,2.9c-0.1,0.7,0,1.4-0.2,2.1
			c-0.1,0.6,0,1.2-0.1,1.8c-0.2,0.8-0.1,1.6-0.3,2.3c-0.1,0.4-0.1,0.8-0.1,1.1c0,0.3-0.2,0.7-0.1,1c0.1,0.5,0,1-0.2,1.5
			c-0.1,0.3-0.2,0.6-0.1,0.9c0.2,0.5,0,0.9,0,1.4c-0.1,0.9-0.1,1.9-0.2,2.8c0,0.8,0,1.5-0.2,2.3c-0.1,0.4-0.1,0.8-0.1,1.1
			c-0.2,0.8-0.2,1.5-0.3,2.3c0,0.4,0,0.8,0,1.2c-0.2,1-0.2,2,0,3.1c0,0.2-0.1,0.3-0.1,0.5c0,0.3,0,0.6,0,0.9c0,0.2,0.1,0.5,0.1,0.7
			c-0.2,0.3-0.1,0.6-0.1,0.9c0,1.1,0,2.2,0,3.2c0,0.4-0.1,0.9-0.1,1.3c0,0.2,0,0.3,0,0.5c-0.1,0.3-0.1,0.6-0.1,0.9
			c0,0.2,0.1,0.4,0,0.5c-0.3,0.5-0.3,1.1-0.3,1.7c0,1.1-0.1,2.2,0.1,3.3c0.1,0.5,0,1,0.1,1.5c0,0.2-0.1,0.4-0.1,0.6
			c0,0.1-0.1,0.2,0,0.3c0.2,0.3,0.1,0.6,0.1,0.9c0,0.3,0.1,0.6,0.1,0.9c0.1,0.8-0.1,1.5,0.1,2.3c0.2,0.9,0.2,1.8,0.3,2.7
			c0.1,1.2,0.1,2.4,0.1,3.6c0,0.2,0,0.4,0,0.6c0,0.4,0.1,0.7,0.1,1.1c0,0.2-0.2,0.4-0.1,0.5c0.2,0.4,0.1,0.9,0.1,1.3
			c0,0.4-0.1,0.9,0.4,1.2c0.1,0.1,0.1,0.3,0.2,0.5c0,0.2,0.1,0.2,0.3,0.1c0.5-0.3,0.6-0.3,0.9,0c0.3,0.3,0.3,0,0.3-0.1
			c0.1-0.2,0.1-0.4,0.1-0.6c-0.2-0.7-0.1-1.3-0.1-2c0-0.3,0.1-0.6,0.3-0.9c0.1-0.1,0.2-0.2,0.2-0.4c0-0.8,0-1.6-0.1-2.5
			c-0.1-0.6-0.2-1.1-0.2-1.7c0-0.7,0-1.4,0-2c0-0.3-0.1-0.5-0.1-0.8c0-0.3,0.2-0.7,0.1-1c-0.1-0.4-0.1-0.9-0.1-1.3
			c0-1.3,0-2.6,0-3.9c0-0.2,0.1-0.3,0-0.5c-0.2-0.4-0.1-0.8-0.1-1.2c0-0.4-0.1-0.8-0.1-1.2c0-0.8-0.1-1.7-0.1-2.5c0,0,0,0,0-0.1
			c-0.1-0.7-0.2-1.5-0.2-2.2c0-1.8,0-3.5,0-5.3c0-1.8-0.1-3.5,0.1-5.3c0.1-0.4,0.1-0.9,0-1.4c-0.1-1.4,0-2.8-0.1-4.2
			c-0.1-1.8-0.1-3.6,0.1-5.4c0.1-0.9,0.1-1.9,0.2-2.8c0-0.3,0-0.6,0-0.9c0-0.3,0.2-0.6,0-0.9c-0.1-0.3,0-0.6,0-0.9
			c0-0.3,0.2-0.7,0.1-0.9c-0.1-0.5,0.1-1-0.1-1.4c-0.1-0.2,0.1-0.6,0.1-0.9c0.1-1,0-2,0.1-3.1c0.1-1.1,0.2-2.1,0.3-3.2
			c0.1-1.1,0.3-2.1,0.7-3.1c0.1-0.3,0.2-0.6,0.3-0.9c0.5-0.8,0.9-1.6,1.2-2.5c0-0.1,0.1-0.2,0.1-0.2c0.3-0.3,0.4-0.9,0.7-1.2
			c0.3-0.4,0.4-0.9,0.6-1.3c0.3-0.5,0.7-0.9,0.9-1.3c0.4-0.6,0.9-0.9,1.4-1.3c0.5-0.4,1.1-0.9,1.7-1.2c0.5-0.3,1-0.5,1.5-0.8
			c0,0,0.1,0,0.1,0c0.5,0,0.9-0.3,1.3-0.5c0.5-0.2,0.9-0.3,1.4-0.4c0.3-0.1,0.5,0.2,0.6,0.4c0,0.1-0.1,0.3-0.2,0.4
			c-0.1,0.1-0.2,0.1-0.2,0.2c0,0,0,0.1,0,0.2c0,0,0.1,0.1,0.2,0C104.1,122.9,104.8,123,105.6,123 M52.8,161.6
			c-0.1-0.2-0.2-0.4-0.3-0.6c-0.1-0.7-0.2-1.4-0.3-2.1c0-0.2-0.1-0.5-0.1-0.7c0-0.2,0.1-0.5,0.1-0.7c-0.2-0.6-0.1-1.1-0.1-1.7
			c0-0.2,0-0.3,0-0.5c-0.1-0.5-0.3-1-0.2-1.4c0.1-1-0.2-1.9-0.3-2.9c-0.1-0.8-0.3-1.7-0.2-2.5c0.1-1.4-0.1-2.9,0.2-4.3
			c0.1-0.3,0.1-0.7,0-0.9c-0.2-0.3,0.1-0.6,0-0.9c0-0.1,0-0.1,0-0.2c-0.3-0.9,0-1.8-0.2-2.7c-0.1-0.3,0.1-0.8,0.1-1.1
			c0-0.3,0.2-0.6,0.1-0.8c-0.2-0.3,0-0.6,0-0.8c0.1-0.9,0.1-1.7,0.1-2.6c0-1.9,0-3.8-0.1-5.7c0-0.1,0-0.1,0-0.2
			c-0.2-0.6-0.2-1.3,0-1.9c0-0.1,0-0.3,0-0.4c0-0.3-0.2-0.7-0.1-0.9c0.1-0.4,0.1-0.8,0.1-1.2c0-0.7,0-1.4,0-2.1c0-0.5,0.1-1,0.1-1.5
			c0-0.1,0-0.1,0-0.2c0,0-0.1,0.1-0.1,0.1c-0.1,0.2-0.2,0.4-0.2,0.6c0.1,0.4,0,0.8,0,1.1c0,0.7-0.1,1.4-0.2,2.1c0,0.3-0.2,0.7-0.2,1
			c-0.1,0.8-0.2,1.5-0.3,2.3c0,0.1,0,0.2,0.1,0.3c0,0.1,0.1,0.2,0,0.3c-0.3,0.8-0.4,1.7-0.4,2.5c0,0.1,0,0.2,0,0.3
			c-0.2,0.5-0.3,1-0.3,1.5c0,0.5,0.1,0.9,0.1,1.4c0,1.1,0.2,2.2-0.1,3.2c0,0.1,0,0.3,0,0.4c0.2,0.6,0.1,1.2,0.1,1.9
			c0,0.2,0,0.3,0,0.5c0.2,0.9,0.3,1.8,0.2,2.7c0,0.2,0,0.4,0,0.6c0,0.3,0.2,0.7,0.1,1c-0.2,0.8-0.1,1.5-0.1,2.3c0,0.1,0,0.3,0,0.4
			c0.1,0.4,0.3,0.9,0.2,1.4c0,0.4-0.2,0.8-0.1,1.3c0.1,0.7-0.3,1.5,0,2.2c0.1,0.2-0.1,0.5-0.1,0.7c0,0.7,0,1.5,0,2.2
			c-0.1,0.7,0.3,1.4,0,2.1c0,0,0,0,0,0.1c0.2,0.5,0.1,1.1,0.1,1.7c0,0.2,0,0.3,0,0.5c0.1,0.5,0.2,0.9,0.2,1.4c0,0.4,0,0.9,0,1.3
			c0,0.4,0.1,0.7,0.3,1c0.4,0.6,1,1.1,1.5,1.7c0,0,0,0,0.1,0c0.1,0,0.3,0.2,0.4-0.1c0.1-0.3,0.2-0.5,0-0.8c-0.1-0.1-0.1-0.2-0.1-0.3
			C52.9,162.6,52.8,162.2,52.8,161.6 M49.5,90.3c-0.5-0.1-1,0-1.5-0.1c-0.5-0.2-1.1,0.1-1.6-0.2c-0.3,0.2-0.6,0.1-0.9,0.1
			c-0.4,0-0.7-0.2-1.1-0.1c-0.5,0.1-0.9,0.2-1.4,0.4c-0.7,0.3-1.4,0.5-2,1.1c-0.1,0.1-0.2,0.3-0.3,0.5c0.2,0,0.3-0.1,0.5-0.1
			c0.2,0,0.5,0.2,0.8,0c0.2-0.1,0.4-0.1,0.6-0.2c0.5-0.2,1-0.4,1.5-0.5c1.2-0.1,2.3-0.1,3.5-0.1c0.9,0,1.7,0.2,2.4,0.6
			c0.8,0.5,1.6,1,2.4,1.6c0.9,0.7,1.8,1.2,2.4,2.2c0.2,0.3,0.5,0.6,0.7,0.9c0.2,0.2,0.5,0.3,0.6,0.2c0.2-0.2,0.3,0,0.5,0
			c0.1,0,0.2,0.1,0.3,0.1c0-0.1-0.1-0.3-0.1-0.4c0,0,0-0.1,0-0.1c-0.5-1.2-1-2.4-1.8-3.4c-0.7-0.8-1.4-1.7-2.5-2
			c-0.2,0-0.4-0.1-0.5-0.1C51.1,90.6,50.3,90.4,49.5,90.3 M78.9,102.2c-0.2-0.2-0.4-0.3-0.6-0.5c-0.6-0.7-1.3-1-2.1-1.4
			c-0.4-0.2-0.9-0.4-1.3-0.6c-0.7-0.3-1.3-0.9-2.2-1c-0.7-0.1-1.4-0.3-2.1-0.2c-0.6,0.1-1.3,0.1-1.9,0.2c-0.7,0.1-1.3,0.4-2,0.3
			c0,0,0,0-0.1,0c-0.9,0.4-2,0.6-2.9,1.2c-0.2,0.1-0.3,0.2-0.5,0.3c-0.1,0-0.1,0.1-0.1,0.2c0.1,0,0.1,0,0.2,0c0.5-0.2,1-0.2,1.5-0.3
			c0.9-0.3,1.9-0.4,2.8-0.5c0.5-0.1,1,0,1.5-0.1c0.7-0.2,1.4,0,2.1,0.2c0.6,0.1,1.2,0.4,1.8,0.6c0.8,0.2,1.5,0.5,2.2,0.8
			c0.9,0.4,1.8,0.7,2.7,1.1c0.5,0.3,1.1,0.5,1.6,1c0.1,0,0.1,0.1,0.2,0.1c0-0.1,0.1-0.2,0-0.3C79.5,102.8,79.2,102.6,78.9,102.2
			 M14.3,74c0.1,0,0.3,0,0.4,0c0.4,0.2,0.7,0.2,1-0.1c0.1-0.1,0.3-0.2,0.5-0.2c0.3-0.1,0.5-0.1,0.8-0.2c0.6-0.3,1.2-0.3,1.7-0.2
			c0.4,0,0.8-0.2,1.1-0.2c0.1,0,0.1-0.1,0.1-0.1c0,0-0.1-0.1-0.1-0.1c-0.4-0.2-0.9-0.3-1.3-0.4c-1-0.2-1.9,0-2.8,0.3
			c-1.1,0.4-2.1,0.7-3.3,0.9c0,0-0.2,0-0.2-0.1c0-0.2-0.1-0.3-0.2-0.2c-0.1,0.1-0.2,0.2-0.3,0.3c0,0,0.1,0.1,0.1,0.1
			c0.1,0,0.2,0,0.2-0.1c0,0.1,0,0.3-0.1,0.4c-0.1,0.1-0.2,0.2-0.3,0.3c-0.2,0.3-0.5,0.5-0.6,0.8c-0.3,0.6-0.4,1.2-0.7,1.8
			c-0.2,0.5-0.4,1-0.6,1.5c-0.1,0.2-0.2,0.3-0.2,0.5c0,0.1,0,0.3,0,0.3c-0.4,0.4-0.3,0.9-0.5,1.4c-0.2,0.4-0.1,1-0.2,1.4
			c0,0,0,0.1,0,0.1C9,82.1,9,82.1,9,82c0.1-0.5,0.1-1,0.3-1.4c0.5-1,0.7-2,1.2-3c0.4-0.7,0.7-1.3,1.1-2c0.1-0.2,0.2-0.5,0.3-0.6
			C12.7,74.6,13.4,74.2,14.3,74 M24.6,79.9c-0.8,0.1-1.2,0.8-1.7,1.4c-0.1,0.1,0,0.3,0,0.4c0.1,0,0.2,0.1,0.4,0
			c1-0.2,1.9-0.3,2.9-0.3c0.3,0,0.5-0.1,0.8-0.1c0.1,0,0.3,0,0.3,0c0.3,0.2,0.6,0.1,0.9,0.1c0.4,0.1,0.8,0.1,1.2,0.2
			c0.5,0.1,1,0.3,1.5,0.6c0,0,0.1,0,0.2,0c0,0,0-0.1,0-0.1c-0.4-0.7-1-1.2-1.7-1.6c-0.6-0.4-1.2-0.8-1.8-1.1
			c-0.2-0.1-0.4-0.4-0.7-0.1C26.1,79.5,25.4,79.8,24.6,79.9 M56.1,105.9c0.3-0.6,0.7-1.3,1.2-1.7c0.2-0.2,0.4-0.4,0.6-0.6
			c0,0,0-0.1,0.1-0.1c0,0-0.1,0-0.1,0c-0.1,0-0.2,0.1-0.3,0.2c-0.3,0.3-0.6,0.6-1,0.9c-0.4,0.4-0.9,0.8-1.3,1.2
			c-0.4,0.4-0.4,1.1-0.8,1.6c-0.5,1.5-1,2.9-1.6,4.4c-0.2,0.5-0.5,1-0.5,1.7c0,0.3-0.2,0.7-0.2,1.1c-0.2,0.8-0.3,1.6-0.4,2.4
			c0,0.4,0.2,0.8,0.1,1.1c-0.1,0.4,0.1,0.7,0,1.1c0,0.2,0,0.5,0.1,0.7c0-0.2,0-0.5,0.1-0.6c0.2-0.3,0.1-0.6,0.1-0.9
			c0.1-0.8,0.1-1.7,0.2-2.5c0-0.1,0-0.2,0.1-0.2c0.2-0.6,0.4-1.3,0.5-1.9c0.2-1,0.5-2,0.9-2.9c0.3-0.7,0.6-1.4,1-2.1
			C55.1,107.6,55.7,106.9,56.1,105.9 M60.6,108c0-0.8-0.3-1.6-0.6-2.3c-0.1-0.3-0.2-0.6-0.3-0.9c-0.1-0.2-0.2-0.2-0.4,0
			c-0.2,0.3-0.4,0.5-0.5,0.8c-0.2,0.3-0.3,0.7,0,1c0.1,0.1,0.1,0.3,0.2,0.5c0.2,0.5,0.3,1.1,0.5,1.6c0.2,0.4,0.5,0.8,0.4,1.3
			c0,0.2,0.1,0.3,0.1,0.5c0.1,0.6,0.2,1.2,0.3,1.8c0,0.1,0.1,0.2,0.2,0.2c0-0.1,0.1-0.2,0.1-0.2c0-0.5,0-1,0-1.5
			c0-0.3,0.2-0.7,0.1-0.9C60.5,109.3,60.7,108.7,60.6,108 M85.3,128.2c0,0.7,0,1.5,0,2.2c-0.1,0.7,0.2,1.4,0,2.1c0,0.1,0,0.1,0,0.2
			c0.2,0.5,0.1,1.1,0.1,1.6c0,0.4-0.1,0.8,0.3,1.1c0,0,0,0.1,0.1,0.1c0,0.1,0.1,0.3,0.1,0.4c0-0.1,0.1-0.3,0.1-0.4
			c0-0.5,0.2-0.9-0.2-1.4c-0.1-0.1-0.2-0.4-0.2-0.7c0-0.6,0.1-1.1,0.1-1.7c0-1.8-0.1-3.7-0.1-5.5c0-0.1,0-0.2,0-0.3
			c0-0.3,0-0.6,0-0.8c0-0.1,0-0.2-0.1-0.2c-0.1,0-0.2,0-0.3,0.1c-0.1,0.2-0.1,0.4-0.1,0.6c-0.1,0.8,0.2,1.5,0,2.3
			C85.2,127.9,85.3,128,85.3,128.2 M33,112.8c0.1-0.4,0.1-0.9,0.2-1.3c0.2-0.7,0.4-1.5,0.5-2.2c0.1-1,0.5-2,0.4-3.1
			c0-0.1,0.3-0.3,0-0.4c0,0-0.2,0.2-0.2,0.3c0,0,0,0.1,0,0.1c-0.1,0.3-0.1,0.7-0.2,1c-0.4,1.1-0.5,2.3-0.8,3.5
			c-0.1,0.5-0.1,1-0.2,1.5c-0.2,0.8-0.3,1.5-0.3,2.3c0,0.1,0,0.2,0,0.3c-0.3,0.6-0.1,1.3-0.1,1.9c0,0,0.1,0.1,0.1,0.1
			c0,0,0-0.1,0-0.1c0-0.2,0-0.5,0.1-0.7c0.1-0.6,0.2-1.1,0.2-1.7C32.7,113.9,32.9,113.4,33,112.8 M85.1,193.9
			C85.1,193.9,85.2,193.9,85.1,193.9c0-0.2,0-0.4,0-0.5c-0.1,0.1-0.3,0.1-0.4,0.2c-0.4,0.4-0.8,0.7-1.3,0.9
			c-0.2,0.1-0.4,0.3-0.5,0.4c-0.1,0.1,0.1,0.3,0.1,0.4c0.1-0.1,0.3-0.2,0.3-0.3c0,0,0-0.2,0-0.3c0.1-0.1,0.2-0.2,0.3-0.3
			c0.1,0.1,0.1,0.2,0.2,0.2c0.3,0.3,0.6,0.7,1,1c0.2,0.1,0.4,0.3,0.5,0.4c0-0.3,0.1-0.5,0-0.8c0-0.2-0.2-0.5-0.3-0.7
			c-0.1-0.2-0.3-0.3-0.1-0.5C85.1,194.3,85,194.1,85.1,193.9 M90.7,201.8c0.1,0,0.2,0,0.3,0c0.2-0.4,0.4-0.6,0.8-0.3
			c0,0,0.1,0,0.1-0.1c0.4-0.1,0.7-0.2,1.1-0.3c0.1,0,0.1-0.1,0.2-0.2c-0.1-0.1-0.2-0.2-0.3-0.2c-0.3,0-0.7,0.1-1,0.2
			c-0.2,0-0.5,0.1-0.6,0c-0.3-0.4-0.7-0.4-1.1-0.6c-0.3-0.2-0.5-0.4-0.8-0.7c-0.1-0.1-0.1-0.2-0.2,0.1c-0.1,0.2-0.1,0.3,0,0.4
			c0.2,0.2,0.4,0.4,0.6,0.7C90.2,201.1,90.4,201.4,90.7,201.8 M8.1,99.7C8,100,8.2,100.3,8,100.6c0,0,0,0.2,0.1,0.2
			c0.1,0.1,0.3,0.1,0.3,0.1c0.1-0.1,0.2-0.2,0.2-0.4c0-0.9,0-1.8,0-2.7c0-0.1-0.1-0.2-0.1-0.2c0,0.1-0.1,0.2-0.1,0.2
			C8.3,98.4,8.2,99,8.1,99.7 M60.5,124.1c-0.1,0.3-0.3,0.6,0,1c0.1,0.1,0,0.3,0,0.5c0,0.2-0.1,0.4-0.1,0.5c-0.1,0.7-0.1,1.4-0.4,2
			c-0.1,0.2,0,0.4,0,0.5c0,0,0.2,0,0.2,0c0.1-0.4,0.4-0.7,0.4-1.1c0.1-1.2,0-2.4,0-3.6C60.6,124.1,60.5,124,60.5,124.1 M91,203.7
			c0.1,0,0.1,0,0.2,0c0.5,0.3,0.5,0.3,0.9-0.2c0.1-0.1,0.1-0.2,0.2-0.3c0.1-0.1,0.1-0.2,0.1-0.3c-0.1,0-0.3,0-0.4,0.1
			c-0.1,0.1-0.2,0.1-0.3,0.2c-0.2,0.2-0.4,0.2-0.6,0.1c-0.1-0.1-0.3-0.1-0.4-0.2c-0.3-0.2-0.4-0.4-0.2-0.7c0-0.1,0.1-0.1,0.2-0.2
			c0,0,0-0.1,0-0.2c0,0-0.1,0-0.2,0c-0.2,0.1-0.3,0.3-0.5,0.5c-0.2,0.1-0.1,0.2,0,0.4C90.3,203.2,90.6,203.5,91,203.7 M123.2,178.9
			c0.1,0.1,0.1,0.1,0.2,0.2c0.2,0.1,0.3,0.4,0.5,0.3c0,0,0-0.3-0.1-0.4c0,0,0-0.1,0-0.1c0.1-0.6,0.1-0.6-0.4-0.6c0,0,0,0-0.1,0
			c-0.2,0-0.5,0-0.7,0.1c0.1,0.1,0.3,0.3,0.4,0.4C123.1,178.8,123.1,178.8,123.2,178.9 M84.8,140.7c-0.2,0.3-0.1,0.6,0,0.9
			c0,0,0,0.1,0.1,0.1c0-0.1,0.1-0.1,0.1-0.2c0-0.1,0-0.2,0.1-0.4c0.1-0.7,0.2-1.4,0.3-2.1c0-0.1-0.1-0.2-0.1-0.3
			c-0.1,0.1-0.2,0.2-0.2,0.3C84.9,139.6,84.9,140.1,84.8,140.7 M12.3,117.7c-0.3-0.2-0.1-0.4,0-0.6c0-0.1,0-0.2-0.1-0.2
			c-0.1,0-0.2,0-0.2,0.1c-0.3,0.2-0.3,0.5-0.4,0.8c0,0.1,0,0.3,0,0.3c0.1,0.1,0.3,0.3,0.4,0.2C12.2,118.2,12.5,118.2,12.3,117.7
			 M4,108c0,0-0.1,0.1-0.1,0.1c0.2,0.3,0.5,0.6,0.7,0.9c0.1,0.1,0.3,0.2,0.4,0.2c0.1,0,0.3-0.2,0.4-0.3c-0.1-0.1-0.2-0.2-0.3-0.3
			C4.8,108.4,4.4,108.2,4,108 M129.8,182.8c-0.1-0.2-0.2-0.4-0.4-0.6c0-0.1-0.1-0.1-0.2-0.1c0,0.1,0,0.1,0,0.2c0,0.2,0,0.4,0,0.6
			c0,0.3,0,0.5,0.1,0.8c0.2-0.2,0.4-0.4,0.5-0.5C129.9,183.1,129.8,183,129.8,182.8 M6.4,109.1c-0.3-0.1-0.4,0.2-0.6,0.3
			c0,0,0,0.1,0,0.2c0.2,0.2,0.8,0.2,1,0C6.9,109.4,6.6,109.3,6.4,109.1 M39.7,95.6c0-0.1,0-0.2,0-0.3c-0.1,0-0.2,0.1-0.2,0.1
			c0,0,0,0.1,0,0.1c-0.1,0.2-0.5,0.3-0.2,0.6C39.4,96,39.6,95.8,39.7,95.6 M58.2,107.2c0-0.2-0.1-0.3-0.2-0.2
			c-0.1,0.1-0.1,0.2-0.2,0.3c0,0.1-0.1,0.2-0.1,0.3c0.1,0,0.2,0,0.3-0.1C58.2,107.6,58.2,107.4,58.2,107.2 M48.6,160.2
			c-0.1,0.1-0.1,0.2,0.1,0.3c0.1,0,0.3,0.1,0.4,0.1c0-0.2,0-0.4,0-0.6C49,160,48.8,160.1,48.6,160.2 M127.5,186
			c0-0.4-0.3-0.3-0.6-0.3c0,0-0.1,0.1-0.1,0.1c0.1,0.3,0.3,0.3,0.5,0.3C127.4,186,127.4,186,127.5,186 M32.1,117.4
			c0,0.1,0,0.2,0,0.3c0,0.1,0.1,0.2,0.2,0.3c0-0.1,0.1-0.2,0.1-0.3c0-0.1,0-0.3,0-0.4C32.4,117.3,32.2,117.3,32.1,117.4 M55.2,164.3
			c-0.1-0.1-0.2-0.2-0.2-0.3c-0.1,0.1-0.1,0.3-0.1,0.4c0,0,0.1,0.1,0.2,0.1C55,164.5,55.1,164.4,55.2,164.3 M128.2,142.7
			c0-0.1-0.1-0.2-0.1-0.2c-0.1,0-0.2,0.1-0.3,0.1c0.1,0.1,0.1,0.3,0.2,0.4C128,142.9,128.1,142.8,128.2,142.7 M130,179.1
			c0-0.1-0.1-0.1-0.1-0.2c0,0-0.1,0-0.2,0.1c0,0.1,0,0.3,0,0.4c0,0.1,0.1,0.1,0.2,0.2C129.9,179.5,129.9,179.4,130,179.1
			 M126.4,183.6c0,0.2,0,0.3,0,0.5c0,0,0.1,0.1,0.1,0.1c0,0,0.1-0.1,0.1-0.1C126.6,183.9,126.5,183.7,126.4,183.6 M9.5,74.8
			c0-0.1,0.1-0.1,0.1-0.2c-0.1-0.2-0.1,0-0.2,0c-0.2,0-0.4,0-0.6,0C9,74.7,9.2,74.7,9.5,74.8 M84.2,148.2
			C84.2,148.3,84.2,148.3,84.2,148.2c-0.2,0.3,0.1,0.3,0.1,0.4c0,0,0.1,0,0.1,0c0-0.1-0.1-0.2-0.1-0.3
			C84.3,148.3,84.3,148.2,84.2,148.2 M128.3,155.9c0,0.1,0.1,0.1,0.1,0.2c0.3-0.2,0.1-0.3-0.1-0.4c0,0-0.1,0-0.2,0
			C128.2,155.7,128.2,155.7,128.3,155.9 M41.6,114.5C41.6,114.5,41.6,114.5,41.6,114.5c-0.2,0-0.3-0.1-0.4-0.1c0,0,0,0.1,0,0.1
			c0.1,0.1,0.2,0.1,0.3,0.2C41.5,114.7,41.6,114.6,41.6,114.5 M92.6,197.6C92.5,197.6,92.5,197.6,92.6,197.6
			C92.5,197.5,92.5,197.6,92.6,197.6c-0.2,0.2,0,0.3,0.1,0.3c0,0,0.1,0,0.1-0.1C92.7,197.8,92.7,197.7,92.6,197.6 M10.1,75.8
			c0.1,0.1,0.1,0.1,0.2,0.2c0,0,0.1-0.1,0.1-0.1c-0.1-0.1-0.1-0.3-0.2-0.4C10.2,75.5,10.2,75.6,10.1,75.8 M52.7,149.3
			c0.1,0,0.1,0,0.2,0c-0.1-0.2-0.1-0.3-0.2-0.5c0,0-0.1,0.1-0.1,0.1C52.6,149,52.6,149.1,52.7,149.3 M35.3,83c-0.1,0-0.2-0.1-0.2,0
			C35,83,35,83,34.9,83.1c0.1,0,0.2,0.1,0.2,0.1C35.2,83.2,35.3,83.1,35.3,83 M126.4,148.4c-0.1-0.1-0.1-0.1-0.2-0.2
			c0,0-0.1,0.1-0.1,0.1C126.2,148.4,126.3,148.5,126.4,148.4 M6.2,92.7c-0.1,0-0.2-0.1-0.3-0.1C6,92.7,6,92.8,6.1,93
			C6.1,92.9,6.2,92.8,6.2,92.7 M15.3,72.5c-0.2-0.2-0.4-0.1-0.5,0.1c0,0,0,0.1,0,0.1C15,72.7,15.1,72.6,15.3,72.5 M128.8,162.2
			c0,0,0-0.1,0-0.1c0-0.1,0-0.1-0.1-0.2c0,0-0.2,0-0.2,0c0,0.1,0,0.1,0,0.2C128.6,162.2,128.7,162.2,128.8,162.2 M128.4,154.9
			c0.1-0.1,0.1-0.1,0.2-0.2c0,0-0.1-0.1-0.1-0.1C128.4,154.7,128.4,154.7,128.4,154.9 M127.8,141.8c0,0,0.1,0.1,0.1,0.1
			c0-0.1,0-0.2,0-0.4C127.9,141.6,127.8,141.7,127.8,141.8 M9.3,79.2c-0.1-0.1-0.1-0.1-0.2-0.2c0,0-0.1,0.1-0.1,0.1
			C9.1,79.2,9.2,79.2,9.3,79.2 M50,126.3c0.1,0,0.2,0,0.3,0C50.2,126.3,50.1,126.2,50,126.3 M8.7,82.7c0,0.1,0.1,0.2,0.1,0.3
			C8.8,82.9,8.8,82.8,8.7,82.7 M90.7,199c0,0.1,0,0.1,0,0.2c0,0,0.1-0.1,0.1-0.1C90.8,199,90.8,199,90.7,199 M129.6,175.6
			c0,0.1,0,0.1,0,0.2c0.1-0.1,0.1-0.1,0.2-0.2C129.8,175.5,129.7,175.5,129.6,175.6 M13.8,72.8c-0.1,0.1-0.1,0.1-0.2,0.2
			c0,0,0.1,0.1,0.1,0C13.8,73,13.8,73,13.8,72.8 M92.6,144.1C92.6,144.1,92.6,144,92.6,144.1C92.5,144,92.5,144,92.6,144.1
			c-0.1,0-0.1,0.1-0.1,0.2C92.6,144.2,92.6,144.2,92.6,144.1 M121.8,124c0-0.1-0.1-0.1-0.1-0.2c0,0-0.1,0-0.1,0
			C121.6,123.9,121.7,124,121.8,124 M127.5,168.7c0-0.1,0-0.1,0-0.2c0,0-0.1,0-0.1,0C127.4,168.6,127.4,168.7,127.5,168.7
			 M49.5,127.2c-0.1,0-0.1,0-0.2-0.1c0,0,0,0.1,0,0.1C49.3,127.3,49.4,127.3,49.5,127.2 M129.3,168.6c-0.1,0-0.1,0-0.2-0.1
			c0,0,0,0.1,0,0.1C129.1,168.6,129.1,168.6,129.3,168.6 M6.1,93.8c0,0.1,0,0.1-0.1,0.2c0,0,0.1,0,0.1,0C6.1,94,6.1,93.9,6.1,93.8
			 M92.5,142.6c0,0.1,0,0.1,0,0.2c0,0,0.1,0,0.1,0C92.6,142.7,92.5,142.6,92.5,142.6 M128.1,146.7c0,0,0.1,0,0.1-0.1
			C128.2,146.7,128.1,146.6,128.1,146.7 M17,98.6c0-0.1,0-0.1,0-0.2c0,0-0.1,0-0.1,0C16.8,98.5,16.9,98.6,17,98.6 M127.6,148.3
			c0,0,0,0.1,0.1,0.1C127.7,148.3,127.7,148.3,127.6,148.3 M59.9,102.1c0,0,0-0.1-0.1-0.1C59.8,102,59.8,102.1,59.9,102.1
			 M10.8,74.7c-0.1,0-0.1,0-0.2-0.1c0,0,0,0.1,0,0.1C10.6,74.8,10.7,74.8,10.8,74.7 M126.1,152.4c0,0.1,0,0.1,0,0.2c0,0,0.1,0,0.1,0
			C126.2,152.5,126.2,152.4,126.1,152.4 M126.2,150.6c-0.1,0-0.1,0-0.2-0.1c0,0,0,0.1,0,0.1C126,150.6,126.1,150.6,126.2,150.6
			 M90.3,137.9C90.3,137.9,90.3,138,90.3,137.9C90.3,138,90.3,138,90.3,137.9 M128.5,159.2C128.6,159.2,128.6,159.2,128.5,159.2
			C128.6,159.2,128.6,159.1,128.5,159.2 M91.2,131.1C91.2,131.1,91.2,131.1,91.2,131.1C91.2,131.1,91.2,131.1,91.2,131.1
			 M128.8,163.7C128.7,163.6,128.7,163.6,128.8,163.7C128.7,163.6,128.7,163.7,128.8,163.7 M128.7,166
			C128.8,166.1,128.8,166.1,128.7,166C128.8,166.1,128.8,166,128.7,166 M14.1,72.8C14.1,72.8,14.2,72.8,14.1,72.8
			C14.2,72.8,14.2,72.7,14.1,72.8 M14.7,88C14.6,87.9,14.6,87.9,14.7,88C14.6,88,14.6,88,14.7,88 M123,125.6
			C123,125.5,122.9,125.5,123,125.6C122.9,125.5,122.9,125.6,123,125.6 M122.6,125C122.6,125,122.5,125,122.6,125
			C122.5,125,122.5,125,122.6,125 M11.6,73.9C11.6,73.9,11.5,73.9,11.6,73.9C11.5,73.9,11.5,74,11.6,73.9 M53.8,107.4
			C53.8,107.5,53.8,107.5,53.8,107.4C53.8,107.4,53.8,107.4,53.8,107.4 M9.5,76.8C9.5,76.7,9.6,76.7,9.5,76.8
			C9.5,76.7,9.5,76.7,9.5,76.8 M8.8,78.5C8.8,78.6,8.8,78.6,8.8,78.5C8.9,78.6,8.9,78.5,8.8,78.5 M15.7,72.3
			C15.7,72.2,15.7,72.2,15.7,72.3C15.6,72.2,15.6,72.3,15.7,72.3 M74.6,98.3C74.6,98.4,74.6,98.4,74.6,98.3
			C74.6,98.4,74.6,98.3,74.6,98.3 M18.9,71.2C18.9,71.2,18.9,71.3,18.9,71.2C19,71.2,19,71.2,18.9,71.2 M6,95.8
			C6,95.8,6.1,95.9,6,95.8C6.1,95.8,6.1,95.8,6,95.8 M25.4,88.6C25.4,88.7,25.4,88.7,25.4,88.6C25.4,88.7,25.4,88.7,25.4,88.6
			 M52.4,125.5C52.4,125.5,52.5,125.6,52.4,125.5C52.5,125.5,52.5,125.5,52.4,125.5z"/>
		<g>
			<path d="M100.8,126.9c0.4-0.3,0.7-0.6,1-0.9c0.2-0.2,0.3-0.1,0.4,0.1c0,0.2,0.1,0.5,0,0.6c-0.5,0.6-1,1.1-1.6,1.6
				c-0.4,0.3-0.9,0.5-1.4,0.5c-0.2,0-0.5-0.2-0.7-0.4c-0.2-0.2-0.1-0.5,0.2-0.6c0.3-0.1,0.5-0.1,0.8-0.1c0.1,0,0.3-0.1,0.4-0.1
				C100.1,127.5,100.4,127.2,100.8,126.9z"/>
		</g>
		<g>
			<path d="M34,132.3c-0.1-0.1-0.2-0.2-0.2-0.3c0.1,0,0.2-0.1,0.2-0.1C34.3,132,34.1,132.1,34,132.3z"/>
		</g>
		<g>
			<path d="M8.9,106.9c-0.1,0-0.1-0.1-0.1-0.2c0-0.1,0-0.1,0.1-0.2c0,0.1,0.1,0.1,0.1,0.2C9,106.7,9,106.8,8.9,106.9z"/>
		</g>
		<g>
			<path d="M60,200.8C59.9,200.8,59.9,200.8,60,200.8C60,200.7,60,200.8,60,200.8z"/>
		</g>
		<g>
			<path d="M123.4,133.2C123.4,133.2,123.4,133.2,123.4,133.2C123.4,133.2,123.4,133.2,123.4,133.2z"/>
		</g>
	</g>
</g>
</svg>
