<?xml version="1.0" encoding="utf-8"?>
<!-- Generator: Adobe Illustrator 26.2.1, SVG Export Plug-In . SVG Version: 6.00 Build 0)  -->
<svg version="1.1" id="Layer_1" xmlns="http://www.w3.org/2000/svg" xmlns:xlink="http://www.w3.org/1999/xlink" x="0px" y="0px"
	 viewBox="0 0 124.6 135.8" style="enable-background:new 0 0 124.6 135.8;" xml:space="preserve">
<g>
	<path d="M85.2,99c0-0.2-0.2-0.4,0-0.6c0,0,0-0.2,0-0.3c-0.1-0.3-0.1-0.6,0-0.9c0.1-0.2,0.2-0.2,0.3-0.1c0.1,0.2,0.2,0.3,0.2,0.5
		c0.1,0.3,0.1,0.7,0.2,1c0,0.2,0.2,0.3,0.3,0.4c0.3,0.3,0.5,0.7,0.6,1.2c0,0.1,0,0.2,0.1,0.2c0.2,0.2,0.3,0.6,0.4,0.9
		c0,0.1,0.1,0.2,0.1,0.2c0.2,0.2,0.3,0.4,0.3,0.7c0.1,0.4,0.3,0.8,0.6,1.1c0.3,0.5,0.7,0.9,0.8,1.5c0,0,0.1,0.1,0.1,0.1
		c0-0.1,0.1-0.1,0-0.2c-0.1-0.3-0.2-0.6-0.3-0.8c-0.3-0.8-0.5-1.5-0.8-2.3c-0.3-1-0.7-1.9-1.1-2.9c-0.3-0.7-0.6-1.4-0.9-2.1
		c-0.1-0.2-0.2-0.5-0.5-0.6c-0.1,0-0.3-0.2-0.3-0.3c-0.3-0.8-0.7-1.5-0.8-2.4c-0.1-0.6-0.3-1.1-0.5-1.7c0-0.1-0.1-0.3-0.1-0.4
		c-0.2-0.4-0.3-0.8-0.5-1.3c-0.2-0.9-0.6-1.8-0.9-2.7c-0.3-1-0.5-2.1-0.8-3.1c-0.3-0.9-0.6-1.9-0.8-2.8c-0.1-0.4-0.2-0.9-0.3-1.4
		c-0.1-0.5-0.3-1-0.4-1.5c-0.1-0.5-0.3-1-0.3-1.5c0-0.2,0-0.4-0.1-0.5c-0.2-0.5-0.2-1.1-0.3-1.6c-0.1-0.6-0.2-1.1-0.2-1.7
		c0-0.7-0.2-1.3-0.4-1.9c-0.1-0.3-0.1-0.6-0.1-1c-0.1-0.4-0.1-0.8-0.2-1.2c-0.1-0.3-0.2-0.7-0.2-1c0-0.7-0.2-1.3-0.3-1.9
		c0-0.2-0.2-0.4,0-0.7c0,0,0-0.1,0-0.2c-0.3-0.4-0.3-0.9-0.4-1.4c-0.1-0.5-0.2-0.9-0.3-1.4c0-0.3-0.1-0.6-0.1-0.8
		c0-0.4,0-0.9-0.1-1.3c-0.1-0.6,0-1.1-0.2-1.7C77,58.4,77,58,77,57.6c0-0.2-0.1-0.5-0.1-0.7c0-0.2,0.1-0.5-0.1-0.7c0,0,0-0.1,0-0.2
		c0-0.5,0-1-0.1-1.5c-0.1-0.7-0.1-1.4-0.3-2.1c-0.1-0.5-0.1-1-0.2-1.5c0-0.5-0.2-1-0.2-1.5c0-0.3,0-0.5-0.1-0.8
		c-0.1-0.6-0.1-1.2-0.2-1.8c-0.1-0.7-0.2-1.3-0.2-2c0-0.4,0-0.8-0.2-1.2c0,0,0-0.1,0-0.2c-0.1-1.1-0.1-2.2-0.1-3.3
		c0-0.1,0-0.3,0-0.4C75.1,40,75,40.1,75,40.3c-0.1,0.4-0.3,0.7-0.4,1.1c-0.1,0.2-0.2,0.4-0.3,0.7c-0.3,0.7-0.6,1.3-0.9,2
		c-0.3,0.8-0.8,1.5-1.3,2.2c-0.3,0.3-0.7,0.6-1.2,0.5c-0.1,0-0.1-0.1-0.2-0.1c0,0,0.1-0.1,0.1-0.1c0.3-0.2,0.4-0.5,0.5-0.9
		c0.2-0.5,0.5-1,0.8-1.5c0.2-0.3,0.3-0.6,0.4-1c0.1-0.4,0.3-0.7,0.4-1.1c0.3-0.7,0.6-1.5,0.8-2.2c0.2-0.7,0.5-1.5,0.7-2.2
		c0.1-0.6,0.3-1.2,0.4-1.7c0.1-0.2,0.1-0.5,0.1-0.7c0-0.4,0-0.7,0.2-1.1c0.1-0.2,0.1-0.5,0.1-0.7c0-0.6,0.1-1.1,0.1-1.7
		c0-0.2,0.1-0.4,0.1-0.5c-0.1-0.4,0-0.8,0-1.2c0-0.4,0-0.9,0-1.3c0-0.4,0.1-0.9,0-1.3c-0.1-0.4,0-0.8-0.1-1.2c-0.1-0.5,0-1-0.1-1.5
		c-0.1-0.7-0.2-1.3-0.3-2c-0.1-0.4-0.1-0.8-0.2-1.2c-0.1-0.3-0.2-0.5-0.3-0.8c-0.2-0.5-0.3-1.1-0.5-1.6c-0.1-0.3-0.3-0.6-0.4-0.8
		c-0.1-0.1-0.2-0.2-0.4-0.1c-0.3,0.3-0.7,0.2-1.1,0c-0.2-0.1-0.4-0.1-0.5,0.1c-0.4,0.5-0.8,0.9-1,1.5c-0.1,0.2-0.2,0.4-0.4,0.6
		c0,0.1-0.1,0.1-0.1,0.2c-0.3,0.9-0.8,1.7-1,2.6c-0.1,0.2-0.2,0.5-0.3,0.7c-0.2,0.3-0.1,0.7-0.2,1c-0.1,0.5-0.2,1-0.3,1.4
		c0,0.3-0.1,0.6-0.1,0.8c-0.1,0.6-0.1,1.1-0.3,1.7c-0.2,1-0.6,2-1,3.1c-0.1,0.3-0.3,0.7-0.4,1c-0.2,0.3-0.2,0.6-0.3,0.9
		c-0.1,0.6,0,1.2-0.2,1.7c0,0.1,0,0.2,0,0.3c0,0.8,0.1,1.5-0.1,2.3c0,0.2,0.1,0.5,0.1,0.7c0,0.5,0,1.1,0,1.6c0.1,0.8,0,1.7,0.1,2.5
		c0,0.6,0.1,1.2,0.2,1.7c0,0.3,0,0.6,0.1,0.9c0.1,0.4,0,0.8,0.2,1.2c0.1,0.3,0.1,0.6,0.1,0.9c0,0.6,0.2,1.1,0.3,1.7
		c0.1,0.4,0.2,0.7,0.3,1.1c0,0.2,0.1,0.3,0.2,0.5c0.2,0.4,0.2,0.8,0.4,1.1c0.1,0.1,0.1,0.2,0,0.3c0,0-0.1,0-0.2-0.1
		c-0.2-0.3-0.5-0.6-0.7-0.9c-0.3-0.4-0.5-0.9-0.6-1.4c-0.1-0.3-0.3-0.5-0.4-0.8c-0.1-0.3-0.2-0.6-0.2-0.9c-0.1-0.6-0.2-1.2-0.4-1.9
		c-0.1-0.3-0.1-0.6-0.1-0.9c-0.1-0.7-0.1-1.4-0.2-2.1c-0.1-0.4,0-0.8-0.1-1.2C64.9,40,65,38,65,36.1c0,0,0-0.1,0-0.1
		c0-0.1,0-0.1-0.1-0.2c0,0-0.1,0.1-0.1,0.1c-0.1,0.3-0.2,0.5-0.4,0.8c-0.3,0.5-0.6,1-0.9,1.5c-0.3,0.4-0.5,0.9-0.8,1.3
		c-0.3,0.4-0.5,0.8-0.8,1.2c-0.4,0.5-0.7,1.1-1.1,1.6c-0.1,0.1-0.2,0.3-0.3,0.4c-0.7,0.7-1.3,1.4-2.2,1.9c-0.6,0.4-1.2,0.8-1.9,1.1
		c-0.3,0.1-0.7,0.2-1,0.3c-0.1,0-0.2-0.1-0.3-0.1c0-0.1,0.1-0.2,0.1-0.2c0.3-0.2,0.6-0.4,1-0.6c0.1-0.1,0.3-0.2,0.4-0.3
		c0,0,0-0.2,0-0.3c-0.1-0.2-0.3-0.4-0.5-0.6c-0.3-0.4-0.5-0.9-0.6-1.4c-0.3-1.3-0.2-2.5-0.2-3.8c0-0.5,0-1,0.1-1.5
		c0.1-0.7,0-1.4,0.3-2c0-0.6,0.3-1.2,0.4-1.8c0.2-1,0.6-2,0.8-3c0.2-0.7,0.6-1.3,0.9-1.9c0-0.1,0.1-0.1,0.1-0.2c0,0,0-0.1,0-0.1
		c0,0-0.1,0-0.1,0c-0.2,0.2-0.4,0.4-0.5,0.7c-0.2,0.5-0.6,0.8-0.9,1.2c-0.5,0.7-1.1,1.3-1.6,1.9c-0.4,0.4-0.7,0.9-1,1.4
		c-0.2,0.2-0.3,0.4-0.5,0.6c-0.3,0.3-0.6,0.6-0.9,1c-0.2,0.2-0.4,0.2-0.7,0.2c-0.3,0-0.5-0.1-0.6-0.3c-0.3-0.4-0.4-0.8-0.1-1.3
		c0.3-0.6,0.5-1.2,0.7-1.8c0.1-0.3,0.2-0.6,0.3-1c0,0,0-0.1,0-0.2c0,0-0.1,0.1-0.1,0.1c-0.3,0.4-0.6,0.7-0.9,1.1
		c-0.2,0.2-0.4,0.3-0.6,0.5c-0.2,0.1-0.3,0.3-0.5,0.5c-0.6,0.6-1.2,1.3-1.9,1.7c-0.4,0.2-0.7,0.4-1.1,0.6c-0.4,0.2-0.9,0.1-1.3-0.2
		c-0.4-0.3-0.4-0.5-0.2-1c0.3-0.6,0.5-1.2,0.9-1.8c0.2-0.3,0.3-0.7,0.5-1c0.3-0.6,0.7-1.2,1-1.9c0.2-0.5,0.5-0.9,0.8-1.4
		c0.4-0.6,0.7-1.3,1-1.9c0.4-0.8,0.9-1.5,1.3-2.3c0.2-0.4,0.5-0.7,0.8-1.1c0.5-0.7,1-1.4,1.6-2c1-1,1.9-2,2.9-3
		c0.5-0.5,0.9-0.9,1.4-1.3c0.9-0.8,1.9-1.6,3-2.2c0.5-0.3,0.9-0.4,1.5-0.4c0.3,0,0.7-0.1,1-0.2c0,0,0.1-0.1,0.1-0.1
		c0,0-0.1-0.1-0.1-0.1c-0.1,0-0.1,0-0.2,0c-0.4,0.1-0.7,0-0.9-0.4c-0.2-0.3-0.3-0.7-0.1-1c0.1-0.1,0-0.3-0.1-0.4
		c0-0.1,0-0.2-0.1-0.3c0-0.1,0-0.3,0.1-0.3c0.1,0,0.3-0.1,0.4,0.1c0.2,0.2,0.5,0.4,0.6,0.7c0.1,0.2,0.3,0.3,0.5,0.3
		c0.2,0,0.4,0.1,0.5,0.2c0.1,0.1,0.1,0.2,0,0.3c0,0-0.1,0.1-0.1,0.1c-0.3,0.2-0.3,0.2-0.3,0.3c0,0.2,0,0.4,0.2,0.5
		c0.1,0.1,0.1,0.1,0,0.2c-0.4,0.5-0.6,1.1-0.6,1.8c0,0.2-0.1,0.2-0.2,0.2c-0.3-0.1-0.4-0.5-0.2-0.8c0,0,0.1-0.1,0-0.1
		c0,0-0.1-0.1-0.2-0.1c-0.1,0-0.3,0.1-0.4,0.2c-0.4,0.3-0.9,0.5-1.4,0.8c-0.3,0.1-0.5,0.3-0.7,0.5c-0.5,0.4-1,0.8-1.4,1.2
		c-0.4,0.3-0.8,0.6-1.2,0.9c0,0-0.1,0.1-0.1,0.1c-0.5,0.4-1,0.9-1.4,1.3c-0.4,0.3-0.7,0.7-1.1,1c-0.6,0.6-1.1,1.2-1.6,1.8
		c-0.4,0.6-0.8,1.1-1.3,1.6c-0.2,0.3-0.4,0.6-0.6,0.9c-0.3,0.4-0.5,0.8-0.8,1.2c-0.3,0.5-0.7,1-0.9,1.6c-0.2,0.5-0.5,0.9-0.8,1.3
		c-0.4,0.7-0.7,1.4-1.1,2.1c-0.4,0.7-0.7,1.5-1.1,2.2c-0.1,0.3-0.2,0.6-0.4,0.9c0,0.1-0.1,0.1-0.1,0.2c-0.1,0-0.2,0-0.2,0.1
		c0.1,0,0.2,0.1,0.3,0c0.2-0.1,0.4-0.2,0.5-0.3c0.4-0.3,0.9-0.6,1.2-1c0.7-0.7,1.4-1.4,2-2.2c0.7-0.8,1.4-1.7,2.1-2.6
		c0.7-0.8,1.3-1.7,2-2.5c0.4-0.4,0.7-0.8,0.9-1.4c0.1-0.3,0.4-0.6,0.7-0.9c0.3-0.3,0.6-0.6,0.9-0.9c0.1-0.1,0.2-0.3,0.4-0.5
		c0.3-0.3,0.5-0.7,0.8-1c0.3-0.4,0.8-0.5,1.2-0.7c0.3-0.2,0.7-0.4,0.9-0.6c0.7-0.6,1.4-1.1,2-1.8c0.1-0.2,0.3-0.3,0.4-0.5
		c0.1-0.1,0.3-0.3,0.5-0.3c0.2,0,0.4-0.1,0.5-0.3c0.1-0.3,0.3-0.5,0.5-0.7c0.2-0.1,0.1-0.3,0-0.4C64,15.7,64,15.5,64,15.3
		c0-0.3,0.1-0.4,0.4-0.5c0.1,0,0.2,0,0.3,0c0.2-0.2,0.4-0.2,0.6,0c0.2,0.1,0.3,0.1,0.3-0.2c0-0.1,0.1-0.2,0.1-0.2
		c0.1-0.1,0.2-0.1,0.2,0c0.1,0.2,0.3,0.4,0.4,0.6c0,0.1,0.1,0.2,0.1,0.2c-0.2,0.2-0.2,0.4,0,0.6c0,0,0,0.1,0,0.2
		c-0.3,0.1-0.5,0.4-0.9,0.3c-0.3-0.1-0.3-0.1-0.5,0.2c-0.2,0.3-0.3,0.6-0.3,1c0,0.1-0.1,0.3-0.2,0.4c0,0,0,0.1,0,0.1
		c0,0,0.1,0,0.1,0c0.2-0.4,0.6-0.6,0.9-0.8c0.3-0.2,0.7-0.4,1-0.5c0.1-0.1,0.3,0,0.5,0c0,0,0.1,0,0.1,0c0,0,0-0.1-0.1-0.1
		c-0.2-0.2-0.3-0.4-0.4-0.7c-0.1-0.3,0-0.4,0.3-0.5c0.2-0.1,0.4-0.1,0.5-0.2c0.1,0,0.2,0,0.2,0c0.2,0.2,0.3,0,0.3-0.1
		c0.1-0.3,0.3-0.4,0.5-0.4c0.3,0,0.4,0,0.5,0.3c0,0,0.1,0.1,0,0.1C68.9,15.4,69,15.7,69,16c0,0.3-0.1,0.4-0.3,0.5
		c-0.4,0-0.6-0.1-0.6-0.4c0-0.1,0-0.1,0-0.2c0-0.1-0.1-0.1-0.1-0.2c-0.1,0-0.1,0.1-0.2,0.1c0,0.1-0.1,0.2-0.1,0.4
		c0,0.3-0.2,0.4-0.4,0.4c0,0-0.1,0-0.1,0c0,0,0,0,0.1,0c0.5,0,0.8,0.4,1.3,0.5c0.4,0.1,0.9,1,0.7,1.5c0,0,0,0.1,0,0.2
		c0,0,0.1,0,0.1-0.1c0.1-0.1,0.2-0.3,0.3-0.5c0.3-0.4,0.5-0.9,1-1.1c0.1,0,0.1-0.1,0.2-0.2c-0.1-0.1-0.2-0.2-0.4-0.3
		c-0.1,0-0.2,0-0.3,0c-0.4,0-0.7-0.2-0.8-0.6c-0.1-0.2-0.1-0.4-0.1-0.6c-0.1-0.4,0-0.5,0.4-0.6c0.2-0.1,0.4-0.1,0.5,0.1
		c0.2,0.2,0.3,0.1,0.5,0c0.3-0.3,0.4-0.2,0.7,0.1c0.1,0.1,0.2,0.3,0.4,0.1c0.2-0.2,0.4-0.2,0.5,0.2c0.1,0.2,0.3,0.4,0.3,0.7
		c0,0.2,0.2,0.3,0.4,0.4c0.2,0.1,0.4,0.3,0.5,0.5c0,0,0.1,0.1,0.1,0.1c0,0,0.1-0.1,0.1-0.1c0-0.1,0-0.2-0.1-0.3
		c-0.1-0.1-0.3-0.2-0.4-0.3c-0.1,0-0.1-0.1-0.2-0.2c-0.1-0.1-0.2-0.3-0.3-0.4c-0.2-0.2-0.2-0.4-0.1-0.6c0.2-0.2,0.7-0.4,1-0.2
		c0.1,0,0.1,0.1,0.2,0.1c0.1,0,0.2,0,0.2-0.2c0-0.1,0-0.2,0.1-0.2c0.1-0.1,0.2-0.2,0-0.3c0-0.3-0.1-0.7,0.2-1
		c0.1-0.1,0.3-0.2,0.3-0.4c0,0,0-0.3,0.2-0.2c0.1,0,0.2,0.2,0.3,0.3c0,0,0,0,0,0c0,0.3,0,0.4,0.4,0.4c0,0,0.1,0.1,0.2,0.2
		c0,0.1,0,0.2,0,0.3c0,0.1,0.1,0.2,0.2,0.3c0-0.1,0-0.2,0.1-0.2c0.2-0.3,0.3-0.6,0.7-0.7c0.1,0,0.2-0.1,0.3-0.2
		c0.1-0.1,0.1-0.2,0.2-0.2c0.1-0.1,0.1-0.2,0.3-0.1c0.1,0.1,0.2,0.1,0.1,0.3c-0.1,0.2-0.1,0.4-0.1,0.6c0.1,0.2,0.1,0.4,0.1,0.6
		c0,0.1,0.1,0.1,0.2,0.2c0.2,0,0.3,0.2,0.2,0.3c-0.1,0.2,0,0.2,0,0.3c0,0,0,0,0,0.1c0,0,0.1,0,0-0.1c-0.1-0.2,0.2-0.4,0-0.6
		c-0.2-0.3,0-0.6,0.4-0.7c0.1,0,0.2,0,0.2-0.1c0.2-0.5,0.7-0.4,1.1-0.5c0.5-0.1,0.9-0.3,1.1-0.6c0-0.1,0-0.2,0-0.2
		c-0.1,0-0.1,0-0.2,0c-0.2,0.1-0.4,0-0.6-0.2c-0.1-0.2-0.2-0.3-0.1-0.6c0.1-0.3,0.2-0.5,0.4-0.8c0.3-0.3,0.3-0.7,0.7-1
		c0.3-0.2,0.6-0.4,1.1-0.4c0.2,0,0.5-0.1,0.7-0.1c0.9-0.1,1.8,0.2,2.7,0.4c0.6,0.2,1.3,0.5,1.9,0.7c0.5,0.3,1.1,0.6,1.6,0.9
		c0.7,0.4,1.3,1,2,1.4c0.1,0.1,0.1,0.1,0.2,0.2c0.2,0.2,0.4,0.4,0.6,0.6c0.3,0.3,0.5,0.6,0.8,1c0.3,0.4,0.7,0.9,1,1.3
		c0.4,0.6,0.7,1.1,1,1.7c0.3,0.8,0.7,1.5,1.1,2.2c0.2,0.4,0.3,0.8,0.5,1.3c0.3,0.7,0.5,1.4,0.8,2.1c0.1,0.2,0.1,0.5,0.2,0.7
		c0.1,0.3,0.2,0.6,0.3,0.9c0.1,0.3,0.2,0.7,0.2,1c0.1,0.7,0.2,1.4,0.4,2c0,0,0,0,0,0c0,0.4,0,0.8,0.1,1.2c0.1,0.7-0.1,1.2-0.5,1.8
		c-0.2,0.2-0.3,0.5-0.5,0.7c-0.1,0.1-0.3,0.2-0.4,0.2c-0.3,0-0.5,0-0.8,0c-0.1,0-0.2,0-0.1,0.2c0.4,0.7,0.6,1.5,0.8,2.2
		c0.1,0.2,0.1,0.5,0.1,0.7c0.1,0.3,0,0.5,0,0.8c0,0.3,0,0.6,0,0.9c-0.1,0.5-0.2,1.1-0.6,1.5c-0.2,0.1-0.4,0.2-0.6,0.3
		c-0.3,0.1-0.4,0.1-0.4,0.4c-0.1,0.6-1,1.1-1.6,0.9c-0.8-0.3-1.7-0.6-2.5-1.1c-0.2-0.2-0.5-0.2-0.7-0.3c-0.3-0.2-0.7-0.4-1-0.6
		c-0.4-0.4-0.9-0.7-1.2-1.2c0,0-0.1,0-0.1,0c0,0-0.1,0-0.1,0.1c0,0.1,0,0.2,0,0.4c0,0.3,0,0.5,0,0.8c0,0.1,0,0.1,0,0.2
		c0,0.9-0.1,1.8-0.1,2.7c0,0.5,0,0.9-0.1,1.3c-0.1,0.3-0.3,0.6-0.4,0.9c0,0.1-0.1,0.2,0,0.3c0.1,0.2,0.1,0.4-0.1,0.5
		c-0.2,0.2-0.4,0.2-0.6,0.2c-0.1,0-0.2-0.1-0.2-0.1c-0.2,0-0.4,0-0.5-0.3c0,0-0.1,0-0.1-0.1c0,0,0,0.1,0,0.1c0,0.3,0.3,0.4,0.4,0.4
		c0.2,0,0.3,0.1,0.4,0.3c0.3,0.5,0.6,1,0.9,1.5c0.3,0.5,0.6,1,0.6,1.6c0,0.1,0,0.2-0.1,0.2c-0.2,0.1-0.2-0.1-0.2-0.2
		c-0.1-0.2-0.2-0.3-0.2-0.5c-0.2-0.5-0.5-0.9-0.8-1.3c-0.6-0.8-1.2-1.6-1.8-2.4c-0.6-0.8-1.1-1.5-1.6-2.3c-0.3-0.5-0.6-0.9-0.9-1.4
		c-0.2-0.3-0.4-0.7-0.6-1c-0.5-0.8-1-1.6-1.4-2.4c-0.4-0.8-0.8-1.7-1.2-2.5c-0.3-0.6-0.5-1.2-0.7-1.8c-0.3-0.8-0.6-1.7-0.9-2.5
		c-0.1-0.4-0.2-0.8-0.3-1.2c0-0.4-0.3-0.8-0.3-1.2c0-0.3-0.1-0.6-0.2-1c0,0,0-0.1-0.1-0.1c0,0,0,0.1,0,0.1c0,0.2,0,0.4,0.1,0.6
		c0,0.1,0,0.1,0,0.2c0,0.8,0.1,1.6,0.1,2.5c0,0.4-0.1,0.8-0.1,1.2c0,0.4,0.1,0.7,0.2,1c0.2,0.5,0.4,1.1,0.6,1.7
		c0.1,0.2,0.1,0.5,0.1,0.8c0,0.4-0.1,0.8-0.2,1.1c0,0.1-0.2,0.3-0.2,0.3c-0.2,0-0.2-0.2-0.2-0.4c0-0.4,0-0.8,0.1-1.2
		c0.1-0.4-0.1-0.8-0.2-1.1c0-0.1-0.1-0.1-0.2-0.1c0,0.1-0.1,0.1-0.1,0.2c0,0.4,0,0.8,0,1.2c-0.1,0.5,0.1,1,0.2,1.6
		c0,0.4,0.1,0.8,0.1,1.2c0,0.3,0.1,0.6,0.2,0.8c0,0.1,0.1,0.2,0.1,0.3c0.1,0.7,0.1,1.3,0.2,2c0.1,0.6,0.2,1.2,0.3,1.8
		c0.1,0.3,0.1,0.6,0.1,1c0,0.4,0.2,0.8,0.2,1.2c0.1,0.6,0.3,1.2,0.3,1.8c0,0.4,0.1,0.7,0.2,1.1c0.1,0.3,0.1,0.6,0.2,0.9
		c0,0.4,0.1,0.8,0.2,1.2c0.1,0.4,0.2,0.8,0.3,1.2c0.1,0.6,0.2,1.2,0.3,1.9c0,0.2,0,0.4,0,0.6c0,0.4,0.1,0.8,0.1,1.1
		c0,0.1,0.1,0.2,0.1,0.3c0,0.6,0.1,1.3,0.3,1.9c0.2,0.7,0.2,1.4,0.4,2c0.1,0.5,0,1,0.3,1.4c0,0.4,0.2,0.8,0.2,1.3
		c0,0.1,0.1,0.3,0.1,0.4c0.1,0.5,0.1,0.9,0.2,1.4c0.1,0.5,0.1,1,0.2,1.5c0.1,0.2,0.1,0.4,0.1,0.6c0,0.5,0.2,0.9,0.3,1.3
		c0.1,0.4,0.2,0.8,0.3,1.3c0.2,0.8,0.4,1.6,0.6,2.4c0,0.1,0,0.3,0,0.4c0,0.1,0.2,0.2,0,0.4c0,0,0,0.1,0,0.1c0.2,0.3,0.2,0.7,0.3,1
		c0.1,0.3,0.1,0.6,0.2,0.9c0.2,0.8,0.3,1.7,0.6,2.6c-0.1,0.4,0.1,0.8,0.2,1.2c0.1,0.5,0.2,1,0.4,1.5c0.1,0.2,0.1,0.4,0.1,0.6
		c0.1,0.3,0.2,0.6,0.3,0.9c0,0.1,0.1,0.2,0.1,0.3c0,0.4,0.2,0.7,0.2,1c0.1,0.4,0.2,0.7,0.2,1.1c0,0.3,0,0.6-0.2,0.8
		c-0.1,0.1-0.1,0.3,0,0.5c0.2,0.8,0.4,1.5,0.6,2.3c0.2,0.5,0.4,1,0.6,1.6c0.2,0.4,0.3,0.8,0.5,1.3c0.1,0.2,0,0.4,0.1,0.5
		c0.3,0.6,0.3,1.3,0.6,1.9c0.2,0.4,0.3,0.8,0.4,1.2c0.1,0.3,0.1,0.6,0.2,0.9c0.1,0.2,0.1,0.5,0.2,0.8c0.1,0.3,0.1,0.7,0,1
		c0,0.1-0.1,0.2-0.2,0.2c-0.5,0.2-0.8,0.1-0.9-0.4c-0.2-0.8-0.4-1.6-0.7-2.4c-0.2-0.7-0.3-1.4-0.6-2.1c-0.2-0.6-0.3-1.2-0.5-1.7
		c-0.3-1-0.5-1.9-0.8-2.9c-0.1-0.4-0.1-0.9-0.3-1.3c-0.1-0.2-0.1-0.4-0.1-0.6c-0.1-0.7-0.2-1.4-0.4-2c-0.1-0.5-0.2-1-0.3-1.5
		c-0.1-0.5-0.2-0.9-0.3-1.4c-0.1-0.4-0.2-0.7-0.3-1.1c0-0.2-0.1-0.4-0.1-0.6c0-0.1-0.1-0.1-0.1-0.2c0-0.5-0.2-1-0.3-1.6
		c-0.1-0.4-0.2-0.8-0.3-1.3c-0.1-0.5-0.2-1.1-0.3-1.6c0-0.2-0.1-0.5-0.1-0.7c-0.1-0.6-0.1-1.2-0.3-1.7c-0.1-0.6-0.2-1.1-0.3-1.7
		c-0.1-0.6-0.3-1.3-0.4-1.9c-0.1-0.6-0.2-1.2-0.3-1.9c-0.1-0.7-0.2-1.4-0.2-2.1c-0.1-0.7-0.2-1.3-0.3-2c-0.1-0.6-0.3-1.1-0.4-1.7
		c-0.1-0.6-0.3-1.2-0.4-1.8c-0.1-0.6-0.2-1.2-0.3-1.9c0-0.4,0-0.8-0.1-1.2c-0.1-0.5,0-1-0.1-1.4c-0.1-0.5-0.1-1.1-0.2-1.6
		c-0.1-0.4-0.1-0.9-0.2-1.3c-0.1-0.5-0.2-1-0.3-1.5c-0.1-0.4-0.1-0.8-0.2-1.1c-0.1-0.5-0.1-1-0.2-1.5c-0.1-0.3-0.1-0.6-0.1-0.8
		c-0.1-0.6-0.2-1.3-0.2-1.9c0-0.6-0.2-1.3-0.3-1.9c-0.1-0.5-0.1-1-0.2-1.6c0-0.2-0.1-0.4-0.1-0.7c0,0-0.1-0.1-0.1-0.1
		c0,0-0.1,0-0.1,0.1c-0.1,0.2-0.1,0.4-0.2,0.7c0,0,0,0.1,0.1,0.1c0.2,0.1,0.3,0.3,0.3,0.5c0,1,0.1,1.9,0.1,2.9c0,0.2-0.1,0.4,0,0.7
		c0,0.2,0,0.5,0,0.7c0,0.6,0,1.3,0.3,1.9c0,0.1,0,0.1,0,0.2c0,0.6,0.1,1.3,0.3,1.9c0.1,0.3,0,0.6,0.1,0.9c0.1,0.3,0.1,0.6,0.2,0.9
		c0.1,0.3,0,0.6,0.1,1c0.1,0.6,0.1,1.1,0.2,1.7c0.1,0.3,0,0.6,0.1,0.9c0.1,0.6,0,1.1,0.3,1.7c0,0,0,0.1,0,0.1c0,0.5,0,0.9,0.1,1.4
		c0.1,0.6,0,1.2,0.2,1.7c0,0.1,0,0.3,0,0.4c0,0.5,0,1,0.2,1.5c0.1,0.5,0.1,1,0.2,1.5c0.1,0.5,0.2,1,0.3,1.5c0,0.2,0,0.5,0.1,0.7
		c0.1,0.7,0.4,1.3,0.4,1.9c0.1,0.8,0.4,1.5,0.5,2.2c0.1,0.3,0,0.6,0.1,0.9c0.2,0.7,0.2,1.4,0.3,2.1c0.1,0.5,0.1,1,0.2,1.5
		c0.1,0.4,0.2,0.8,0.3,1.2c0.1,0.5,0.3,0.9,0.2,1.4c0,0.2,0.1,0.4,0.1,0.5c0.1,1,0.4,2,0.7,2.9c0.1,0.4,0.2,0.9,0.3,1.4
		c0,0.3,0.1,0.5,0.2,0.8c0.1,0.5,0.2,1,0.4,1.6c0,0.2,0.1,0.4,0.2,0.5c0.2,0.4,0.3,0.9,0.5,1.3c0.1,0.3,0.2,0.6,0.2,1
		c0.1,0.6,0.2,1.3,0.5,1.9c0.1,0.2,0.1,0.4,0.2,0.6c0.1,0.4,0.3,0.8,0.4,1.2c0,0.4,0.2,0.7,0.4,1c0.2,0.4,0.3,0.9,0.5,1.3
		c0.2,0.4,0.4,0.9,0.5,1.3c0.1,0.5,0.3,1,0.4,1.5c0,0.3,0.2,0.5,0.3,0.8c0.1,0.4,0.2,0.8,0.3,1.1c0.1,0.2,0.2,0.3,0.3,0.5
		c0.1,0.3,0.2,0.5,0.4,0.8c0,0,0.1,0.1,0.1,0.1c0,0,0.1-0.1,0.1-0.1c0-0.1-0.1-0.3-0.1-0.4c0-0.2,0.1-0.3,0.3-0.2
		c0.3,0.1,0.5,0.2,0.7,0.5c0.1,0.3,0.4,0.6,0.5,1c0,0.1,0.1,0.4,0.4,0.4c0.1,0,0.3,0.2,0.3,0.4c0.1,0.7,0.3,1.4,0.6,2.1
		c0.1,0.2,0.1,0.4,0.2,0.7c0.1,0.2,0.1,0.5,0.2,0.7c0.3,0.5,0.4,1.1,0.7,1.7c0,0.1,0.1,0.1,0.1,0.2c0-0.1,0.1-0.1,0.1-0.2
		c0.1-0.3,0.1-0.6,0.3-0.9c0.2-0.4,0.3-0.9,0.5-1.3c0.2-0.4,0.4-0.8,0.5-1.3c0.2-0.4,0.4-0.8,0.6-1.3c0.4-0.8,0.9-1.6,1.5-2.3
		c0.2-0.3,0.4-0.5,0.6-0.8c0.4-0.4,0.8-0.7,1.3-0.9c0.3-0.1,0.5-0.2,0.8-0.2c0.7-0.1,1.3-0.1,2-0.1c0.7,0.1,1.3,0.3,1.8,0.7
		c0.6,0.5,1.3,0.9,1.9,1.4c0.4,0.3,0.9,0.6,1.3,0.9c0.1,0.1,0.2,0.2,0.2,0.2c0.1,0.2,0.3,0.3,0.4,0.5c0.6,0.5,1.2,1.1,1.8,1.6
		c0.5,0.5,0.9,1,1.2,1.5c0.1,0.1,0.3,0.2,0.4,0.3c0.6,0.2,1.1,0.5,1.7,0.7c0.7,0.2,1.3,0.5,2,0.6c0.3,0,0.5,0.2,0.8,0.2
		c0.4,0.1,0.9,0.2,1.3,0.3c0.4,0.1,0.8,0.1,1.2,0.2c0.6,0.1,1.3,0.1,1.9,0.3c0.1,0.1,0.3,0.1,0.4,0.2c0.1,0,0.1,0.1,0.1,0.2
		c0,0.2-0.3,0.5-0.6,0.5c-0.1,0-0.3-0.1-0.4-0.1c-0.4-0.1-0.7-0.1-1.1-0.2c-0.8-0.1-1.7-0.3-2.5-0.4c-0.9-0.2-1.7-0.4-2.5-0.6
		c-0.5-0.1-1-0.3-1.5-0.5c0,0-0.1,0-0.1,0c0,0,0,0.1,0,0.1c0.3,0.4,0.4,0.9,0.6,1.3c0.2,0.4,0.2,0.8,0.1,1.2c0,0.4-0.2,0.7-0.2,1.1
		c-0.1,0.4-0.2,0.7-0.1,1.1c0,0.2,0,0.5-0.1,0.7c-0.1,0.4-0.1,0.7-0.1,1.1c0,0.9-0.1,1.9-0.1,2.8c0,0.3-0.2,0.4-0.4,0.5
		c-0.2,0.1-0.4,0-0.5-0.1c-0.2-0.1-0.3-0.3-0.4-0.5c-0.2-0.5-0.6-0.9-0.9-1.4c-0.2-0.3-0.5-0.6-0.7-1c-0.2-0.4-0.5-0.8-0.7-1.2
		c-0.2-0.3-0.4-0.6-0.7-0.9c-0.1-0.2-0.3-0.4-0.4-0.5c-0.7-0.8-1.5-1.3-2.3-1.8c-0.6-0.4-1.3-0.7-2-1.1c-0.4-0.2-0.8-0.4-1.3-0.5
		c-0.5-0.2-1,0-1.4,0.1c-0.5,0.1-0.8,0.5-1.3,0.8c-0.5,0.3-0.9,0.9-1.5,1.1c0,0-0.1,0.1-0.1,0.1c-0.7,0.7-1.5,1.3-2.3,1.9
		c-0.1,0.1-0.2,0.2-0.1,0.3c0.3,0.5,0.3,1.1,0.5,1.6c0.1,0.5,0.2,1.1,0.3,1.6c0,0.1,0.1,0.1,0.1,0.2c0.1,0,0.1-0.1,0.2-0.1
		c0.3-0.6,0.8-1.1,1.2-1.5c0.3-0.2,0.5-0.5,0.8-0.7c0.3-0.2,0.6-0.2,0.9-0.1c0.1,0,0.2,0.1,0.1,0.3c-0.1,0.1-0.1,0.3-0.1,0.4
		c0,0.3-0.1,0.4-0.3,0.6c-0.7,0.5-1.2,1.1-1.5,1.9c0,0.1-0.1,0.2-0.2,0.2c-0.3,0.4-0.3,0.8-0.4,1.3c0,0,0,0.1,0,0.1
		c-0.3,0.5-0.3,1-0.5,1.6c-0.1,0.2-0.1,0.4-0.1,0.6c0,0.6-0.1,1.1-0.1,1.7c0,0.3,0,0.5-0.1,0.8c0,0.1,0.1,0.3,0.1,0.4
		c0,0.3,0.1,0.6-0.1,1c-0.1,0.2,0.1,0.4,0,0.6c-0.1,0.5,0,1,0,1.5c0,0.7,0.2,0.7,0.6,0.9c0.1,0,0.2,0.1,0.3,0.2
		c0.3,0.6,0.6,1.1,0.9,1.7c0.2,0.5,0.4,1,0.7,1.5c0.1,0.3,0.2,0.3,0.4,0.1c0.2-0.2,0.5-0.3,0.5-0.6c0.1-0.5,0.3-1,0.3-1.5
		c0-0.9,0.1-1.7,0.1-2.6c0-0.3,0.1-0.6,0-1c0-0.2,0-0.4,0-0.7c0-0.2,0-0.4,0-0.6c0-0.2,0-0.4,0.1-0.5c0-0.2-0.1-0.3,0-0.5
		c0-0.1,0-0.2,0-0.3c-0.1-0.2,0-0.4,0-0.7c0-1.1,0.1-2.3,0.1-3.4c0-0.5,0.1-1.1,0.2-1.6c0.1-0.3,0.1-0.6,0.3-0.9
		c0.2-0.3,0.4-0.5,0.6-0.8c0.1-0.1,0.3-0.1,0.4-0.2c0.1,0,0.3,0,0.4,0c0.3-0.1,0.4,0.1,0.5,0.3c0,0.2-0.1,0.3,0,0.5
		c0.1,0.2,0,0.3,0,0.5c0,0.4-0.1,0.4-0.4,0.3c-0.1,0-0.2,0-0.2,0.1c-0.1,0.6-0.4,1.3-0.3,1.9c0,0.1-0.1,0.2-0.1,0.4
		c0,0.1,0,0.2,0.1,0.1c0.2-0.2,0.3,0,0.3,0.2c0,0.3,0,0.6-0.1,0.9c-0.2,0.5-0.2,1.1-0.3,1.7c-0.1,0.4,0,0.8-0.1,1.2
		c-0.2,1.3,0,2.6-0.1,4c0,0.2,0.1,0.4,0.1,0.6c0,0.2,0,0.3,0,0.4c0,0.1,0.1,0.3,0,0.4c-0.2,0.5-0.2,1.1-0.4,1.7
		c-0.1,0.3-0.3,0.5-0.6,0.7c-0.3,0.2-0.4,0.4-0.4,0.7c0,0.7,0,1.5,0,2.2c0,0.4-0.1,0.7-0.3,1c-0.2,0.3-0.4,0.6-0.9,0.6
		c-0.3,0-0.6-0.2-0.7-0.5c-0.2-0.5-0.3-0.9-0.4-1.4c-0.2-0.8-0.5-1.6-0.8-2.4c-0.2-0.4-0.3-0.9-0.5-1.3c-0.2-0.4-0.4-0.8-0.7-1.2
		c-0.1-0.1-0.2-0.1-0.4-0.2c-0.2,0-0.4,0-0.5,0c-0.2,0-0.3-0.1-0.3-0.3c0-0.1-0.1-0.2-0.1-0.4c0-0.7-0.2-1.4-0.1-2.1
		c0-0.3,0-0.6,0-0.9c0-0.8,0-1.6,0.1-2.5c0.1-0.6,0-1.2,0.2-1.7c0-0.1-0.1-0.1-0.2-0.1c-0.2,0-0.3,0-0.5-0.2c-0.2-0.2-0.1-0.3,0-0.4
		c0.2-0.2,0.2-0.5,0.4-0.7c0.1-0.1,0-0.1,0-0.2c0,0-0.1,0-0.1,0c-0.3,0.3-0.7,0.4-1.1,0.6c-0.2,0.1-0.4,0.1-0.6,0.1
		c-0.3,0-0.7,0.1-1,0.1c-0.1,0-0.2,0-0.2,0.2c0,0.4,0.1,0.7-0.1,1.1c0.2,0.3-0.1,0.6,0,1c0,0.4,0,0.7,0,1.1c0,0.4,0,0.7,0,1.1
		c0,0.2-0.1,0.4-0.1,0.5c0,0.1-0.1,0.1-0.1,0.2c0,0.4,0,0.8-0.1,1.1c-0.1,0.4-0.2,0.7-0.3,1.1c-0.1,0.3-0.2,0.7-0.2,1
		c0,0.4-0.2,0.8-0.2,1.2c-0.1,0.7-0.3,1.3-0.5,1.9c0,0.2-0.1,0.3-0.2,0.5c-0.1,0.4-0.2,0.8-0.4,1.2c0,0.1,0,0.1,0,0.2
		c-0.2,0.5-0.5,1.1-0.7,1.6c-0.1,0.3-0.2,0.7-0.4,1.1c-0.1,0.2-0.1,0.3-0.2,0.5c-0.2,0.4-0.5,0.8-0.7,1.3c-0.2,0.3-0.3,0.7-0.4,1.1
		c-0.1,0.2-0.1,0.3-0.2,0.5c0,0.3-0.1,0.5-0.1,0.8c0,0.3-0.1,0.5-0.4,0.7c-0.1,0.1-0.2,0.2-0.3,0.2c-0.1,0-0.2,0.1-0.2,0.1
		c-0.6-0.1-1-0.4-1.4-0.8c-0.2-0.3-0.4-0.6-0.6-1c-0.2-0.5-0.6-1.1-0.7-1.6c-0.1-0.4-0.2-0.8-0.2-1.2c-0.1-0.4-0.2-0.9-0.2-1.3
		c0-0.5,0.1-0.9,0.2-1.4c0.1-0.7,0.4-1.3,0.4-1.9c0-0.4,0.2-0.7,0.3-1.1c0-0.2,0.1-0.3,0.1-0.5c0-0.5,0.2-0.9,0.2-1.3
		c0-0.4,0.2-0.9,0.3-1.3c0.1-0.4,0.2-0.8,0.3-1.2c0.1-0.4,0.1-0.8,0.3-1.2c0.2-0.4,0.2-0.8,0.3-1.2c0.2-0.6,0.3-1.3,0.7-1.9
		c0.1-0.1,0.1-0.2,0.1-0.3c0,0,0-0.1-0.1-0.1c-0.2-0.1-0.4-0.2-0.6-0.4c-0.1-0.1-0.3-0.3-0.4-0.5c-0.1-0.2-0.2-0.4-0.3-0.6
		c-0.2-0.3-0.2-0.6,0.1-0.9c0.3-0.3,0.7-0.5,1.2-0.7c0.3-0.1,0.7-0.2,1-0.5c0.2-0.2,0.8-0.2,1.1-0.1c0.1,0,0.2,0.1,0.2,0.2
		c0.1,0.1,0.3,0.1,0.4,0c0.3-0.4,0.8-0.5,1.2-0.7c0,0,0.1,0,0.1-0.1c0,0-0.1-0.1-0.1-0.1c-0.1,0-0.2-0.1-0.2-0.1
		c-0.1-0.1-0.3-0.1-0.4-0.2c-0.2-0.3-0.5-0.4-0.5-0.8c0-0.1-0.1-0.2-0.2-0.3c-0.1-0.2-0.1-0.4-0.1-0.5c0-0.1,0.3-0.2,0.5-0.1
		c0.2,0.1,0.4,0.2,0.6,0.4c0.3,0.3,0.6,0.4,1,0.4c0.3,0,0.6,0.2,0.8,0.4c0.2,0.2,0.1,0.4,0.1,0.6c0,0-0.1,0.1-0.1,0.1
		c0,0,0,0.1,0,0.1c0,0,0.1,0,0.1,0c0.3-0.3,0.5-0.6,0.5-1c0-0.2,0-0.4,0-0.6c0-0.2-0.1-0.4-0.3-0.4c-0.4-0.2-0.6-0.4-0.9-0.7
		c-0.4-0.3-0.7-0.7-0.9-1.2c-0.1-0.2-0.3-0.5-0.4-0.7c-0.1-0.2-0.1-0.3,0.1-0.4c0.1-0.1,0.3,0,0.4,0.1c0.1,0.2,0.3,0.4,0.4,0.6
		c0,0.1,0.1,0.1,0.2,0.1c0.3,0,0.4,0.2,0.6,0.4c0.3,0.5,0.8,0.8,1.2,1.1c0.1,0.1,0.4,0.2,0.1,0.4c0,0-0.1,0.1,0,0.1
		c0.2,0.4-0.1,0.8,0,1.2c0,0.1,0,0.1,0,0.2c0,0,0.1,0,0.1-0.1c0.2-0.1,0.4-0.2,0.6-0.4c0.1,0,0.2-0.1,0.2-0.2c0-0.1,0-0.3,0-0.4
		c-0.2-0.5-0.5-0.9-0.8-1.3c-0.3-0.4-0.6-0.8-0.9-1.2c-0.3-0.4-0.5-0.8-0.8-1.2c-0.5-0.8-1-1.6-1.4-2.4c-0.1-0.2-0.3-0.5-0.4-0.8
		c0-0.1-0.1-0.1-0.2-0.1c0,0.1,0,0.1,0,0.2c0,0.3,0,0.6-0.1,0.8c-0.2,0.3-0.3,0.6-0.5,1c-0.1,0.2-0.3,0.5-0.4,0.8
		c-0.2,0.3-0.3,0.5-0.5,0.8c-0.4,0.5-0.8,1-1.1,1.5c-0.2,0.2-0.3,0.5-0.5,0.7c-0.4,0.4-0.7,0.9-1.2,1.3c-0.5,0.5-1,0.9-1.5,1.3
		c-0.2,0.2-0.4,0.5-0.6,0.8c0,0.1-0.1,0.1-0.1,0.2c-0.6,0.7-1.3,1.4-1.9,2c-0.3,0.3-0.7,0.6-1.1,0.7c-0.3,0.1-0.5,0.3-0.7,0.4
		c-0.2,0.1-0.4,0.2-0.6,0.2c-0.4,0.1-0.8,0.3-1.1,0.6c-0.1,0.1-0.2,0.3-0.4,0.2c-0.1-0.1-0.1-0.3-0.2-0.4c0-0.2-0.1-0.1-0.1,0
		c-0.3,0.1-0.5,0.3-0.8,0.5c-0.2,0.2-0.5,0.4-0.7,0.7c-0.1,0.1-0.3,0.3-0.4,0.2c-0.3-0.1-0.6-0.2-0.8-0.3c-0.1-0.1,0-0.3,0-0.5
		c0-0.1,0-0.1,0-0.2c-0.1,0-0.2,0-0.2,0.1c-0.1,0-0.1,0.1-0.1,0.2c0,0.6-0.1,1.2-0.1,1.8c0,0.3-0.1,0.5-0.1,0.8
		c0,0.2-0.1,0.4,0.1,0.5c0.1,0.1,0.2,0.3,0,0.4c-0.4,0.3-0.2,0.6-0.1,1c0,0.1,0,0.2,0,0.2c-0.1,0.1-0.1,0.3-0.3,0.3
		c-0.2,0-0.5,0-0.7-0.2c-0.1-0.1-0.3-0.2-0.5,0c-0.3,0.3-0.6,0.5-0.9,0.7c-0.1,0.1-0.3,0.2-0.4,0.3c-0.2,0.1-0.3,0.3-0.5,0.5
		c-0.3,0.4-0.6,0.7-0.9,1.1c-0.4,0.5-0.7,1.1-1,1.6c-0.3,0.4-0.6,0.9-0.8,1.3c-0.2,0.4-0.5,0.7-0.7,1.1c-0.4,0.8-0.9,1.6-1.5,2.3
		c-0.3,0.3-0.4,0.8-0.6,1.2c-0.1,0.3-0.2,0.6-0.4,0.9c-0.3,0.6-0.5,1.2-0.7,1.9c-0.1,0.4-0.3,0.8-0.5,1.2c-0.2,0.3-0.5,0.4-0.7,0.4
		c-0.1,0-0.2,0-0.1-0.2c0.1-0.2,0.1-0.4,0.1-0.6c-0.1-0.4-0.1-0.9,0-1.3c0.1-0.4,0.2-0.8,0.3-1.3c0.2-0.6,0.4-1.2,0.6-1.7
		c0.3-0.7,0.6-1.4,1-2c0.4-0.7,0.8-1.3,1.3-1.9c0.2-0.2,0.3-0.5,0.5-0.8c0.5-0.7,0.9-1.4,1.5-2c0.5-0.5,0.9-0.9,1.4-1.4
		c0.3-0.3,0.7-0.6,1.1-0.8c0.2-0.1,0.2-0.2,0-0.3c-0.2-0.1-0.4-0.2-0.6-0.2c-0.4,0-0.7-0.1-1.1,0.1c0,0-0.1,0-0.1,0
		c-0.8,0-1.5,0.1-2.3,0.1c-0.3,0-0.6,0.1-0.8,0.3c-0.2,0.2-0.5,0.5-0.7,0.7c-0.1,0.1-0.2,0.1-0.3,0.2c-0.2,0.1-0.3,0.2-0.4,0.4
		c0,0.1-0.1,0.2-0.1,0.2c-0.5,0.5-0.9,1.1-1.2,1.7c-0.2,0.3-0.4,0.5-0.5,0.8c-0.1,0.2-0.2,0.4-0.3,0.7c-0.4,0.9-0.9,1.8-1.2,2.7
		c-0.2,0.5-0.2,1.1-0.4,1.6c-0.2,0.9-0.1,1.8-0.2,2.6c0,0.5,0,1-0.3,1.5c0,0,0,0.1-0.1,0.1c-0.1,0-0.1-0.1-0.2-0.1c0,0,0-0.1,0-0.2
		c0-0.4-0.1-0.8-0.2-1.2c-0.1-0.2-0.1-0.5-0.1-0.7c-0.1-0.7-0.2-1.4-0.1-2.1c0.1-1.4,0.6-2.7,1.3-3.9c0.2-0.3,0.4-0.7,0.5-1.1
		c0.2-0.4,0.3-0.7,0.6-1c0.1-0.1,0.1-0.1,0.1-0.2c0-0.1,0-0.1,0-0.2c-0.1,0-0.1,0-0.2,0c-0.4,0.2-0.8,0.3-1.2,0.5
		c-0.7,0.3-1.4,0.7-2.1,0.9c-0.2,0-0.3,0.2-0.4,0.2c-0.6,0.4-1.3,0.8-1.9,1.1c-0.1,0.1-0.4,0.1-0.5,0c-0.3-0.1-0.6-0.1-0.8-0.5
		c0-0.1-0.2-0.1-0.3-0.1c-0.3-0.1-0.4-0.4-0.5-0.6c-0.3-0.6-0.2-1.3-0.2-1.9c0-0.3,0.3-0.6,0.5-0.8c0.3-0.3,0.7-0.5,1.1-0.8
		c0.5-0.4,1.1-0.7,1.7-0.9c0.5-0.1,0.9-0.3,1.4-0.4c0.4-0.1,0.9-0.2,1.3-0.2c0.7-0.1,1.4-0.2,2-0.3c0.4,0,0.8,0,1.2,0
		c0.4,0,0.7,0,1.1-0.2c0.2-0.1,0.4,0,0.6,0c0.4,0,0.8-0.1,1.1-0.3c0.5-0.4,1.2-0.6,1.8-0.7c0.4-0.1,0.7-0.2,1.1-0.2
		c0.6,0,1.2,0,1.8,0c0.2,0,0.3-0.1,0.3-0.3c0,0,0,0,0,0c0-2.1,0.1-4.1,0.1-6.2c0-0.2,0-0.4,0-0.6c0-0.2-0.1-0.4-0.1-0.6
		c0-0.5,0.1-1,0.1-1.5c-0.1-0.9,0-1.7-0.1-2.6c0-0.5,0-0.9-0.1-1.4c0-0.3-0.1-0.7-0.2-1c0-0.3,0-0.6-0.1-0.9
		c-0.1-0.7-0.2-1.4-0.3-2.1c-0.1-0.6-0.2-1.2-0.3-1.8c0-0.3-0.1-0.6-0.2-0.9c-0.1-0.3-0.1-0.6-0.2-0.8c-0.1-0.4-0.2-0.9-0.3-1.3
		c-0.1-0.4-0.1-0.9-0.2-1.4c-0.1-0.5-0.2-1.1-0.4-1.6c-0.4-0.9-0.6-1.9-0.9-2.9c-0.1-0.5-0.3-1-0.5-1.5c-0.1-0.5-0.2-1-0.3-1.4
		c-0.1-0.5-0.2-1-0.3-1.5c-0.1-0.3-0.1-0.6-0.1-0.9c0-0.3,0-0.5,0.2-0.6c0.2-0.1,0.2-0.3,0.1-0.5c-0.3-0.7-0.6-1.3-1.1-1.8
		c0,0-0.1-0.1-0.2-0.1c0,0.1-0.1,0.1,0,0.2c0.2,0.4,0.1,0.9,0.3,1.3c0,0.1,0,0.2,0,0.3c0,0.6,0.1,1.2,0.2,1.7
		c0.1,0.6,0.2,1.2,0.4,1.7c0,0.2,0.1,0.5,0.1,0.7c0,0.5,0.1,1.1,0.3,1.6c0,0,0,0.1,0,0.1c0,0.8,0,1.6,0.1,2.4c0.1,0.4,0,0.8-0.1,1.2
		c0,0.3,0.1,0.6-0.1,0.8c0,0,0,0.1,0,0.1c0.2,0.5-0.1,1-0.1,1.5c0,0.4-0.6,0.9-1,0.8c-0.3,0-0.5-0.1-0.7-0.3
		c-0.1-0.1-0.3-0.2-0.5-0.3c-0.1-0.1-0.3-0.2-0.4-0.3c-0.5-0.5-0.8-1-1.2-1.6c-0.4-0.7-0.7-1.4-1-2.2c-0.1-0.4-0.2-0.8-0.3-1.2
		c-0.1-0.6-0.2-1.1-0.3-1.7c0-0.5-0.2-0.9-0.2-1.4c0-0.1,0-0.1,0-0.2c0-0.6-0.1-1.2-0.3-1.8c0,0,0-0.1,0-0.1c0-0.5-0.1-1.1-0.1-1.6
		c0-0.3,0-0.7,0-1c0-0.3,0.1-0.5-0.1-0.8c0.2-0.6,0-1.3,0.2-2c0.2-0.8,0.3-1.6,0.5-2.4c0.1-0.3,0.1-0.6,0.2-0.9c0-0.1,0-0.1,0-0.2
		c0,0-0.1,0.1-0.1,0.1c-0.2,0.5-0.6,0.9-0.8,1.4c-0.2,0.4-0.4,0.9-0.5,1.3c-0.1,0.4-0.2,0.8-0.4,1.2c-0.1,0.3-0.1,0.6-0.2,0.9
		c0,0.5-0.2,1-0.2,1.5c0,0.3-0.1,0.6-0.1,0.9c0,0.7-0.1,1.4-0.3,2.1c-0.1,0.2-0.1,0.5-0.1,0.7c-0.1,0.6-0.2,1.2-0.4,1.7
		c-0.2,0.5-0.4,1.1-0.8,1.5c-0.3,0.3-0.7,0.3-1,0.1c-0.2-0.1-0.3-0.3-0.4-0.5c-0.2-0.3-0.4-0.6-0.6-1c-0.3-0.6-0.5-1.3-0.5-2
		c-0.1-1.6,0-3.2-0.1-4.8c0-0.6,0-1.2,0.2-1.8c0,0,0,0,0,0c0-0.1,0-0.2-0.1-0.3c-0.1,0.1-0.1,0.2-0.2,0.2c-0.2,0.3-0.3,0.7-0.6,1
		c-0.2,0.3-0.4,0.7-0.5,1.1c-0.2,0.4-0.3,0.5-0.7,0.6c-0.4,0.1-1-0.3-1-0.9c0-0.4,0-0.9-0.2-1.3c0-0.1,0-0.2,0-0.2
		c0-0.1,0.1-0.2,0.1-0.2c-0.2-0.2,0-0.4,0-0.7c0-0.2,0-0.5,0.1-0.7c0-0.3,0.1-0.5,0.2-0.8c0.2-0.7,0.4-1.3,0.6-2
		c0.1-0.5,0.4-0.8,0.7-1.2c0.5-0.7,1.1-1.3,1.7-1.9c0.5-0.5,1.1-0.9,1.8-1c0,0,0.1,0,0.1,0c0.2-0.2,0.4-0.2,0.7-0.1
		c0.1,0,0.2,0,0.2-0.1c0.1-0.1,0.1-0.3,0.1-0.3c-0.4-0.4-0.2-0.9-0.2-1.4c0-0.1,0-0.2,0-0.3c-0.1-0.3,0.1-0.6,0.3-0.9
		c0-0.1,0.1-0.1,0.1-0.2c0-0.3,0.1-0.6,0.1-1c0-0.3,0.1-0.5,0.3-0.8c0.3-0.4,0.5-0.8,0.8-1.3c0,0,0-0.1,0-0.1
		c0.2-0.4,1.3-0.8,1.7-0.6c0.1,0,0.2,0,0.3,0.1c0.2,0.2,0.5,0.2,0.8,0c0,0,0,0,0.1,0c0.6,0.1,0.7-0.5,0.9-0.8
		c0.2-0.3,0.3-0.4,0.6-0.4c0.3,0,0.5,0,0.6,0.3c0,0.1,0.2,0.2,0.3,0.2c0.4,0,0.5,0.2,0.6,0.6c0.1,0.3-0.1,0.5-0.4,0.5
		c-0.2,0-0.4,0-0.6-0.2c0-0.1-0.1-0.1-0.2-0.1c-0.1,0-0.3,0-0.2,0.2c0,0.3,0,0.6-0.3,0.8c-0.2,0.1-0.3,0.3-0.5,0.1
		c-0.1-0.1-0.4-0.1-0.5,0.2c-0.1,0.3-0.3,0.3-0.5,0.3c-0.6,0-0.7,0-0.9-0.6c-0.1-0.2-0.3-0.2-0.5-0.3c-0.2-0.1-0.4,0-0.5,0.2
		c-0.1,0.2-0.2,0.4-0.3,0.6c-0.1,0.2-0.1,0.4-0.3,0.4c-0.1,0-0.1,0.2-0.1,0.3c0,0.5-0.1,1-0.1,1.5c0,0.2-0.2,0.2-0.3,0.2
		c-0.2,0-0.3,0.2-0.3,0.3c0,0.4,0,0.8,0,1.2c0,0.1,0,0.1,0,0.2c0.1,0.2,0.1,0.4,0.1,0.7c0,0.6-0.1,1.2,0.1,1.7
		c0.1,0.2,0.1,0.4,0.1,0.6c0,0.1,0.1,0.1,0.1,0.2c0,0,0.1,0,0.1,0c0,0,0-0.1,0-0.1c-0.2-0.2,0-0.3,0.1-0.4c0.1-0.1,0.1-0.2,0.1-0.3
		c0.1-0.4,0.2-0.5,0.6-0.5c0.5,0,0.8-0.3,1.2-0.6c0.4-0.3,0.7-0.3,1,0c0.1,0.2,0.3,0.3,0.4,0.5c0.1,0.1,0.1,0.1,0.2,0.1
		c0-0.1,0.1-0.2,0.1-0.2c0-0.1,0-0.1,0-0.2c0-0.3,0.1-0.4,0.4-0.5c0.4-0.1,0.4-0.1,0.7,0.1c0.2,0.1,0.3,0.1,0.5,0
		c0.2-0.1,0.3-0.4,0.6-0.2c0.4,0.3,0.6,0.5,0.4,0.8c-0.2,0.4,0.1,0.7,0.1,1c0,0,0.1,0,0.1,0c0,0,0.1-0.1,0.1-0.1
		c0.3-0.2,0.5-0.5,0.2-0.9c-0.1-0.2-0.1-0.5-0.2-0.7c-0.2-0.3,0-0.4,0.2-0.5c0.2-0.2,0.5-0.2,0.7-0.1c0.1,0.1,0.2,0.2,0.3,0.1
		c0.2-0.1,0.1-0.3,0.1-0.4c0-0.1,0-0.2,0-0.3c0-0.2,0.1-0.3,0.2-0.3c0.2-0.1,0.4-0.2,0.6-0.2c0.3,0,0.5,0.1,0.6,0.4
		c0,0.1,0,0.2,0.1,0.1c0.1,0,0.2-0.1,0.2-0.2c0-0.1,0.1-0.3-0.1-0.4c-0.2-0.1-0.2-0.3-0.3-0.5C65,70.1,65,70,65.3,69.9
		c0.5-0.2,0.7-0.1,1,0.3c0.2,0.2,0.2,0.4,0,0.6c0,0-0.1,0.1-0.1,0.1c0.1,0,0.1,0,0.2,0c0.1,0,0.2-0.1,0.2-0.1c0.1,0,0.2-0.1,0.2-0.1
		l1,0c0.3,0.1,0.6,0.2,0.9,0.3c0.3,0.1,0.6,0.3,0.9,0.5c0.1,0.1,0.4,0.2,0.5,0.3c0.8,0.4,1.5,1,2.2,1.5c0.4,0.3,0.8,0.6,1,1.1
		c0.1,0.3,0.3,0.6,0.2,0.9c0,0.4-0.3,0.7-0.7,0.7c-0.4,0-0.7,0-1.1-0.1c-0.2-0.1-0.4-0.2-0.5-0.4c-0.1-0.1-0.1-0.2,0.1-0.2
		c0.1,0,0.3-0.1,0.4-0.1c0.4,0,0.5-0.1,0.6-0.5c0.1-0.2-0.1-0.4-0.2-0.5c-0.2-0.2-0.4-0.4-0.7-0.5c-0.5-0.3-0.9-0.6-1.4-0.9
		c-0.7-0.4-1.4-0.8-2.1-1.1c-0.1-0.1-0.3-0.1-0.5,0c-0.3,0.1-0.6,0.2-1,0.3c0,0-0.1,0-0.1,0.1c0,0,0.1,0.1,0.1,0.1
		c0.1,0,0.2,0,0.3,0c0.8,0,1.4,0.4,2,0.8c0.5,0.4,0.8,0.8,1.2,1.3c0.4,0.7,0.9,1.4,1.3,2.1c0.5,0.9,0.8,1.7,1.2,2.6
		c0.2,0.5,0.5,1.1,0.7,1.6c0.3,0.6,0.5,1.3,0.7,2c0.3,1,0.2,2.1,0.2,3.1c0,0.2,0,0.4-0.1,0.6c-0.1,0.2-0.2,0.4-0.5,0.4
		c-0.2,0-0.5,0.1-0.7,0.2c-0.5,0-0.9,0-1.2-0.4c-0.4-0.5-0.8-1-1.1-1.5c-0.1-0.1-0.2-0.3-0.3-0.4c-0.5-0.4-0.9-0.8-1.4-1.2
		c-0.3-0.2-0.5-0.5-0.6-0.8c0,0-0.1-0.1-0.1-0.1c0,0.1,0,0.1,0,0.2c0.1,0.4,0.3,0.8,0.4,1.1c0.3,0.7,0.5,1.4,0.8,2.1
		c0.1,0.3,0.2,0.6,0.3,1c0.1,0.3,0.1,0.5,0.2,0.8c0.2,0.5,0.4,0.9,0.5,1.4c0.1,0.4,0.2,0.8,0.2,1.3c0,0.2,0,0.4,0,0.7
		c-0.1,0.6-0.2,1.2-0.5,1.7c0,0.1-0.1,0.1-0.1,0.2c-0.2,0.1-0.3,0.2-0.2,0.4c0,0.2-0.1,0.5,0.1,0.7c-0.2,0.7,0.2,1.4,0.1,2.1
		c0.2,0.5,0,1.1,0.2,1.6c-0.2,0.3,0,0.6,0,0.9c0,0.9,0,1.8,0.1,2.7c0.1,0.7,0.2,1.4,0.2,2c0,0.5,0.1,1.1,0.2,1.6
		c0.1,0.4,0,0.8,0.1,1.2c0.1,0.6,0.1,1.3,0.2,1.9c0.1,0.3,0,0.7,0.1,1c0.1,0.4,0,0.9,0.2,1.3c0,0.1,0,0.2,0,0.3c0,0.4,0,0.7,0.1,1.1
		c0.1,0.2,0,0.5,0,0.8c0,0.2,0.2,0.4,0,0.7c0,0,0.1,0.1,0.1,0.1c0,0,0.1-0.1,0.1-0.1c0.1-0.4,0.4-0.6,0.8-0.8
		c0.1-0.1,0.2,0.1,0.3,0.2c0.1,0.1,0.1,0.1,0.2,0c0,0,0.1-0.1,0.1-0.1c0.3-0.2,0.6-0.1,0.7,0.2c0.1,0.4,0.2,0.7,0.3,1.1
		c0.1,0.3,0.1,0.7,0.2,1c0,0.1,0.1,0.1,0.2,0.1c0.5-0.3,1.1-0.7,1.7-0.9c0.3-0.1,0.6-0.2,1-0.2c0.7,0,0.7,0,1.3-0.4
		c0.5-0.5,1-1,1.4-1.6c0.3-0.4,0.6-0.7,0.9-1.1c0.5-0.5,1-0.9,1.4-1.4c0.7-0.7,1.4-1.4,2-2.2c0.3-0.4,0.6-0.7,0.8-1.1
		c0.4-0.6,0.7-1.3,0.9-2c0.2-0.6,0.2-0.6,0.1-0.9c0-0.1-0.1-0.1-0.2-0.1c-0.7,0.4-1.5,0.8-2.1,1.3c-0.7,0.6-1.4,1.2-2.1,1.8
		c-0.6,0.5-1.1,1-1.7,1.5c-0.3,0.3-0.7,0.6-1,0.9c-0.3,0.3-0.5,0.6-0.7,0.8c-0.1,0.1-0.2,0.1-0.2,0.2c-0.1,0.1-0.3,0.3-0.4,0.4
		c-0.3,0.3-0.5,0.6-0.8,1c-0.3,0.4-0.7,0.7-1,1.2c-0.1,0.2-0.2,0.4-0.5,0.4c-0.3,0-0.6-0.3-0.5-0.6c0.1-0.3,0.3-0.7,0.6-1
		c0.2-0.3,0.5-0.6,0.7-1c0,0,0-0.1,0.1-0.1c0.3-0.4,0.7-0.8,1.1-1.1c0.4-0.4,0.8-0.8,1.2-1.2c0.5-0.5,1-1,1.5-1.4
		c0.1-0.1,0.3-0.2,0.4-0.3c0.1,0,0.1-0.1,0.2-0.1c0.2-0.2,0.4-0.4,0.6-0.6c0.9-0.9,1.8-1.6,2.9-2.2c0.5-0.3,0.9-0.5,1.4-0.8
		c0.2-0.1,0.3-0.2,0.5-0.3c0.3-0.1,0.5-0.1,0.8,0.1c0,0,0.1,0.1,0.1,0.1c0-0.1,0-0.1,0-0.2c-0.1-0.3-0.2-0.6-0.3-1
		C85.5,100.1,85.4,99.6,85.2,99 M76.8,50.4C76.8,50.4,76.8,50.4,76.8,50.4C76.8,50.4,76.8,50.4,76.8,50.4
		C76.8,50.5,76.8,50.5,76.8,50.4C76.8,50.5,76.8,50.5,76.8,50.4 M87.3,45.8C87.3,45.8,87.3,45.8,87.3,45.8
		C87.3,45.8,87.3,45.8,87.3,45.8c0,0.1,0,0.2,0,0.2c0,0,0,0,0.1,0C87.4,46,87.4,45.9,87.3,45.8 M84.4,80.3
		C84.5,80.3,84.5,80.3,84.4,80.3C84.5,80.3,84.5,80.3,84.4,80.3c-0.1-0.2-0.1-0.2-0.2-0.4c0,0-0.1,0-0.1,0c0,0,0.1,0,0.1,0.1
		C84.3,80.1,84.4,80.2,84.4,80.3 M64.6,33.3C64.7,33.3,64.7,33.3,64.6,33.3c0.3-0.7,0.7-1.3,0.8-2c0-0.4,0.2-0.9,0.2-1.3
		c0.1-0.6,0.2-1.1,0.4-1.6c0.1-0.4,0.2-0.8,0.4-1.3c0.2-0.7,0.5-1.5,0.7-2.2c0.2-0.6,0.4-1.2,0.5-1.8c0.1-0.3,0.1-0.7,0.2-1
		c0.2-0.5,0.3-1,0.3-1.6c0-0.3,0.1-0.6,0.2-0.9c0-0.1,0.1-0.3,0.1-0.4c0-0.3-0.1-0.6-0.2-0.8c-0.1-0.3-0.2-0.5-0.5-0.7
		c-0.1,0-0.2-0.2-0.2-0.2c0-0.3-0.2-0.2-0.3-0.2c-0.2,0-0.4,0.1-0.6,0.2c-0.3,0.2-0.7,0.5-1,0.8c-0.4,0.5-0.8,1-1.2,1.4
		c-0.8,0.9-1.3,1.9-2,2.8c-0.4,0.5-0.6,1.1-1,1.6c-0.5,0.7-0.9,1.5-1.3,2.3c-0.3,0.5-0.6,1-0.8,1.6c-0.3,0.8-0.7,1.6-1,2.4
		c-0.1,0.2-0.1,0.3-0.2,0.5c-0.1,0.2-0.2,0.5-0.3,0.7c-0.4,1.2-0.8,2.4-1,3.6c-0.1,0.4-0.2,0.7-0.2,1.1c0,0.8-0.1,1.6-0.2,2.4
		c-0.1,0.9-0.1,1.8-0.1,2.7c0,0.3,0.1,0.5,0.1,0.8c0,0.2,0,0.5,0.2,0.7c0.1,0.1,0.1,0.3,0.1,0.4c0,0.2,0.1,0.4,0.2,0.6
		c0.1,0.2,0.2,0.2,0.3,0.1c0.2-0.2,0.5-0.3,0.7-0.5c0.4-0.4,0.9-0.9,1.3-1.4c0.5-0.5,0.9-1,1.2-1.6c0.4-0.6,0.8-1.1,1.1-1.7
		c0.1-0.2,0.2-0.4,0.4-0.6c0.4-0.5,0.6-1.1,1-1.7c0.2-0.4,0.4-0.8,0.6-1.2c0.2-0.5,0.5-1,0.7-1.5C64.4,33.8,64.5,33.6,64.6,33.3
		 M95.4,36.1c0-0.6-0.1-1.2-0.3-1.8c-0.1-0.6-0.4-1.3-0.6-1.9c-0.1-0.4-0.3-0.8-0.4-1.2c-0.1-0.3-0.3-0.6-0.6-0.8
		c-0.2-0.1-0.2-0.2,0-0.4c0,0,0.1-0.2,0.1-0.2c-0.2-0.6-0.5-1.1-0.7-1.7c-0.3-0.6-0.6-1.2-0.8-1.8c-0.3-0.6-0.5-1.2-0.8-1.8
		c-0.3-0.6-0.6-1.1-0.9-1.7c-0.4-0.7-0.7-1.4-1.1-2.1c-0.4-0.7-0.8-1.3-1.2-2c-0.4-0.6-0.8-1.1-1.2-1.7c-0.6-0.8-1.1-1.5-1.8-2.2
		c-0.4-0.4-0.8-0.5-1.3-0.6c-0.2,0-0.2,0.1-0.2,0.2c0,0.2,0.1,0.3,0.1,0.5c0,0.1,0,0.1,0,0.2c-0.1,0-0.1,0-0.2-0.1
		c-0.1-0.1-0.2-0.3-0.3-0.4c-0.2-0.4-0.4-0.9-0.5-1.3c-0.1-0.2-0.2-0.3-0.4-0.2c-0.1,0-0.2,0-0.3,0c-0.2,0-0.4-0.2-0.6-0.1
		c-0.2,0-0.2,0.3-0.3,0.5c-0.2,0.3-0.3,0.5-0.6,0.4c-0.2,0-0.3,0.1-0.3,0.3c0,0.2,0,0.3,0,0.5c-0.1,0.4-0.1,0.7-0.2,1.1
		c0,0.2,0.1,0.3,0.3,0.3c0.7,0,1.3,0.3,1.7,0.9c0.2,0.3,0.3,0.8,0.5,1.1c0.1,0.2,0.3,0.5,0.4,0.8C83,19,83,19.1,83,19.3
		c0.1,0.4,0.3,0.8,0.5,1.2c0.2,0.5,0.4,1.1,0.7,1.6c0.2,0.6,0.5,1.3,0.7,1.9c0.3,0.7,0.6,1.5,0.8,2.2c0.2,0.6,0.4,1.1,0.6,1.6
		c0.2,0.6,0.5,1.2,0.5,1.8c0,0,0,0.1,0,0.2c0.2,0.6,0.3,1.2,0.5,1.9c0.1,0.2,0,0.5,0.3,0.5c0,0,0.1,0.2,0.1,0.2c0,0.3,0,0.6,0,0.9
		c0,0.3,0.1,0.6,0.3,0.8c0.5,0.5,1,1,1.5,1.5c0.1,0.1,0.1,0.1,0.2,0.2c0.4,0.5,0.8,0.8,1.3,1.1c0.6,0.3,1.3,0.5,1.8,1
		c0.2,0.2,0.4,0.2,0.6,0.4c0.2,0.1,0.3,0.1,0.4-0.1c0.2-0.4,0.5-0.8,0.6-1.4c0-0.2,0.1-0.3,0.2-0.4c0.1-0.2,0.3-0.1,0.4-0.1
		c0.2,0,0.2,0.2,0.2,0.3c0,0.3,0,0.6,0,0.8c0,0.1,0,0.2,0,0.2c0,0,0.1,0.1,0.1,0.1c0,0,0,0,0-0.1C95.3,37.3,95.4,36.7,95.4,36.1
		 M84.9,28.3c0-0.1-0.1-0.1-0.1-0.2c-0.3-0.7-0.5-1.4-0.8-2.2c-0.2-0.7-0.5-1.3-0.7-2c-0.2-0.5-0.3-0.9-0.5-1.4
		c-0.2-0.6-0.5-1.1-0.7-1.7c-0.1-0.2-0.1-0.2-0.3-0.1c-0.6,0.3-1.2,0.2-1.8,0.3c-0.3,0-0.6,0-0.8,0c-0.6,0-1-0.2-1.4-0.7
		c0,0-0.1-0.1-0.1-0.1c0,0-0.1,0.1-0.1,0.1c0,0.7,0,1.4,0.1,2.2c0,0.2,0,0.4,0.1,0.7c0,0.2,0.1,0.4,0.1,0.7c0,0.3,0,0.6,0.1,0.9
		c0.2,0.9,0.4,1.9,0.6,2.8c0,0.2,0.1,0.3,0.2,0.5c0.1,0.7,0.4,1.4,0.6,2.1c0.2,0.5,0.4,1,0.5,1.5c0.3,0.8,0.7,1.6,1,2.4
		c0.2,0.5,0.5,1,0.7,1.5c0.3,0.6,0.5,1.1,0.9,1.6c0.1,0.1,0.2,0.3,0.2,0.4c0,0.3,0.2,0.5,0.3,0.8c0.2,0.6,0.6,1,0.9,1.6
		c0.3,0.6,0.8,1.2,1.1,1.9c0.2,0.3,0.5,0.6,0.6,1c0,0.1,0.1,0.1,0.1,0c0-0.1,0.1-0.1,0.1-0.1c0-0.2,0-0.3,0-0.5
		c0-0.1,0.2-0.2,0.3-0.4c0,0,0-0.1,0.1-0.1c0-0.3,0.1-0.6,0.1-0.9c0-0.6,0.1-1.2,0.2-1.7c0.1-0.5,0.1-1.1,0.1-1.6
		c0-0.9,0.1-1.8-0.1-2.7c-0.1-0.3-0.1-0.6-0.1-0.9c-0.1-0.4-0.2-0.8-0.2-1.2c-0.1-0.5-0.2-1-0.3-1.4c-0.2-0.5-0.3-1.1-0.4-1.6
		C85.1,29.2,85,28.8,84.9,28.3 M96.4,27.2c0-0.1-0.1-0.3-0.1-0.4c0-0.4-0.1-0.8-0.2-1.2c0-0.1-0.1-0.2-0.1-0.3
		c-0.2-0.6-0.3-1.2-0.5-1.7c-0.3-0.9-0.7-1.8-1-2.7c-0.1-0.3-0.2-0.6-0.3-0.8c-0.4-0.8-0.8-1.6-1.1-2.4c-0.2-0.3-0.3-0.7-0.5-0.9
		c-0.4-0.6-0.8-1.3-1.4-1.8c-0.3-0.3-0.6-0.7-0.9-1c-0.7-0.7-1.5-1.4-2.3-1.9c-0.8-0.5-1.7-0.8-2.5-1.2c-0.4-0.2-0.9-0.3-1.3-0.4
		c-0.4-0.1-0.9-0.1-1.3-0.1c0,0-0.1,0-0.1,0c0,0,0,0.1,0.1,0.1c0,0,0.1,0,0.2,0.1c0.5,0.2,0.8,0.5,0.9,0.9c0,0.2-0.1,0.5-0.2,0.5
		c-0.1,0.1-0.5-0.1-0.5-0.2c0-0.3-0.3-0.3-0.5-0.5c0,0-0.1,0-0.2,0c0,0,0,0.1,0,0.1c0.2,0.6,0.5,1.2,0.7,1.8
		c0.1,0.2,0.2,0.2,0.4,0.2c0.4-0.1,0.7-0.2,1.2-0.1c0.6,0.2,1.1,0.5,1.6,0.9c0.4,0.3,0.6,0.7,1,1c0.1,0.1,0.2,0.2,0.3,0.4
		c0.3,0.4,0.5,0.8,0.8,1.2c0.2,0.3,0.5,0.6,0.8,1c0.2,0.3,0.4,0.7,0.6,1.1c0.5,0.7,0.8,1.4,1.2,2.2c0.3,0.7,0.6,1.3,1,2
		c0.3,0.5,0.5,1.1,0.8,1.7c0.2,0.4,0.3,0.8,0.5,1.1c0.3,0.4,0.4,0.9,0.7,1.4c0.1,0.3,0.2,0.6,0.3,0.9c0.2,0.5,0.4,0.9,0.6,1.4
		c0.1,0.5,0.4,0.9,0.5,1.4c0,0,0.1,0.1,0.1,0.1c0.1,0,0.3-0.1,0.4-0.1c0.5-0.5,0.8-1.1,0.7-1.8C96.5,28.3,96.4,27.8,96.4,27.2
		 M102.5,97.1c-0.1,0-0.2-0.1-0.2-0.1c-0.2-0.2-0.4-0.4-0.6-0.6c-0.6-0.4-1.1-0.8-1.7-1.2c-0.6-0.4-1.3-0.5-1.9-0.2
		c-0.2,0.1-0.5,0.2-0.7,0.4c-0.1,0-0.2,0.1-0.2,0.2c-0.3,0.4-0.5,0.7-0.9,1c-0.2,0.2-0.3,0.4-0.4,0.6c-0.3,0.5-0.6,0.9-0.8,1.4
		c-0.2,0.4-0.5,0.8-0.6,1.3c-0.1,0.5-0.5,0.9-0.6,1.4c0,0-0.1,0.1-0.1,0.1c-0.1,0.1-0.2,0.3-0.2,0.4c-0.1,0.4-0.2,0.8-0.4,1.2
		c-0.3,0.8-0.6,1.5-0.8,2.3c-0.1,0.4,0,0.8,0.2,1.2c0,0,0.1,0,0.1,0.1c0,0,0-0.1,0-0.1c0-0.3,0.1-0.5,0.3-0.7
		c0.1-0.1,0.2-0.3,0.3-0.4c0.3-0.4,0.7-0.8,1-1.1c0.2-0.2,0.5-0.4,0.8-0.6c0.4-0.3,0.7-0.6,1.2-0.7c0.2,0,0.3-0.2,0.4-0.2
		c0.3-0.1,0.6-0.3,0.9-0.3c0.4,0,0.8-0.1,1.2-0.2c0.5-0.1,0.9,0,1.4,0.1c0.4,0,0.7,0.2,1,0.4c0.8,0.4,1.6,0.7,2.3,1.2
		c0,0,0.1,0.1,0.1,0c0-0.1,0.1-0.1,0.1-0.2c-0.2-0.4-0.1-0.8-0.1-1.2c0-0.5,0.1-0.9,0.3-1.3c0.1-0.2,0.1-0.4-0.1-0.5
		c-0.1-0.1-0.2-0.2-0.3-0.3c-0.3-0.4-0.7-0.7-1-1.1c-0.4-0.4-0.4-0.6,0.1-1c0.1-0.1,0.3-0.3,0.4-0.4c0,0,0-0.2,0-0.2
		C102.8,97.4,102.7,97.3,102.5,97.1 M83.9,120.2c-0.1,0.1-0.1,0.2-0.2,0.3c-0.1,0.5-0.3,0.9-0.4,1.4c-0.1,0.5-0.1,1-0.3,1.5
		c-0.1,0.2-0.2,0.5-0.2,0.7c-0.1,0.6-0.2,1.1-0.3,1.6c-0.1,0.6-0.2,1.2-0.4,1.8c-0.1,0.2,0,0.5-0.1,0.7c-0.2,0.5-0.2,1.1-0.2,1.6
		c0,0.3,0,0.7,0.1,1.1c0.1,0.5,0.2,0.9,0.3,1.4c0.1,0.4,0.3,0.8,0.5,1.3c0,0,0.1,0.1,0.1,0.1c0,0,0.1-0.1,0.1-0.1
		c0.3-0.5,0.5-1,0.7-1.5c0.2-0.5,0.5-1,0.8-1.4c0.1-0.1,0.2-0.3,0.2-0.4c0.1-0.3,0.2-0.6,0.3-0.8c0.4-0.6,0.5-1.2,0.8-1.8
		c0.3-0.7,0.5-1.5,0.7-2.3c0.1-0.2,0.2-0.5,0.2-0.7c0.1-0.4,0.1-0.8,0.2-1.2c0.1-0.6,0.2-1.2,0.3-1.8c0-0.1,0-0.2,0.1-0.2
		c0-0.3,0.1-0.7,0.1-1c0-0.1-0.1-0.3-0.1-0.4c0.1-0.3,0.1-0.5,0.1-0.8c0-0.3,0-0.6,0-0.9c0.1-0.6,0.1-1.2,0.2-1.9
		c0-0.5,0.1-0.9,0-1.4c0-0.2,0-0.4,0-0.6c-0.1-0.1-0.3-0.1-0.5-0.2c-0.1,0-0.2-0.1-0.2-0.2c-0.1-0.1-0.2,0-0.2,0
		c-0.3,0.2-0.4,0.7-0.3,1c0.1,0.2,0.1,0.1,0.2,0.1c0.1-0.1,0.3-0.2,0.4-0.3c0.1,0,0.2-0.2,0.2,0c0,0.1,0.2,0.2,0.1,0.3
		c-0.1,0.2-0.1,0.4-0.2,0.6c-0.3,0.6-0.8,0.8-1.5,0.6c-0.3-0.1-0.4,0-0.5,0.3c-0.1,0.3-0.3,0.6-0.4,1c-0.2,0.4-0.3,0.8-0.5,1.2
		C84.1,119.2,84,119.6,83.9,120.2 M71.4,79c-0.2-0.1-0.2-0.4-0.3-0.5c-0.5-0.9-1-1.9-1.6-2.8C69,75,68.6,74.4,68,73.9
		c-0.4-0.3-0.8-0.6-1.2-0.7c-0.2-0.1-0.5,0-0.7,0.1c-0.2,0.1-0.1,0.3-0.1,0.5c-0.1,0.4-0.5,0.6-0.9,0.5c-0.2-0.1-0.3-0.1-0.3,0.1
		c0,0.1,0,0.2,0,0.3c0,0.3-0.1,0.5-0.4,0.5c-0.1,0-0.2,0-0.3,0c-0.2,0-0.2,0-0.2,0.2c0.1,0.2,0.1,0.4,0.2,0.5
		c0.1,0.1,0.2,0.2,0.3,0.2c0.3,0,0.5,0.2,0.7,0.5c0.4,0.5,0.7,1.1,1.2,1.6c0.3,0.3,0.6,0.7,0.8,1.1c0.4,0.6,0.8,1.2,1.1,1.9
		c0.1,0.1,0.1,0.2,0.2,0.4c0.3,0.4,0.5,0.8,0.8,1.2c0.3,0.4,0.5,0.9,0.9,1.2c0.3,0.2,0.5,0.5,0.8,0.8c0.4,0.5,0.8,1,1.2,1.4
		c0.1,0.2,0.3,0.2,0.5,0.2c0.2-0.1,0.2-0.2,0.2-0.5c0-0.4,0-0.8,0.1-1.1c0.2-0.5,0.1-1.1,0-1.6c-0.1-0.7-0.4-1.4-0.7-2
		C71.9,80.3,71.6,79.7,71.4,79 M61.6,87.5c0-0.1-0.1-0.3-0.1-0.4c0-0.6-0.1-1.3-0.2-1.9c-0.1-0.6-0.1-1.1-0.2-1.7
		c-0.1-0.6-0.2-1.3-0.5-1.8c0-0.1-0.1-0.2-0.1-0.3c-0.2-0.7-0.5-1.4-0.7-2.1c0-0.1,0-0.2,0-0.2c0-0.1,0-0.1,0-0.1c0,0-0.1,0-0.1,0.1
		c0,0-0.1,0.1-0.1,0.1c-0.4,0.2-0.3,0.6-0.5,0.9c0.2,0.2,0,0.4-0.1,0.5c-0.2,0.4-0.3,0.9-0.3,1.4c0,0.2-0.1,0.4,0,0.5
		c-0.2,0.3,0,0.7-0.1,1.1c0,0.4-0.1,0.7-0.1,1.1c0,0.1,0.1,0.3,0.1,0.4c0,1,0.1,2,0.3,3c0.1,0.7,0.1,1.5,0.2,2.2
		c0,0.4,0.1,0.8,0.2,1.2c0,0.2,0,0.4,0.1,0.6c0.3,0.7,0.4,1.4,0.8,2c0.1,0.2,0.3,0.4,0.3,0.6c0.3,0.8,0.7,1.5,1.5,2
		c0.1,0.1,0.2,0,0.2,0c0.1-0.3,0.3-0.6,0.1-0.9c-0.2-0.4-0.2-0.8-0.2-1.2c0-1.2,0-2.3-0.1-3.5c0-0.3-0.1-0.6-0.1-0.8
		c0-0.3-0.1-0.7-0.2-1c0-0.1,0-0.2,0-0.3C61.7,88.4,61.7,88,61.6,87.5 M65.4,80.6c-0.2-0.4-0.5-0.8-0.7-1.3c-0.3-0.6-0.7-1.2-1-1.8
		c-0.2-0.4-0.5-0.8-0.8-1.2c-0.3-0.4-0.4-0.4-0.7-0.1c-0.3,0.3-0.6,0.5-0.9,0.6c-0.3,0.1-0.6,0.5-0.5,0.8c0.1,0.2,0.1,0.5,0.3,0.7
		c0.4,0.5,0.5,1.1,0.8,1.6c0.2,0.4,0.4,0.9,0.6,1.3c0.3,0.4,0.6,0.8,0.9,1.2c0.3,0.4,0.5,0.7,0.7,1.2c0.1,0.4,0.3,0.8,0.5,1.1
		c0.2,0.4,0.4,0.7,0.5,1.1c0.2,0.5,0.4,1,0.6,1.5c0,0.1,0.1,0.2,0.2,0.3c0.4,1,0.8,1.9,1.5,2.6c0.4,0.5,0.7,0.9,1,1.5
		c0,0.1,0.1,0.2,0.2,0.2c0,0,0.1,0,0.1,0c0-0.5,0.1-0.9,0.1-1.4c0-0.2-0.1-0.4-0.1-0.5c0-0.3,0-0.5-0.1-0.8
		c-0.3-0.8-0.5-1.7-0.8-2.5c-0.1-0.3-0.3-0.7-0.4-1c-0.3-0.8-0.5-1.6-0.8-2.4C66.3,82.4,65.8,81.5,65.4,80.6 M52.7,84.3
		c0,0.7-0.1,1.4,0.1,2.1c0.1,0.4,0,0.8,0,1.2c0,0.7,0.2,1.3,0.5,2c0,0,0.1,0.1,0.1,0.1c0,0,0-0.1,0.1-0.1c0.3-0.6,0.4-1.3,0.6-1.9
		c0.3-1,0.5-2,0.8-3.1c0.2-0.8,0.2-1.6,0.4-2.4c0.1-0.5,0.2-1,0.4-1.4c0.1-0.4,0.3-0.7,0.3-1c0.1-0.7,0.3-1.3,0.7-1.9
		c0.1-0.1,0.2-0.3,0-0.5c-0.3-0.3-0.2-0.7-0.5-1c0,0,0-0.2,0-0.3c0-0.1,0-0.3-0.2-0.3c-0.3-0.1-0.7-0.2-1-0.3c-0.1,0-0.2,0-0.2,0
		c-0.1,0.3-0.4,0.4-0.5,0.6c-0.2,0.4-0.3,0.7-0.5,1.1c-0.1,0.2-0.3,0.5-0.4,0.7c-0.3,0.7-0.6,1.5-0.6,2.3c0,0.2,0,0.4,0,0.6
		c-0.2,0.7-0.2,1.4-0.2,2.1C52.7,83.2,52.7,83.7,52.7,84.3 M60.9,20.6c-0.1,0.1-0.2,0.3-0.3,0.4c-0.8,0.8-1.5,1.6-2.3,2.4
		c-0.4,0.5-0.8,0.9-1.3,1.4c-0.6,0.6-1,1.3-1.3,2c-0.3,0.6-0.6,1.2-1,1.7c-0.2,0.3-0.4,0.6-0.6,1c-0.2,0.3-0.3,0.6-0.4,0.9
		c-0.1,0.2-0.2,0.4-0.2,0.6c0,0.5-0.2,0.9-0.3,1.3c-0.1,0.4-0.3,0.7-0.4,1.1c0,0,0,0.1,0,0.1c0,0,0.1,0,0.1,0c0,0,0.1-0.1,0.1-0.1
		c0.4-0.6,0.9-1.3,1.3-1.9c0.6-0.8,1.2-1.6,1.8-2.3c0.2-0.2,0.4-0.4,0.6-0.6c0.6-0.8,1.1-1.6,1.8-2.2c0.1-0.1,0.1-0.1,0.2-0.2
		c0.2-0.3,0.5-0.6,0.8-0.8c0.2-0.2,0.4-0.3,0.5-0.5c0.5-0.8,1-1.7,1.5-2.5c0.5-0.7,1-1.4,1.5-2.2c0.2-0.4,0.5-0.7,0.7-1.1
		c0-0.1,0.1-0.2,0-0.3c0-0.1-0.5-0.1-0.6-0.1c-0.2,0.1-0.3,0.3-0.5,0.4c-0.2,0.2-0.4,0.4-0.6,0.6C61.6,20,61.3,20.3,60.9,20.6
		 M51.9,124.2c-0.3,0.2-0.4,0.5-0.4,0.8c0,0.2,0.1,0.3,0.1,0.5c0.1,0.3,0.1,0.3,0.4,0.3c0.1,0,0.3-0.1,0.4,0c0.2,0.1,0.4,0,0.6-0.1
		c0.6-0.3,1.1-0.6,1.7-0.8c0.4-0.2,0.9-0.3,1.3-0.5c0.3-0.1,0.7-0.2,1-0.3c0.7-0.2,1.4-0.5,2.1-0.8c0.2-0.1,0.3-0.3,0.5-0.3
		c0.2-0.1,0.3-0.2,0.5-0.3c0.3-0.3,0.6-0.6,0.9-1c0,0,0.1-0.1,0.1-0.1c-0.1,0-0.1,0-0.2,0c-0.3,0-0.7,0.1-1,0.1
		c-0.2,0-0.3,0-0.5,0.1c-0.4,0-0.8,0.1-1.2,0.1c-0.5,0-0.9,0.1-1.4,0.1c-0.2,0-0.5,0-0.7,0.1c-0.5,0.1-1,0.3-1.4,0.4
		c-0.3,0.1-0.5,0.2-0.7,0.3c-0.4,0.3-0.7,0.6-1.1,0.9C52.5,123.8,52.2,124,51.9,124.2 M80.8,20.5c0.2,0,0.4-0.1,0.6-0.1
		c0.4,0,0.4,0,0.2-0.4c-0.4-0.8-0.7-1.6-1.2-2.4c-0.1-0.2-0.2-0.4-0.4-0.6c-0.1-0.1-0.2-0.1-0.3,0c-0.3,0.3-0.8,0.4-0.7,1
		c0,0.1-0.1,0.3-0.2,0.5c-0.1-0.1-0.1-0.3-0.2-0.4c-0.2-0.3-0.2-0.7,0-1c0.2-0.4,0.5-0.7,0.9-0.9c0,0,0.1,0,0.1-0.1
		c0,0-0.1-0.1-0.1-0.1c-0.1,0.1-0.2,0.1-0.3,0.2c-0.2,0.3-0.3,0.3-0.7,0.2c-0.1,0-0.1-0.1-0.2-0.1c-0.1,0-0.2,0-0.2,0.1
		c0,0,0,0.1,0,0.2c0,0.1,0.1,0.1,0.1,0.2c0.1,0.2,0,0.3-0.3,0.4c-0.2,0-0.4,0-0.5-0.2c-0.1-0.1-0.3-0.2-0.5-0.1
		c-0.1,0.1-0.3,0-0.5,0c-0.3-0.1-0.5-0.3-0.7-0.5c0,0,0-0.1,0-0.1c0.1-0.1,0.1-0.1,0-0.2c0,0-0.1,0.1-0.1,0.2
		c-0.1,0.2-0.1,0.3,0,0.4c0.2,0.1,0.2,0.3,0.1,0.5c-0.1,0.1-0.1,0.3,0.1,0.4c0.1,0.1,0.1,0.2,0.2,0.4c0.1,0.2,0,0.5-0.3,0.5
		c-0.4,0-0.7-0.2-0.9-0.5c-0.1-0.2-0.2-0.3-0.3-0.5c0,0-0.1,0-0.1,0c0,0.1,0,0.1,0,0.2c0.3,0.4,0.5,0.7,0.7,1.2
		c0.3,0.8,0.7,1.6,0.8,2.4c0,0.2,0.1,0.4,0.2,0.7c0,0,0,0.1,0,0.1c0,0,0.1-0.1,0-0.1c0-0.3-0.1-0.6-0.1-0.9c0-0.6,0-1.3,0-1.9
		c0-0.2,0-0.6,0.4-0.7c0.2,0,0.5,0,0.8,0c0.4,0,0.5,0.3,0.5,0.6c0.1,0.3,0.1,0.7,0.3,1c0.2,0.4,0.5,0.8,1,0.7
		C79.6,20.6,80.1,20.6,80.8,20.5 M106,105.8c0.5,0.5,1,1.1,1.3,1.7c0.2,0.3,0.3,0.5,0.5,0.8c0.1,0.3,0.4,0.5,0.6,0.8c0,0,0,0,0.1,0
		c0,0,0-0.1,0-0.1c0-0.6-0.1-1.2,0.1-1.9c-0.1-0.2,0.1-0.4,0-0.5c-0.1-0.2-0.1-0.5,0-0.7c-0.2-0.4,0-0.8-0.1-1.1
		c0-0.6-0.2-1.1-0.4-1.6c-0.3-0.5-0.6-1-1-1.5c-0.1-0.1-0.2-0.1-0.3-0.1c-0.2,0-0.4,0.1-0.6,0.2c-0.1,0-0.2,0.1-0.2,0.2
		c0,0.2,0.1,0.5,0.1,0.7c0.1,0.3,0.2,0.6,0.2,0.9c0,0.3,0,0.5,0.1,0.8c0.1,0.3,0.1,0.7-0.2,0.9C106.2,105.5,106.1,105.6,106,105.8
		 M52.4,77.1c0.5-0.3,0.5-0.9,0.8-1.3c0.2-0.4,0.2-0.9,0.6-1.2c0,0,0-0.1,0-0.1c0,0-0.1-0.1-0.1-0.1c-0.3,0.1-0.6,0.1-0.8,0.4
		c-0.4,0.5-0.8,0.9-1.3,1.4c-0.5,0.5-0.8,1.1-1,1.8c-0.1,0.2-0.1,0.5-0.2,0.7c0,0.1,0,0.1-0.1,0.2c-0.1,0.3-0.1,0.6-0.2,0.9
		c0,0,0,0.1,0,0.1c0,0,0.1,0,0.1,0c0,0,0.1-0.1,0.1-0.1c0.3-0.7,0.8-1.3,1.3-1.9C51.8,77.6,52.1,77.4,52.4,77.1 M57.9,75.8
		c0.2,0.1,0.3,0.1,0.5,0.2c0.2,0.1,0.3,0.1,0.4,0.1c0.5-0.2,0.7,0.1,1.1,0.3c0.1,0,0.1,0.1,0.1,0.2c0,0.1,0.1,0.1,0.1,0.2
		c0-0.1,0.1-0.1,0.1-0.2c0-0.1,0-0.2,0-0.4c-0.1-0.3,0-0.4,0.3-0.5c0.1,0,0.2-0.1,0.3-0.2c0.1-0.1,0.2-0.2,0.3-0.2
		c0.2-0.1,0.2-0.3,0.1-0.4c-0.2-0.1-0.3-0.3-0.5-0.3c-0.3,0-0.6,0-0.8-0.4c0,0-0.1,0-0.1-0.1c0,0.1,0,0.1,0,0.2
		c0,0.3-0.2,0.5-0.5,0.5c-0.1,0-0.1,0-0.2,0c-0.4,0.3-0.8,0.2-1.2,0.2c0,0-0.1,0-0.1,0c-0.1,0.1-0.3,0.2-0.4,0.4
		C57.6,75.6,57.7,75.7,57.9,75.8C57.9,75.8,57.9,75.8,57.9,75.8 M90.3,112.2c-0.7,0.2-1.1,0.9-1.1,1.5c0,0.1,0,0.2,0.2,0.2
		c0.5,0,1.1,0,1.5-0.3c0.3-0.2,0.5-0.5,0.7-0.7c0,0,0-0.1,0-0.2c-0.1-0.2-0.2-0.5-0.3-0.7c-0.1-0.2-0.1-0.2-0.3-0.1
		C90.9,111.9,90.6,112,90.3,112.2 M89.2,101c0.1,0.2,0.1,0.3,0.2,0.5c0.2,0.7,0.5,1.5,0.7,2.2c0.2,0.5,0.3,0.9,0.5,1.4
		c0,0,0,0.1,0,0.1c0,0,0.1-0.1,0.1-0.1c0-0.4,0.2-0.8,0.1-1.2c-0.1-0.3-0.2-0.6-0.3-0.8c-0.4-0.9-0.5-1.8-1.1-2.6
		c-0.1-0.2-0.2-0.3-0.3-0.5c-0.2-0.5-0.5-0.9-0.7-1.4c0-0.1-0.1-0.1-0.1-0.1c0,0.1-0.1,0.1,0,0.2c0.1,0.2,0.2,0.4,0.3,0.6
		C88.7,99.9,89,100.4,89.2,101 M69.9,116.2c0-0.1-0.1-0.2-0.1-0.3c0-0.3,0.1-0.6,0.1-0.8c-0.1-0.6-0.1-1.2-0.2-1.9
		c-0.1-0.7,0.1-1.3-0.1-2c-0.1-0.6-0.1-1.1-0.2-1.7c0,0-0.1-0.1-0.1-0.1c0,0.1-0.1,0.1-0.1,0.2c0,0.3,0.1,0.6,0.1,0.9
		c0,1.1,0,2.2,0.1,3.3c0.1,0.7,0,1.4,0.1,2.1c0,0.2,0.1,0.5,0.1,0.7c-0.1,0.2-0.1,0.4,0,0.5c0,0,0,0.1,0,0.1c0-0.1,0.1-0.1,0.1-0.2
		C69.8,116.9,69.8,116.6,69.9,116.2 M91.9,108c-0.1-0.2-0.1-0.5-0.2-0.7c0-0.1,0-0.4-0.2-0.4c-0.1,0-0.2,0.3-0.3,0.4
		c0,0,0,0.1,0,0.2c0,0.1,0.1,0.3,0.1,0.4c0.1,0.3,0.3,0.7,0.4,1c0,0.1,0.1,0.1,0.1,0.2c0-0.1,0-0.1,0-0.2
		C92.1,108.6,92,108.4,91.9,108 M68.3,93.6c0-0.1,0-0.1,0-0.2c0.1-0.4,0.1-0.4-0.2-0.7c-0.1,0-0.1-0.1-0.2-0.2c0,0-0.1-0.1-0.1-0.1
		c0,0.1,0,0.1,0,0.2c0.1,0.4,0.3,0.9,0.3,1.3c0,0.3,0.1,0.7,0.1,1c0,0,0,0.1,0,0.1c0,0,0.1,0.1,0.1,0.1c0,0,0-0.1,0-0.1
		c0-0.1,0-0.1,0-0.2C68.3,94.5,68.2,94.1,68.3,93.6 M65.9,90.3c0,0.1,0.1,0.2,0.1,0.3c0.1,0.5,0.2,1.1,0.3,1.6
		c0,0.2,0.1,0.5,0.2,0.7c0,0.1,0.1,0.1,0.1,0.1c0-0.1,0.1-0.1,0.1-0.2c-0.3-0.4-0.2-0.8-0.2-1.2c-0.1-0.4-0.1-0.9-0.2-1.3
		c0-0.1,0-0.2-0.1-0.2c-0.1-0.1-0.1-0.3-0.3-0.3C65.8,90,65.9,90.1,65.9,90.3 M64.8,88.1c-0.1-0.2-0.1-0.4-0.2-0.7
		c0,0-0.1,0-0.1-0.1c0,0,0,0.1,0,0.1c0.1,0.4,0.1,0.7,0.2,1.1c0.1,0.3,0.2,0.5,0.5,0.5c0.1,0,0.1,0,0.2,0c0,0,0-0.1-0.1-0.1
		C65.2,88.7,65,88.4,64.8,88.1 M67.2,120.2c-0.3,0-0.7-0.1-1-0.1c-0.2,0-0.4,0-0.7,0.1c0,0-0.1,0-0.1,0.1c0,0,0.1,0.1,0.1,0.1
		c0.2,0,0.4-0.1,0.6-0.1c0.5,0,0.9,0,1.3,0.2c0.1,0,0.2,0,0.2-0.1c-0.1-0.1-0.1-0.2-0.2-0.2C67.4,120.2,67.3,120.2,67.2,120.2
		 M83.3,114.5c0.1,0.1,0.2,0.2,0.2,0.3c0.1-0.1,0.2-0.2,0.2-0.3c0-0.2,0.1-0.2,0.2-0.4c0,0,0-0.2-0.1-0.2
		C83.6,113.9,83.2,114.3,83.3,114.5 M92.5,111.4c0,0.4,0,0.7,0,1.1c0,0,0,0.1,0.1,0.1c0,0,0.1,0.1,0.2,0.1c0-0.1,0-0.1,0-0.2
		C92.7,112.2,92.6,111.8,92.5,111.4 M77.3,14.7C77.3,14.7,77.3,14.7,77.3,14.7c-0.3-0.1-0.5-0.2-0.7-0.4c0,0-0.1,0-0.1,0
		c0,0,0,0.1,0,0.1c0.1,0.1,0.2,0.1,0.3,0.2C77,14.9,77.1,14.9,77.3,14.7 M81.8,11.7c-0.1,0.1-0.1,0.2,0,0.3c0.1,0.1,0.3,0.1,0.4,0
		c0.1-0.1-0.1-0.2-0.1-0.4c0-0.2-0.1-0.2-0.2-0.1C81.8,11.5,81.8,11.6,81.8,11.7 M103.7,98.3c0.1-0.2-0.2-0.3-0.3-0.3
		c0,0-0.1,0.1-0.1,0.1c0,0,0,0.1,0.1,0.2C103.5,98.3,103.6,98.3,103.7,98.3 M79.2,65.7c0,0,0-0.1,0-0.1C79,65.7,79,65.8,79,65.9
		c0,0.1,0.1,0.1,0.2,0.1C79.2,66,79.2,65.9,79.2,65.7 M87.6,113.3c0,0,0-0.1,0-0.1c0-0.1,0-0.1-0.1-0.2c0,0-0.1,0-0.1,0.1
		c0,0,0,0.1,0,0.2C87.4,113.3,87.5,113.3,87.6,113.3 M65.8,46.3c0,0,0,0.1,0.1,0.1c0.1-0.1,0.1-0.1,0.2-0.2c0,0,0-0.1,0-0.1
		c0,0-0.1,0-0.1,0C65.9,46.1,65.9,46.1,65.8,46.3 M98.6,123c0,0,0.2-0.1,0-0.1c-0.1,0-0.3,0-0.4,0C98.3,122.9,98.4,123,98.6,123
		 M65.4,37.9c0-0.1-0.1-0.2-0.1-0.3c0,0-0.1,0-0.1,0C65.3,37.7,65.1,37.9,65.4,37.9 M92.3,113.3c0.1,0,0.1,0,0.2,0
		c0.1,0,0.1,0,0.2,0c-0.1,0-0.1-0.1-0.2-0.1C92.4,113.2,92.4,113.2,92.3,113.3 M65.3,35.3c0,0,0,0.1,0,0.1
		C65.3,35.4,65.4,35.4,65.3,35.3c0.1,0,0.1,0,0.1-0.1c0-0.1,0-0.2,0-0.3c0,0.1-0.1,0.1-0.1,0.2C65.3,35.1,65.3,35.2,65.3,35.3
		 M65.9,45.5c-0.2,0-0.1,0.1-0.1,0.2c0,0,0.1,0.1,0.1,0.1C65.9,45.7,65.9,45.6,65.9,45.5 M66.1,48c0,0,0,0.1,0,0.1
		c0-0.1,0.1-0.1,0.1-0.2C66.2,47.9,66.2,47.9,66.1,48 M78.3,64.2c0,0,0.1,0,0.1-0.1c0,0,0-0.1,0-0.1C78.3,63.9,78.3,64,78.3,64.2
		 M81.4,11.9c0,0-0.1,0-0.1,0.1c0,0,0.1,0.1,0.1,0.1c0.1,0,0.1-0.1,0.2-0.1C81.5,11.9,81.4,11.9,81.4,11.9 M66.5,48.8
		c0,0,0.1,0,0.1,0c0,0,0.1-0.1,0.1-0.1c-0.1,0-0.1,0-0.2,0C66.6,48.7,66.6,48.7,66.5,48.8 M79.6,56.8c0,0,0.1-0.1,0.1-0.1
		c0,0,0,0-0.1-0.1C79.6,56.7,79.6,56.8,79.6,56.8 M87.4,93c0,0,0,0.1,0,0.1c0,0,0.1,0.1,0.1,0.1c0,0,0-0.1,0-0.1
		C87.5,93,87.5,92.9,87.4,93 M78.1,64.3c0,0.1,0.1,0.1,0.1,0.2C78.2,64.4,78.2,64.4,78.1,64.3 M89,36.2c0.1,0,0.1,0,0.2,0
		C89.1,36.1,89.1,36.1,89,36.2 M77.6,59.4C77.6,59.4,77.6,59.4,77.6,59.4c0-0.1,0-0.1-0.1-0.1C77.5,59.4,77.5,59.4,77.6,59.4
		 M56.3,66.7c0,0,0.1-0.1,0.1-0.1c0,0,0,0,0-0.1C56.4,66.5,56.3,66.6,56.3,66.7 M85.7,95.6c0-0.1,0-0.1,0-0.2c0,0,0,0,0-0.1
		c0,0,0,0.1,0,0.1C85.7,95.5,85.7,95.6,85.7,95.6 M66.2,48.5c0,0,0,0.1,0,0.1C66.2,48.6,66.3,48.6,66.2,48.5
		C66.2,48.5,66.4,48.4,66.2,48.5 M66.1,47.5C66.1,47.5,66.2,47.5,66.1,47.5C66.2,47.4,66.1,47.4,66.1,47.5 M78,60.2c0,0-0.1,0-0.1,0
		c0,0,0,0,0,0.1C77.9,60.2,77.9,60.3,78,60.2 M70.4,119.1c0,0,0-0.1,0-0.1C70.4,119,70.3,119,70.4,119.1
		C70.3,119.1,70.3,119.1,70.4,119.1 M65.2,37.3c0,0,0,0.1,0,0.1C65.3,37.4,65.3,37.4,65.2,37.3C65.3,37.4,65.3,37.3,65.2,37.3
		 M77,53.5C76.9,53.5,76.9,53.5,77,53.5C76.9,53.5,76.9,53.5,77,53.5 M83.7,40.4c0,0-0.1,0-0.1,0c0,0,0,0,0,0.1
		C83.6,40.4,83.7,40.4,83.7,40.4 M61.9,73c0,0-0.1,0-0.1,0C61.8,73,61.8,73.1,61.9,73C61.9,73.1,61.9,73,61.9,73 M85.6,43.1
		C85.6,43.1,85.6,43.1,85.6,43.1C85.6,43,85.6,43,85.6,43.1 M63.2,95.7c0,0,0-0.1,0-0.1C63.2,95.6,63.1,95.6,63.2,95.7
		C63.1,95.6,63.1,95.7,63.2,95.7 M78.5,49.1C78.5,49.1,78.5,49,78.5,49.1C78.5,49,78.5,49,78.5,49.1 M87.6,46.2
		C87.5,46.2,87.5,46.3,87.6,46.2C87.5,46.3,87.6,46.3,87.6,46.2 M73.5,85.9C73.5,85.9,73.5,85.9,73.5,85.9
		C73.5,85.9,73.5,85.9,73.5,85.9 M64.2,72.9C64.1,72.9,64.1,72.9,64.2,72.9C64.1,72.9,64.1,73,64.2,72.9 M71.4,46.3
		C71.3,46.3,71.3,46.3,71.4,46.3C71.3,46.3,71.3,46.4,71.4,46.3 M56.3,45.4C56.4,45.4,56.4,45.4,56.3,45.4
		C56.4,45.4,56.4,45.4,56.3,45.4 M72.4,44C72.4,44,72.4,44,72.4,44C72.5,44,72.5,44,72.4,44 M94.8,98.4
		C94.8,98.4,94.8,98.4,94.8,98.4C94.8,98.4,94.8,98.4,94.8,98.4 M65.7,43.9C65.7,43.9,65.7,43.9,65.7,43.9
		C65.7,43.9,65.7,43.9,65.7,43.9 M65.6,43.4C65.6,43.4,65.6,43.4,65.6,43.4C65.6,43.4,65.6,43.3,65.6,43.4 M65.7,42.9
		C65.7,42.9,65.7,42.8,65.7,42.9C65.7,42.8,65.7,42.8,65.7,42.9 M73.1,42.2C73.1,42.2,73.1,42.2,73.1,42.2
		C73.2,42.2,73.2,42.2,73.1,42.2 M66.5,48.3C66.5,48.3,66.5,48.3,66.5,48.3C66.5,48.3,66.5,48.3,66.5,48.3 M65.3,39.5
		C65.4,39.4,65.4,39.4,65.3,39.5C65.4,39.4,65.3,39.4,65.3,39.5 M60,65.7C60,65.7,60,65.7,60,65.7C60,65.8,60,65.8,60,65.7
		 M65.4,39.3C65.4,39.3,65.5,39.2,65.4,39.3C65.4,39.2,65.4,39.2,65.4,39.3 M78.9,65.4C78.9,65.4,78.9,65.4,78.9,65.4
		C79,65.4,79,65.4,78.9,65.4 M66,46.8C66,46.8,66,46.9,66,46.8C66,46.9,66.1,46.9,66,46.8 M65.3,36.9C65.3,36.9,65.3,36.9,65.3,36.9
		C65.4,36.9,65.3,36.9,65.3,36.9 M65.5,36.2C65.5,36.2,65.4,36.1,65.5,36.2C65.4,36.2,65.4,36.2,65.5,36.2 M81,64.9
		C81,64.9,80.9,64.9,81,64.9C81,65,81,65,81,64.9 M77.9,58.7C77.8,58.7,77.8,58.7,77.9,58.7C77.8,58.7,77.8,58.7,77.9,58.7
		 M77.4,56.9C77.4,56.9,77.4,56.9,77.4,56.9C77.4,56.9,77.4,56.9,77.4,56.9 M57.2,76.5C57.2,76.5,57.2,76.5,57.2,76.5
		C57.2,76.5,57.2,76.5,57.2,76.5 M77.4,55.4C77.4,55.4,77.5,55.4,77.4,55.4C77.5,55.4,77.5,55.4,77.4,55.4z"/>
	<path d="M11.2,65c-0.2,0.6-0.4,1.2-0.5,1.7c-0.1,0.2-0.1,0.4-0.1,0.6c0,0.5-0.2,0.9-0.2,1.4c0,0.3,0,0.7-0.1,1c0,0,0,0.1,0,0.1
		c0,0.6-0.1,1.2-0.1,1.8c0.1,0.6,0,1.2,0.1,1.8c0.1,0.6,0,1.1,0.2,1.7c0.1,0.3,0.2,0.7,0.2,1.1c0,0.4,0.3,0.8,0.3,1.2
		c0.1,0.4,0.1,0.7,0.2,1.1c0.1,0.6,0.1,1.2,0.4,1.8c0.2,0.4,0.4,0.8,0.8,1.2c0.4,0.3,0.4,0.4,0.8,0c0.2-0.2,0.4-0.6,0.6-0.9
		c0.2-0.4,0.4-0.9,0.6-1.3c0.3-0.7,0.7-1.4,0.9-2.1c0.2-0.8,0.6-1.6,0.8-2.5c0.1-0.6,0.4-1.1,0.6-1.7c0.2-0.5,0.3-1,0.5-1.4
		c0.1-0.2,0.2-0.5,0.2-0.8c0.1-0.6,0.3-1.1,0.4-1.7c0.1-0.3,0.1-0.6,0.1-0.8c0-0.5,0.1-1,0.2-1.5c0-0.2-0.1-0.4-0.1-0.6
		c0.1-0.8,0-1.6,0.2-2.3c0.1-0.3,0-0.6,0.1-0.8c0.1-0.5,0.1-1,0.1-1.5c0-0.4,0.1-0.8,0.1-1.2c0-1-0.1-1.9-0.3-2.8
		c-0.1-0.3-0.2-0.6-0.2-0.9c0-0.3,0.1-0.4,0.4-0.4c0.2,0,0.4,0.1,0.6-0.1c0.1-0.1,0.3-0.1,0.4,0c0.2,0.1,0.3,0,0.4-0.1
		c0.3-0.3,0.3-0.2,0-0.5c-0.4-0.4-0.6-0.8-0.8-1.2c-0.1-0.2,0.1-0.5,0.4-0.5c0.4,0,0.9,0.1,1.1,0.4c0.1,0.2,0.1,0.5,0.2,0.7
		c0,0.1,0,0.2,0,0.4c0,0.1,0,0.2,0.1,0.3c0.1,0.1,0.2,0.2,0.2,0.3c0,0.3,0,0.7-0.1,1c-0.1,0.5-0.3,1.1-0.5,1.6c0,0.1,0,0.1,0,0.2
		c0,0,0.1-0.1,0.1-0.1c0.2-0.4,0.4-0.9,0.7-1.3c0.2-0.4,0.5-0.9,0.8-1.3c0,0,0.1-0.1,0.1-0.1c0.2-0.1,0.2-0.3,0.2-0.4
		c0-0.1,0-0.3,0.1-0.4c0.1-0.2,0.4-0.3,0.5-0.2c0.3,0.3,0.6,0.2,0.9,0.3c0.4,0.2,0.9,0.3,1.2,0.6c0.4,0.4,0.9,0.7,1.3,1
		c0.6,0.5,1.3,1,1.5,1.9c0,0.1,0,0.1,0.1,0.1c0.4,0.6,0.5,1.3,0.7,2c0.2,0.6,0.4,1.2,0.6,1.8c0.1,0.3,0.1,0.6,0.2,0.8
		c0.1,0.6,0.4,1.3,0.5,1.9c0.1,0.6,0.4,1.2,0.9,1.6c0.3,0.3,0.5,0.7,0.7,1c0.3,0.5,0.4,1.1,0.7,1.6c0,0,0,0.1,0,0.1
		c0.1,0.1,0.2,0.2,0.3,0.4c0.1-0.1,0.2-0.2,0.2-0.3c0.2-0.3,0.3-0.6,0.5-0.9c0,0,0-0.1,0-0.1c0.6-0.6,0.6-1.3,0.7-2
		c0-0.2,0.1-0.4,0.1-0.6c0.1-0.6-0.2-1.2-0.4-1.7c-0.1-0.4-0.2-0.7-0.2-1.1c-0.1-0.5-0.2-1-0.3-1.5c0-0.1-0.1-0.1-0.1-0.2
		c0.1-0.5-0.1-1-0.2-1.5c-0.1-0.5-0.3-0.9-0.6-1.3c-0.6-0.8-1.3-1.5-2-2.2c-0.3-0.3-0.5-0.7-0.8-1c-0.2-0.2-0.4-0.3-0.6-0.5
		c-0.5-0.6-1-1.2-1.6-1.7c-0.3-0.3-0.6-0.4-1-0.3c-0.1,0-0.3,0.1-0.4,0c-0.3-0.1-0.5-0.1-0.7,0c-0.3,0.1-0.6,0.2-0.8,0.2
		c-0.2,0-0.4,0.1-0.5,0.2c-0.2,0.2-0.3,0.2-0.4-0.1c0-0.1-0.1-0.1-0.2-0.2c-0.4-0.2-0.5-0.5-0.1-0.8c0.1-0.1,0.3-0.2,0.3-0.5
		c0-0.1,0.2-0.3,0.2-0.3c0.1,0,0.2,0.1,0.3,0.2C24,51.8,24,51.9,24,52c0,0.3,0.2,0.5,0.5,0.3c0.6-0.3,1.2-0.3,1.8-0.3
		c0.2,0,0.4,0,0.5,0c0,0,0.1,0,0.1,0c0,0-0.1-0.1-0.1-0.1c0,0-0.1,0-0.2,0c-0.5,0-0.9-0.1-1.4,0.1c-0.5,0.1-0.6,0-0.9-0.4
		c0,0-0.1-0.1-0.1-0.1c-0.2-0.1-0.4-0.2-0.6-0.3c-0.2-0.1-0.3-0.2-0.3-0.4c0-0.1-0.1-0.3-0.1-0.3c-0.3-0.1-0.3-0.3-0.5-0.6
		c-0.2-0.4-0.3-0.8-0.4-1.2c0-0.2,0-0.5,0-0.8c0-0.3,0-0.5,0-0.8c0-0.3,0.1-0.5,0.1-0.8c0-0.2,0.2-0.2,0.3-0.2
		c0.3,0.1,0.4,0.3,0.5,0.5c0,0.1,0.1,0.2,0.1,0.3c0,0.4,0.1,0.6,0.3,0.9c0.1,0.1,0.1,0.2,0.1,0.3c0,0.6,0,1.1,0,1.7
		c0,0.1,0.1,0.1,0.1,0.2c0-0.1,0.1-0.1,0.1-0.2c0-0.1,0.1-0.2,0-0.3c0-0.1-0.1-0.3,0.1-0.4c0.3-0.2,0.2-0.6,0.1-0.9
		c-0.2-0.4-0.2-0.8-0.5-1.1c0.1-0.2-0.3-0.4,0-0.7c0.1-0.1,0-0.4,0-0.6c0-0.2,0-0.3,0.2-0.5c0.2-0.2,0.4-0.4,0.4-0.7
		c0-0.1,0-0.2,0-0.2c0,0,0.1-0.1,0.2-0.1c0.1,0.2,0.3,0.2,0.4,0.3c0.2,0.1,0.2,0.2,0.2,0.4c0,0,0.1,0.1,0.1,0.1c0,0,0-0.1,0-0.1
		c0-0.2,0.1-0.5-0.3-0.6c-0.1,0-0.1-0.3-0.2-0.4c-0.1,0-0.3,0.1-0.4,0.1c-0.2,0-0.3,0-0.4,0.3c0,0.2-0.1,0.4-0.2,0.6
		c-0.1,0.4-0.5,0.7-0.9,0.7c-0.2,0-0.4-0.2-0.5-0.4c0,0,0-0.1,0-0.2c0.2-0.3,0.3-0.5,0.2-0.8c0-0.1,0-0.2,0-0.3
		c0-0.5-0.3-0.8-0.8-0.6c-0.3,0.1-0.6,0-0.9-0.1C21,43.5,21,43.1,21.1,43c0.3-0.4,0.6-0.7,0.9-1.1c0.1-0.1,0.1-0.2-0.1-0.2
		c0,0-0.1,0-0.1,0c-0.1,0-0.3-0.1-0.4-0.1c0,0.2,0,0.3,0,0.5c-0.1,0.6-0.3,0.7-0.9,0.6c-0.2,0-0.5,0-0.5-0.3
		c-0.1-0.4-0.2-0.3,0.3-0.7c0,0,0.1-0.1,0.1-0.1c0-0.1-0.1-0.1-0.2,0c-0.2,0.1-0.4,0-0.6,0c-0.2,0-0.4,0-0.6,0.1
		c-0.1,0.1-0.3,0.1-0.4,0c-0.2-0.1-0.3,0-0.5,0.1c-0.3,0.3-1.1,0.1-1.2-0.3c-0.1-0.2,0-0.4,0.2-0.5c0.2-0.1,0.4-0.3,0.6-0.4
		c0.2-0.1,0.4-0.1,0.6,0c0.2,0.1,0.3,0,0.4-0.1c0.1-0.1,0.1-0.1,0.2-0.2c0.2-0.2,0.4-0.4,0.7-0.2c0.1,0,0.3-0.1,0.4-0.1
		c0.2-0.1,0.3-0.2,0.5-0.2c0.1,0,0.1,0,0.1,0.2c0,0.2-0.1,0.4-0.1,0.6c0,0,0,0.1,0.1,0.1c0.1,0.1,0.3,0.2,0.4,0.4
		c0.1,0.1,0.1,0.1,0.3,0c0.1-0.1,0.2-0.1,0.1-0.2c-0.4-0.3-0.3-0.8-0.3-1.2c0-0.1,0.1-0.1,0.2-0.2c0.1,0,0.1,0.1,0.2,0.1
		c0.1,0.2,0.2,0.3,0.3,0.5c0,0.1,0.2,0.2,0.2,0.3c0.1,0.1,0.1,0.1,0.2,0c0.2-0.1,0.4-0.1,0.6,0.1c0.1,0,0.1,0.2,0.1,0.2
		c0,0.1-0.1,0.1-0.2,0.2c-0.2,0-0.4,0.1-0.6,0.1c0,0-0.1,0-0.1,0.1c0,0,0.1,0.1,0.1,0.1c0.2-0.1,0.3,0.1,0.4,0.2
		c0.1,0.1,0.2,0.2,0.3,0.3c0.3,0.2,0.4,0.2,0.7,0c0.2-0.2,0.4-0.4,0.6-0.6c0.2-0.2,0.5-0.2,0.6-0.1c0.1,0.1,0.2,0.1,0,0.3
		c-0.1,0,0,0.2-0.1,0.2c-0.1,0.2,0,0.3,0.2,0.4c0.5,0.2,0.6,0.6,0.7,1c0.1,0.3,0.1,0.6,0.1,1c0,0.4,0.2,0.5,0.5,0.3
		c0.3-0.1,0.5-0.3,0.8-0.5c0.3-0.2,0.3-0.2,0.5,0.1c0.1,0.2,0.1,0.3-0.1,0.5c-0.2,0.2-0.4,0.5-0.7,0.6c-0.4,0.2-0.3,0.5-0.4,0.8
		c0,0.1,0.1,0.1,0.2,0.1c0.5-0.3,1.1-0.3,1.7-0.2c0.4,0.1,0.8,0.2,1.1,0.3c0.3,0.2,0.7,0.4,1,0.6c0.4,0.2,0.8,0.5,1.2,0.8
		c0.3,0.3,0.8,0.4,1.1,0.6c0.2,0.1,0.4,0.2,0.5,0.5c0,0.2,0.3,0.3,0.5,0.4c0.5,0.4,1.1,0.7,1.6,1.1c0.2,0.2,0.5,0.2,0.7,0.5
		c0.2,0.2,0.4,0.3,0.6,0.5c0.1,0.1,0.3,0.3,0.4,0.5c0.4,0.5,0.8,1,1.1,1.5c0.1,0.2,0.2,0.3,0.3,0.5c0.2,0.3,0.3,0.7,0.5,1
		c0.2,0.2,0.3,0.5,0.3,0.8c0,0.4,0,0.9-0.1,1.3c-0.1,0.4-0.4,0.7-0.6,1.1c-0.1,0.1-0.2,0.2-0.3,0.2c-0.6,0.1-1.1,0.3-1.7,0.2
		c-0.3,0-0.6-0.2-0.8-0.4c-0.5-0.3-0.9-0.7-1.5-0.9c-0.7-0.3-1.2-0.9-1.6-1.4c-0.4-0.5-0.8-0.9-1.4-1c-0.4-0.1-0.8-0.3-1.1-0.4
		c-0.2-0.1-0.4-0.2-0.6-0.2c-0.1,0-0.1,0-0.2,0c0,0.1,0,0.2,0.1,0.2c0.2,0.3,0.4,0.5,0.6,0.7c0.2,0.3,0.5,0.5,0.7,0.7
		c0.3,0.3,0.5,0.7,0.8,1c0.3,0.4,0.6,0.7,1,1.1c0.1,0.1,0.2,0.3,0.3,0.5c0.2,0.3,0.5,0.7,0.7,1c0.2,0.3,0.4,0.7,0.4,1.1
		c0,0.2,0,0.3,0.1,0.5c0.3,0.6,0.2,1.3,0.3,1.9c0,0.1,0,0.3,0.1,0.4c0.2,0.4,0.2,0.9,0.3,1.3c0.1,0.4,0.2,0.8,0.3,1.1
		c0.2,0.5,0.3,0.9,0.1,1.4c-0.1,0.3-0.1,0.6-0.1,0.8c0,0.4-0.1,0.9-0.3,1.3c0,0-0.1,0.1-0.1,0.1c0.1,0.5-0.3,0.8-0.4,1.3
		c0,0.1,0,0.1-0.1,0.2c-0.4,0.4-0.5,0.9-0.5,1.4c0,0.2-0.1,0.4-0.2,0.5c-0.1,0.2-0.2,0.3-0.2,0.5c-0.1,0.4-0.2,0.4-0.6,0.4
		c-0.3,0-0.3,0.1-0.2,0.3c0.1,0.2,0.1,0.3,0,0.5c-0.1,0.3,0.1,0.6,0.2,0.9c0.1,0.1,0.1,0.3,0.2,0.4c0.1,0.2,0.2,0.4,0,0.5
		c0,0-0.1,0.2-0.1,0.2c0,0.1,0,0.3,0,0.4c0,0.3,0.1,0.5,0.3,0.7c0.3,0.4,0.5,0.8,0.8,1.2c0.4,0.5,0.7,1,1.1,1.5
		c0.5,0.6,1,1.2,1.5,1.7c0,0,0.1,0,0.1,0c0.6,0.4,1,0.9,1.4,1.5c0.4,0.5,0.7,1,1.1,1.5c0.4,0.5,0.8,1,1.2,1.5
		c0.2,0.2,0.4,0.5,0.6,0.7c0.5,0.5,0.8,1,1.3,1.5c0.4,0.5,0.7,1,1.1,1.4c0.2,0.3,0.5,0.5,0.5,0.9c0,0,0.1,0.1,0.1,0.1
		c0.5,0.4,0.8,1,1.2,1.6c0.3,0.5,0.6,0.9,0.9,1.4c0.3,0.5,0.7,0.9,0.9,1.4c0.1,0.3,0.3,0.5,0.5,0.8c0.5,0.8,1,1.6,1.5,2.3
		c0.2,0.3,0.4,0.7,0.6,1.1c0.3,0.7,0.7,1.2,1.1,1.8c0.2,0.2,0.3,0.4,0.4,0.7c0.5,0.8,0.8,1.8,1.4,2.6c0.4,0.5,0.4,1.1,0.6,1.7
		c0.2,0.5,0.3,1,0.5,1.5c0.3,0.6,0.5,1.3,0.8,2c0,0.1,0.1,0.2,0.2,0.3c0.2,0.3,0.2,0.7,0.1,1c-0.1,0.2,0,0.3,0,0.4
		c0.2,0.5,0.4,1,0.6,1.4c0.1,0.1,0.1,0.3,0.3,0.2c0.1,0,0.2,0,0.3,0c0,0,0-0.1,0-0.1c-0.3-0.7-0.5-1.5-0.8-2.2
		c-0.1-0.3-0.1-0.6-0.2-0.9c-0.1-0.4-0.3-0.8-0.6-1.1c-0.1-0.2-0.3-0.4-0.4-0.6c-0.1-0.2,0-0.3,0.1-0.3c0.2-0.1,0.1-0.1,0.1-0.3
		c-0.3-0.6-0.5-1.3-0.8-1.9c0-0.1-0.1-0.2-0.2-0.3c-0.4-0.8-0.7-1.6-1.1-2.4c-0.5-1-0.8-2.1-1.5-3c-0.3-0.4-0.5-0.9-0.7-1.3
		c-0.8-1.2-1.4-2.5-2.2-3.7c-0.7-1-1.3-2-2.1-3c-0.5-0.6-0.9-1.3-1.4-2c-0.3-0.5-0.7-0.9-1-1.3c-0.6-0.7-1.2-1.5-1.8-2.2
		c-0.8-0.9-1.5-2-2.2-3c-0.5-0.7-1.1-1.4-1.8-2c-0.4-0.3-0.8-0.6-1.2-1c-0.6-0.6-1-1.2-1.4-1.9c-0.2-0.4-0.5-0.7-0.7-1
		c-0.2-0.3-0.5-0.6-0.7-0.9c0-0.1,0-0.1-0.1-0.2c-0.3-0.2-0.2-0.5-0.2-0.7c0-0.1,0.1-0.2,0.2-0.2c0.1,0,0.3,0,0.3,0.2
		c0,0.5,0.4,0.7,0.7,1c0.6,0.7,1.1,1.4,1.7,2.1c0.4,0.5,0.7,1,1.2,1.4c0.6,0.4,1,0.9,1.6,1.4c0.2,0.2,0.5,0.4,0.7,0.6
		c0.2,0.2,0.4,0.5,0.6,0.7c0.6,0.7,1,1.4,1.6,2.2c0.4,0.5,0.8,0.9,1.2,1.4c0.6,0.7,1.2,1.3,1.7,2c0.5,0.6,0.9,1.2,1.3,1.8
		c0.2,0.3,0.4,0.5,0.6,0.7c0.3,0.3,0.5,0.6,0.7,1c0.2,0.4,0.6,0.8,0.8,1.2c0.5,0.8,1,1.5,1.5,2.3c0.3,0.6,0.6,1.2,0.9,1.7
		c0.3,0.6,0.7,1.2,1.1,1.8c0.2,0.4,0.5,0.8,0.7,1.2c0.3,0.6,0.6,1.2,0.8,1.8c0.1,0.4,0.3,0.7,0.5,1.1c0.2,0.5,0.5,1.1,0.7,1.7
		c0.1,0.3,0.3,0.5,0.4,0.8c0.2,0.3,0.3,0.6,0.4,1c0.1,0.1,0.1,0.3,0.2,0.4c0.1,0.1,0.2,0.2,0.1,0.3c0,0.4,0.2,0.7,0.3,1
		c0.1,0.6,0.4,1.2,0.6,1.7c0.2,0.5,0.3,0.9,0.4,1.4c0.1,0.4,0.3,0.7,0.3,1.1c0,0,0.1,0.1,0.1,0c0,0,0.1-0.1,0.1-0.1
		c0-0.6,0.1-1.2-0.1-1.7c0-0.1,0-0.2,0-0.3c0-0.5,0-1.1,0-1.6c0-0.8,0.2-1.5,0.5-2.2c0.2-0.5,0.3-1,0.5-1.5c0.2-0.6,0.5-1.1,0.8-1.6
		c0.2-0.3,0.3-0.6,0.4-0.9c0.2-0.8,0.5-1.5,1.3-1.9c0.5-0.2,1-0.2,1.5-0.2c0.3,0,0.5,0.1,0.8,0.1c0.2,0,0.3,0.1,0.3,0.2
		c0.1,0.1,0.1,0.3-0.1,0.4c-0.1,0.1-0.2,0.2-0.3,0.3c0,0-0.1,0.1-0.1,0.1c-0.1,0.4-0.3,0.8-0.4,1.2c-0.1,0.3,0,0.7-0.2,1.1
		c0,0,0,0,0,0.1c-0.1,1-0.5,1.9-0.8,2.8c-0.2,0.5-0.4,1.1-0.6,1.6c-0.1,0.4-0.3,0.7-0.4,1.1c0,0,0,0,0,0c-0.3,0.3-0.3,0.7-0.4,1.1
		c-0.1,0.3-0.3,0.6-0.4,0.9c-0.3,0.8-0.6,1.6-0.9,2.4c-0.1,0.4-0.2,0.7-0.4,1.1c-0.2,0.4-0.1,0.8,0.1,1.2c0.3,0.6,0.6,1.1,0.6,1.8
		c0,0.2-0.1,0.3-0.3,0.3c-0.4,0.1-0.7-0.1-0.8-0.5c-0.1-0.2-0.2-0.4-0.3-0.6c0,0,0-0.1-0.1-0.1c0,0.1-0.1,0.1-0.1,0.2
		c0,0.2-0.1,0.3,0,0.5c0.2,0.4,0.2,0.9,0.4,1.3c0.2,0.4,0.3,0.8,0.5,1.2c0,0.1,0.1,0.1,0.1,0.1c0,0.2-0.1,0.6-0.2,0.6
		c-0.2,0.1-0.7-0.1-0.8-0.3c-0.1-0.2-0.2-0.4-0.3-0.6c-0.1-0.3-0.2-0.4-0.5-0.5c-0.3,0-0.7-0.5-0.7-0.8c0-0.3,0.1-0.6,0.2-0.9
		c0.1-0.3,0.1-0.6,0-0.9c-0.1-0.2-0.1-0.4-0.2-0.6c0-0.1-0.1-0.2-0.2-0.3c-0.1-0.1-0.2-0.3-0.3-0.4c0-0.1-0.2-0.1-0.2-0.1
		c-0.1,0.2-0.4,0.4-0.4,0.7c0.1,0.6-0.1,1.1-0.3,1.6c-0.1,0.3-0.2,0.6-0.4,0.9c0,0.1-0.1,0.1-0.2,0.2c0-0.1-0.1-0.2-0.1-0.3
		c0-0.3,0.1-0.6,0.2-0.9c0,0,0.1-0.1,0.1-0.1c0-0.2,0-0.4,0-0.6c-0.1,0.2-0.2,0.3-0.2,0.5c-0.1,0.6-0.5,1-0.8,1.5
		c-0.3,0.7-0.7,1.3-1.2,1.8c-0.4,0.5-0.7,1-1.2,1.5c-0.4,0.3-0.8,0.7-1.2,0.9c-0.4,0.2-0.7,0.4-1,0.6c-0.1,0.1-0.3,0.1-0.4,0.1
		c-0.5,0.2-0.9,0.3-1.4,0.5c-0.4,0.1-0.9,0.2-1.4,0.2c-0.8,0.1-1.7,0-2.6,0.1c-0.4,0-0.9,0.1-1.3,0.3c-0.4,0.2-0.8,0.5-1.1,0.9
		c-0.5,0.4-0.9,0.9-1.3,1.4c-0.5,0.6-1,1.3-1.5,1.9c-0.4,0.5-0.9,1-1.3,1.6c-0.1,0.2-0.2,0.3-0.3,0.5c-0.2,0.3-0.4,0.3-0.7,0.2
		c-0.3-0.1-0.5-0.4-0.7-0.7c-0.3-0.5-0.5-1.1-0.7-1.7c0-0.1,0-0.1-0.1-0.2c-0.2-0.3-0.2-0.7-0.3-1c-0.1-0.5,0.1-1.1,0-1.6
		c0-0.5,0.1-0.9,0.2-1.3c0-0.5,0.2-1,0.4-1.4c0.3-0.7,0.6-1.3,0.9-2c0.2-0.3,0.4-0.6,0.6-0.9c0.2-0.3,0.5-0.5,0.8-0.8
		c0.1-0.1,0.3-0.2,0.4-0.2c0,0,0.1,0,0.1,0c0.4-0.5,1.1-0.7,1.6-1c0.5-0.3,1.1-0.6,1.6-1c0.3-0.2,0.6-0.4,0.9-0.5
		c0.2-0.1,0.4-0.2,0.6-0.4c0.9-0.5,1.7-1.1,2.6-1.6c0.3-0.2,0.7-0.4,1.1-0.6c0.5-0.2,0.9-0.5,1.3-0.7c0.2-0.1,0.4-0.2,0.6-0.2
		c0.3,0,0.6-0.1,0.8-0.2c0.5-0.1,1-0.1,1.6,0c0.6,0.1,1.1,0.2,1.7,0.4c0.3,0.1,0.6,0.3,0.9,0.4c0.5,0.2,1.1,0.4,1.6,0.7
		c0.2,0.1,0.2,0,0.3-0.1c0.2-0.3,0.5-0.6,0.8-0.9c0.1-0.1,0.1-0.3,0-0.4c-0.2-0.5-0.5-0.9-0.7-1.4c-0.2-0.5-0.5-1-0.5-1.5
		c0-0.2,0-0.4,0.2-0.6c0.1-0.1,0.1-0.2,0-0.3c-0.2-0.4-0.4-0.8-0.6-1.1c-0.2-0.5-0.4-1-0.6-1.5c-0.2-0.4-0.3-0.9-0.5-1.3
		c-0.3-0.8-0.9-1.5-1.2-2.3c-0.3-0.7-0.7-1.4-1.2-2.1c-0.7-1-1.3-2.1-1.9-3.2c-0.4-0.6-0.7-1.1-1.1-1.7c-0.4-0.6-0.8-1.3-1.2-1.9
		c-0.3-0.5-0.7-1-1.1-1.5c-0.2-0.3-0.3-0.6-0.5-0.9c-0.3-0.5-0.6-0.9-1-1.4c-0.6-0.8-1.2-1.6-1.7-2.4c-0.2-0.2-0.4-0.5-0.6-0.7
		c-0.4-0.4-0.8-0.9-1.2-1.3c-0.4-0.4-0.7-0.9-1-1.3c-0.3-0.4-0.6-0.7-0.8-1.1c-0.9-1.1-2-2.1-2.9-3.1c-0.3-0.3-0.6-0.8-0.9-1.1
		c-0.3-0.4-0.6-0.8-0.8-1.2c0-0.1-0.1-0.1-0.2-0.2c-0.1-0.1-0.2-0.2-0.3,0c-0.2,0.2-0.3,0.4-0.5,0.6c-0.2,0.3-0.4,0.5-0.6,0.8
		c-0.4,0.4-0.9,0.5-1.4,0.4c-0.5-0.1-0.9-0.2-1.3-0.5c-0.2-0.2-0.4-0.3-0.6-0.5c-0.3-0.3-0.5-0.6-0.8-0.9c-0.1-0.1-0.3-0.2-0.4-0.3
		c-0.5-0.5-1-1.1-1.4-1.7c-0.4-0.6-0.8-1.1-1.2-1.7c-0.2-0.4-0.4-0.8-0.6-1.2c-0.3-0.6-0.5-1.3-0.8-1.9c-0.2-0.4-0.3-0.8-0.4-1.2
		c-0.1-0.4-0.2-0.8-0.4-1.1c-0.2-0.6-0.4-1.3-0.5-1.9c-0.1-0.5-0.2-1-0.3-1.4c0-0.1,0-0.2,0-0.3c0-0.3,0-0.6-0.1-0.9
		c0-0.1,0-0.2,0-0.3c-0.1-0.7-0.1-1.3-0.3-2c0-0.1,0-0.2,0-0.4c0-0.4-0.1-0.9-0.1-1.3c-0.1-0.3-0.1-0.7,0-1.1c0,0,0-0.1,0-0.1
		c0,0-0.1,0.1-0.1,0.1c0,0,0,0.1,0,0.1c0.1,0.3-0.1,0.5-0.4,0.5c-0.1,0-0.1,0.2-0.1,0.3c0,0.6-0.2,1.2-0.3,1.8
		c-0.1,0.7-0.3,1.4-0.3,2.1c0,0.2-0.1,0.5-0.1,0.7c0,0.3,0,0.5-0.1,0.8c0,0.2,0.1,0.4,0.1,0.5c0,0.5,0,1-0.1,1.5
		c0,0.2-0.1,0.4-0.1,0.6c-0.1,0.8-0.2,1.6-0.4,2.4c-0.1,0.2-0.1,0.5-0.1,0.7c-0.1,0.4-0.2,0.8-0.3,1.2c-0.2,0.6-0.4,1.2-0.7,1.8
		c-0.1,0.3-0.3,0.6-0.3,0.9c-0.1,0.4-0.3,0.8-0.4,1.3c0,0.3-0.2,0.5-0.3,0.8c0,0.1-0.1,0.2-0.1,0.2c0,0.4-0.2,0.7-0.3,1
		c-0.2,0.4-0.4,0.8-0.6,1.2c-0.2,0.7-0.7,1.3-1.1,2c-0.3,0.5-0.8,0.7-1.4,0.8c-0.3,0.1-0.6-0.1-0.9-0.3c-0.6-0.5-1.1-1.1-1.4-1.8
		c-0.2-0.5-0.3-1-0.4-1.5c-0.1-0.5-0.2-0.9-0.2-1.4c-0.1-0.7-0.3-1.3-0.4-2c0-0.5-0.2-1-0.3-1.5c0,0,0-0.1,0-0.1c0-1-0.1-2-0.1-3
		c0-0.4,0-0.8,0.1-1.2c0.1-0.5,0.2-1.1,0.2-1.6c0-0.8,0.3-1.6,0.5-2.4c0.1-0.6,0.4-1.2,0.6-1.8c0.5-1.1,1-2.1,1.5-3.2
		c0.2-0.4,0.3-0.8,0.6-1.1c0,0,0-0.1,0-0.1c0,0-0.1,0-0.1,0c-0.3,0.3-0.6,0.6-0.9,0.9c-0.2,0.2-0.4,0.4-0.7,0.6c0,0-0.1,0.1-0.1,0.1
		c-0.5,0.6-1.1,1.1-1.5,1.8c-0.2,0.3-0.4,0.7-0.6,1.1c-0.2,0.5-0.4,1-0.6,1.4c-0.2,0.5-0.5,1.1-0.7,1.6c-0.3,0.6-0.7,1.2-1,1.9
		C6.5,69.6,6.2,70,6,70.4c0,0.1-0.1,0.1-0.1,0.2c-0.2,0.3-0.3,0.5-0.5,0.8c-0.3,0.4-0.6,0.8-1.1,1c-0.4,0.2-0.9,0.1-1.2-0.2
		c-0.4-0.4-0.7-0.8-0.9-1.4c-0.1-0.3-0.2-0.5-0.2-0.8c0-0.7,0-1.3,0-2c0-0.1,0-0.1,0-0.2c0-0.5,0-0.9,0.1-1.4
		c0.1-0.4,0.2-0.8,0.2-1.3c0,0,0-0.1,0-0.1c0-0.7,0.3-1.3,0.4-1.9c0.1-0.5,0.3-0.9,0.4-1.4c0.2-0.7,0.6-1.4,1-2.1
		c0.4-0.8,1-1.4,1.5-2.1c1-1.4,2.3-2.6,3.5-3.8c0.4-0.4,0.7-0.7,1.2-1c0.4-0.3,0.8-0.4,1.2-0.6c0.1-0.1,0.3-0.1,0.4-0.1
		c0.4-0.2,0.8-0.3,1.2-0.1c0.3,0.1,0.6,0,0.8,0.1c0,0,0.1,0,0.1-0.1c0-0.2-0.1-0.5-0.2-0.7c0,0-0.1-0.1-0.1-0.1
		c-0.4,0-0.6-0.1-0.9-0.4c-0.2-0.2-0.5-0.3-0.8-0.1c-0.2,0.1-0.3,0.2-0.5,0.3c-0.7,0.6-1.4,1.3-2.1,1.9c-0.1,0.1-0.3,0.2-0.5,0.4
		c-0.7,0.6-1.4,1.2-2.1,1.9c-0.6,0.7-1.3,1.3-1.9,2c-0.6,0.7-1.4,1.2-2.2,1.7c-0.3,0.2-0.7,0.3-1.1,0.4c-0.3,0.1-0.6,0.1-0.9,0
		c-0.4-0.1-0.7-0.3-0.8-0.7C0,58.2,0,57.7,0,57.3c0-0.5,0.1-1,0.4-1.4c0.2-0.3,0.2-0.7,0.3-1.1C1,54.3,1,53.6,1.4,53
		c0.2-0.5,0.5-0.9,0.8-1.3c0.3-0.4,0.7-0.7,1-1c0.2-0.2,0.4-0.3,0.6-0.5c0.4-0.4,0.9-0.7,1.3-1c0.3-0.2,0.6-0.5,0.9-0.7
		c0.4-0.3,0.9-0.6,1.3-0.8c0.6-0.3,1.1-0.7,1.7-1c0.4-0.2,0.7-0.4,1.1-0.4c0.5,0,1.1,0,1.6,0.2c0.1,0,0.2-0.1,0.2-0.1
		c0-0.1,0-0.2,0-0.3c-0.2-0.7-0.1-1.4-0.1-2.1c0-0.2,0.1-0.5,0.2-0.7c0.1-0.2,0.3-0.3,0.5-0.2c0.1,0,0.2,0,0.2-0.2
		c0.1-0.2,0.1-0.6,0.3-0.7c0.1-0.1,0.3-0.3,0.4-0.2c0.2,0.1,0.3,0.4,0.2,0.5c-0.2,0.2,0,0.4,0,0.6c0.1,0.3,0,0.5-0.3,0.5
		c-0.2,0-0.4,0.1-0.5-0.1c0-0.1-0.1-0.1-0.2-0.1c0,0.1,0,0.2,0,0.2c0.1,0.4,0.2,0.8,0.3,1.2c0,0,0,0,0,0.1c0,0,0.1-0.1,0.1-0.1
		c0-0.1,0-0.1,0-0.2c0-0.3,0.2-0.4,0.5-0.4c0.1,0,0.3-0.1,0.4-0.2c0.1-0.1,0.2-0.3,0.4-0.1c0.1,0,0.2,0,0.3,0
		c0.2-0.1,0.3-0.3,0.5-0.3c0.2,0,0.3-0.2,0.5-0.3c0.2-0.1,0.3-0.2,0.5-0.3c0.2-0.1,0.5-0.2,0.8-0.3c0.1,0,0.3,0.1,0.4,0.1
		c-0.1,0.1,0.2,0.2,0,0.3c-0.1,0.1-0.2,0.2-0.3,0.2c-0.2,0.2-0.5,0.4-0.6,0.6c-0.2,0.3-0.4,0.4-0.7,0.2c-0.4-0.2-0.4-0.2-0.8,0.1
		c-0.2,0.2-0.5,0.5-0.7,0.7c-0.2,0.2-0.2,0.4,0,0.6c0.1,0.1,0.3,0.2,0.2,0.3c-0.1,0.2-0.2,0.3-0.5,0.3c-0.1,0-0.2-0.1-0.3-0.1
		c-0.3-0.1-0.4-0.1-0.6,0.2c-0.1,0.2-0.2,0.4-0.3,0.6c0,0.1,0,0.1,0,0.2c0.2,0.4,0.4,0.8,0.8,1.1c0.1,0.1,0.2,0.2,0.4,0
		c0.1-0.1,0.2-0.1,0.3-0.1c0.3-0.1,0.3-0.1,0.5,0.2c0,0,0,0.1,0.1,0.1c0.3,0.3,0.3,0.6,0.4,1c0,0.1,0.1,0.2,0.1,0.4
		c0,0.1,0,0.3,0,0.4c-0.2,0.3,0,0.6,0.1,0.8c0,0.1,0.2,0.2,0.2,0.3c0,0.2,0.1,0.2,0.2,0.3c0,0,0.1,0,0.1,0.1
		c0.3,0.2,0.4,0.3,0.3,0.7c0,0.1-0.1,0.3-0.1,0.4c0,0.1,0,0.1,0.1,0.1c0.4-0.2,0.7-0.1,1,0.3c0,0,0.1,0,0.1,0c0,0,0.1-0.1,0-0.1
		c0-0.5,0.2-0.8,0.6-1c0.1,0,0.2-0.1,0.2-0.2c0.1-0.2,0.3-0.1,0.4-0.1c0.1,0,0.1,0.2,0.2,0.3c0.1,0.3,0,0.6-0.1,0.9
		c-0.1,0.2,0,0.4,0,0.5c0,0.3,0,0.7,0,1.1c0,0.2,0,0.4,0.1,0.7c0,0.1,0.1,0.2,0,0.4c-0.1,0.1-0.3,0.1-0.4,0.1c-0.3,0-0.3,0-0.4,0.2
		c-0.1,0.2-0.2,0.4-0.3,0.5c-0.4,0.4-0.9,0.8-1.4,1.2c-0.4,0.3-0.8,0.4-1.1,0.8c-0.1,0.2-0.4,0.3-0.6,0.5c-0.3,0.3-0.7,0.6-1,1
		c-0.2,0.2-0.3,0.6-0.4,0.9c-0.3,0.5-0.6,1.1-0.8,1.6c-0.3,0.5-0.5,1-0.7,1.5c-0.1,0.1-0.1,0.2-0.2,0.3C11.5,64.5,11.3,64.7,11.2,65
		 M22.4,62.7c0,0.7,0.2,1.4,0.2,2.1c0,0.2,0.1,0.4,0.1,0.6c0.1,0.5,0.2,0.9,0.3,1.4c0,0.3,0,0.5,0.1,0.7c0.2,0.6,0.4,1.1,0.6,1.7
		c0.2,0.7,0.5,1.3,0.7,1.9c0.2,0.6,0.4,1.1,0.7,1.7c0.3,0.6,0.7,1.2,1.1,1.9c0.2,0.3,0.4,0.6,0.6,0.8c0.1,0.1,0.2,0.2,0.3,0.3
		c0.2,0.4,0.5,0.8,1,1.1c0.2,0.1,0.3,0.3,0.5,0.5c0.2,0.3,0.5,0.5,0.7,0.8c0.2,0.2,0.4,0.3,0.6,0.5c0.1,0.1,0.3,0.1,0.4-0.1
		c0.3-0.4,0.6-0.9,0.9-1.3c0.5-0.6,0.5-1.3,0.3-2c-0.2-0.9-0.5-1.7-0.8-2.6c-0.2-0.7-0.4-1.3-0.5-2c0-0.2-0.1-0.4-0.1-0.6
		c-0.1-0.4-0.2-0.8-0.3-1.3c-0.2-0.8-0.4-1.6-0.6-2.4c-0.1-0.5-0.3-1-0.4-1.5c-0.2-0.6-0.3-1.3-0.5-1.9c-0.2-0.5-0.4-1-0.6-1.5
		c-0.3-0.7-0.4-1.5-0.8-2.2c-0.4-0.9-1-1.4-1.7-1.8c-0.4-0.2-0.7-0.4-1-0.7c-0.2-0.2-0.3-0.2-0.6-0.1C23.4,57,23.2,57.1,23,57
		c0,0-0.1,0-0.2,0c-0.2,0.2-0.4,0.4-0.5,0.6c-0.2,0.4-0.4,0.8-0.7,1.2c-0.2,0.2,0,0.4,0.1,0.6c0.4,0.5,0.4,1,0.5,1.5
		c0,0.2,0.1,0.3,0.1,0.5C22.3,61.8,22.3,62.2,22.4,62.7 M35.1,122.7c-0.2,0.4-0.5,0.8-0.5,1.3c0,0.2-0.1,0.5-0.2,0.7
		c-0.2,0.4-0.2,0.8-0.2,1.2c0,0.5,0,0.9,0,1.4c0,0.1,0,0.2,0.1,0.4c0.1,0.4,0.2,0.8,0.4,1.2c0,0.1,0,0.1,0.1,0.2
		c0.1,0,0.1-0.1,0.2-0.1c0.6-1,1.3-1.8,2-2.7c0.6-0.7,1.3-1.4,2-2c0.4-0.4,0.9-0.6,1.4-0.8c0.5-0.1,1.1-0.2,1.7-0.3
		c0.9-0.1,1.7-0.1,2.6-0.1c0.2,0,0.4,0,0.7-0.1c0.2,0,0.4-0.1,0.6-0.2c0.7-0.2,1.4-0.4,2-0.8c0.6-0.4,1.1-0.8,1.6-1.2
		c0.5-0.5,0.9-1.2,1.4-1.8c0.7-1.1,1.3-2.3,1.9-3.4c0.1-0.1,0.1-0.2-0.1-0.3c-0.7-0.2-1.3-0.5-2-0.8c-0.3-0.1-0.6-0.3-0.9-0.4
		c-0.4-0.1-0.8-0.3-1.3-0.2c-0.2-0.2-0.5-0.1-0.7,0c-0.3,0.2-0.5,0.3-0.9,0.4c-0.5,0.1-1,0.4-1.5,0.6c-0.6,0.3-1.1,0.6-1.6,1
		c-0.6,0.4-1.2,0.7-1.8,1c-0.4,0.3-0.9,0.5-1.3,0.8c-0.2,0.1-0.3,0.1-0.4,0c0,0-0.1,0-0.1,0c0,0,0,0.1,0,0.1c0.1,0.1,0,0.2-0.1,0.3
		c-0.2,0.1-0.3,0.2-0.5,0.3c-0.7,0.4-1.4,0.9-2.1,1.3c-0.5,0.2-0.8,0.6-1.2,0.9c-0.1,0.1-0.2,0.2-0.3,0.3c-0.4,0.4-0.6,1-0.9,1.5
		C35.2,122.4,35.2,122.5,35.1,122.7 M15.4,56c0.4-0.2,0.8-0.4,1.1-0.7c0.2-0.2,0.2-0.2,0-0.4c0,0,0-0.1-0.1-0.1
		c-0.2-0.3-0.3-0.6-0.3-1c-0.1-0.2-0.2-0.4,0-0.6c0,0,0,0,0-0.1c0,0,0,0-0.1,0c-0.1,0.1-0.2,0.3-0.3,0.3c-0.2,0-0.3,0-0.5,0
		c-0.2,0-0.3,0-0.4,0.2c0,0.1,0,0.3-0.1,0.5c-0.1,0.1-0.1,0.3-0.3,0.3c-0.2,0-0.3,0-0.4-0.2C14.1,54,14,53.8,14,53.6
		c0-0.2-0.1-0.4-0.3-0.4c-0.1-0.1-0.3-0.1-0.5-0.2c-0.1,0-0.3,0-0.4,0c-0.3,0.2-0.7,0.4-1.1,0.6c-0.7,0.4-1.3,0.9-1.9,1.5
		c-1.3,1.3-2.6,2.6-3.8,4c0,0-0.1,0.1-0.1,0.1c-0.4,0.7-0.9,1.2-1.2,1.9c-0.3,0.6-0.5,1.2-0.8,1.8c0,0,0,0.1,0,0.1
		c-0.1,0.5-0.2,1-0.3,1.4c0,0.3-0.2,0.6-0.2,0.9c0,0.7-0.2,1.5-0.3,2.2c-0.1,0.6-0.1,1.2-0.1,1.8c0,0.6,0.2,1,0.5,1.5
		c0.1,0.2,0.3,0.2,0.4,0c0.1-0.2,0.3-0.4,0.4-0.6c0.3-0.4,0.5-0.8,0.8-1.3c0.3-0.6,0.7-1.1,1-1.7c0.3-0.5,0.5-1.1,0.8-1.6
		c0.3-0.7,0.6-1.3,0.9-2c0.3-0.6,0.6-1.3,1.1-1.8c0.5-0.5,1-1,1.4-1.5c0.2-0.2,0.3-0.4,0.5-0.6c0,0,0.1-0.1,0.1-0.1
		c0.1-0.1,0.2-0.1,0.3-0.2c0.4-0.4,0.9-0.9,1.3-1.3c0.2-0.2,0.3-0.4,0.5-0.5c0.2-0.2,0.5-0.4,0.7-0.7c0.1-0.1,0.2-0.2,0.3-0.2
		C14.5,56.6,14.9,56.4,15.4,56 M36,52.3c-0.2-0.2-0.4-0.3-0.5-0.5c-0.2-0.2-0.3-0.4-0.5-0.6c-0.4-0.4-0.8-0.7-1.2-1
		c-0.3-0.3-0.7-0.5-1.1-0.7c-0.5-0.3-0.9-0.6-1.3-1c-0.1-0.1-0.2-0.2-0.3-0.3c-0.4-0.3-0.8-0.5-1.2-0.8c-0.5-0.3-1-0.5-1.4-0.8
		c-0.4-0.3-0.8-0.3-1.3,0.1c-0.2,0.2-0.5,0.4-0.7,0.6c-0.2,0.1-0.2,0.2,0,0.3c0.1,0.1,0.2,0.1,0.3,0.1c0.1,0,0.1,0.1,0.2,0.2
		C27,47.9,26.9,48,26.8,48c-0.2,0-0.3,0-0.5-0.1c-0.4-0.1-0.5,0-0.6,0.3c0,0.1,0,0.1,0,0.2c-0.1,0.3-0.2,0.5-0.5,0.6
		c-0.1,0-0.2,0-0.2,0.1c0,0.1,0,0.2,0,0.3c0,0.1,0.1,0.1,0.2,0.2c0.2,0.1,0.1,0.3,0.1,0.4c0,0.1-0.1,0.1-0.2,0.2
		c-0.1,0.1-0.1,0.2-0.1,0.2c0.2,0.3,0,0.5-0.2,0.7c-0.1,0-0.1,0.1-0.1,0.2c0.1,0,0.2,0,0.3,0c0.4-0.1,0.8-0.2,1.2-0.2
		c0.3,0,0.6,0,1,0.1c0.6,0.1,1.3,0.3,1.8,0.6c0.8,0.5,1.7,0.8,2.6,1.1c0.6,0.2,1.2,0.5,1.6,0.9c0.4,0.3,0.7,0.7,1,1.1
		c0.1,0.1,0.1,0.2,0.2,0.3c0.3,0.1,0.6,0.5,1,0.6c0.2,0,0.5,0.2,0.6,0.3c0.2,0.3,0.6,0.4,0.9,0.6c0.2,0.1,0.6,0,0.7-0.3
		c0.2-0.4,0.2-0.9,0.2-1.4c0-0.1-0.1-0.3-0.2-0.4c-0.2-0.3-0.4-0.6-0.5-0.8C36.6,53.3,36.4,52.8,36,52.3 M9.1,48.3
		c-0.5,0.2-0.9,0.5-1.4,0.7c-0.5,0.3-1,0.7-1.5,1c-0.3,0.2-0.6,0.5-0.9,0.7c-0.1,0.1-0.2,0.1-0.3,0.2c-0.2,0.1-0.3,0.2-0.5,0.4
		c-0.2,0.2-0.4,0.3-0.6,0.5c-0.3,0.3-0.5,0.6-0.7,0.9c-0.4,0.5-0.7,1-0.9,1.6c-0.2,0.5-0.3,1-0.5,1.6c-0.1,0.3,0,0.7-0.3,0.9
		c0,0,0,0,0,0c0,0.4-0.2,0.8-0.2,1.3c0,0.3,0,0.4,0.3,0.2c0.5-0.2,1-0.4,1.3-0.8C3.7,56.7,4.4,56,5,55.3c0.2-0.2,0.4-0.4,0.6-0.7
		c0.3-0.3,0.6-0.7,0.9-1c0.6-0.5,1.1-1,1.7-1.5c0.5-0.4,0.9-0.8,1.4-1.3c0.1-0.1,0.1-0.1,0.2-0.1c0,0,0.1-0.1,0.1-0.1
		c0,0-0.1-0.1-0.1-0.1c-0.2-0.1-0.3-0.1-0.5-0.2c-0.2-0.1-0.3-0.5-0.1-0.6c0.3-0.1,0.5-0.4,0.8-0.6c0.1,0,0.2-0.1,0.2-0.1
		c0.1,0,0.1,0.1,0.1,0.2c0,0.1,0.1,0.3,0,0.4c-0.1,0.2,0,0.3,0,0.4c0,0.2,0.1,0.2,0.2,0.1c0.4-0.4,0.8-0.5,1.3-0.5
		c0.1,0,0.1,0,0.2,0c0,0-0.1-0.1-0.1-0.1c-0.3-0.3-0.7-0.6-1-0.9c-0.3-0.3-0.5-0.5-0.8-0.8c-0.1-0.1-0.2-0.1-0.4,0
		C9.6,47.9,9.4,48.1,9.1,48.3 M58,108.7c0,0.6,0.1,1.2-0.1,1.8c0,0.1,0,0.1,0.1,0.2c0.1-0.1,0.2-0.1,0.2-0.2c0.1-0.3,0.2-0.7,0.4-1
		c0.2-0.6,0.4-1.2,0.7-1.8c0.2-0.5,0.4-1,0.6-1.5c0.1-0.2,0.1-0.5,0.3-0.7c0,0,0-0.1,0-0.1c0.2-0.7,0.5-1.4,0.6-2.1
		c0.1-0.4,0.2-0.9,0.2-1.3c0-0.5,0.2-0.9,0.3-1.3c0,0,0-0.1,0-0.1c0,0-0.1,0-0.1,0c-0.1,0.1-0.1,0.1-0.2,0.2
		c-0.3,0.3-0.4,0.8-0.5,1.2c-0.1,0.2-0.2,0.5-0.3,0.7c-0.3,0.6-0.5,1.1-0.8,1.6c-0.1,0.3-0.2,0.6-0.3,0.9c-0.2,0.5-0.3,1.1-0.4,1.6
		C58.2,107.4,58.1,108,58,108.7 M24.4,42.2c-0.3,0.2-0.7,0.2-1.1,0.1c-0.2,0-0.4,0-0.6,0c0,0.2,0.1,0.4,0.1,0.5c0,0,0,0,0,0
		c0.1,0.3,0.2,0.3,0.4,0.1c0,0,0.1-0.1,0.1-0.1c0.2-0.2,0.5-0.2,0.7,0c0.1,0.1,0.1,0.3,0.3,0.1c0,0,0.2-0.1,0.2,0.1
		c0,0,0.1,0.1,0.1,0.1c0-0.1,0-0.1,0-0.2C24.7,42.8,24.6,42.5,24.4,42.2 M56.1,113.4c-0.2,0.1-0.1,0.3-0.1,0.5
		c0.1,0.3,0.2,0.6,0.3,1c0,0.1,0,0.1,0.1,0.2c0-0.1,0.1-0.1,0.1-0.2c0-0.1,0-0.2,0-0.3C56.3,114.1,56.2,113.8,56.1,113.4 M14.4,58.2
		c0.2-0.1,0.4-0.3,0.6-0.4c0.2-0.1,0.4-0.2,0.5-0.4c0.1,0,0.1-0.1,0.1-0.2c-0.1,0-0.2,0-0.2,0.1c-0.4,0.3-0.8,0.6-1.1,0.8
		C14.3,58.1,14.4,58.2,14.4,58.2 M38.9,85.3C38.9,85.3,38.9,85.3,38.9,85.3c0-0.1,0-0.2-0.1-0.2c0,0,0,0.1,0,0.1
		C38.8,85.3,38.8,85.3,38.9,85.3 M29.3,78.7c0,0,0,0.1,0,0.1C29.4,78.8,29.4,78.7,29.3,78.7C29.4,78.7,29.4,78.7,29.3,78.7
		 M1.8,54.8C1.8,54.8,1.8,54.8,1.8,54.8C1.8,54.8,1.8,54.8,1.8,54.8 M23.4,56.2C23.4,56.2,23.4,56.3,23.4,56.2
		C23.4,56.3,23.4,56.3,23.4,56.2 M33.5,125.7C33.5,125.7,33.5,125.7,33.5,125.7C33.5,125.7,33.5,125.7,33.5,125.7z"/>
	<path d="M111.8,86c0.8-0.3,1.5-0.7,2.2-0.9c0.4-0.1,0.9-0.3,1.3-0.3c0.5-0.1,1-0.1,1.5-0.2c0.6-0.1,1.3-0.3,1.9-0.4
		c0.4-0.1,0.8-0.1,1.2,0c0.3,0,0.6,0.1,0.8,0.3c0.4,0.3,0.8,0.6,1,1c0,0,0,0.1,0,0.1c0.1,0.6,0.5,1.2,0.7,1.8
		c0.1,0.5,0.3,0.9,0.5,1.4c0.2,0.3,0.4,0.7,0.4,1.1c0.1,0.4,0.3,0.7,0.4,1c0.2,0.5,0.4,1.1,0.5,1.6c0.1,0.4,0.1,0.7,0.1,1
		c0,0.2-0.4,0.5-0.7,0.5c-0.1,0-0.5-0.3-0.5-0.4c0-0.2-0.1-0.3-0.3-0.3c-0.3-0.1-0.6-0.2-0.9-0.2c-0.6-0.1-1.3,0-1.9-0.3
		c0,0-0.1,0-0.1,0c-0.6,0-1.2,0-1.8-0.1c-0.6-0.1-1.2,0-1.8-0.1c-0.7-0.1-1.5,0-2.2-0.1c-0.7,0-1.4,0-2.1-0.1
		c-0.2,0-0.5-0.1-0.7-0.2c-0.2-0.1-0.2,0-0.2,0.1c0,0.2,0.1,0.4,0.2,0.6c0.1,0.3,0.1,0.6,0.2,0.9c0,0.1-0.1,0.2-0.2,0.3
		c0,0-0.2,0-0.2,0c-0.1,0-0.1-0.1-0.1-0.2c-0.1-0.6-0.6-1-0.9-1.5c-0.3-0.5-0.8-0.8-1.3-1.2c-0.5-0.4-1.1-0.6-1.7-0.8
		c-0.6-0.2-1.3-0.2-1.9-0.4c-0.4-0.1-0.9-0.2-1.2-0.5c-0.4-0.4-0.4-0.6-0.1-1c0.4-0.6,0.9-0.9,1.5-1.1c0.2-0.1,0.4-0.1,0.6-0.1
		c0.3,0,0.5-0.1,0.7-0.2c0.2-0.1,0.4-0.1,0.6-0.1c0.8,0,1.6,0.1,2.4,0.1c0.3,0,0.5-0.1,0.7-0.3C111,86.5,111.4,86.3,111.8,86
		 M122.1,89.6c-0.1-0.1-0.1-0.3-0.2-0.4c-0.5-0.8-0.8-1.7-1.2-2.5c-0.1-0.3-0.2-0.6-0.4-0.8c-0.3-0.4-0.6-0.7-1.1-0.7
		c-0.4,0-0.8,0.2-1.3,0.3c-0.4,0.1-0.7,0.2-1.1,0.3c-0.4,0-0.9,0.1-1.3,0.2c-0.6,0.1-1.1,0.2-1.6,0.5c-0.2,0.1-0.5,0.2-0.7,0.3
		c-0.2,0.1-0.3,0.2-0.5,0.3c-0.1,0.1-0.2,0.2,0,0.3c0.2,0.2,0.4,0.4,0.4,0.7c0,0.1,0,0.1,0,0.2c-0.1,0-0.1,0-0.2-0.1
		c-0.2-0.1-0.3-0.3-0.5-0.3c-0.4,0-0.7,0.1-1.1,0.1c0,0,0,0-0.1,0c-0.3,0.3-0.7,0.5-1,0.8c-0.1,0.1-0.1,0.1,0,0.3
		c0.1,0.3,0.3,0.6,0.5,0.8c0.3,0.3,0.6,0.5,0.8,0.8c0.6,0.7,1.4,0.9,2.2,1c0.8,0.1,1.7,0,2.5,0.1c0.6,0.1,1.3,0,1.9,0.1
		c0.6,0.1,1.2,0.1,1.8,0.1c0.4,0,0.9,0.1,1.3,0.1c0,0,0.1,0,0.1,0c0.5,0.1,1,0.2,1.5,0.2c0.2,0,0.2-0.1,0.1-0.2
		c-0.1-0.2-0.2-0.5-0.3-0.7C122.6,90.7,122.3,90.2,122.1,89.6 M107.4,88.4c0.1-0.3,0.1-0.3-0.2-0.3c-0.2,0-0.5,0.1-0.7,0.1
		c0,0-0.1,0.1-0.1,0.1c0,0,0,0.1,0.1,0.1c0.2,0.1,0.4,0.1,0.6,0.2C107.2,88.5,107.3,88.5,107.4,88.4 M108.3,88.8c0,0,0.1,0,0.1,0
		c0.1,0,0.1-0.1,0.1-0.1c0-0.1-0.1-0.2-0.2-0.2C108.2,88.6,108.2,88.7,108.3,88.8 M124,92.5c0,0,0.1,0,0.1,0c0,0,0,0,0-0.1
		C124.1,92.5,124.1,92.5,124,92.5z"/>
	<path d="M71.4,3.6c0.1,0,0.2,0,0.3,0c0.2,0.1,0.2,0.1,0.1,0.3c-0.2,0.3-0.4,0.6-0.4,0.9c0,0.2,0,0.3,0.1,0.5c0.1,0.1,0.1,0.3,0,0.3
		c-0.1,0-0.3,0-0.3,0c-0.2-0.2-0.2-0.1-0.3,0.1c0,0,0,0.1,0,0.1c0,0.4-0.2,0.5-0.5,0.4c-0.2-0.1-0.3,0-0.5,0.1
		c-0.3,0.3-0.6,0.5-1,0.4c-0.2,0-0.3,0.2-0.3,0.3c0,0.3-0.1,0.5-0.3,0.8c-0.1,0.1-0.1,0.3,0,0.5c0.2,0.3,0,0.5-0.4,0.5
		c-0.5,0-0.7-0.3-0.5-0.8c0-0.1,0.1-0.3,0.2-0.4c0-0.1,0.1-0.2,0.1-0.4c0,0-0.1-0.1-0.1-0.1c0,0-0.1,0-0.1,0.1
		c-0.1,0.3-0.2,0.5-0.3,0.8c-0.1,0.3-0.3,0.3-0.5,0.4c-0.1,0-0.3-0.1-0.4-0.2c0,0-0.1-0.1-0.1-0.2c0.1-0.4,0.1-0.8,0.3-1.2
		c0-0.1,0.2-0.3,0.3-0.4c0.3-0.2,0.4-0.4,0.4-0.7c0-0.1,0-0.3-0.1-0.3c-0.2,0-0.1,0.1-0.1,0.2c0,0,0,0,0.1,0.1
		c0.1,0.2,0,0.4-0.2,0.5c-0.1,0.1-0.3,0.1-0.5-0.1c-0.1-0.1-0.2-0.2-0.2-0.3C66,5.4,66,5,66.1,4.5c0-0.2,0.2-0.4,0.3-0.5
		c0.2-0.1,0.2-0.3,0.3-0.4C66.9,3.4,67,3.2,67.1,3c0.1-0.2,0.1-0.4,0.1-0.6C67.3,2.3,67.4,2,67.6,2c0.3,0,0.3,0.3,0.3,0.5
		c0,0.3,0.2,0.5,0,0.8c-0.1,0.1,0,0.4,0,0.4c0.1,0.3,0,0.5,0.1,0.8c0,0.2,0,0.5,0.1,0.7c0,0.1,0.2,0.2,0.4,0.2c0,0,0.1,0.1,0.1,0.1
		c0-0.1,0-0.1,0-0.2c0-0.5,0.5-1,0.9-1.1c0.4-0.1,0.7-0.3,1.1-0.2c0.1,0,0.2-0.1,0.3-0.1C71.1,3.8,71.2,3.7,71.4,3.6 M68.5,5.8
		c0,0-0.1,0.1-0.1,0.1c0,0,0,0,0,0.1C68.5,5.9,68.5,5.8,68.5,5.8z"/>
	<path d="M75.7,120c0.6-0.5,1.1-0.9,1.3-1.6c0-0.1,0.1-0.3,0.2-0.4c0.1-0.1,0.2-0.2,0.3-0.2c0.2,0,0.2,0.1,0.2,0.2
		c0,0.2-0.1,0.4-0.1,0.5c-0.1,0.9-0.5,1.7-1,2.4c-0.3,0.3-0.5,0.7-0.7,1.1c-0.2,0.2-0.3,0.5-0.5,0.7c0,0.1,0,0.2,0,0.3
		c0.1,0,0.2,0,0.2-0.1c0.2-0.4,0.6-0.4,1-0.4c0.2,0,0.3,0.3,0.2,0.4c-0.2,0.3-0.2,0.7-0.2,1.1c0,0.3,0,0.5-0.1,0.8
		c-0.1,0.4,0,0.8,0.1,1.1c0,0,0,0.1,0,0.1c0,0,0.1,0,0.1,0c0.1-0.1,0.1-0.2,0.2-0.3c0.1-0.1,0.3-0.1,0.3-0.1c0.1,0,0.2,0.2,0.1,0.3
		c-0.1,0.5-0.2,1-0.7,1.3c-0.3,0.2-0.6,0.2-0.8,0c-0.4-0.3-0.7-0.6-0.7-1.2c0-0.5-0.2-1-0.2-1.5c0-0.4,0-0.4-0.3-0.5
		c-0.5-0.2-0.6-0.6-0.7-1c-0.2-0.5,0-0.9,0.2-1.2C74.6,121.1,75.1,120.5,75.7,120z"/>
	<path d="M64.5,4.3c0.1-0.4,0.2-0.7,0.3-1c0-0.1,0.1-0.2,0.2-0.2c0.1,0.1,0.2,0.2,0.2,0.3c0,0.1,0,0.3,0,0.4c0,0.3,0.1,0.4,0.3,0.4
		c0.2,0,0.3,0.1,0.3,0.3c0,0.4,0,0.9-0.1,1.3c0,0.1-0.1,0.2-0.2,0.2c-0.1,0.1-0.2,0.2-0.2,0.4c0,0.2,0.2,0.2,0.3,0.2
		C65.9,6.7,66,6.8,66,7c0,0.3-0.1,0.5-0.2,0.7c-0.1,0.1-0.2,0.3-0.1,0.4c0.1,0.4,0.1,0.8-0.1,1.3c-0.1,0.2-0.1,0.5-0.1,0.7
		c0,0.2-0.1,0.4-0.4,0.4c-0.1,0-0.2,0-0.3,0.1c-0.2,0.3-0.5,0.2-0.8,0.2c-0.3,0-0.5-0.1-0.7-0.4c-0.1-0.1-0.2-0.2-0.3-0.1
		c-0.2,0.1-0.3,0-0.5-0.1c-0.4-0.2-0.6-0.5-0.7-0.9c-0.1-0.1-0.1-0.2,0-0.3C62,9,62.2,8.8,62.2,8.5c0-0.1,0.1-0.3,0.3-0.3
		c0.2,0.1,0.3,0.3,0.3,0.5c0,0.1-0.1,0.2-0.1,0.2c0,0.1-0.1,0.3,0.2,0.2c0.1,0,0.2,0,0.2,0c0.3,0.1,0.6,0.2,1,0.3c0.1,0,0.2,0,0.2,0
		c0.1,0,0.1-0.2,0.1-0.2c-0.2-0.2-0.1-0.4-0.1-0.6c0-0.8,0-1.7,0-2.5c0-0.5,0-1,0.2-1.5C64.5,4.5,64.5,4.4,64.5,4.3z"/>
	<path d="M69.5,47.8c-0.1,0.6-0.5,0.8-1,0.7c-0.2-0.1-0.2-0.2-0.2-0.4c0.1-0.4,0.1-0.8,0.3-1.2c0.3-0.6,0.5-1.2,0.7-1.8
		c0.3-0.8,0.7-1.7,1.1-2.5c0.2-0.5,0.6-0.7,1.1-0.7c0.4,0,0.5,0.2,0.3,0.6c-0.3,0.6-0.6,1.1-0.9,1.7c-0.4,0.9-0.8,1.9-1.2,2.8
		C69.8,47.3,69.7,47.5,69.5,47.8z"/>
	<path d="M20.9,53.6c-0.1,0.1-0.3,0.2-0.3,0.2c-0.2,0-0.5-0.1-0.6-0.3c-0.3-0.3-0.6-0.7-0.8-1.2c0-0.1-0.1-0.3-0.1-0.4
		c0-0.1,0-0.2,0-0.3c0.4-0.3,0.1-0.8,0.5-1.1c0.1-0.1,0.1-0.3,0.1-0.4c0-0.2,0.1-0.2,0.2-0.2c0.3,0,0.4,0.1,0.4,0.4
		c0,0.2,0.1,0.5,0.2,0.7c0,0,0.1,0.1,0.1,0.1c0,0,0-0.1,0.1-0.1c0.2-0.4,0.2-0.9,0.4-1.3c0-0.1,0.1-0.2,0.1-0.3
		c0.1-0.1,0.3-0.3,0.4-0.3c0.3,0.1,0.6,0.1,0.8,0.4c0.1,0.2,0.3,0.3,0,0.6c-0.1,0.1,0,0.4,0,0.6c0,0.5-0.2,0.6-0.6,0.5
		c-0.3-0.1-0.3-0.1-0.3,0.3c0,0.1,0,0.2,0,0.2c-0.1,0.1-0.1,0.3-0.3,0.3c-0.1,0-0.2,0-0.3,0c-0.2,0-0.3,0.2-0.2,0.3
		c0.1,0.3,0.2,0.6,0.3,1C20.9,53.3,20.9,53.4,20.9,53.6z"/>
	<path d="M62,66.8c-0.2-0.1-0.2-0.4-0.3-0.6c0-0.2,0.2-0.4,0.4-0.4c0,0,0,0,0.1,0c0.7-0.1,1,0.4,1.3,0.9c0.1,0.2,0.3,0.3,0.5,0.4
		c0.2,0,0.4,0.1,0.5,0.3c0.2,0.4,0.4,0.7,0.7,0.9c0.1,0.1,0.2,0.7,0.1,0.8c-0.1,0.2-0.6,0.3-0.8,0.2c-0.2-0.1-0.4-0.3-0.4-0.5
		c-0.1-0.2-0.3-0.4,0-0.6c0,0-0.1-0.1-0.1-0.1c-0.2-0.1-0.3-0.1-0.5-0.1c-0.1,0-0.2,0-0.2-0.1c-0.1-0.4-0.5-0.4-0.8-0.5
		C62.3,67.1,62.2,67,62,66.8z"/>
	<path d="M68.4,11.1c0,0.3,0,0.5,0,0.8c0,0.2-0.1,0.3-0.2,0.3c-0.4,0-0.6-0.1-0.8-0.4c-0.1-0.1-0.1-0.2-0.3-0.2
		c-0.1,0-0.3-0.1-0.4-0.2c-0.1-0.1-0.2-0.4-0.1-0.5c0.1-0.5,0.3-1,0.5-1.4c0-0.1,0.1-0.2,0.2-0.2c0.1-0.1,0.2-0.2,0.4,0
		c0.1,0.1,0.2,0.2,0.4,0.3c0.2,0.2,0.3,0.5,0.4,0.8C68.4,10.5,68.4,10.8,68.4,11.1z"/>
	<path d="M64.7,13.4c-0.2-0.1-0.3-0.2-0.4-0.4c0-0.1-0.1-0.2,0-0.3c0.3-0.4,0.6-0.8,0.9-1.2c0.1-0.1,0.1-0.2,0.1-0.3
		c0.1-0.3,0.4-0.5,0.7-0.5c0.2,0,0.3,0.1,0.3,0.3c-0.1,0.3-0.2,0.6-0.3,0.9c-0.1,0.3,0,0.4,0.3,0.5c0.2,0.1,0.3,0.2,0.1,0.3
		c-0.3,0.3-0.3,0.7-0.6,0.9c-0.2,0.2-0.3,0.3-0.5,0.2C65.1,13.8,64.9,13.6,64.7,13.4z"/>
	<path d="M106.9,97.7c-0.3,0.1-0.5,0.1-0.7-0.1c-0.1-0.1-0.2-0.6,0-0.7c0.4-0.3,0.8-0.5,1.2-0.7c0.5-0.3,0.9-0.1,1.4,0.1
		c0,0,0.1,0.1,0.1,0.2c0,0.2,0.1,0.5,0.1,0.7c0,0.3-0.3,0.6-0.6,0.6c-0.2,0-0.3-0.1-0.3-0.3c-0.1-0.1-0.2-0.2-0.3-0.1
		C107.4,97.6,107.2,97.7,106.9,97.7 M107.6,97.2c0-0.1,0-0.1,0-0.2c0,0-0.1,0-0.1,0C107.5,97.1,107.5,97.1,107.6,97.2z"/>
	<path d="M13.9,42.2c-0.1-0.6,0.2-1.2,0.7-1.4c0.1-0.1,0.3,0,0.5,0c0.1,0,0.1,0.1,0.2,0.2c0-0.1,0-0.2,0.1-0.3
		c0.1-0.2,0.2-0.3,0.3-0.4c0.2-0.2,0.4-0.1,0.6-0.1c0.1,0,0.2,0.1,0.1,0.3c-0.1,0.3-0.1,0.7-0.1,1c0,0.4-0.3,0.6-0.7,0.5
		c-0.2-0.1-0.4-0.2-0.5-0.5c0,0,0-0.1-0.1-0.1c0,0,0,0,0,0.1c0,0.2-0.1,0.4-0.1,0.5c0,0.3-0.2,0.5-0.4,0.5
		C14.4,42.6,14.1,42.4,13.9,42.2z"/>
	<path d="M70.3,6.7c0.2,0.1,0.3,0.2,0.2,0.4c0.1,0.4,0.3,0.7,0.4,1.1c0.1,0.1,0.1,0.2,0,0.3c-0.2,0.2-0.3,0.4-0.2,0.7
		c0.1,0.3,0,0.6,0,0.9c0,0.1-0.1,0.2-0.1,0.2c-0.4,0.2-0.8-0.2-0.8-0.6c0-0.3,0-0.5,0.1-0.7c0.2-0.4,0-0.8-0.1-1.1
		c-0.1-0.3,0-0.6,0.1-0.9C69.9,6.8,70.1,6.7,70.3,6.7z"/>
	<path d="M15.9,51.4c-0.2-0.5-0.3-0.9-0.3-1.4c0-0.3,0.3-0.5,0.3-0.8c0.1,0,0.3,0,0.4,0c0.4,0.2,0.5,0.5,0.4,1c0,0.1,0,0.2,0,0.3
		c0.1,0.2,0.2,0,0.3,0c0.1,0,0.2,0.1,0.3,0.1c0.1,0.3-0.1,0.6-0.3,0.8c-0.2,0.2-0.4,0.2-0.6,0.1C16.2,51.7,16.1,51.5,15.9,51.4z"/>
	<path d="M72.9,12.8c0.1-0.4,0.3-0.8,0.6-1.1c0.1-0.1,0.2-0.2,0.3-0.3c0.1-0.1,0.1-0.2,0.2-0.1c0.2,0.1,0.3,0.1,0.3,0.3
		c0,0.2,0,0.3,0,0.5c-0.1,0.5-0.3,0.9-0.5,1.3c0,0.1,0,0.2,0,0.3c0.2,0.2-0.1,0.4,0,0.6c0,0-0.1,0.1-0.1,0.1
		c-0.4,0.1-0.7-0.2-0.8-0.6C72.9,13.4,72.9,13.1,72.9,12.8z"/>
	<path d="M77.9,10.1c0.2-0.1,0.3-0.1,0.4-0.2c0.1,0,0.2,0,0.3,0.1c0.1,0.1,0.2,0.2,0.3,0.3c0.4,0.3,0.5,0.5,0.3,1
		c-0.1,0.2-0.1,0.4-0.1,0.6c0,0.3-0.2,0.3-0.5,0.3c-0.4-0.1-0.6-0.5-0.7-0.8c-0.1-0.3-0.2-0.5-0.2-0.9
		C77.6,10.3,77.7,10.2,77.9,10.1z"/>
	<path d="M69.4,3.1c-0.1,0.2-0.1,0.4-0.3,0.4c-0.3,0-0.5,0-0.6-0.2c0,0-0.1-0.1-0.1-0.1c0-0.5,0-1,0.2-1.5c0.2-0.4,0.4-0.6,0.8-0.5
		c0.2,0,0.4,0.2,0.3,0.4c-0.2,0.5-0.3,1-0.3,1.5C69.5,3,69.5,3,69.4,3.1z"/>
	<path d="M72,9.1c0.2,0,0.3,0,0.4-0.2c0.1-0.1,0.2-0.2,0.3-0.2C73,8.7,73.1,8.8,73,9c-0.1,0.4-0.3,0.8-0.5,1.2
		c-0.1,0.1-0.1,0.3-0.1,0.4c0,0.1,0,0.3-0.1,0.3c-0.2,0-0.4,0.1-0.5-0.1c-0.2-0.2-0.2-0.5-0.3-0.8c0-0.1,0-0.2,0-0.3
		C71.4,9.4,71.6,9.2,72,9.1z"/>
	<path d="M72.1,1.7c0.1-0.3,0.2-0.6,0.3-0.9c0.1-0.2,0.2-0.5,0.3-0.7C72.9,0,73.2,0,73.4,0c0.3,0.1,0.2,0.3,0.2,0.5
		c-0.2,0.4-0.1,0.9-0.3,1.3c-0.1,0.1-0.1,0.3-0.1,0.3c-0.2,0.1-0.4,0.1-0.5,0.1C72.2,2.2,72.2,2.1,72.1,1.7z"/>
	<path d="M75.4,3.4c-0.1-0.3,0.1-0.6,0.2-0.8C75.7,2.3,76,2,76.3,1.8c0.2-0.2,0.5-0.2,0.6,0C77,1.9,77,2.1,77,2.2
		c-0.2,0.3-0.1,0.7-0.3,1c-0.2,0.4-0.3,0.5-0.7,0.5C75.8,3.6,75.5,3.6,75.4,3.4z"/>
	<path d="M81.3,9.2c-0.2,0.3-0.4,0.5-0.7,0.4c-0.1,0-0.1,0-0.2,0c-0.3,0-0.5-0.2-0.4-0.6c0.1-0.4,0.3-0.8,0.5-1.2c0,0,0,0,0,0
		c0.1-0.1,0.2-0.3,0.5-0.3c0.2,0,0.3,0.2,0.3,0.5C81.3,8.3,81.3,8.7,81.3,9.2z"/>
	<path d="M59.4,68.1c0.2-0.2,0.4-0.1,0.6,0c0.2,0.1,0.1,0.3,0,0.4c-0.1,0.3-0.1,0.6-0.1,0.9c-0.1,0.3-0.5,0.6-0.8,0.5
		c-0.1-0.1-0.4,0-0.4-0.2c-0.1-0.2-0.2-0.4,0-0.6C58.9,68.7,59.1,68.3,59.4,68.1z"/>
	<path d="M73.1,9.4c0-0.1,0-0.1,0-0.2c0-0.1,0.1-0.3,0.1-0.4c0.2-0.1,0.5-0.1,0.7-0.2c0.2,0,0.3,0.1,0.3,0.3c0,0.4,0.1,0.8,0.1,1.2
		c0,0.2-0.1,0.2-0.2,0.3c-0.3,0.1-0.5,0-0.7-0.3C73.3,10,73.2,9.7,73.1,9.4z"/>
	<path d="M16,45.9c-0.2,0.3-0.5,0.4-0.8,0.3c-0.2-0.1-0.3-0.2-0.4-0.4c-0.1-0.5-0.1-0.7,0.4-0.9c0.2,0,0.3-0.1,0.5-0.2
		c0.1-0.1,0.2,0,0.3,0.1C16.3,45,16.3,45.5,16,45.9z"/>
	<path d="M19.9,46.2c-0.1,0-0.2,0.1-0.2,0.1c-0.2-0.1-0.4-0.2-0.6-0.3c-0.3-0.3-0.4-0.7-0.4-1.1c0,0,0-0.1,0-0.1
		c0.2-0.1,0.4-0.2,0.6-0.3c0.2,0,0.3,0.1,0.4,0.3c0.1,0.4,0.2,0.8,0.2,1.2C20.1,46.1,20,46.1,19.9,46.2z"/>
	<path d="M56.9,70.8c0.1,0.2,0.2,0.4,0.2,0.5c0,0.2-0.4,0.5-0.7,0.4c-0.2-0.1-0.3-0.2-0.5-0.4c-0.1-0.1-0.2-0.3,0-0.5
		c0.1-0.1,0-0.3,0-0.5c0-0.1,0.1-0.2,0.1-0.4c0-0.2,0.1-0.3,0.3-0.3c0.2,0,0.3,0.2,0.4,0.4C56.7,70.3,56.8,70.5,56.9,70.8z"/>
	<path d="M79.9,5.6c0.1-0.1,0.2-0.3,0.4-0.1c0.2,0.1,0.3,0.2,0.3,0.4c-0.1,0.3-0.1,0.7-0.3,1c-0.2,0.3-0.3,0.4-0.7,0.3
		c-0.2,0-0.3,0-0.5-0.1C79,6.9,79,6.8,79,6.6C79.3,6.3,79.6,6,79.9,5.6z"/>
	<path d="M70,12.9c-0.6-0.3-0.8-0.7-0.6-1.2c0-0.1,0.2-0.1,0.3-0.1c0.1,0.1,0.1,0.2,0.1,0.3c0.1,0.2,0.2,0.4,0.3,0.5
		c0.1,0.1,0.2,0.3,0.4,0.1c0.1-0.1,0.3,0.1,0.4,0c0,0,0.2,0.1,0.2,0.2c0.1,0.4-0.3,0.9-0.7,1c-0.2,0-0.3,0-0.3-0.2
		c-0.1-0.1,0-0.3,0-0.4c0,0,0,0,0.1-0.1c0-0.1,0-0.1,0-0.2C70.2,12.8,70.1,12.8,70,12.9z"/>
	<path d="M72.3,12.4c0,0.3,0,0.6-0.1,0.7c-0.2,0.3-0.2,0.6,0,0.9c0.1,0.1,0.1,0.3,0,0.3c-0.1,0.1-0.3,0.1-0.4,0
		c-0.1-0.1-0.2-0.2-0.3-0.3c-0.1-0.1,0-0.3,0-0.4c0-0.5,0.3-1,0.4-1.5c0-0.1,0.1-0.2,0.1-0.3c0-0.1,0.1-0.1,0.2-0.2
		c0.1,0.1,0.2,0.2,0.2,0.3C72.4,12.1,72.3,12.2,72.3,12.4z"/>
	<path d="M61.5,68c0.1,0.1,0.1,0.1,0.1,0.1c0.1,0.4-0.3,1.2-0.6,1.3c-0.2,0-0.5,0-0.7-0.2c-0.2-0.1-0.2-0.5-0.1-0.6
		c0.3-0.3,0.5-0.5,0.8-0.7C61.3,67.8,61.4,67.8,61.5,68z"/>
	<path d="M17.9,50.6c0-0.1,0-0.2-0.1-0.3c-0.1-0.2-0.2-0.4,0-0.5c0.1-0.1,0.3-0.1,0.5-0.1c0.4,0.1,0.7,0.3,0.7,0.8c0,0,0,0.1,0,0.1
		c0.2,0.2,0.1,0.5-0.1,0.7c-0.2,0.1-0.7-0.1-0.9-0.3C18,50.9,18,50.8,17.9,50.6z"/>
	<path d="M70.3,1.8c0.2-0.4,0.3-0.7,0.5-1c0.1-0.2,0.3-0.4,0.6-0.3c0.2,0,0.2,0.1,0.2,0.3c-0.1,0.5-0.2,0.9-0.3,1.3
		c0,0.1-0.1,0.2-0.1,0.2c-0.2,0-0.4,0.1-0.7,0C70.3,2.2,70.3,2,70.3,1.8z"/>
	<path d="M57.2,70.2C57.1,70,57,69.8,57,69.7c0.1-0.3,0.2-0.5,0.3-0.8c0.1-0.2,0.4-0.4,0.7-0.3c0.1,0,0.2,0.1,0.2,0.2
		c0.1,0.4-0.1,0.8-0.2,1.2c0,0.1-0.1,0.2-0.3,0.2C57.6,70.2,57.4,70.2,57.2,70.2z"/>
	<path d="M68.4,13.1c-0.1,0.3-0.1,0.6,0.1,0.9c0.1,0.1,0,0.2,0,0.3c0,0.1-0.1,0.2-0.1,0.2c-0.2,0.1-0.9-0.1-1-0.3
		c-0.1-0.1-0.1-0.2-0.1-0.4c0-0.1,0.1-0.2,0.1-0.2c0.3-0.1,0.4-0.3,0.6-0.6c0.1-0.1,0.2-0.1,0.3-0.2C68.3,12.8,68.4,12.9,68.4,13.1z
		"/>
	<path d="M73.9,1.7c0.1-0.3,0.3-0.5,0.4-0.8c0-0.1,0.2-0.1,0.3-0.1c0.1,0,0.3,0.1,0.3,0.3c0,0.2,0,0.5-0.1,0.7c0,0.1,0,0.1,0,0.2
		c0,0.5-0.1,0.5-0.6,0.5c-0.2,0-0.4-0.1-0.5-0.2C73.7,2.1,73.7,1.9,73.9,1.7z"/>
	<path d="M62.4,67.9c0.4,0,0.8,0,1.1,0.4c0.1,0.1,0.1,0.5,0,0.6c0,0,0,0-0.1,0c-0.5,0-0.9,0-1.3-0.3C62,68.4,62.1,68.1,62.4,67.9z"
		/>
	<path d="M20.3,45.9c0.2-0.2,0.3-0.3,0.5-0.4c0.1-0.1,0.2-0.1,0.3-0.1c0.1,0,0.1,0.2,0.1,0.2c0.1,0.3,0.1,0.5,0.2,0.8
		c0,0.1,0,0.3-0.1,0.3C21.3,46.9,21,47,21,46.9C20.7,46.6,20.3,46.4,20.3,45.9z"/>
	<path d="M21.7,53.3c0.1,0,0.2,0.1,0.2,0.1c0.5,0,0.7,0.2,0.6,0.6c-0.1,0.3-0.4,0.5-0.8,0.3c-0.1,0-0.2-0.1-0.3-0.1
		c-0.3-0.1-0.4-0.2-0.3-0.6c0-0.2,0.2-0.3,0.4-0.3C21.5,53.2,21.6,53.2,21.7,53.3z"/>
	<path d="M14.1,46.7c0.1-0.2,0.3-0.3,0.4-0.4c0.1-0.1,0.2-0.2,0.2-0.2c0.1,0.1,0.3,0.1,0.4,0.3c0.1,0.2,0.2,0.4,0.1,0.6
		c0,0.1,0,0.1,0,0.2c0,0.3-0.2,0.5-0.5,0.3C14.4,47.4,14.2,47.2,14.1,46.7z"/>
	<path d="M78.8,6.4c-0.1,0-0.2,0-0.3,0c-0.3,0-0.5-0.2-0.5-0.4c0,0,0-0.1,0-0.1c0.2-0.2,0.3-0.4,0.6-0.6c0.1-0.1,0.4,0,0.5,0
		c0,0,0.1,0.1,0.1,0.2C79.4,5.8,79.3,6.1,78.8,6.4z"/>
	<path d="M77.2,4c0.3-0.3,0.5-0.4,0.9-0.4c0.2,0,0.3,0.1,0.3,0.3c0,0.1-0.1,0.3-0.1,0.4c0,0.1-0.1,0.1-0.1,0.2
		c-0.1,0.1-0.1,0.3-0.3,0.3c-0.3,0-0.5-0.1-0.7-0.3c0,0,0-0.2,0-0.3C77,4.2,77,4.1,77.2,4z"/>
	<path d="M17.8,47.1c-0.1,0-0.3,0-0.4-0.1c-0.3-0.1-0.4-0.5-0.1-0.7c0.2-0.1,0.4-0.2,0.6-0.3c0.1,0,0.2,0,0.3,0.1
		c0.1,0.2,0.3,0.4,0.2,0.6C18.5,46.9,18.1,47.1,17.8,47.1 M18.2,46.3C18.1,46.3,18.1,46.3,18.2,46.3C18.1,46.3,18.1,46.3,18.2,46.3
		c0,0.2,0.1,0.2,0.1,0.3c0,0,0.1,0,0,0C18.3,46.5,18.3,46.4,18.2,46.3C18.2,46.3,18.2,46.3,18.2,46.3z"/>
	<path d="M64.4,69.7c0.4,0.2,0.5,0.6,0.1,0.8c-0.1,0.1-0.3,0.1-0.5,0c-0.4-0.1-0.7-0.4-0.6-0.7c0-0.2,0.1-0.2,0.2-0.2
		C63.9,69.6,64.1,69.5,64.4,69.7z"/>
	<path d="M72.4,123.5c0-0.3,0-0.5,0-0.7c0-0.1,0.1-0.2,0.2-0.2c0.1-0.1,0.1,0.1,0.2,0.2c0.1,0.1,0.1,0.3,0.1,0.5
		c0.1,0.2,0.2,0.2,0.4,0.2c0.1,0,0.2-0.1,0.2-0.1c0.1,0.1,0.1,0.3,0.1,0.4c0,0.1-0.1,0.2-0.2,0.2C73.2,124.1,72.6,123.9,72.4,123.5z
		"/>
	<path d="M68.6,11.8c0-0.1,0.1-0.1,0.1-0.1c0.1-0.2,0.3-0.2,0.4-0.1c0.1,0.1,0.2,0.2,0.1,0.4c-0.1,0.1,0,0.3,0,0.5
		c0,0.1,0,0.1,0,0.2c0,0.1,0,0.3-0.1,0.3c-0.2,0-0.3,0-0.5-0.1c-0.3-0.1-0.2-0.4-0.2-0.7C68.5,12.1,68.6,12,68.6,11.8z"/>
	<path d="M72.2,7.1c-0.1,0-0.2,0.1-0.3,0.1c-0.2,0-0.3-0.3-0.2-0.5c0.1-0.2,0.2-0.4,0.3-0.5c0.1-0.1,0.2-0.1,0.4,0
		c0.1,0.1,0.2,0.2,0.2,0.3C72.4,6.7,72.4,6.9,72.2,7.1z"/>
	<path d="M108.4,93.9c-0.1-0.2,0-0.3,0.1-0.2c0.1,0,0.1,0.1,0.2,0.1c0,0,0,0.1-0.1,0.2C108.6,93.9,108.5,93.9,108.4,93.9z"/>
	<path d="M19.5,53.6c-0.2,0-0.1-0.2-0.1-0.2c0,0,0,0,0.1,0C19.5,53.4,19.5,53.5,19.5,53.6z"/>
	<path d="M17.5,75.2c0,0,0-0.1-0.1-0.1c0,0,0,0,0.1,0C17.5,75.1,17.5,75.1,17.5,75.2z"/>
	<path d="M19.1,55c0,0,0-0.1-0.1-0.1c0,0,0,0,0.1,0C19.1,54.9,19.1,54.9,19.1,55z"/>
	<path d="M19.3,55.3C19.3,55.3,19.3,55.3,19.3,55.3C19.3,55.3,19.3,55.3,19.3,55.3z"/>
	<path d="M59.7,80c0,0.1,0,0.1,0,0.1c0,0-0.1,0.1-0.1,0.1c0,0,0-0.1,0-0.1C59.5,80.1,59.6,80.1,59.7,80z"/>
	<path d="M56.5,77.6C56.6,77.6,56.6,77.6,56.5,77.6C56.6,77.6,56.5,77.6,56.5,77.6z"/>
	<path d="M52,76.7C52,76.7,52,76.7,52,76.7C52,76.7,52,76.7,52,76.7z"/>
	<path d="M23.4,67.7C23.4,67.7,23.4,67.7,23.4,67.7C23.4,67.7,23.4,67.7,23.4,67.7z"/>
	<path d="M11,54.7c-0.1-0.1,0-0.1,0-0.2c0,0,0,0,0.1,0C11.1,54.6,11.1,54.6,11,54.7z"/>
	<path d="M25.3,50.8c0,0.1,0,0.1,0,0.1c0,0-0.1,0-0.1,0C25.2,50.9,25.2,50.8,25.3,50.8z"/>
	<path d="M25.4,49.4c0,0,0-0.1-0.1-0.1c0,0,0,0,0.1,0C25.4,49.3,25.4,49.3,25.4,49.4z"/>
	<path d="M23.1,42.6C23.1,42.7,23,42.7,23.1,42.6C23,42.7,23,42.6,23.1,42.6z"/>
</g>
</svg>
